<svg width="114" height="34" viewBox="0 0 114 34" fill="none" xmlns="http://www.w3.org/2000/svg" xmlns:xlink="http://www.w3.org/1999/xlink">
<path d="M73.668,16.485L83.02,13.531L90.896,21.407L100.741,14.516L111.079,16.485L106.648,30.76L90.896,25.837L82.036,30.76L72.683,29.283L73.668,16.485Z" fill="#F1A501"/>
<path d="M0.735,22.947L0.735,20.819L6.759,19.732L6.759,22.675C6.789,24.276 7.196,25.483 7.981,26.298C8.796,27.083 9.868,27.476 11.197,27.476C12.495,27.476 13.521,27.053 14.276,26.208C15.061,25.362 15.454,24.23 15.454,22.811L15.454,0.621L21.703,0.621L21.703,22.811C21.703,25.77 20.722,28.276 18.76,30.329C16.797,32.382 14.291,33.408 11.242,33.408C8.072,33.408 5.521,32.457 3.588,30.555C1.686,28.623 0.735,26.087 0.735,22.947Z" fill="#000000"/>
<path d="M23.139,26.661C23.139,24.759 23.758,23.234 24.996,22.087C26.234,20.939 27.834,20.215 29.797,19.913L35.276,19.098C36.393,18.947 36.952,18.418 36.952,17.513C36.952,16.667 36.62,15.973 35.956,15.43C35.322,14.886 34.401,14.614 33.193,14.614C31.925,14.614 30.914,14.962 30.159,15.656C29.434,16.35 29.027,17.211 28.936,18.237L23.592,17.105C23.804,15.173 24.755,13.467 26.445,11.988C28.136,10.508 30.37,9.769 33.148,9.769C36.469,9.769 38.914,10.569 40.484,12.169C42.054,13.739 42.839,15.762 42.839,18.237L42.839,29.197C42.839,30.525 42.93,31.703 43.111,32.729L37.586,32.729C37.435,32.065 37.359,31.174 37.359,30.057C35.94,32.261 33.752,33.363 30.793,33.363C28.498,33.363 26.642,32.699 25.223,31.371C23.834,30.042 23.139,28.472 23.139,26.661ZM32.061,28.88C33.48,28.88 34.642,28.487 35.548,27.702C36.484,26.887 36.952,25.559 36.952,23.717L36.952,22.721L31.925,23.491C30.083,23.762 29.163,24.698 29.163,26.298C29.163,27.023 29.419,27.642 29.932,28.155C30.446,28.638 31.155,28.88 32.061,28.88Z" fill="#000000"/>
<path d="M66.439,-0.059L66.439,28.699C66.439,30.178 66.499,31.522 66.62,32.729L60.868,32.729C60.717,31.974 60.642,31.114 60.642,30.148C60.129,31.084 59.314,31.839 58.196,32.412C57.11,32.986 55.842,33.273 54.392,33.273C51.222,33.273 48.611,32.171 46.558,29.967C44.535,27.733 43.523,24.925 43.523,21.543C43.523,18.252 44.52,15.49 46.512,13.256C48.535,11.022 51.101,9.905 54.211,9.905C57.411,9.905 59.51,10.825 60.506,12.667L60.506,-0.059L66.439,-0.059ZM49.592,21.543C49.592,23.506 50.105,25.061 51.132,26.208C52.158,27.325 53.487,27.883 55.117,27.883C56.717,27.883 58.03,27.31 59.057,26.163C60.083,25.015 60.597,23.46 60.597,21.498C60.597,19.566 60.083,18.056 59.057,16.969C58.03,15.852 56.717,15.294 55.117,15.294C53.517,15.294 52.188,15.852 51.132,16.969C50.105,18.086 49.592,19.611 49.592,21.543Z" fill="#000000"/>
<path d="M75.328,26.253C76.445,27.37 77.788,27.929 79.358,27.929C80.928,27.929 82.257,27.37 83.343,26.253C84.461,25.136 85.019,23.581 85.019,21.589C85.019,19.596 84.461,18.041 83.343,16.924C82.257,15.807 80.928,15.248 79.358,15.248C77.788,15.248 76.445,15.807 75.328,16.924C74.241,18.041 73.697,19.596 73.697,21.589C73.697,23.581 74.241,25.136 75.328,26.253ZM70.98,13.12C73.214,10.886 76.007,9.769 79.358,9.769C82.709,9.769 85.487,10.886 87.691,13.12C89.925,15.354 91.042,18.177 91.042,21.589C91.042,25 89.925,27.823 87.691,30.057C85.487,32.291 82.709,33.408 79.358,33.408C76.007,33.408 73.214,32.291 70.98,30.057C68.776,27.823 67.674,25 67.674,21.589C67.674,18.177 68.776,15.354 70.98,13.12Z" fill="#000000"/>
<path d="M98.152,26.253C99.269,27.37 100.612,27.929 102.182,27.929C103.752,27.929 105.08,27.37 106.167,26.253C107.284,25.136 107.843,23.581 107.843,21.589C107.843,19.596 107.284,18.041 106.167,16.924C105.08,15.807 103.752,15.248 102.182,15.248C100.612,15.248 99.269,15.807 98.152,16.924C97.065,18.041 96.521,19.596 96.521,21.589C96.521,23.581 97.065,25.136 98.152,26.253ZM93.804,13.12C96.038,10.886 98.831,9.769 102.182,9.769C105.533,9.769 108.311,10.886 110.515,13.12C112.749,15.354 113.866,18.177 113.866,21.589C113.866,25 112.749,27.823 110.515,30.057C108.311,32.291 105.533,33.408 102.182,33.408C98.831,33.408 96.038,32.291 93.804,30.057C91.6,27.823 90.498,25 90.498,21.589C90.498,18.177 91.6,15.354 93.804,13.12Z" fill="#000000"/>
</svg>
