<svg width="208" height="62" viewBox="0 0 208 62" fill="none" xmlns="http://www.w3.org/2000/svg" xmlns:xlink="http://www.w3.org/1999/xlink">
<path d="M134.026,30.213L151.172,24.799L165.61,39.237L183.658,26.603L202.608,30.213L194.486,56.382L165.61,47.358L149.367,56.382L132.222,53.675L134.026,30.213Z" fill="#F1A501"/>
<path d="M0.329,42.059L0.329,38.157L11.37,36.165L11.37,41.561C11.426,44.495 12.173,46.709 13.612,48.203C15.106,49.642 17.071,50.361 19.506,50.361C21.886,50.361 23.768,49.587 25.152,48.037C26.591,46.487 27.31,44.412 27.31,41.81L27.31,1.131L38.767,1.131L38.767,41.81C38.767,47.234 36.968,51.828 33.371,55.592C29.773,59.355 25.179,61.237 19.589,61.237C13.778,61.237 9.101,59.494 5.559,56.007C2.072,52.465 0.329,47.815 0.329,42.059Z" fill="#000000"/>
<path d="M41.4,48.867C41.4,45.38 42.534,42.585 44.803,40.482C47.073,38.379 50.006,37.051 53.603,36.497L63.649,35.003C65.697,34.726 66.721,33.757 66.721,32.097C66.721,30.547 66.112,29.274 64.894,28.278C63.732,27.282 62.044,26.784 59.83,26.784C57.505,26.784 55.651,27.42 54.268,28.693C52.939,29.966 52.192,31.544 52.026,33.425L42.23,31.35C42.617,27.808 44.361,24.681 47.46,21.969C50.559,19.257 54.655,17.901 59.747,17.901C65.835,17.901 70.318,19.367 73.196,22.301C76.074,25.179 77.513,28.887 77.513,33.425L77.513,53.516C77.513,55.951 77.679,58.11 78.011,59.992L67.883,59.992C67.606,58.774 67.468,57.141 67.468,55.093C64.866,59.134 60.854,61.154 55.43,61.154C51.224,61.154 47.82,59.936 45.218,57.501C42.673,55.066 41.4,52.188 41.4,48.867ZM57.754,52.935C60.356,52.935 62.487,52.215 64.147,50.776C65.863,49.282 66.721,46.847 66.721,43.471L66.721,41.644L57.505,43.056C54.129,43.554 52.441,45.269 52.441,48.203C52.441,49.531 52.912,50.666 53.853,51.607C54.793,52.492 56.094,52.935 57.754,52.935Z" fill="#000000"/>
<path d="M120.775,-0.115L120.775,52.603C120.775,55.315 120.886,57.778 121.108,59.992L110.564,59.992C110.287,58.608 110.149,57.031 110.149,55.26C109.208,56.975 107.714,58.359 105.666,59.411C103.673,60.462 101.349,60.988 98.692,60.988C92.881,60.988 88.093,58.968 84.33,54.927C80.622,50.832 78.767,45.685 78.767,39.486C78.767,33.453 80.594,28.389 84.247,24.293C87.955,20.198 92.659,18.15 98.36,18.15C104.227,18.15 108.073,19.838 109.9,23.214L109.9,-0.115L120.775,-0.115ZM89.892,39.486C89.892,43.083 90.833,45.934 92.715,48.037C94.597,50.085 97.032,51.109 100.021,51.109C102.954,51.109 105.361,50.057 107.243,47.954C109.125,45.851 110.066,43 110.066,39.403C110.066,35.861 109.125,33.093 107.243,31.101C105.361,29.053 102.954,28.029 100.021,28.029C97.087,28.029 94.652,29.053 92.715,31.101C90.833,33.149 89.892,35.944 89.892,39.486Z" fill="#000000"/>
<path d="M137.071,48.12C139.118,50.168 141.581,51.192 144.459,51.192C147.337,51.192 149.773,50.168 151.765,48.12C153.813,46.072 154.837,43.222 154.837,39.569C154.837,35.916 153.813,33.066 151.765,31.018C149.773,28.97 147.337,27.946 144.459,27.946C141.581,27.946 139.118,28.97 137.071,31.018C135.078,33.066 134.082,35.916 134.082,39.569C134.082,43.222 135.078,46.072 137.071,48.12ZM129.101,24.044C133.196,19.948 138.316,17.901 144.459,17.901C150.603,17.901 155.695,19.948 159.735,24.044C163.831,28.14 165.878,33.315 165.878,39.569C165.878,45.823 163.831,50.998 159.735,55.093C155.695,59.189 150.603,61.237 144.459,61.237C138.316,61.237 133.196,59.189 129.101,55.093C125.06,50.998 123.04,45.823 123.04,39.569C123.04,33.315 125.06,28.14 129.101,24.044Z" fill="#000000"/>
<path d="M178.911,48.12C180.959,50.168 183.422,51.192 186.3,51.192C189.178,51.192 191.613,50.168 193.606,48.12C195.654,46.072 196.677,43.222 196.677,39.569C196.677,35.916 195.654,33.066 193.606,31.018C191.613,28.97 189.178,27.946 186.3,27.946C183.422,27.946 180.959,28.97 178.911,31.018C176.919,33.066 175.923,35.916 175.923,39.569C175.923,43.222 176.919,46.072 178.911,48.12ZM170.941,24.044C175.037,19.948 180.157,17.901 186.3,17.901C192.444,17.901 197.535,19.948 201.575,24.044C205.671,28.14 207.719,33.315 207.719,39.569C207.719,45.823 205.671,50.998 201.575,55.093C197.535,59.189 192.444,61.237 186.3,61.237C180.157,61.237 175.037,59.189 170.941,55.093C166.901,50.998 164.881,45.823 164.881,39.569C164.881,33.315 166.901,28.14 170.941,24.044Z" fill="#000000"/>
</svg>
