<svg width="230" height="68" viewBox="0 0 230 68" fill="none" xmlns="http://www.w3.org/2000/svg" xmlns:xlink="http://www.w3.org/1999/xlink">
<path d="M148,33L167,27L183,43L203,29L224,33L215,62L183,52L165,62L146,59L148,33Z" fill="#F1A501"/>
<path d="M-0.16,46.128L-0.16,41.804L12.076,39.596L12.076,45.576C12.137,48.827 12.965,51.28 14.56,52.936C16.216,54.531 18.393,55.328 21.092,55.328C23.729,55.328 25.814,54.469 27.348,52.752C28.942,51.035 29.74,48.735 29.74,45.852L29.74,0.772L42.436,0.772L42.436,45.852C42.436,51.863 40.442,56.953 36.456,61.124C32.469,65.295 27.378,67.38 21.184,67.38C14.744,67.38 9.561,65.448 5.636,61.584C1.772,57.659 -0.16,52.507 -0.16,46.128Z" fill="#000000"/>
<path d="M45.353,53.672C45.353,49.808 46.611,46.711 49.125,44.38C51.64,42.049 54.891,40.577 58.877,39.964L70.009,38.308C72.279,38.001 73.413,36.928 73.413,35.088C73.413,33.371 72.739,31.96 71.389,30.856C70.101,29.752 68.231,29.2 65.777,29.2C63.201,29.2 61.147,29.905 59.613,31.316C58.141,32.727 57.313,34.475 57.129,36.56L46.273,34.26C46.703,30.335 48.635,26.869 52.069,23.864C55.504,20.859 60.043,19.356 65.685,19.356C72.432,19.356 77.4,20.981 80.589,24.232C83.779,27.421 85.373,31.531 85.373,36.56L85.373,58.824C85.373,61.523 85.557,63.915 85.925,66L74.701,66C74.395,64.651 74.241,62.841 74.241,60.572C71.359,65.049 66.912,67.288 60.901,67.288C56.24,67.288 52.468,65.939 49.585,63.24C46.764,60.541 45.353,57.352 45.353,53.672ZM63.477,58.18C66.36,58.18 68.721,57.383 70.561,55.788C72.463,54.132 73.413,51.433 73.413,47.692L73.413,45.668L63.201,47.232C59.46,47.784 57.589,49.685 57.589,52.936C57.589,54.408 58.111,55.665 59.153,56.708C60.196,57.689 61.637,58.18 63.477,58.18Z" fill="#000000"/>
<path d="M133.315,-0.608L133.315,57.812C133.315,60.817 133.438,63.547 133.683,66L121.999,66C121.693,64.467 121.539,62.719 121.539,60.756C120.497,62.657 118.841,64.191 116.571,65.356C114.363,66.521 111.787,67.104 108.843,67.104C102.403,67.104 97.098,64.865 92.927,60.388C88.818,55.849 86.763,50.145 86.763,43.276C86.763,36.591 88.787,30.979 92.835,26.44C96.945,21.901 102.158,19.632 108.475,19.632C114.977,19.632 119.239,21.503 121.263,25.244L121.263,-0.608L133.315,-0.608ZM99.091,43.276C99.091,47.263 100.134,50.421 102.219,52.752C104.305,55.021 107.003,56.156 110.315,56.156C113.566,56.156 116.234,54.991 118.319,52.66C120.405,50.329 121.447,47.171 121.447,43.184C121.447,39.259 120.405,36.192 118.319,33.984C116.234,31.715 113.566,30.58 110.315,30.58C107.065,30.58 104.366,31.715 102.219,33.984C100.134,36.253 99.091,39.351 99.091,43.276Z" fill="#000000"/>
<path d="M151.373,52.844C153.642,55.113 156.372,56.248 159.561,56.248C162.75,56.248 165.449,55.113 167.657,52.844C169.926,50.575 171.061,47.416 171.061,43.368C171.061,39.32 169.926,36.161 167.657,33.892C165.449,31.623 162.75,30.488 159.561,30.488C156.372,30.488 153.642,31.623 151.373,33.892C149.165,36.161 148.061,39.32 148.061,43.368C148.061,47.416 149.165,50.575 151.373,52.844ZM142.541,26.164C147.08,21.625 152.753,19.356 159.561,19.356C166.369,19.356 172.012,21.625 176.489,26.164C181.028,30.703 183.297,36.437 183.297,43.368C183.297,50.299 181.028,56.033 176.489,60.572C172.012,65.111 166.369,67.38 159.561,67.38C152.753,67.38 147.08,65.111 142.541,60.572C138.064,56.033 135.825,50.299 135.825,43.368C135.825,36.437 138.064,30.703 142.541,26.164Z" fill="#000000"/>
<path d="M197.74,52.844C200.01,55.113 202.738,56.248 205.928,56.248C209.118,56.248 211.816,55.113 214.024,52.844C216.294,50.575 217.428,47.416 217.428,43.368C217.428,39.32 216.294,36.161 214.024,33.892C211.816,31.623 209.118,30.488 205.928,30.488C202.738,30.488 200.01,31.623 197.74,33.892C195.532,36.161 194.428,39.32 194.428,43.368C194.428,47.416 195.532,50.575 197.74,52.844ZM188.908,26.164C193.446,21.625 199.12,19.356 205.928,19.356C212.736,19.356 218.378,21.625 222.856,26.164C227.394,30.703 229.664,36.437 229.664,43.368C229.664,50.299 227.394,56.033 222.856,60.572C218.378,65.111 212.736,67.38 205.928,67.38C199.12,67.38 193.446,65.111 188.908,60.572C184.43,56.033 182.192,50.299 182.192,43.368C182.192,36.437 184.43,30.703 188.908,26.164Z" fill="#000000"/>
</svg>
