<svg width="96" height="250" viewBox="0 0 96 250" fill="none" xmlns="http://www.w3.org/2000/svg" xmlns:xlink="http://www.w3.org/1999/xlink">
<path d="M30.795,64.437L31.051,64.857L31.109,64.822L31.156,64.772L30.795,64.437ZM27.337,44L27.142,43.547L27.129,43.553L27.337,44ZM76.75,53.432L76.292,53.613L76.296,53.621L76.75,53.432ZM53.526,95.354L53.333,94.901L53.328,94.903L53.526,95.354ZM16.466,75.441L16.251,74.998L16.177,75.034L16.119,75.091L16.466,75.441ZM64.397,61.292L64.499,60.811L64.442,60.799L64.384,60.8L64.397,61.292ZM88.115,95.354L87.627,95.294L87.621,95.342L87.624,95.39L88.115,95.354ZM55.008,119.983L55.115,120.464L55.138,120.459L55.159,120.452L55.008,119.983ZM28.819,124.699L28.784,124.208L28.766,124.21L28.747,124.212L28.819,124.699ZM7.571,127.844L7.16,127.573L6.556,128.491L7.643,128.331L7.571,127.844ZM60.444,106.883L60.331,107.362L60.444,106.883ZM94.539,127.844L95.021,127.745L95.004,127.662L94.96,127.589L94.539,127.844ZM28.819,157.713L28.327,157.713L28.327,158.019L28.602,158.155L28.819,157.713ZM28.819,138.324L28.864,137.834L28.327,137.784L28.327,138.324L28.819,138.324ZM92.068,121.555L92.495,121.801L92.513,121.769L92.527,121.734L92.068,121.555ZM60.444,82.253L60.472,81.762L60.448,81.761L60.424,81.761L60.444,82.253ZM27.831,85.398L27.667,84.933L27.329,85.053L27.339,85.411L27.831,85.398ZM28.819,122.603L28.327,122.616L28.339,123.054L28.774,123.094L28.819,122.603ZM89.598,148.805L90.058,148.629L90.052,148.616L89.598,148.805ZM69.338,183.914L69.356,184.406L69.388,184.405L69.418,184.4L69.338,183.914ZM28.819,175.006L28.327,175.006L28.327,175.03L28.329,175.053L28.819,175.006ZM71.809,156.141L71.476,156.504L71.495,156.52L71.809,156.141ZM75.268,203.303L75.438,203.765L75.505,203.741L75.562,203.699L75.268,203.303ZM66.867,217.977L67.358,217.929L67.355,217.909L66.867,217.977ZM50.067,247.845L50.152,248.331L50.159,248.329L50.067,247.845ZM28.819,242.605L28.327,242.585L28.317,242.837L28.516,242.993L28.819,242.605ZM8.939,13.395C12.361,9.248 18.391,4 25.341,1.706C28.809,0.562 32.492,0.157 36.193,0.976C39.89,1.794 43.641,3.841 47.238,7.655L47.954,6.98C44.238,3.039 40.317,0.88 36.405,0.015C32.497,-0.85 28.631,-0.416 25.033,0.772C17.851,3.142 11.676,8.532 8.18,12.769L8.939,13.395ZM47.238,7.655C54.337,15.184 53.163,26.056 48.613,36.785C44.076,47.485 36.257,57.84 30.435,64.101L31.156,64.772C37.028,58.457 44.923,48.007 49.519,37.17C54.103,26.362 55.482,14.963 47.954,6.98L47.238,7.655ZM30.54,64.016C27.674,65.753 23.259,68.092 19.329,69.474C17.359,70.167 15.55,70.605 14.134,70.626C12.707,70.646 11.844,70.25 11.475,69.467L10.585,69.887C11.204,71.2 12.586,71.633 14.149,71.61C15.724,71.587 17.652,71.108 19.655,70.403C23.673,68.99 28.152,66.614 31.051,64.857L30.54,64.016ZM11.475,69.467C10.279,66.929 9.329,63.015 11.116,58.595C12.905,54.167 17.478,49.132 27.544,44.446L27.129,43.553C16.935,48.299 12.12,53.483 10.203,58.226C8.284,62.975 9.311,67.184 10.585,69.887L11.475,69.467ZM27.531,44.452C33.994,41.676 44.196,38.819 53.788,39.251C63.365,39.683 72.239,43.378 76.292,53.613L77.208,53.251C72.96,42.525 63.633,38.709 53.832,38.268C44.046,37.826 33.692,40.734 27.142,43.547L27.531,44.452ZM76.296,53.621C78.149,58.064 79.246,65.483 76.472,73.231C73.704,80.961 67.062,89.077 53.333,94.901L53.718,95.807C67.661,89.893 74.525,81.589 77.399,73.563C80.266,65.556 79.14,57.883 77.204,53.242L76.296,53.621ZM53.328,94.903L18.738,110.1L19.134,111.001L53.724,95.805L53.328,94.903ZM18.917,110.059C15.659,110.189 12.064,109.898 8.967,108.945C5.862,107.99 3.331,106.396 2.079,103.976C0.835,101.572 0.787,98.221 2.937,93.593C5.089,88.96 9.418,83.111 16.812,75.791L16.119,75.091C8.689,82.448 4.267,88.393 2.044,93.178C-0.181,97.967 -0.229,101.658 1.204,104.428C2.629,107.182 5.451,108.894 8.677,109.886C11.911,110.881 15.625,111.176 18.956,111.043L18.917,110.059ZM16.68,75.884C21.356,73.622 29.366,70.198 38.177,67.288C46.995,64.376 56.576,61.992 64.41,61.784L64.384,60.8C56.405,61.012 46.714,63.432 37.868,66.353C29.013,69.278 20.964,72.718 16.251,74.998L16.68,75.884ZM64.295,61.774C68.744,62.718 75.27,65.532 80.333,70.892C85.379,76.236 88.992,84.127 87.627,95.294L88.604,95.414C90.006,83.944 86.288,75.764 81.049,70.217C75.825,64.686 69.109,61.789 64.499,60.811L64.295,61.774ZM87.624,95.39C87.773,97.444 86.44,101.264 81.582,105.707C76.741,110.134 68.451,115.127 54.857,119.515L55.159,120.452C68.841,116.036 77.27,110.984 82.246,106.434C87.205,101.898 88.787,97.806 88.606,95.318L87.624,95.39ZM54.901,119.503C48.631,120.903 34.67,123.792 28.784,124.208L28.854,125.19C34.828,124.768 48.867,121.859 55.115,120.464L54.901,119.503ZM28.747,124.212L7.499,127.357L7.643,128.331L28.891,125.186L28.747,124.212ZM7.983,128.114L19.348,110.821L18.525,110.28L7.16,127.573L7.983,128.114ZM19.07,111.024C23.372,109.808 30.611,108.162 38.324,107.188C46.048,106.211 54.192,105.915 60.331,107.362L60.556,106.403C54.241,104.915 45.954,105.231 38.2,106.211C30.434,107.192 23.147,108.848 18.802,110.077L19.07,111.024ZM60.331,107.362C64.239,108.283 67.57,108.778 70.513,109.316C73.467,109.855 76.036,110.436 78.498,111.525C83.396,113.692 87.962,117.914 94.118,128.098L94.96,127.589C88.763,117.336 84.065,112.912 78.896,110.625C76.324,109.486 73.659,108.889 70.69,108.347C67.711,107.803 64.432,107.317 60.556,106.403L60.331,107.362ZM94.057,127.942C95.114,133.116 95.254,140.998 92.272,147.821C89.307,154.604 83.243,160.383 71.765,161.415L71.853,162.395C83.698,161.331 90.069,155.32 93.174,148.216C96.261,141.152 96.105,133.051 95.021,127.745L94.057,127.942ZM71.765,161.415C48.5,163.506 33.543,159.49 29.036,157.271L28.602,158.155C33.319,160.477 48.471,164.497 71.853,162.395L71.765,161.415ZM29.311,157.713L29.311,138.324L28.327,138.324L28.327,157.713L29.311,157.713ZM28.774,138.814C37.289,139.603 50.676,139.709 63.187,137.459C69.442,136.334 75.497,134.617 80.62,132.089C85.741,129.562 89.96,126.21 92.495,121.801L91.641,121.31C89.235,125.495 85.198,128.732 80.184,131.206C75.172,133.68 69.213,135.375 63.012,136.49C50.61,138.721 37.314,138.617 28.864,137.834L28.774,138.814ZM92.527,121.734C94.945,115.545 96.265,106.091 92.276,97.89C88.266,89.645 78.968,82.817 60.472,81.762L60.416,82.745C78.683,83.786 87.585,90.496 91.391,98.32C95.218,106.189 93.968,115.338 91.61,121.376L92.527,121.734ZM60.424,81.761C55.972,81.936 48.997,82.304 42.54,82.837C39.312,83.104 36.208,83.412 33.612,83.76C31.029,84.106 28.907,84.495 27.667,84.933L27.995,85.862C29.127,85.461 31.155,85.082 33.742,84.736C36.316,84.391 39.401,84.084 42.621,83.818C49.061,83.286 56.021,82.92 60.463,82.745L60.424,81.761ZM27.339,85.411L28.327,122.616L29.311,122.59L28.323,85.384L27.339,85.411ZM28.774,123.094C37.393,123.877 50.768,126.124 62.864,130.313C68.913,132.408 74.624,134.982 79.257,138.089C83.894,141.199 87.415,144.819 89.143,148.993L90.052,148.616C88.222,144.196 84.529,140.44 79.805,137.272C75.078,134.101 69.282,131.494 63.187,129.383C50.997,125.161 37.54,122.902 28.864,122.113L28.774,123.094ZM89.137,148.98C91.006,153.89 92.237,161.496 89.91,168.363C87.599,175.18 81.75,181.359 69.258,183.429L69.418,184.4C82.226,182.278 88.401,175.88 90.842,168.679C93.266,161.528 91.978,153.676 90.058,148.63L89.137,148.98ZM69.32,183.422C64.654,183.596 57.028,183.361 49.344,182.092C41.642,180.82 33.966,178.522 29.128,174.623L28.51,175.389C33.555,179.455 41.444,181.785 49.184,183.064C56.941,184.345 64.634,184.582 69.356,184.406L69.32,183.422ZM29.311,175.006L29.311,138.324L28.327,138.324L28.327,175.006L29.311,175.006ZM28.702,138.802C34.039,140.108 42.593,142.566 50.894,145.689C59.216,148.82 67.205,152.592 71.476,156.504L72.141,155.778C67.716,151.725 59.562,147.898 51.241,144.767C42.897,141.628 34.305,139.16 28.936,137.846L28.702,138.802ZM71.495,156.52C76.722,160.851 83.139,168.369 85.466,176.839C86.627,181.064 86.767,185.513 85.25,189.928C83.733,194.342 80.543,198.764 74.974,202.909L75.562,203.699C81.258,199.458 84.587,194.884 86.181,190.248C87.774,185.612 87.618,180.957 86.416,176.578C84.016,167.843 77.437,160.165 72.123,155.762L71.495,156.52ZM75.097,202.841C68.142,205.415 49.502,207.511 31.071,195.035L30.52,195.85C49.248,208.529 68.228,206.433 75.438,203.765L75.097,202.841ZM31.285,195.395L29.309,174.958L28.329,175.053L30.305,195.49L31.285,195.395ZM28.535,175.408C34.446,179.587 43.44,186.748 51.198,194.635C55.077,198.579 58.638,202.695 61.348,206.703C64.064,210.719 65.901,214.589 66.38,218.043L67.355,217.909C66.846,214.237 64.915,210.219 62.164,206.153C59.408,202.077 55.804,197.914 51.9,193.945C44.093,186.007 35.051,178.809 29.103,174.604L28.535,175.408ZM66.377,218.023C66.784,222.333 66.44,228.985 64.1,234.905C61.765,240.809 57.469,245.935 49.975,247.361L50.159,248.329C58.082,246.821 62.598,241.379 65.015,235.267C67.427,229.167 67.774,222.353 67.357,217.929L66.377,218.023ZM49.981,247.361C46.108,248.045 36.484,247.971 29.122,242.217L28.516,242.993C36.175,248.979 46.119,249.043 50.152,248.331L49.981,247.361ZM29.311,242.625L31.287,195.463L30.304,195.422L28.327,242.585L29.311,242.625Z" fill="#84829A"/>
</svg>
