<svg width="196" height="508" viewBox="0 0 196 508" fill="none" xmlns="http://www.w3.org/2000/svg" xmlns:xlink="http://www.w3.org/1999/xlink">
<path d="M63.089,132.795L63.607,133.65L63.726,133.578L63.821,133.476L63.089,132.795ZM56.062,91.277L55.667,90.358L55.653,90.364L55.64,90.371L56.062,91.277ZM156.445,110.439L155.515,110.808L155.522,110.824L156.445,110.439ZM109.265,195.603L108.874,194.683L108.863,194.688L109.265,195.603ZM33.978,155.15L33.542,154.25L33.392,154.323L33.274,154.44L33.978,155.15ZM131.349,126.408L131.557,125.429L131.441,125.405L131.323,125.408L131.349,126.408ZM179.533,195.603L178.54,195.482L178.528,195.579L178.536,195.676L179.533,195.603ZM112.276,245.638L112.494,246.614L112.539,246.604L112.584,246.588L112.276,245.638ZM59.073,255.218L59.003,254.22L58.965,254.224L58.927,254.23L59.073,255.218ZM15.909,261.606L15.073,261.056L13.847,262.922L16.055,262.594L15.909,261.606ZM123.318,219.024L123.089,219.996L123.318,219.024ZM192.583,261.606L193.562,261.406L193.528,261.236L193.438,261.088L192.583,261.606ZM59.073,322.286L58.073,322.286L58.073,322.908L58.632,323.182L59.073,322.286ZM59.073,282.896L59.166,281.9L58.073,281.8L58.073,282.896L59.073,282.896ZM187.564,248.83L188.43,249.33L188.468,249.264L188.495,249.194L187.564,248.83ZM123.318,168.99L123.375,167.991L123.327,167.988L123.279,167.99L123.318,168.99ZM57.066,175.377L56.732,174.434L56.047,174.676L56.066,175.403L57.066,175.377ZM59.073,250.96L58.074,250.986L58.097,251.876L58.983,251.956L59.073,250.96ZM182.544,304.188L183.479,303.832L183.474,303.818L183.468,303.806L182.544,304.188ZM141.387,375.512L141.425,376.512L141.488,376.51L141.551,376.5L141.387,375.512ZM59.073,357.416L58.073,357.416L58.073,357.464L58.078,357.512L59.073,357.416ZM146.407,319.092L145.731,319.828L145.749,319.846L145.769,319.862L146.407,319.092ZM153.433,414.902L153.78,415.838L153.915,415.79L154.03,415.704L153.433,414.902ZM136.368,444.708L137.364,444.614L137.362,444.592L137.359,444.572L136.368,444.708ZM102.238,505.388L102.412,506.372L102.425,506.37L102.238,505.388ZM59.073,494.742L58.074,494.7L58.053,495.214L58.458,495.53L59.073,494.742ZM18.688,29.105C25.639,20.68 37.89,10.019 52.009,5.359C59.053,3.035 66.534,2.213 74.053,3.876C81.564,5.538 89.184,9.696 96.491,17.445L97.946,16.073C90.397,8.066 82.432,3.681 74.485,1.923C66.544,0.167 58.692,1.048 51.382,3.46C36.791,8.275 24.247,19.225 17.145,27.832L18.688,29.105ZM96.491,17.445C110.913,32.739 108.528,54.825 99.285,76.622C90.067,98.358 74.185,119.393 62.356,132.114L63.821,133.476C75.75,120.647 91.789,99.419 101.126,77.403C110.437,55.446 113.238,32.289 97.946,16.073L96.491,17.445ZM62.57,131.94C56.747,135.469 47.777,140.222 39.794,143.029C35.792,144.437 32.117,145.326 29.242,145.368C26.342,145.41 24.59,144.605 23.84,143.014L22.031,143.867C23.289,146.534 26.095,147.414 29.271,147.368C32.471,147.321 36.388,146.347 40.458,144.916C48.62,142.046 57.719,137.218 63.607,133.65L62.57,131.94ZM23.84,143.014C21.409,137.859 19.48,129.908 23.11,120.927C26.744,111.933 36.034,101.705 56.484,92.184L55.64,90.371C34.932,100.012 25.149,110.542 21.255,120.178C17.356,129.827 19.442,138.376 22.031,143.867L23.84,143.014ZM56.457,92.196C69.585,86.556 90.311,80.753 109.797,81.631C129.253,82.508 147.28,90.015 155.515,110.807L157.374,110.071C148.745,88.281 129.798,80.53 109.887,79.633C90.006,78.737 68.972,84.643 55.667,90.358L56.457,92.196ZM155.522,110.824C159.286,119.849 161.516,134.92 155.88,150.662C150.257,166.364 136.764,182.852 108.874,194.683L109.655,196.524C137.98,184.509 151.925,167.64 157.763,151.336C163.587,135.069 161.299,119.481 157.368,110.054L155.522,110.824ZM108.863,194.688L38.594,225.56L39.399,227.39L109.667,196.519L108.863,194.688ZM38.957,225.476C32.34,225.742 25.035,225.148 18.744,223.214C12.436,221.274 7.294,218.034 4.751,213.118C2.225,208.236 2.127,201.427 6.495,192.025C10.867,182.614 19.661,170.732 34.681,155.861L33.274,154.44C18.179,169.386 9.197,181.462 4.681,191.183C0.161,200.912 0.063,208.41 2.975,214.038C5.869,219.632 11.601,223.11 18.156,225.126C24.725,227.146 32.269,227.746 39.037,227.474L38.957,225.476ZM34.413,156.051C43.912,151.455 60.184,144.499 78.083,138.588C95.999,132.671 115.462,127.829 131.376,127.407L131.323,125.408C115.113,125.838 95.428,130.754 77.456,136.689C59.468,142.63 43.115,149.619 33.542,154.25L34.413,156.051ZM131.142,127.386C140.18,129.303 153.438,135.02 163.723,145.91C173.975,156.765 181.313,172.795 178.54,195.482L180.526,195.725C183.374,172.423 175.822,155.807 165.177,144.537C154.567,133.302 140.922,127.416 131.557,125.429L131.142,127.386ZM178.536,195.676C178.838,199.849 176.129,207.61 166.26,216.636C156.426,225.63 139.586,235.772 111.969,244.686L112.584,246.588C140.378,237.618 157.501,227.356 167.61,218.112C177.683,208.898 180.897,200.584 180.53,195.531L178.536,195.676ZM112.058,244.662C99.321,247.506 70.959,253.376 59.003,254.22L59.144,256.216C71.28,255.358 99.801,249.448 112.494,246.614L112.058,244.662ZM58.927,254.23L15.762,260.616L16.055,262.594L59.22,256.208L58.927,254.23ZM16.744,262.154L39.832,227.024L38.161,225.926L15.073,261.056L16.744,262.154ZM39.269,227.438C48.008,224.966 62.714,221.624 78.382,219.644C94.074,217.66 110.618,217.058 123.089,219.996L123.548,218.05C110.718,215.028 93.883,215.668 78.131,217.658C62.355,219.652 47.551,223.016 38.725,225.514L39.269,227.438ZM123.089,219.996C131.029,221.868 137.796,222.874 143.775,223.966C149.775,225.06 154.995,226.242 159.995,228.454C169.946,232.856 179.221,241.434 191.727,262.122L193.438,261.088C180.848,240.26 171.305,231.272 160.804,226.626C155.579,224.314 150.165,223.1 144.134,221.998C138.082,220.894 131.422,219.906 123.548,218.05L123.089,219.996ZM191.603,261.806C193.75,272.318 194.036,288.328 187.977,302.19C181.955,315.97 169.635,327.71 146.317,329.806L146.496,331.798C170.559,329.634 183.502,317.422 189.81,302.992C196.082,288.642 195.765,272.186 193.562,261.406L191.603,261.806ZM146.317,329.806C99.055,334.054 68.67,325.896 59.515,321.388L58.632,323.182C68.215,327.9 98.997,336.066 146.496,331.798L146.317,329.806ZM60.073,322.286L60.073,282.896L58.073,282.896L58.073,322.286L60.073,322.286ZM58.981,283.892C76.28,285.496 103.477,285.71 128.891,281.14C141.599,278.854 153.9,275.366 164.306,270.23C174.71,265.096 183.28,258.286 188.43,249.33L186.697,248.332C181.809,256.834 173.606,263.41 163.421,268.436C153.238,273.462 141.134,276.906 128.537,279.172C103.342,283.702 76.332,283.492 59.166,281.9L58.981,283.892ZM188.495,249.194C193.407,236.62 196.089,217.416 187.986,200.755C179.84,184.005 160.951,170.134 123.375,167.991L123.262,169.988C160.371,172.104 178.456,185.733 186.187,201.63C193.962,217.616 191.424,236.202 186.632,248.468L188.495,249.194ZM123.279,167.99C114.234,168.346 100.066,169.092 86.948,170.175C80.389,170.717 74.084,171.344 68.81,172.05C63.563,172.753 59.251,173.544 56.732,174.434L57.399,176.32C59.699,175.507 63.819,174.736 69.075,174.033C74.303,173.333 80.571,172.709 87.112,172.169C100.194,171.088 114.334,170.343 123.358,169.989L123.279,167.99ZM56.066,175.403L58.074,250.986L60.073,250.934L58.065,175.35L56.066,175.403ZM58.983,251.956C76.491,253.548 103.662,258.112 128.236,266.622C140.523,270.878 152.125,276.106 161.537,282.42C170.957,288.738 178.111,296.092 181.62,304.57L183.468,303.806C179.751,294.824 172.248,287.196 162.652,280.758C153.048,274.318 141.273,269.02 128.891,264.732C104.127,256.156 76.79,251.566 59.164,249.964L58.983,251.956ZM181.61,304.544C185.405,314.518 187.907,329.972 183.178,343.92C178.484,357.768 166.603,370.32 141.224,374.526L141.551,376.5C167.568,372.188 180.113,359.192 185.072,344.562C189.997,330.034 187.379,314.082 183.479,303.832L181.61,304.544ZM141.35,374.514C131.872,374.866 116.38,374.39 100.77,371.812C85.123,369.228 69.529,364.558 59.701,356.636L58.446,358.194C68.694,366.454 84.721,371.188 100.444,373.784C116.203,376.388 131.83,376.868 141.425,376.512L141.35,374.514ZM60.073,357.416L60.073,282.896L58.073,282.896L58.073,357.416L60.073,357.416ZM58.836,283.868C69.678,286.522 87.056,291.514 103.919,297.858C120.825,304.218 137.054,311.882 145.731,319.828L147.082,318.354C138.092,310.12 121.528,302.346 104.623,295.986C87.674,289.61 70.218,284.594 59.311,281.926L58.836,283.868ZM145.769,319.862C156.387,328.658 169.424,343.934 174.152,361.14C176.51,369.722 176.795,378.762 173.712,387.73C170.63,396.696 164.151,405.678 152.836,414.098L154.03,415.704C165.603,407.09 172.366,397.798 175.604,388.38C178.841,378.962 178.524,369.504 176.08,360.61C171.205,342.864 157.841,327.266 147.045,318.322L145.769,319.862ZM153.086,413.964C138.958,419.19 101.09,423.448 63.649,398.104L62.528,399.76C100.575,425.514 139.132,421.258 153.78,415.838L153.086,413.964ZM64.084,398.836L60.069,357.318L58.078,357.512L62.093,399.028L64.084,398.836ZM58.496,358.232C70.505,366.722 88.777,381.268 104.537,397.292C112.416,405.304 119.65,413.666 125.157,421.808C130.673,429.966 134.404,437.828 135.378,444.846L137.359,444.572C136.324,437.112 132.401,428.952 126.813,420.688C121.215,412.41 113.893,403.952 105.963,395.89C90.102,379.764 71.734,365.142 59.651,356.598L58.496,358.232ZM135.373,444.802C136.199,453.56 135.5,467.074 130.745,479.098C126.002,491.094 117.275,501.508 102.051,504.406L102.425,506.37C118.521,503.306 127.695,492.252 132.605,479.834C137.504,467.444 138.211,453.598 137.364,444.614L135.373,444.802ZM102.064,504.404C94.196,505.794 74.645,505.642 59.689,493.954L58.458,495.53C74.018,507.69 94.219,507.82 102.412,506.372L102.064,504.404ZM60.073,494.784L64.088,398.974L62.09,398.89L58.074,494.7L60.073,494.784Z" fill="#84829A"/>
</svg>
