<svg width="696" height="120" viewBox="0 0 696 120" fill="none" xmlns="http://www.w3.org/2000/svg" xmlns:xlink="http://www.w3.org/1999/xlink">
<mask id="mask_0_i_125_2847;1_122" style="mask-type:alpha" maskUnits="userSpaceOnUse" x="-0.723145" y="15.623779" width="347.419342" height="10.828655">
<rect  x="-0.723" y="15.624" width="694.839" height="21.657" fill="#C4C4C4"/>
</mask>
<g mask="url(#mask_0_i_125_2847;1_122)">
<path d="M91.294,38.924L92.73,38.387L89.4,38.387L90.72,37.85C92.213,37.64 94.395,37.85 95.313,37.442C95.313,37.173 93.648,37.325 93.132,37.185C92.66,37.033 92.257,36.873 91.926,36.706C92.739,36.593 93.657,36.513 94.624,36.473C95.939,36.445 97.191,36.344 98.241,36.181C100.423,35.913 102.49,35.574 104.844,35.247L103.753,34.757L106.853,34.465C107.198,34.465 107.542,34.337 107.887,34.349C110.757,34.454 111.733,34.034 112.881,33.637C113.111,33.544 113.401,33.457 113.743,33.38C117.302,32.995 120.804,33.217 124.134,33.112C124.773,33.115 125.4,33.147 125.971,33.205C127.198,33.301 128.524,33.334 129.828,33.299C131.131,33.264 132.372,33.164 133.435,33.006C135.789,32.664 138.538,32.451 141.415,32.388C142.276,32.379 143.119,32.335 143.89,32.256C144.661,32.178 145.344,32.068 145.894,31.933L147.903,32.014C148.626,31.761 149.594,31.541 150.749,31.366C151.903,31.192 153.221,31.067 154.62,30.999C156.113,30.929 157.606,30.812 159.156,30.742C162.347,30.576 165.402,30.316 168.227,29.972C172.475,29.54 176.609,29.085 180.915,28.688C183.594,28.411 186.183,28.099 188.666,27.754C191.654,27.368 194.96,27.096 198.426,26.949L198.426,26.949C198.426,27.276 196.933,27.392 195.957,27.521C192.799,27.918 189.527,28.244 186.254,28.606C184.783,28.775 183.364,28.962 182.006,29.166C179.72,29.479 177.276,29.742 174.714,29.948C170.705,30.346 166.864,30.811 163.232,31.337C162.953,31.39 162.703,31.449 162.486,31.512C162.451,31.546 162.458,31.58 162.507,31.613C162.556,31.645 162.646,31.674 162.767,31.698C162.888,31.721 163.036,31.738 163.198,31.746C163.36,31.755 163.53,31.755 163.691,31.746C165.242,31.746 166.906,31.746 168.284,31.583C168.338,31.577 168.397,31.575 168.457,31.575C168.516,31.575 168.575,31.577 168.629,31.583C171.901,31.583 174.37,31.151 176.781,30.882C180.823,30.51 184.67,30.057 188.264,29.528C188.809,29.451 189.409,29.392 190.044,29.353C193.915,29.009 197.454,28.526 200.493,27.929C201.756,27.707 202.904,27.451 204.282,27.252C205.128,27.125 205.838,26.964 206.372,26.78C206.904,26.595 207.248,26.391 207.382,26.178C208.012,26.19 208.646,26.19 209.276,26.178C209.652,26.17 209.998,26.132 210.242,26.074C210.488,26.015 210.614,25.94 210.598,25.863C210.598,25.642 209.736,25.653 208.99,25.665C209.39,25.56 209.852,25.466 210.368,25.385C213.264,24.92 216.426,24.528 219.784,24.218C222.424,24.042 224.376,23.599 227.19,23.482C227.534,23.482 227.764,23.377 228.05,23.319C228.778,23.124 229.726,22.967 230.818,22.864C231.908,22.76 233.106,22.712 234.308,22.724C235.456,22.058 238.73,22.163 240.968,21.895C241.772,22.035 240.968,22.105 240.968,22.175C240.968,22.245 240.968,22.175 240.682,22.175C238.644,22.827 235.652,23.333 232.126,23.622C231.494,23.714 230.9,23.815 230.348,23.926C229.51,24.091 228.538,24.225 227.476,24.323C226.326,24.447 225.294,24.614 224.434,24.813C223.916,24.885 223.498,24.983 223.218,25.098C222.936,25.212 222.802,25.339 222.826,25.466C223.22,25.511 223.646,25.543 224.09,25.56C226.354,25.553 228.526,25.374 230.174,25.058C233.046,24.509 236.606,24.136 239.706,23.646C241.808,23.326 244.08,23.056 246.48,22.84C246.48,22.84 246.48,22.969 246.48,22.98C246.784,22.993 247.096,22.993 247.398,22.98C247.398,22.98 247.398,22.98 247.398,22.922C247.244,22.888 247.044,22.864 246.824,22.852L246.078,22.852C246.538,22.759 246.94,22.618 247.456,22.595C248.538,22.534 249.55,22.429 250.428,22.287C251.306,22.145 252.034,21.968 252.566,21.766C253.54,21.467 254.81,21.213 256.298,21.019C257.422,20.841 258.494,20.65 259.512,20.448C259.512,20.448 259.512,20.307 259.972,20.167C259.46,20.149 258.934,20.149 258.422,20.167C256.24,20.342 254.058,20.529 251.934,20.739C251.164,20.839 250.45,20.957 249.81,21.089C248.004,21.396 245.916,21.626 243.666,21.766C243.666,21.766 243.208,21.766 242.978,21.766C243.438,21.393 245.676,21.381 246.422,21.066C246.94,20.996 247.858,20.891 247.8,20.844C247.694,20.786 247.654,20.724 247.68,20.662C247.708,20.6 247.8,20.541 247.954,20.487C248.108,20.434 248.318,20.388 248.57,20.353C248.82,20.317 249.108,20.294 249.408,20.284C251.874,20.111 254.14,19.837 256.068,19.479C256.814,19.374 257.676,19.304 258.422,19.21C258.882,19.16 259.292,19.093 259.628,19.012C261.298,18.528 263.696,18.168 266.46,17.985C267.782,17.872 268.99,17.709 270.02,17.506C270.766,17.389 271.168,17.506 271.742,17.506L274.096,17.343L271.282,17.961C272.144,18.335 272.718,18.417 273.75,18.3C275.26,18.131 276.716,17.944 278.114,17.74C279.148,17.588 279.952,17.366 281.444,17.343C281.706,17.336 281.95,17.311 282.132,17.273C283.694,16.881 285.652,16.563 287.874,16.339C288.85,15.884 290.918,15.895 292.812,15.872C293.272,15.569 292.18,15.615 291.492,15.569C292.984,15.37 294.476,15.148 296.026,14.962C296.482,14.884 297.02,14.829 297.598,14.8C298.176,14.772 298.778,14.771 299.356,14.798C299.648,14.828 299.982,14.833 300.292,14.813C300.602,14.794 300.864,14.751 301.022,14.693C301.768,14.483 303.088,14.39 303.662,14.133C303.878,14.062 304.208,14.009 304.598,13.983C304.988,13.958 305.408,13.961 305.786,13.993L305.786,13.993C305.43,14.071 305.122,14.157 304.868,14.25C303.95,14.565 304.466,14.798 305.96,15.032C307.912,14.728 309.92,14.448 311.7,14.11C312.678,13.894 313.934,13.739 315.322,13.66C316.712,13.582 318.182,13.584 319.566,13.666C320.07,13.702 320.622,13.697 321.11,13.654C321.6,13.611 321.992,13.532 322.206,13.433C322.324,13.337 322.324,13.237 322.206,13.141L320.83,13.141C320.83,13.141 320.83,13.036 320.83,13.012L322.666,12.732C323.642,12.592 324.676,12.476 325.594,12.335C326.922,12.087 328.484,11.897 330.188,11.775C331.764,11.675 333.3,11.55 334.78,11.402C336.216,11.262 337.134,10.923 338.454,10.701C339.452,10.534 340.578,10.4 341.784,10.305C343.872,10.143 345.726,9.879 347.182,9.534C349.306,9.966 350.224,9.954 351.774,9.534L352.52,9.371L352.808,9.488L353.382,9.371C354.472,9.184 355.564,8.997 356.712,8.822C358.348,8.657 360.168,8.58 361.994,8.6C362.338,8.6 362.854,8.694 363.2,8.776C363.544,8.857 364.348,9.137 364.922,9.312C364.52,9.558 364.06,9.803 363.774,10.059C363.752,10.099 363.776,10.14 363.846,10.177C363.916,10.215 364.028,10.249 364.172,10.276C364.318,10.303 364.492,10.323 364.682,10.334C364.872,10.345 365.072,10.347 365.266,10.34C365.646,10.329 366.016,10.305 366.356,10.27C368.02,10.055 369.596,9.813 371.064,9.546C371.574,9.393 372.318,9.279 373.18,9.222C374.044,9.165 374.976,9.168 375.83,9.231C377.736,8.848 380.028,8.553 382.548,8.367C385.074,7.9 388.288,7.655 390.584,7.095C390.584,7.212 390.93,7.363 391.332,7.422C391.964,7.507 392.662,7.57 393.398,7.608L398.622,7.141C398.882,7.248 399.19,7.35 399.542,7.445C399.79,7.524 400.18,7.581 400.63,7.603C401.08,7.624 401.554,7.61 401.952,7.562C402.986,7.457 403.79,7.247 405.11,7.293C403.356,7.766 400.834,8.097 397.992,8.227C395.344,8.395 392.844,8.647 390.584,8.974C389.838,9.079 388.862,9.231 388.69,9.382C388.346,9.791 386.968,9.931 385.36,10.094C384.088,10.204 382.96,10.373 382.072,10.588C381.184,10.803 380.56,11.058 380.25,11.332C380.25,11.553 380.596,11.694 381.744,11.659L386.508,11.495C387.142,11.338 387.736,11.174 388.288,11.005C389.234,10.749 390.456,10.542 391.86,10.398C393.264,10.254 394.812,10.178 396.384,10.176C397.188,10.176 397.992,10.176 398.508,10.048C398.954,9.921 399.358,9.789 399.714,9.651C399.766,9.585 399.766,9.518 399.714,9.453C400.018,9.443 400.328,9.443 400.632,9.453C403.158,9.709 404.88,9.453 406.374,9.079C406.776,8.974 407.062,8.857 407.464,8.741C407.866,8.624 407.98,8.53 408.382,8.495C411.598,8.239 412.172,7.48 414.814,7.13C414.928,7.087 414.99,7.039 414.99,6.99C414.99,6.941 414.928,6.893 414.814,6.85C414.602,6.826 414.364,6.814 414.124,6.814C413.884,6.814 413.646,6.826 413.436,6.85C412.184,6.942 411.128,7.119 410.45,7.352C409.95,7.478 409.412,7.599 408.842,7.713L405.742,7.176C408.334,6.896 410.744,6.551 412.918,6.149C413.378,6.033 414.238,5.998 414.928,5.916L419.98,5.286C421.014,5.146 421.818,4.877 423.424,5.006C423.424,5.006 424.4,4.924 424.63,4.842C424.86,4.76 425.836,4.317 426.41,4.037C427.214,3.978 428.362,3.967 428.822,3.85C429.606,3.612 430.262,3.358 430.774,3.091L433.932,2.916C434.046,3.145 434.046,3.376 433.932,3.605C433.794,3.83 433.92,4.058 434.298,4.271C434.678,4.484 435.3,4.676 436.112,4.83L439.788,5.741C440.32,5.761 440.872,5.747 441.364,5.701C441.858,5.655 442.27,5.579 442.544,5.484C443.748,5.146 445.126,4.819 446.332,4.48C448.112,4.48 447.882,4.924 449.26,5.087L453.452,5.087C454.312,5.519 455.174,5.928 453.452,6.359C453.106,6.441 453.452,6.605 453.164,6.733C454.772,6.92 456.38,6.815 457.93,6.85C458.58,6.941 459.144,7.056 459.594,7.188C460.126,7.408 461.064,7.577 462.202,7.658C463.34,7.738 464.59,7.725 465.68,7.62C467.542,7.51 469.486,7.466 471.422,7.492C472.084,7.502 472.75,7.483 473.374,7.437C473.998,7.391 474.564,7.318 475.038,7.223C476.75,6.931 478.138,6.569 479.114,6.161C480.098,5.792 481.52,5.479 483.248,5.251C486.406,5.251 487.324,5.799 489.392,6.103L486.348,6.605C486.348,6.838 486.694,7.083 485.43,7.258C484.168,7.433 484.914,7.55 485.43,7.702C485.628,7.787 485.966,7.855 486.384,7.896C486.802,7.936 487.276,7.946 487.726,7.923L490.482,7.818C491.464,7.788 492.384,7.704 493.144,7.574C493.904,7.444 494.472,7.274 494.788,7.083C495.166,6.891 495.732,6.716 496.454,6.57C497.346,6.329 498.042,6.061 498.52,5.776L502.366,5.542C502.42,5.317 502.854,5.102 503.598,4.934C504.34,4.766 505.346,4.655 506.444,4.62L509.026,4.445C511.898,4.247 512.472,4.095 512.988,3.406L509.142,2.858C509.486,2.519 509.83,2.216 510.174,1.912C509.174,1.694 507.906,1.533 506.5,1.446C505.17,1.327 503.808,1.221 502.424,1.13C500.932,1.049 499.382,1.014 497.544,0.944C497.2,0.885 496.682,0.769 496.052,0.675C495.422,0.587 494.77,0.505 494.1,0.43C494.1,0.197 494.1,-0.013 493.756,-0.235C494.83,-0.302 495.97,-0.314 497.072,-0.269C498.174,-0.224 499.206,-0.124 500.07,0.022C500.216,0.048 500.39,0.069 500.578,0.081C500.766,0.093 500.966,0.097 501.162,0.092C503.056,-0.013 504.09,0.185 505.18,0.453C505.882,0.57 506.744,0.639 507.648,0.652C509.372,0.652 511.094,0.722 512.758,0.757C513.272,0.775 513.796,0.775 514.308,0.757C515.998,0.693 517.73,0.693 519.418,0.757C519.958,0.757 520.492,0.784 520.97,0.835C521.45,0.886 521.862,0.959 522.174,1.049C521.862,1.24 521.746,1.443 521.83,1.644C521.83,1.784 523.092,1.889 523.724,2.006C524.356,2.123 523.264,2.181 522.92,2.251C521.486,2.496 521.256,2.613 522.346,2.916C522.706,3.009 522.968,3.116 523.116,3.231C523.264,3.345 523.296,3.465 523.208,3.582C523.208,4.013 522.748,4.434 522.518,4.889C523.322,5.052 524.586,5.169 524.872,5.472C524.968,5.535 525.13,5.593 525.348,5.641C525.568,5.69 525.836,5.728 526.136,5.753C526.91,5.788 527.632,5.859 528.25,5.96C528.868,6.061 529.362,6.19 529.696,6.336C529.812,6.4 530.042,6.452 530.342,6.482C530.64,6.512 530.982,6.519 531.302,6.5C531.686,6.478 532.012,6.427 532.216,6.357C532.418,6.288 532.482,6.205 532.394,6.126C532.32,5.965 532.186,5.805 531.992,5.647C531.992,5.519 531.992,5.391 531.648,5.227C532.78,5.143 534.006,5.123 535.19,5.171C536.374,5.218 537.472,5.33 538.364,5.496C539.34,5.659 540.26,5.846 541.35,6.044C541.35,6.441 541.35,6.441 543.646,6.815L554.21,5.647L556.564,5.776C558.746,5.869 559.206,5.776 560.354,5.402L561.1,5.099C562.994,5.099 565.176,5.099 566.038,4.469C566.554,4.725 566.84,4.795 566.784,4.854C566.49,5.384 565.772,5.9 564.66,6.383C564.372,6.5 564.2,6.64 563.856,6.756C562.822,7.285 562.822,7.874 563.856,8.402C564.35,8.63 565.008,8.843 565.808,9.032C565.052,9.562 563.952,10.068 562.534,10.538C561.324,10.918 560.376,11.331 559.722,11.764C559.152,12.187 558.176,12.584 556.852,12.931C556.172,13.095 555.718,13.292 555.53,13.503C555.688,13.979 556.13,14.449 556.852,14.903C557.018,15.049 557.348,15.185 557.816,15.3C558.284,15.416 558.878,15.508 559.55,15.569C559.55,15.569 559.894,15.639 560.066,15.685C560.47,16.231 560.294,16.788 559.55,17.319C559.452,17.454 559.176,17.58 558.75,17.685C558.326,17.79 557.768,17.869 557.138,17.915C555.818,18.031 554.612,18.195 553.35,18.335C551.982,18.473 550.822,18.684 549.994,18.945C549.166,19.205 548.698,19.507 548.642,19.817C548.67,19.899 548.67,19.981 548.642,20.062C548.622,20.105 548.622,20.148 548.642,20.191L551.972,20.704L548.928,21.533C548.928,21.93 550.594,21.93 551.512,22.093L551.11,22.315C550.536,22.49 549.618,22.443 548.814,22.455L548.01,22.455L548.01,22.642C547.666,22.945 545.828,22.922 545.254,23.19C544.68,23.459 545.254,23.587 546.344,23.634C547.108,23.675 547.908,23.681 548.682,23.651C549.458,23.621 550.19,23.555 550.822,23.459C551.192,23.386 551.486,23.299 551.684,23.202C552.886,22.739 554.248,22.295 555.76,21.871C556.906,21.521 558.416,21.227 560.182,21.008C560.688,20.921 561.328,20.874 561.99,20.874C562.652,20.874 563.292,20.921 563.798,21.008L563.798,21.008L564.716,20.903C564.716,20.903 565.29,20.984 565.234,21.019C565.12,21.521 565.806,22.016 567.186,22.432L567.186,22.432L566.266,22.618C564.888,22.759 565.922,22.98 565.808,23.179C564.832,23.284 563.51,23.319 563.166,23.599L562.478,23.681L562.764,23.681L563.052,23.564L564.488,23.704C563.912,23.844 563.51,23.972 562.994,24.077C562.714,24.145 562.502,24.223 562.374,24.307C562.246,24.391 562.204,24.48 562.248,24.568C562.318,24.702 562.218,24.839 561.958,24.963C561.696,25.088 561.282,25.197 560.756,25.28C560.124,25.373 559.836,25.571 559.492,25.677L561.558,26.33C561.558,26.33 560.698,26.33 561.214,26.424L561.214,26.307L562.306,26.389C563.11,26.482 563.626,26.459 563.97,26.26C564.314,26.062 564.314,26.26 564.488,26.178C564.488,26.33 564.086,26.494 563.74,26.634C563.326,26.764 562.846,26.885 562.306,26.995C563.626,27.474 563.684,27.486 562.306,27.859C560.928,28.233 561.56,28.408 560.354,28.618C559.148,28.828 560.756,29.05 561.616,29.015C562.252,28.982 562.914,28.977 563.558,29.002C564.202,29.026 564.812,29.078 565.348,29.155L565.348,29.668C564.968,29.68 564.58,29.68 564.2,29.668C562.88,29.575 561.674,29.482 560.698,29.785L561.386,30.077L557.598,30.392C557.832,30.651 558.554,30.881 559.606,31.034L559.606,31.034C559.55,31.209 559.55,31.384 559.606,31.559C559.606,31.688 559.206,31.664 558.976,31.711C558.142,31.851 557.492,32.031 557.082,32.235C556.672,32.438 556.514,32.659 556.622,32.878C556.622,33.077 558.114,33.275 558.918,33.147C560.96,32.894 563.22,32.724 565.578,32.645C566.956,32.481 566.898,31.968 569.31,31.979C569.47,32.197 569.276,32.42 568.758,32.614C568.24,32.808 567.426,32.962 566.44,33.053C567.242,33.473 570.344,33.17 570.744,33.672C569.97,33.743 569.118,33.772 568.272,33.755C567.426,33.739 566.616,33.678 565.922,33.578C565.77,33.551 565.586,33.532 565.388,33.524C565.19,33.515 564.984,33.516 564.788,33.528C564.594,33.539 564.416,33.561 564.274,33.59C564.13,33.619 564.026,33.655 563.97,33.695C564.486,33.824 565.062,33.975 565.692,34.104C566.324,34.232 566.496,34.302 566.898,34.29C569.942,34.29 571.664,34.827 574.362,34.956C575.05,34.956 575.28,35.236 574.706,35.283C574.16,35.325 573.682,35.398 573.326,35.493C572.972,35.588 572.754,35.701 572.698,35.819C572.348,35.998 571.884,36.167 571.32,36.321C574.218,36.711 577.558,36.943 581.022,36.998C581.68,37.013 582.344,36.984 582.916,36.917C584.704,36.662 586.63,36.45 588.658,36.286C589.372,36.218 590.014,36.123 590.552,36.006C592.332,35.656 593.882,35.644 595.49,36.006L598.13,36.566C598.13,36.718 597.844,36.928 597.672,37.185L599.624,37.407L612.14,34.465L615.296,35.131L619.028,34.536C619.332,34.524 619.644,34.524 619.948,34.536C620.866,34.734 621.612,34.944 622.588,35.119C623.564,35.294 625.058,35.119 626.262,35.318C627.468,35.516 628.502,35.376 629.88,35.399C630.136,35.649 630.136,35.908 629.88,36.158C629.88,36.403 629.306,36.636 629.306,36.87C629.43,37.088 629.286,37.309 628.886,37.513C628.484,37.716 627.84,37.897 627.01,38.037C624.896,38.841 622.228,39.58 619.086,40.231C618.808,40.286 618.59,40.351 618.44,40.423C618.292,40.496 618.22,40.573 618.224,40.652C618.338,40.864 618.218,41.079 617.87,41.281C617.522,41.483 616.958,41.667 616.216,41.819C616.016,41.856 615.876,41.905 615.814,41.959C615.538,42.027 615.354,42.109 615.278,42.196C615.202,42.283 615.238,42.372 615.382,42.455C615.528,42.539 615.774,42.613 616.102,42.671C616.428,42.729 616.824,42.769 617.25,42.788C617.872,42.826 618.504,42.857 619.144,42.881C619.144,42.951 618.57,43.044 618.684,43.091C619.01,43.246 619.152,43.414 619.102,43.582C619.054,43.75 618.812,43.914 618.398,44.06L622.302,45.134C624.306,45.073 626.348,45.165 628.042,45.39C628.082,45.461 628.028,45.533 627.886,45.599C627.746,45.665 627.522,45.721 627.238,45.764C626.492,45.904 625.804,46.067 625,46.219C624.51,46.317 624.122,46.433 623.856,46.561C623.59,46.689 623.452,46.827 623.45,46.966L625.574,47.27C625.058,47.491 624.656,47.62 624.31,47.76C624.622,47.906 625.094,48.036 625.692,48.139C626.288,48.242 626.996,48.316 627.756,48.355C627.954,48.357 628.154,48.351 628.342,48.337C628.528,48.323 628.7,48.301 628.846,48.273C630.166,47.876 632.004,47.982 633.784,48.075C635.564,48.168 636.54,48.238 637.86,48.32L640.156,48.028C640.794,48.065 641.382,48.132 641.87,48.223C642.358,48.314 642.734,48.427 642.97,48.553C642.97,48.81 641.822,48.834 641.19,48.95C639.738,49.318 637.712,49.573 635.448,49.674C634.874,49.674 634.358,49.814 633.842,49.896C632.734,50.086 631.68,50.289 630.684,50.503C630.036,50.662 629.442,50.83 628.904,51.005C628.904,51.331 631.488,51.215 630.166,51.565C630.684,51.565 630.914,51.635 631.142,51.565C632.83,51.536 634.442,51.411 635.794,51.203C638.378,50.789 641.406,50.505 644.634,50.374C648.112,50.22 651.358,49.9 654.108,49.441C655.164,49.286 656.382,49.182 657.668,49.137C659.198,49.111 660.684,49.019 662.03,48.869C662.47,48.807 662.976,48.768 663.504,48.754C664.032,48.739 664.57,48.751 665.074,48.787L665.074,48.787C665.074,48.869 664.672,48.985 664.786,49.009C666.452,49.382 667.312,49.896 669.724,50.176C671.274,50.176 673.054,50.176 673.858,49.767C674.662,49.359 674.202,49.172 671.964,48.74C672.366,48.672 672.874,48.634 673.398,48.634C673.922,48.634 674.43,48.672 674.834,48.74L676.728,49.032L678.45,49.324C678.45,49.592 678.45,49.802 678.45,50.024C678.396,50.268 678.716,50.508 679.37,50.713C679.754,50.82 680.1,50.933 680.402,51.051C681.626,51.521 682.184,52.05 682.01,52.58C681.562,53.371 680.774,54.152 679.656,54.915C678.45,55.673 677.992,56.479 677.072,57.249C676.588,57.609 675.954,57.961 675.178,58.3C673.742,59.011 672.136,59.723 670.7,60.447C669.264,61.171 667.542,61.789 665.878,62.455C663.336,63.325 660.536,64.163 657.494,64.964C655.658,65.548 653.764,66.131 652.098,66.738C650.122,67.437 647.71,68.08 644.922,68.652C642.484,69.209 640.366,69.82 638.606,70.473C638.422,70.543 638.288,70.618 638.204,70.695C638.05,71.127 637.202,71.537 635.794,71.862C635.94,71.961 636.112,72.059 636.31,72.154C636.584,72.262 636.692,72.384 636.62,72.505C636.55,72.626 636.3,72.739 635.908,72.831C634.782,73.093 633.888,73.394 633.266,73.718C633.026,73.812 632.9,73.916 632.9,74.022C632.9,74.127 633.026,74.231 633.266,74.325C633.49,74.425 633.56,74.536 633.468,74.645C633.376,74.753 633.126,74.853 632.75,74.932C631.816,75.19 630.8,75.436 629.708,75.667C627.386,76.165 624.594,76.562 621.498,76.835C621.154,76.835 620.866,76.951 620.464,76.951C618.24,77.078 616.246,77.334 614.722,77.687C612.886,78.002 610.934,78.27 608.982,78.574C606.136,78.964 603.568,79.431 601.346,79.963C598.59,80.149 597.27,80.698 595.03,81.025C592.978,81.355 591.058,81.718 589.29,82.11C586.418,82.705 583.548,83.277 580.734,83.896C578.048,84.383 575.622,84.927 573.5,85.518C572.696,85.764 571.032,85.799 570.572,86.137C570.114,86.476 568.908,86.616 567.99,86.837L565.062,87.479C564.564,87.603 564.006,87.717 563.396,87.818C560.584,88.238 558.804,88.857 556.22,89.3L555.932,89.3C551.542,90.469 546.362,91.506 540.546,92.381C537.216,93.023 533.484,93.549 529.924,94.179C529.178,94.529 526.996,94.541 526.02,94.903C525.044,95.264 523.208,95.381 521.83,95.615C520.452,95.848 519.132,96.128 517.638,96.338C516.344,96.524 515.298,96.773 514.596,97.062C512.936,97.611 510.818,98.097 508.338,98.498C505.066,99.046 502.022,99.665 498.636,100.108C498.792,100.313 498.678,100.523 498.304,100.715C497.932,100.908 497.312,101.077 496.51,101.205C492.952,101.801 489.794,102.478 486.176,103.061L485.2,103.201L474.35,104.882C471.422,105.326 468.608,105.769 465.622,106.224C464.418,106.224 464.532,106.505 463.728,106.563C463.442,106.458 463.154,106.434 462.81,106.563L462.81,106.738L450.466,108.734C445.67,109.589 440.566,110.369 435.194,111.068C433.936,111.265 432.782,111.488 431.75,111.734C430.766,111.91 429.732,112.073 428.65,112.224C427.168,112.391 425.73,112.574 424.344,112.772C420.726,113.356 416.88,113.869 412.862,114.395C408.842,114.92 405.856,115.434 402.298,115.935C399.886,116.274 397.474,116.589 394.948,116.881C393.742,117.021 392.192,117.068 390.93,117.184C389.666,117.301 389.264,117.359 389.15,117.476C388.748,117.815 387.312,117.838 386.222,117.966C384.098,118.223 383.752,118.176 382.834,117.581L385.302,116.998C385.9,116.838 386.688,116.712 387.594,116.632C388.498,116.553 389.49,116.522 390.47,116.542C390.86,116.556 391.256,116.553 391.642,116.535C392.026,116.517 392.388,116.484 392.71,116.437C395.292,116.029 397.818,115.585 400.288,115.165L400.632,115.072L400.344,114.465C399.984,114.453 399.616,114.453 399.254,114.465L386.508,115.865C383.58,116.181 380.48,116.391 377.61,116.706C374.74,117.021 373.188,117.184 370.95,117.406C369.998,117.486 369.02,117.552 368.022,117.604C368.048,117.538 368.048,117.472 368.022,117.406C368.022,117.301 368.022,117.161 367.562,117.114C367.044,117.03 366.388,116.988 365.726,116.998C365.114,117.029 364.532,117.08 364.004,117.149C361.432,117.462 358.364,117.559 355.448,117.418L354.702,117.896C350.626,118.27 346.492,118.655 342.244,119.063C341.386,119.132 340.464,119.16 339.546,119.145C338.57,119.145 337.594,118.993 336.56,118.982C335.56,119.01 334.578,119.061 333.632,119.134C333.834,119.009 334.124,118.891 334.494,118.783C334.874,118.71 335.128,118.614 335.22,118.509C335.314,118.404 335.24,118.296 335.01,118.2C334.608,118.036 334.378,117.861 335.01,117.745C335.58,117.613 335.954,117.45 336.086,117.276C336.22,117.103 336.104,116.925 335.756,116.764C335.588,116.665 335.454,116.564 335.354,116.461L335.354,116.461L335.068,116.461C333.976,116.181 332.14,116.286 330.704,116.134C330.058,116.123 329.412,116.156 328.866,116.227C327.432,116.356 326.054,116.519 324.56,116.636C323.848,116.693 323.088,116.721 322.322,116.717C321.23,116.717 321.116,116.717 320.254,116.274C321.176,116.152 321.862,115.97 322.196,115.757C322.532,115.544 322.494,115.314 322.092,115.107C321.058,114.675 319.968,114.22 316.35,114.325C317.456,114.146 318.51,113.955 319.508,113.753C319.802,113.698 320.004,113.626 320.092,113.547C320.178,113.469 320.144,113.386 319.994,113.311C319.844,113.236 319.586,113.173 319.252,113.128C318.92,113.084 318.528,113.062 318.13,113.064C316.168,113.017 314.18,113.081 312.39,113.251C310.896,113.426 309.576,113.636 307.854,113.881L305.672,113.881C305.672,113.811 305.328,113.764 305.386,113.718C305.73,113.309 306.132,112.901 306.534,112.457C305.496,112.397 304.564,112.278 303.844,112.115C303.122,111.952 302.642,111.751 302.456,111.535C302.372,111.474 302.352,111.41 302.402,111.348C302.452,111.285 302.568,111.226 302.744,111.173C303.256,111.053 303.626,110.911 303.826,110.757C304.024,110.603 304.048,110.442 303.892,110.286L301.998,109.901C297.014,110.145 292.182,110.501 287.588,110.963L283.454,111.407C282.88,111.313 282.994,111.22 283.454,111.15C283.912,111.08 285.234,110.94 286.152,110.835C286.95,110.755 287.634,110.635 288.138,110.485C288.64,110.336 288.946,110.163 289.022,109.983L287.3,109.481C287.3,109.341 287.3,109.142 288.046,109.049C288.544,108.962 288.884,108.843 289.008,108.711C289.134,108.58 289.038,108.444 288.736,108.325C288.646,108.221 288.646,108.114 288.736,108.01C289.826,107.847 290.918,107.695 291.894,107.52C292.35,107.443 292.72,107.347 292.978,107.238C293.234,107.129 293.374,107.01 293.386,106.89C293.366,106.776 293.216,106.665 292.946,106.566C292.676,106.467 292.296,106.382 291.836,106.318C290.202,106.391 288.778,106.592 287.874,106.878C287.584,107.042 287.056,107.185 286.358,107.287C285.662,107.389 284.83,107.446 283.97,107.45C282.986,107.454 282.04,107.528 281.304,107.661C280.568,107.794 280.088,107.975 279.952,108.174C278.976,108.244 278.114,108.314 277.254,108.36C276.234,108.41 275.302,108.515 274.554,108.664C273.342,108.867 272.012,109.04 270.594,109.177C266.516,109.598 262.44,110.029 258.536,110.52C257.504,110.648 256.642,110.823 255.608,110.928C254.576,111.033 253.828,111.255 252.45,111.22C252.192,111.221 251.938,111.234 251.71,111.258C251.48,111.283 251.282,111.317 251.13,111.36C248.994,111.849 246.398,112.246 243.494,112.527C239.59,113.052 235.514,113.543 231.61,114.08C230.476,114.259 229.42,114.459 228.452,114.675C227.71,114.828 226.924,114.972 226.098,115.107C225.468,115.212 224.836,115.258 225.066,115.48C225.294,115.702 224.262,115.69 223.688,115.725C221.732,115.881 219.716,116.002 217.658,116.087C215.622,116.151 213.67,116.298 211.918,116.519C210.654,116.682 209.392,116.928 207.612,116.834C207.612,116.706 207.612,116.577 207.898,116.402C206.406,116.247 204.754,116.165 203.076,116.165C201.398,116.165 199.746,116.247 198.254,116.402L195.9,116.04C195.363,116.035 194.827,116.052 194.323,116.09C193.82,116.128 193.36,116.187 192.972,116.262C192.669,116.316 192.281,116.345 191.881,116.345C191.48,116.345 191.093,116.316 190.79,116.262C190.347,116.202 189.828,116.171 189.297,116.171C188.766,116.171 188.247,116.202 187.805,116.262C186.38,116.39 184.815,116.438 183.269,116.402C182.827,116.315 182.522,116.203 182.389,116.081C182.256,115.958 182.303,115.831 182.523,115.714C182.871,115.513 183.015,115.299 182.945,115.087C182.876,114.874 182.596,114.666 182.121,114.476C181.865,114.355 181.733,114.224 181.733,114.091C181.733,113.959 181.865,113.828 182.121,113.706C183.039,113.181 182.637,113.017 180.513,112.667C180.167,112.608 179.763,112.564 179.328,112.537C178.894,112.511 178.437,112.504 177.987,112.516C176.94,112.559 175.919,112.625 174.944,112.714C174.37,112.714 173.853,112.854 173.222,112.912C170.064,113.204 169.49,113.029 168.227,112.656L167.308,112.387C165.804,112.278 164.201,112.238 162.612,112.271C161.024,112.303 159.49,112.407 158.122,112.574C157.583,112.649 156.938,112.686 156.285,112.679C154.171,112.675 152.077,112.763 150.142,112.936C148.939,113.049 147.6,113.09 146.287,113.053C144.973,113.015 143.74,112.902 142.736,112.726C141.833,112.567 140.71,112.469 139.521,112.446C138.143,112.446 137.913,112.247 138.545,111.979C139.176,111.71 140.267,111.325 141.243,110.998C141.584,110.886 141.764,110.757 141.764,110.625C141.764,110.493 141.584,110.363 141.243,110.251C140.942,110.019 140.788,109.78 140.784,109.539C140.795,109.437 140.699,109.336 140.502,109.243C140.305,109.149 140.012,109.065 139.642,108.997C139.272,108.928 138.834,108.876 138.358,108.845C137.881,108.814 137.377,108.804 136.88,108.816C134.756,108.816 132.689,108.816 130.564,108.897C129.669,108.921 128.762,108.921 127.866,108.897C126.002,108.789 124.05,108.757 122.125,108.804C121.214,108.832 120.286,108.786 119.541,108.675C117.24,108.421 115.084,108.115 113.111,107.765C112.615,107.64 111.996,107.537 111.295,107.463C110.593,107.388 109.824,107.344 109.035,107.333C108.403,107.333 107.829,107.216 107.312,107.158C106.836,106.92 106.666,106.661 106.816,106.406C106.967,106.151 107.434,105.908 108.174,105.699C108.863,105.477 109.494,105.244 110.068,105.01C110.789,104.785 111.68,104.584 112.709,104.415C113.909,104.178 114.729,103.873 115.063,103.54C111.446,103.54 107.887,103.306 105.016,103.89L102.547,103.773C102.547,103.587 102.547,103.423 102.547,103.271C102.949,102.938 102.949,102.589 102.547,102.256C102.28,102.105 102.213,101.942 102.355,101.785C102.496,101.627 102.839,101.479 103.351,101.357C106.279,100.435 109.781,99.595 112.48,98.638C113.36,98.405 114.427,98.203 115.637,98.042C116.785,97.844 116.613,97.611 115.12,97.505C114.289,97.458 113.445,97.419 112.594,97.389C109.15,97.856 108.116,98.766 104.097,99.128L101.801,98.451C101.302,98.507 100.823,98.569 100.365,98.638L93.993,99.957C93.455,100.054 93.063,100.18 92.86,100.32C92.657,100.46 92.652,100.609 92.844,100.75C92.988,100.936 92.988,101.125 92.844,101.311C92.757,101.439 92.922,101.569 93.304,101.672C94.165,101.906 93.304,102.081 92.787,102.244C92.648,102.273 92.483,102.296 92.301,102.311C92.118,102.327 91.923,102.334 91.725,102.334C91.527,102.334 91.332,102.327 91.149,102.311C90.967,102.296 90.802,102.273 90.663,102.244C89.515,102.069 88.481,101.859 87.333,101.649C87.85,101.217 86.759,100.785 87.677,100.33C87.766,100.253 87.777,100.172 87.708,100.094C87.639,100.016 87.491,99.941 87.275,99.875C86.718,99.704 86.393,99.506 86.332,99.301C86.272,99.096 86.478,98.891 86.931,98.708L86.931,98.579C85.381,98.369 85.553,97.961 84.807,97.611L83.371,97.517C79.812,97.307 79.812,97.319 77.056,97.739C76.367,97.564 77.056,97.424 77.573,97.319L81.879,96.397C84.692,95.79 87.62,95.229 90.835,94.693C94.05,94.156 97.552,93.397 100.825,92.743C100.988,92.706 101.104,92.66 101.164,92.612C101.224,92.563 101.226,92.512 101.169,92.463C101.006,92.425 100.803,92.395 100.574,92.374C100.346,92.354 100.098,92.345 99.849,92.346C98.7,92.346 97.552,92.405 96.347,92.44L94.107,92.522L93.304,92.323C92.787,92.206 92.385,92.031 91.754,91.985C91.238,91.956 90.695,91.956 90.18,91.985C89.665,92.014 89.197,92.07 88.826,92.148C87.792,92.358 86.874,92.58 85.898,92.802C84.922,93.023 84.405,93.187 83.544,93.35C81.763,93.623 80.058,93.915 78.434,94.226C77.124,94.599 75.935,94.988 74.875,95.393C74.186,95.591 73.554,95.801 72.233,95.86C71.58,95.835 70.991,95.764 70.571,95.659C70.15,95.554 69.926,95.423 69.937,95.288C69.954,95.181 70.106,95.076 70.377,94.984C70.648,94.892 71.03,94.816 71.487,94.763C72.741,94.564 73.877,94.337 74.875,94.086C76.24,93.693 77.977,93.36 79.984,93.105C80.673,93.035 81.075,92.872 81.649,92.755C82.223,92.638 82.682,92.487 83.371,92.452C85.496,92.311 86.357,91.938 87.505,91.611C87.886,91.485 88.087,91.339 88.087,91.191C88.087,91.043 87.886,90.897 87.505,90.771C86.767,90.516 85.901,90.277 84.922,90.059C84.422,89.954 83.809,89.874 83.131,89.826C82.454,89.777 81.73,89.761 81.017,89.779C80.509,89.631 80.191,89.459 80.09,89.28C79.99,89.101 80.112,88.919 80.444,88.752C81.305,88.355 82.051,87.97 84.348,87.794C85.421,87.7 86.41,87.569 87.275,87.409C89.21,87.083 91.522,86.862 93.993,86.767C94.632,86.742 95.25,86.699 95.83,86.639C99.964,86.207 103.868,85.728 107.772,85.227C109.839,84.958 111.905,84.655 114.087,84.421C119.197,83.861 123.732,83.126 128.612,82.484C131.168,82.147 133.388,81.715 135.157,81.211C135.485,81.08 135.754,80.944 135.961,80.803C134.57,80.71 133.084,80.691 131.646,80.748C130.209,80.806 128.868,80.937 127.751,81.13C127.168,81.295 126.37,81.424 125.448,81.502C124.525,81.58 123.514,81.605 122.527,81.573L122.527,81.573L125.11,81.106C126.833,80.815 128.612,80.546 130.277,80.243C132.918,79.752 135.33,79.227 138.085,78.76C140.306,78.376 142.24,77.928 143.827,77.43C144.972,77.068 146.321,76.735 147.846,76.438C148.936,76.239 148.936,76.239 149.453,75.761C148.764,75.597 148.018,75.667 147.329,75.761C143.134,76.195 139.203,76.728 135.617,77.348C133.786,77.619 132.21,77.955 130.966,78.34C130.679,78.469 129.818,78.55 129.129,78.62C126.991,78.883 124.974,79.183 123.101,79.519C120.521,80.001 117.574,80.395 114.374,80.686C113.685,80.581 114.374,80.499 114.374,80.429C116.728,79.963 119.025,79.484 121.436,79.029C122.091,78.896 122.801,78.775 123.56,78.667C126.424,78.326 128.693,77.812 130.048,77.196C130.048,77.033 131.081,76.905 131.483,76.741C131.662,76.624 131.758,76.502 131.77,76.379C130.966,76.193 130.22,76.298 129.646,76.379C127.996,76.649 126.425,76.937 124.938,77.243C123.557,77.529 121.993,77.777 120.288,77.978C119.024,78.118 117.991,78.329 116.728,78.492C116.03,78.556 115.298,78.603 114.546,78.632C115.241,78.323 116.26,78.048 117.532,77.827C118.45,77.57 119.656,77.36 119.656,77.033C119.082,76.881 118.565,76.951 118.163,77.033C117.302,77.155 116.478,77.288 115.695,77.43C114.035,77.733 112.204,77.996 110.24,78.212C109.211,78.335 108.249,78.479 107.37,78.644C105.36,78.982 103.466,79.367 101.629,79.682C97.839,80.278 94.452,80.955 90.835,81.573C90.031,81.713 89.342,81.9 88.194,81.912C87.046,81.923 86.988,81.912 86.816,81.842C86.44,81.738 86.275,81.608 86.357,81.48C86.518,81.348 86.905,81.232 87.448,81.153C90.642,80.524 93.633,79.853 96.404,79.146C97.659,78.904 98.724,78.624 99.562,78.317C100.235,78.091 101.067,77.887 102.03,77.71C103.414,77.419 104.871,77.142 106.394,76.881C107.101,76.757 107.679,76.605 108.093,76.435C108.507,76.264 108.749,76.079 108.805,75.889L106.624,75.597C106.313,75.614 106.006,75.633 105.705,75.656L90.204,78.305L88.653,78.539C86.931,78.749 86.472,78.725 84.52,78.305C88.132,77.625 90.805,76.763 92.27,75.807C91.794,75.795 91.312,75.795 90.835,75.807C87.801,76.064 84.99,76.419 82.51,76.858C81.018,77.08 79.467,77.278 77.917,77.488C78.204,77.103 79.984,76.951 81.075,76.718C83.712,76.22 85.975,75.645 87.792,75.014C88.411,74.78 89.227,74.571 90.204,74.395C91.192,74.241 91.981,74.041 92.501,73.811C93.022,73.581 93.258,73.329 93.189,73.076C93.169,72.841 93.265,72.607 93.476,72.376C92.796,72.188 91.803,72.057 90.683,72.008C89.562,71.958 88.392,71.994 87.39,72.107C85.227,72.299 82.949,72.433 80.616,72.504C79.452,72.538 78.337,72.622 77.343,72.749C76.467,72.863 75.432,72.916 74.395,72.899C73.359,72.882 72.378,72.797 71.602,72.656C70.569,72.493 69.592,72.317 68.616,72.142C67.64,71.967 66.492,71.734 65.344,71.512C64.466,71.577 63.62,71.659 62.818,71.757C62.207,71.859 61.466,71.922 60.683,71.941C59.9,71.96 59.106,71.932 58.397,71.862L58.397,71.862C58.684,71.652 59.029,71.454 59.373,71.209C58.648,71.054 58.085,70.87 57.72,70.669C57.355,70.469 57.195,70.255 57.249,70.041C57.249,69.855 56.445,69.656 56.101,69.458C55.707,69.301 55.558,69.123 55.67,68.948C55.783,68.773 56.153,68.609 56.732,68.477C57.436,68.287 57.98,68.074 58.34,67.847C58.465,67.784 58.51,67.715 58.47,67.647C58.431,67.579 58.309,67.515 58.115,67.459C57.92,67.403 57.661,67.358 57.359,67.328C57.057,67.298 56.723,67.284 56.388,67.287C55.365,67.306 54.369,67.365 53.46,67.462C51.89,67.625 50.398,67.8 48.981,67.987C47.412,68.188 45.61,68.301 43.757,68.314C42.092,68.314 40.599,68.314 39.623,67.999C38.647,67.684 37.442,67.87 36.351,67.695C36.732,67.343 37.563,67.017 38.762,66.75C39.56,66.602 40.197,66.422 40.632,66.221C41.067,66.02 41.29,65.802 41.288,65.583L38.016,65.128C35.547,65.046 34.456,65.536 31.93,65.723L34.284,65.046C34.318,65.007 34.318,64.968 34.284,64.929C33.71,64.322 33.25,64.241 30.495,64.252L28.945,64.252L26.533,64.334C26.1,64.255 25.776,64.154 25.595,64.041C25.413,63.928 25.381,63.808 25.5,63.692C25.755,63.489 25.755,63.276 25.5,63.073C25.202,62.957 25.114,62.824 25.25,62.696C25.387,62.568 25.739,62.454 26.246,62.373C26.648,62.303 26.591,62.128 26.763,62C26.915,61.835 27.24,61.679 27.715,61.542C28.191,61.405 28.806,61.29 29.519,61.206C31.602,60.922 33.527,60.594 35.26,60.225L34.915,60.225C36.832,60.058 38.583,59.82 40.082,59.525C41.575,59.21 43.585,58.988 45.192,58.696C46.532,58.519 47.479,58.243 47.833,57.926C48.178,57.623 49.9,57.436 51.22,57.296C52.004,57.215 52.753,57.122 53.46,57.016C54.384,56.826 55.6,56.707 56.904,56.677C57.296,56.669 57.672,56.641 57.995,56.595C61.153,56.21 64.311,55.837 67.411,55.428C68.113,55.308 68.97,55.231 69.879,55.206C70.263,55.197 70.623,55.165 70.913,55.113C75.736,54.319 81.362,53.782 86.07,52.965C86.632,52.851 87.27,52.753 87.965,52.674C89.544,52.533 90.854,52.291 91.696,51.985C92.151,51.821 92.769,51.679 93.511,51.566C94.252,51.453 95.101,51.374 96.002,51.331C97.489,51.234 98.818,51.056 99.849,50.818C101.904,50.44 104.092,50.093 106.394,49.779C107.104,49.692 107.706,49.573 108.154,49.432C108.603,49.29 108.884,49.129 108.977,48.962C108.288,48.799 107.657,48.857 107.083,48.962C104.786,49.23 102.49,49.487 100.251,49.779C98.22,49.989 96.297,50.239 94.509,50.526C93.631,50.687 92.476,50.771 91.294,50.759C89.843,50.738 88.407,50.83 87.275,51.016C86.431,51.143 85.527,51.252 84.577,51.343C83.957,51.377 83.303,51.377 82.682,51.343C82.434,51.325 82.17,51.318 81.907,51.322C81.645,51.326 81.389,51.341 81.157,51.367C80.924,51.392 80.72,51.427 80.558,51.469C80.396,51.511 80.279,51.56 80.214,51.612C79.525,52.067 77.515,52.172 75.85,52.37C73.095,52.16 71.43,52.755 68.961,52.767C68.768,52.772 68.582,52.785 68.414,52.805C68.246,52.825 68.1,52.852 67.985,52.884C63.622,53.712 58.34,54.296 53.689,55.031C53.178,55.115 52.561,55.167 51.91,55.183C47.649,55.28 43.718,55.696 40.886,56.35C40.538,56.423 40.13,56.482 39.681,56.525C37.565,56.624 35.597,56.824 33.939,57.109C31.298,57.471 28.772,57.844 26.074,58.183C24.197,58.384 22.613,58.682 21.481,59.047C21.481,59.128 20.62,59.163 19.988,59.245C19.529,59.105 19.127,58.976 18.668,58.86C18.227,58.697 17.62,58.556 16.887,58.445C16.154,58.334 15.312,58.257 14.419,58.218C12.927,58.218 12.639,57.949 13.558,57.704C15.886,56.995 18.966,56.401 22.572,55.965C25.557,55.545 28.6,55.125 31.643,54.728C33.423,54.506 35.317,54.308 37.04,54.074C37.632,54.017 38.247,53.971 38.877,53.934C39.656,53.901 40.396,53.837 41.059,53.747C43.146,53.384 45.538,53.099 48.12,52.907C49.054,52.812 49.938,52.699 50.761,52.569C52.699,52.244 54.843,51.973 57.134,51.763C58.555,51.627 59.918,51.467 61.21,51.285C61.67,51.226 62.014,51.121 62.473,51.098C66.55,50.958 69.133,50.269 72.693,49.931C74.406,49.733 76.021,49.503 77.515,49.242C80.477,48.821 83.543,48.432 86.701,48.075C90.893,47.631 94.682,47.036 98.643,46.534C99.426,46.436 100.174,46.327 100.882,46.207C104.314,45.598 108.115,45.08 112.193,44.667C113.112,44.56 113.913,44.416 114.545,44.243C115.177,44.07 115.627,43.873 115.867,43.663C115.946,43.531 115.783,43.398 115.408,43.289C114.815,43.167 114.161,43.057 113.456,42.963L90.892,45.53C89.942,45.632 89.021,45.745 88.137,45.869C85.536,46.235 82.833,46.57 80.042,46.873C77.286,47.176 74.702,47.561 72.061,47.912C71.283,48.014 70.478,48.107 69.65,48.192C64.035,48.726 58.606,49.339 53.402,50.024C51.22,50.328 48.809,50.549 46.57,50.829C44.331,51.11 41.288,51.53 38.647,51.892L30.495,53.059C28.887,53.281 27.337,53.526 25.787,53.759C23.49,53.234 22.744,53.141 20.046,53.152C19.118,53.147 18.201,53.195 17.405,53.292C14.936,53.712 11.663,53.899 9.309,54.273C7.87,54.46 6.701,54.722 5.922,55.031C5.239,55.285 4.431,55.523 3.511,55.743C0.525,55.44 0.066,55.031 1.961,54.576C2.477,54.459 3.224,54.366 3.568,54.226C3.764,54.143 4.053,54.07 4.412,54.013C4.771,53.956 5.189,53.917 5.635,53.899C7.03,53.819 8.297,53.666 9.309,53.456C10.25,53.234 11.456,53.065 12.812,52.965C13.845,52.965 14.591,52.65 15.395,52.475C16.199,52.3 16.83,52.102 18.208,52.067C18.462,52.063 18.708,52.047 18.926,52.021C19.145,51.994 19.332,51.958 19.471,51.915C20.818,51.618 22.49,51.39 24.352,51.25C27.173,50.97 29.768,50.604 32.045,50.164C33.393,49.872 34.498,49.537 35.317,49.172C35.533,49.058 35.889,48.958 36.351,48.88C38.721,48.593 41.362,48.41 44.101,48.343C45.137,48.325 46.159,48.282 47.144,48.215C49.176,48.088 51.108,47.903 52.885,47.666C55.457,47.302 58.164,46.978 60.981,46.698C62.716,46.518 64.368,46.307 65.918,46.067C67.516,45.83 69.252,45.634 71.085,45.484C72.899,45.315 74.434,45.044 75.506,44.702C75.84,44.552 76.09,44.396 76.252,44.235C73.446,44.188 70.656,44.359 68.444,44.713C67.583,44.807 66.894,44.935 65.918,44.9L65.918,44.959C65.759,45.019 65.495,45.066 65.177,45.089C64.86,45.113 64.51,45.112 64.196,45.087L64.196,45.087C64.196,44.865 64.196,44.655 64.196,44.503C65.908,44.285 67.556,44.048 69.133,43.791C70.454,43.558 72.463,43.663 73.554,43.359C75.908,43.208 77.228,42.764 79.295,42.542C81.362,42.321 83.716,42.227 85.783,42.006C87.575,41.79 89.3,41.552 90.95,41.294C91.508,41.182 92.172,41.094 92.902,41.037C93.939,40.976 94.871,40.858 95.592,40.695C96.313,40.532 96.793,40.331 96.978,40.115C96.634,39.986 96.174,39.823 95.658,39.659C96.306,39.372 97.393,39.134 98.758,38.983L100.653,38.702C101.158,38.635 101.518,38.531 101.657,38.412C101.796,38.292 101.703,38.166 101.399,38.06C97.438,37.874 97.265,37.815 94.854,38.644L91.237,38.936L91.294,38.924ZM139.75,34.069L139.463,34.069L139.75,34.069ZM615.412,46.196L615.412,46.324L615.412,46.184L616.044,46.184L616.044,46.102L615.412,46.196ZM503.056,5.974C502.158,5.963 501.256,5.963 500.358,5.974C500.128,5.989 499.92,6.015 499.75,6.049C499.58,6.084 499.454,6.126 499.382,6.173C499.382,6.313 499.898,6.336 500.358,6.336C500.94,6.341 501.518,6.315 502.032,6.259C502.546,6.204 502.98,6.122 503.286,6.021L503.744,5.904L503.056,5.974ZM91.065,98.976C91.623,98.92 92.144,98.849 92.615,98.766C94.682,98.358 96.634,97.914 98.758,97.505C101.374,96.865 104.475,96.314 107.944,95.871C109.302,95.704 110.397,95.461 111.102,95.171C111.529,95.009 112.115,94.866 112.824,94.751L121.78,93.164C122.312,93.024 122.756,92.871 123.101,92.708C122.24,92.708 121.666,92.708 121.321,92.708C120.649,92.791 120.094,92.907 119.714,93.047C119.33,93.246 118.592,93.408 117.647,93.502C116.696,93.604 115.776,93.717 114.891,93.84C113.226,94.086 111.561,94.354 109.896,94.611C109.437,95.078 107.427,95.183 105.762,95.381L104.499,95.58C100.442,96.367 96.608,97.201 93.017,98.077C92.318,98.239 91.738,98.419 91.294,98.614C91.152,98.737 91.152,98.865 91.294,98.988L91.007,98.988L91.065,98.976ZM295.05,108.197C296.072,108.078 297.15,107.981 298.266,107.905C299.136,107.867 299.97,107.8 300.734,107.707C305.018,107.185 309.534,106.747 314.226,106.399C314.844,106.36 315.424,106.301 315.948,106.224L319.624,105.617C320.772,105.407 320.772,105.361 319.624,104.905C318.858,104.895 318.092,104.895 317.326,104.905C316.868,104.905 316.122,104.905 316.006,105.022C315.146,105.419 313.25,105.512 311.7,105.676C307.222,106.166 302.572,106.61 298.036,107.076C297.074,107.17 296.152,107.279 295.28,107.403C294.734,107.472 294.25,107.559 293.846,107.66C293.722,107.682 293.626,107.709 293.558,107.739C293.492,107.769 293.456,107.802 293.456,107.835C293.456,107.868 293.492,107.901 293.558,107.931C293.626,107.961 293.722,107.988 293.846,108.01C294.276,108.087 294.758,108.15 295.28,108.197L295.05,108.197ZM284.314,19.852L288.62,19.164C289.138,19.082 289.54,18.942 290.114,18.895C293.14,18.575 295.876,18.152 298.208,17.646C298.998,17.463 299.952,17.312 301.022,17.203C304.294,16.863 307.326,16.435 310.036,15.93C311.812,15.653 313.446,15.34 314.916,14.997C315.018,14.951 315.072,14.901 315.072,14.851C315.072,14.8 315.018,14.751 314.916,14.705C314.878,14.672 314.806,14.641 314.704,14.615C314.602,14.588 314.472,14.566 314.326,14.551C314.178,14.535 314.016,14.526 313.85,14.525C313.684,14.523 313.52,14.529 313.366,14.541C311.342,14.65 309.472,14.854 307.912,15.137C306.472,15.414 304.894,15.661 303.204,15.872C301.596,16.094 300.62,16.467 298.552,16.584C297.686,16.649 296.956,16.773 296.486,16.934C295.522,17.228 294.078,17.443 292.41,17.541C291.418,17.612 290.488,17.714 289.654,17.845C287.644,18.183 285.75,18.557 283.912,18.918C283.33,19.025 282.696,19.119 282.018,19.199L272.488,20.366C270.192,20.634 267.894,20.891 265.656,21.183C263.806,21.386 262.122,21.646 260.66,21.953C259.102,22.279 257.37,22.569 255.494,22.817C252.624,23.284 249.752,23.716 246.594,24.159C244.586,24.451 242.518,24.731 240.394,24.988C239.302,25.084 238.422,25.258 237.926,25.478C237.638,25.642 236.778,25.665 236.088,25.735C232.356,25.995 228.946,26.417 226.098,26.972C225.738,27.048 225.332,27.115 224.892,27.171C222.08,27.567 219.152,27.953 216.454,28.338C215.748,28.45 215.096,28.575 214.502,28.711C214.608,28.78 214.84,28.838 215.15,28.872C215.46,28.907 215.824,28.916 216.166,28.898C218.83,28.752 221.354,28.515 223.63,28.198C227.398,27.629 231.392,27.126 235.572,26.692C238.832,26.391 241.718,25.944 244.012,25.385C245.808,24.955 248.284,24.666 251.016,24.568C252.19,24.539 253.294,24.437 254.174,24.276C255.014,24.109 256.01,23.978 257.102,23.891C259.396,23.693 261.574,23.442 263.588,23.144C265.54,22.817 267.32,22.432 269.33,22.105C271.34,21.778 274.44,21.358 276.908,20.938C279.378,20.518 281.846,20.156 284.314,19.852ZM101.169,39.193C101.571,39.496 102.49,39.589 103.408,39.554C106.621,39.523 109.682,39.267 112.078,38.831C113.333,38.52 115.115,38.316 117.072,38.259C119.339,38.166 121.372,37.914 122.814,37.547C123.172,37.467 123.429,37.371 123.56,37.267C123.56,37.197 123.56,37.068 123.56,37.045C123.372,37.013 123.15,36.989 122.911,36.977C122.672,36.965 122.423,36.964 122.182,36.975L112.02,38.014L110.24,38.177C106.955,38.408 103.887,38.752 101.169,39.193L101.169,39.193ZM123.503,41.714C125.34,42.041 125.34,42.029 126.201,42.041C130.312,42.013 134.298,41.745 137.683,41.27C138.434,41.161 139.045,41.017 139.463,40.85C139.698,40.802 139.83,40.737 139.83,40.669C139.83,40.601 139.698,40.536 139.463,40.488L138.028,40.278C135.696,40.432 133.414,40.615 131.196,40.827C128.612,41.072 126.373,41.387 123.732,41.714L123.503,41.714ZM293.616,105.793C295.452,106.341 295.452,106.329 297.978,106.178C299.74,106.074 301.422,105.921 302.974,105.722C304.868,105.477 306.82,105.244 308.714,105.01C309.186,104.969 309.564,104.894 309.776,104.799C309.988,104.704 310.02,104.596 309.864,104.497C309.554,104.409 309.108,104.345 308.596,104.316C308.086,104.286 307.54,104.292 307.05,104.334L306.016,104.462C304.754,104.602 303.432,104.73 302.228,104.894C301.464,105.036 300.548,105.141 299.552,105.2C298.556,105.259 297.506,105.27 296.486,105.232L293.616,105.793ZM129.014,36.275C129.468,36.35 129.97,36.413 130.507,36.461C132.518,36.52 134.566,36.425 136.248,36.193C137.052,36.1 137.741,35.924 138.602,35.913C140.122,35.844 141.564,35.718 142.851,35.539C142.851,35.539 143.195,35.458 143.31,35.434L143.31,34.921C142.645,34.897 141.965,34.897 141.3,34.921C139.119,35.096 136.995,35.306 134.87,35.504C132.746,35.703 132,35.761 130.622,35.913C130.029,36.022 129.49,36.144 129.014,36.275ZM113.743,102.303L117.015,102.886C117.955,102.843 118.8,102.739 119.422,102.589C120.044,102.44 120.408,102.253 120.46,102.058C120.646,101.943 120.606,101.818 120.349,101.709C120.092,101.6 119.638,101.516 119.082,101.474C118.534,101.408 117.925,101.366 117.293,101.35C116.66,101.334 116.019,101.344 115.408,101.381L113.743,102.303ZM134.296,94.132C132.399,94.225 130.632,94.405 129.129,94.658C128.221,94.892 126.906,95.046 125.455,95.089C122.802,95.141 120.352,95.401 118.623,95.813C118.623,95.813 118.623,95.953 118.336,96.035C118.048,96.117 119.312,96.035 119.599,96.035C121.608,95.848 123.617,95.638 125.34,95.428C126.398,95.275 127.533,95.146 128.727,95.043C130.375,94.911 131.907,94.726 133.263,94.494C133.263,94.494 133.779,94.389 134.296,94.144L134.296,94.132ZM301.538,15.487C300.578,15.426 299.564,15.41 298.568,15.441C297.574,15.471 296.628,15.547 295.798,15.662C295.158,15.743 294.67,15.865 294.41,16.009C294.15,16.153 294.132,16.31 294.362,16.456C295.05,16.456 295.97,16.456 296.486,16.456C298.15,16.211 299.528,15.919 301.538,15.487ZM471.478,7.888C470.708,7.839 469.886,7.835 469.104,7.876C468.322,7.917 467.614,8.003 467.058,8.122C466.772,8.18 467.058,8.32 467.058,8.425C467.036,8.452 467.052,8.48 467.1,8.505C467.15,8.53 467.232,8.553 467.336,8.569C467.442,8.586 467.568,8.597 467.702,8.6C467.834,8.604 467.968,8.6 468.092,8.589C468.878,8.545 469.598,8.463 470.19,8.349C470.78,8.234 471.224,8.092 471.478,7.935L471.478,7.888ZM483.42,8.46C483.268,8.388 482.992,8.329 482.644,8.295C482.296,8.261 481.9,8.253 481.526,8.274C480.892,8.36 480.33,8.466 479.862,8.589C479.344,8.706 479.862,8.904 480.664,8.951C481.004,8.967 481.356,8.967 481.696,8.951C482.034,8.935 482.35,8.903 482.618,8.858C482.886,8.812 483.098,8.755 483.236,8.69C483.376,8.625 483.44,8.554 483.42,8.484L483.42,8.46ZM157.663,33.182C155.883,33.1 154.678,33.357 153.242,33.427C151.807,33.497 151.462,33.532 151.75,33.707C152.037,33.882 152.955,33.707 153.587,33.707C154.439,33.705 155.272,33.655 155.992,33.562C156.711,33.469 157.29,33.337 157.663,33.182L157.663,33.182ZM522.232,37.944C521.338,37.996 520.472,38.066 519.648,38.154C519.556,38.198 519.51,38.246 519.51,38.294C519.51,38.342 519.556,38.39 519.648,38.434C519.648,38.434 520.28,38.516 520.624,38.516C521.888,38.504 521.83,38.271 522.232,37.944L522.232,37.944ZM658.414,49.791C659.102,49.919 659.446,50.024 659.964,50.059C660.196,50.064 660.43,50.058 660.648,50.042C660.866,50.026 661.064,50 661.226,49.966C661.4,49.876 661.4,49.776 661.226,49.686C661.226,49.686 660.538,49.581 660.308,49.604C659.644,49.651 659.008,49.714 658.414,49.791L658.414,49.791ZM129.187,35.329C127.866,35.329 126.603,35.329 125.857,35.656C127.923,35.598 127.923,35.598 129.187,35.329ZM150.142,34.489C148.707,34.29 147.96,34.36 147.386,34.489C147.265,34.518 147.194,34.554 147.183,34.592C147.172,34.63 147.222,34.668 147.326,34.699C147.43,34.731 147.581,34.755 147.758,34.767C147.935,34.78 148.127,34.781 148.305,34.769C148.958,34.687 149.573,34.593 150.142,34.489L150.142,34.489ZM214.156,25.513C214.156,25.455 214.156,25.385 213.812,25.385C213.716,25.373 213.608,25.368 213.496,25.368C213.386,25.368 213.276,25.373 213.18,25.385C213.18,25.385 213.18,25.455 213.18,25.501L214.156,25.513ZM304.926,109.434L304.236,109.586L304.582,109.586L305.442,109.493L304.926,109.434ZM519.934,2.333C519.648,2.333 519.36,2.333 519.36,2.414C519.31,2.434 519.284,2.456 519.284,2.479C519.284,2.501 519.31,2.523 519.36,2.543C519.36,2.543 519.762,2.543 519.934,2.543L519.934,2.333ZM478.598,8.892C478.42,8.913 478.264,8.941 478.138,8.974C478.138,8.974 478.138,9.044 478.138,9.044L478.712,9.044L478.598,8.892ZM123.618,76.298C123.391,76.287 123.156,76.287 122.929,76.298L122.641,76.298C122.641,76.298 122.986,76.368 123.158,76.368C123.33,76.368 123.445,76.321 123.618,76.298Z" transform="rotate(14.121 341.434 59.427)" fill="#DF6951"/>
</g>
</svg>
