<svg width="770" height="134" viewBox="0 0 770 134" fill="none" xmlns="http://www.w3.org/2000/svg" xmlns:xlink="http://www.w3.org/1999/xlink">
<mask id="mask_0_1_122" style="mask-type:alpha" maskUnits="userSpaceOnUse" x="0" y="18" width="385" height="12">
<rect  x="0" y="18" width="770" height="24" fill="#C4C4C4"/>
</mask>
<g mask="url(#mask_0_1_122)">
<path d="M101.971,43.821L103.562,43.226L99.872,43.226L101.335,42.631C102.989,42.398 105.407,42.631 106.425,42.178C106.425,41.881 104.58,42.049 104.007,41.894C103.484,41.725 103.037,41.548 102.671,41.363C103.572,41.237 104.589,41.149 105.661,41.105C107.118,41.074 108.505,40.962 109.669,40.781C112.087,40.484 114.378,40.109 116.986,39.746L115.777,39.203L119.213,38.88C119.594,38.88 119.976,38.738 120.358,38.75C123.539,38.867 124.621,38.401 125.893,37.961C126.147,37.858 126.468,37.763 126.847,37.677C130.792,37.25 134.673,37.496 138.363,37.379C139.071,37.383 139.766,37.419 140.399,37.483C141.758,37.59 143.228,37.626 144.672,37.587C146.117,37.549 147.492,37.437 148.67,37.263C151.279,36.884 154.325,36.648 157.514,36.577C158.468,36.568 159.402,36.518 160.256,36.432C161.111,36.345 161.867,36.223 162.476,36.073L164.703,36.164C165.504,35.883 166.577,35.639 167.857,35.446C169.136,35.252 170.596,35.114 172.147,35.038C173.801,34.961 175.455,34.831 177.173,34.754C180.709,34.569 184.095,34.282 187.225,33.9C191.933,33.421 196.514,32.917 201.286,32.477C204.255,32.17 207.123,31.824 209.875,31.443C213.187,31.015 216.851,30.713 220.691,30.55C220.691,30.912 219.037,31.042 217.955,31.184C214.457,31.624 210.829,31.986 207.203,32.387C205.573,32.574 204.001,32.781 202.495,33.008C199.962,33.354 197.253,33.645 194.415,33.874C189.972,34.315 185.716,34.83 181.69,35.413C181.381,35.472 181.104,35.537 180.863,35.607C180.824,35.644 180.832,35.682 180.887,35.718C180.942,35.754 181.041,35.787 181.175,35.813C181.309,35.839 181.473,35.857 181.653,35.867C181.832,35.876 182.02,35.876 182.199,35.866C183.917,35.866 185.762,35.866 187.289,35.685C187.349,35.679 187.414,35.676 187.48,35.676C187.546,35.676 187.611,35.679 187.671,35.685C191.297,35.685 194.033,35.206 196.705,34.909C201.184,34.497 205.447,33.994 209.429,33.409C210.033,33.323 210.699,33.258 211.403,33.215C215.693,32.833 219.613,32.298 222.981,31.637C224.381,31.391 225.653,31.106 227.181,30.886C228.119,30.745 228.905,30.567 229.497,30.363C230.087,30.158 230.467,29.932 230.617,29.696C231.315,29.709 232.017,29.709 232.715,29.696C233.131,29.687 233.515,29.645 233.785,29.58C234.057,29.516 234.197,29.432 234.179,29.347C234.179,29.101 233.225,29.114 232.397,29.127C232.841,29.011 233.353,28.907 233.925,28.817C237.135,28.302 240.637,27.868 244.359,27.523C247.285,27.329 249.449,26.838 252.567,26.708C252.947,26.708 253.203,26.592 253.521,26.527C254.325,26.311 255.377,26.138 256.587,26.023C257.795,25.908 259.123,25.855 260.455,25.868C261.727,25.13 265.355,25.247 267.835,24.949C268.727,25.105 267.835,25.182 267.835,25.26C267.835,25.337 267.835,25.26 267.517,25.26C265.259,25.983 261.943,26.543 258.037,26.864C257.337,26.965 256.677,27.077 256.065,27.2C255.137,27.383 254.061,27.531 252.885,27.64C251.609,27.778 250.467,27.962 249.513,28.183C248.939,28.264 248.475,28.372 248.165,28.499C247.853,28.625 247.703,28.766 247.731,28.907C248.167,28.957 248.639,28.992 249.131,29.011C251.641,29.003 254.047,28.805 255.875,28.455C259.055,27.847 263.001,27.433 266.435,26.89C268.765,26.536 271.283,26.236 273.943,25.997C273.943,25.997 273.943,26.139 273.943,26.152C274.279,26.166 274.625,26.166 274.961,26.152C274.961,26.152 274.961,26.152 274.961,26.088C274.789,26.05 274.569,26.023 274.325,26.01L273.497,26.01C274.007,25.907 274.453,25.751 275.025,25.725C276.225,25.658 277.345,25.542 278.317,25.384C279.291,25.226 280.097,25.03 280.687,24.807C281.767,24.475 283.175,24.193 284.823,23.979C286.069,23.782 287.259,23.57 288.385,23.346C288.385,23.346 288.385,23.19 288.895,23.035C288.327,23.015 287.745,23.015 287.177,23.035C284.759,23.229 282.341,23.436 279.987,23.669C279.133,23.78 278.343,23.91 277.633,24.057C275.631,24.396 273.317,24.651 270.825,24.807C270.825,24.807 270.317,24.807 270.063,24.807C270.571,24.393 273.053,24.38 273.879,24.031C274.453,23.953 275.471,23.837 275.407,23.785C275.289,23.721 275.245,23.652 275.273,23.583C275.303,23.515 275.407,23.449 275.577,23.389C275.747,23.33 275.979,23.279 276.259,23.24C276.537,23.201 276.855,23.175 277.189,23.164C279.921,22.972 282.433,22.668 284.569,22.272C285.395,22.156 286.349,22.078 287.177,21.974C287.687,21.919 288.141,21.845 288.513,21.755C290.365,21.219 293.021,20.819 296.085,20.616C297.551,20.491 298.889,20.311 300.029,20.086C300.855,19.957 301.301,20.086 301.937,20.086L304.545,19.905L301.429,20.59C302.383,21.004 303.019,21.095 304.165,20.966C305.835,20.779 307.451,20.571 308.999,20.345C310.145,20.177 311.035,19.931 312.689,19.905C312.981,19.898 313.251,19.87 313.453,19.827C315.183,19.393 317.353,19.04 319.815,18.793C320.897,18.288 323.187,18.301 325.287,18.275C325.795,17.939 324.587,17.991 323.823,17.939C325.477,17.719 327.131,17.473 328.849,17.266C329.355,17.18 329.949,17.119 330.591,17.088C331.231,17.056 331.897,17.055 332.539,17.085C332.861,17.118 333.233,17.124 333.577,17.102C333.921,17.08 334.209,17.033 334.385,16.969C335.211,16.736 336.675,16.633 337.311,16.348C337.549,16.269 337.917,16.211 338.349,16.182C338.779,16.154 339.247,16.158 339.665,16.193C339.271,16.279 338.929,16.374 338.647,16.477C337.629,16.827 338.203,17.085 339.857,17.344C342.019,17.008 344.247,16.697 346.219,16.322C347.303,16.083 348.693,15.911 350.233,15.824C351.773,15.737 353.401,15.74 354.935,15.831C355.493,15.87 356.105,15.865 356.647,15.817C357.189,15.77 357.623,15.682 357.861,15.572C357.991,15.466 357.991,15.355 357.861,15.249L356.335,15.249C356.335,15.249 356.335,15.132 356.335,15.106L358.371,14.796C359.453,14.641 360.597,14.511 361.615,14.356C363.087,14.081 364.819,13.87 366.705,13.735C368.453,13.624 370.153,13.486 371.795,13.321C373.385,13.166 374.403,12.791 375.867,12.545C376.973,12.359 378.219,12.211 379.557,12.105C381.869,11.927 383.925,11.633 385.537,11.252C387.891,11.73 388.909,11.717 390.627,11.252L391.455,11.071L391.773,11.2L392.409,11.071C393.617,10.864 394.827,10.657 396.099,10.463C397.913,10.279 399.929,10.195 401.953,10.217C402.333,10.217 402.907,10.32 403.289,10.411C403.671,10.502 404.561,10.812 405.197,11.006C404.751,11.278 404.243,11.549 403.925,11.834C403.901,11.878 403.929,11.923 404.005,11.965C404.081,12.006 404.205,12.044 404.367,12.074C404.527,12.104 404.721,12.126 404.931,12.138C405.141,12.151 405.363,12.153 405.579,12.144C406.001,12.132 406.409,12.106 406.787,12.067C408.631,11.829 410.377,11.56 412.005,11.265C412.567,11.095 413.393,10.969 414.349,10.906C415.307,10.842 416.339,10.846 417.285,10.915C419.397,10.491 421.937,10.164 424.729,9.958C427.529,9.441 431.091,9.169 433.637,8.548C433.637,8.678 434.019,8.846 434.463,8.911C435.163,9.005 435.939,9.075 436.753,9.118L442.543,8.6C442.831,8.718 443.171,8.831 443.561,8.936C443.837,9.024 444.269,9.087 444.769,9.111C445.267,9.135 445.793,9.119 446.233,9.066C447.379,8.949 448.269,8.717 449.733,8.768C447.789,9.293 444.993,9.659 441.843,9.803C438.911,9.989 436.141,10.269 433.637,10.631C432.809,10.747 431.727,10.915 431.537,11.084C431.155,11.536 429.629,11.692 427.847,11.873C426.437,11.994 425.187,12.181 424.203,12.42C423.219,12.658 422.527,12.94 422.185,13.244C422.185,13.489 422.565,13.645 423.839,13.606L429.119,13.425C429.821,13.251 430.481,13.069 431.091,12.882C432.139,12.598 433.493,12.368 435.049,12.209C436.605,12.05 438.321,11.966 440.063,11.963C440.953,11.963 441.843,11.963 442.417,11.821C442.911,11.681 443.357,11.534 443.753,11.381C443.811,11.308 443.811,11.234 443.753,11.161C444.089,11.151 444.433,11.151 444.771,11.161C447.569,11.446 449.479,11.161 451.133,10.747C451.577,10.631 451.897,10.502 452.341,10.372C452.787,10.243 452.915,10.139 453.359,10.101C456.923,9.816 457.559,8.975 460.485,8.587C460.613,8.54 460.681,8.486 460.681,8.432C460.681,8.378 460.613,8.324 460.485,8.277C460.251,8.251 459.989,8.237 459.721,8.237C459.455,8.237 459.193,8.251 458.959,8.277C457.571,8.379 456.403,8.575 455.649,8.833C455.095,8.974 454.501,9.108 453.869,9.234L450.433,8.639C453.305,8.328 455.977,7.946 458.385,7.501C458.895,7.371 459.849,7.333 460.613,7.242L466.211,6.544C467.357,6.388 468.247,6.091 470.029,6.233C470.029,6.233 471.111,6.143 471.365,6.052C471.619,5.962 472.701,5.47 473.337,5.16C474.227,5.095 475.501,5.082 476.009,4.953C476.879,4.689 477.605,4.407 478.173,4.112L481.671,3.918C481.797,4.172 481.797,4.427 481.671,4.681C481.519,4.93 481.659,5.183 482.079,5.419C482.499,5.655 483.187,5.868 484.089,6.039L488.161,7.048C488.753,7.07 489.363,7.055 489.909,7.004C490.455,6.953 490.911,6.869 491.215,6.764C492.551,6.388 494.077,6.026 495.413,5.651C497.387,5.651 497.131,6.143 498.659,6.324L503.303,6.324C504.257,6.802 505.211,7.255 503.303,7.734C502.921,7.824 503.303,8.005 502.985,8.147C504.767,8.354 506.549,8.238 508.265,8.277C508.987,8.378 509.613,8.505 510.111,8.652C510.701,8.896 511.739,9.083 513.001,9.172C514.263,9.262 515.647,9.247 516.855,9.131C518.919,9.008 521.071,8.96 523.217,8.988C523.951,9 524.689,8.979 525.379,8.928C526.071,8.876 526.701,8.796 527.225,8.691C529.121,8.367 530.659,7.966 531.743,7.514C532.833,7.105 534.407,6.758 536.323,6.505C539.823,6.505 540.841,7.113 543.131,7.449L539.759,8.005C539.759,8.264 540.141,8.536 538.741,8.73C537.341,8.924 538.169,9.053 538.741,9.221C538.961,9.315 539.335,9.391 539.797,9.436C540.261,9.481 540.787,9.492 541.285,9.467L544.339,9.35C545.427,9.317 546.447,9.223 547.289,9.079C548.131,8.936 548.761,8.747 549.111,8.536C549.529,8.322 550.157,8.129 550.957,7.966C551.945,7.7 552.719,7.403 553.247,7.087L557.509,6.828C557.569,6.578 558.051,6.34 558.873,6.154C559.697,5.968 560.811,5.845 562.027,5.806L564.891,5.612C568.071,5.392 568.707,5.224 569.279,4.461L565.017,3.853C565.399,3.478 565.781,3.142 566.163,2.806C565.053,2.563 563.649,2.385 562.091,2.288C560.615,2.156 559.107,2.04 557.573,1.939C555.919,1.848 554.201,1.81 552.165,1.732C551.783,1.667 551.211,1.538 550.511,1.435C549.813,1.336 549.091,1.246 548.349,1.163C548.349,0.904 548.349,0.671 547.967,0.426C549.157,0.351 550.421,0.338 551.643,0.388C552.865,0.438 554.007,0.548 554.965,0.71C555.127,0.74 555.319,0.762 555.527,0.776C555.737,0.789 555.957,0.793 556.173,0.788C558.273,0.671 559.419,0.891 560.627,1.189C561.405,1.318 562.361,1.395 563.363,1.409C565.271,1.409 567.181,1.486 569.025,1.525C569.595,1.545 570.175,1.545 570.743,1.525C572.615,1.454 574.535,1.454 576.405,1.525C577.005,1.525 577.595,1.555 578.125,1.611C578.657,1.668 579.115,1.749 579.459,1.848C579.115,2.061 578.985,2.285 579.077,2.508C579.077,2.663 580.477,2.78 581.177,2.909C581.877,3.038 580.669,3.103 580.287,3.181C578.697,3.452 578.441,3.582 579.651,3.918C580.049,4.021 580.341,4.14 580.505,4.266C580.669,4.393 580.703,4.526 580.605,4.655C580.605,5.134 580.095,5.599 579.841,6.104C580.733,6.285 582.131,6.414 582.449,6.751C582.555,6.82 582.735,6.884 582.977,6.938C583.219,6.991 583.517,7.034 583.849,7.061C584.707,7.1 585.509,7.179 586.193,7.291C586.877,7.403 587.425,7.546 587.795,7.708C587.923,7.778 588.179,7.836 588.509,7.869C588.841,7.903 589.221,7.91 589.575,7.889C589.999,7.865 590.361,7.808 590.587,7.731C590.811,7.654 590.883,7.562 590.785,7.475C590.703,7.296 590.555,7.119 590.339,6.945C590.339,6.802 590.339,6.66 589.957,6.479C591.213,6.385 592.571,6.364 593.883,6.416C595.197,6.469 596.413,6.593 597.401,6.776C598.483,6.958 599.501,7.164 600.709,7.384C600.709,7.824 600.709,7.824 603.255,8.238L614.961,6.945L617.569,7.087C619.987,7.19 620.497,7.087 621.769,6.673L622.595,6.337C624.695,6.337 627.113,6.337 628.067,5.638C628.639,5.923 628.959,6 628.895,6.065C628.569,6.652 627.775,7.225 626.541,7.759C626.223,7.889 626.031,8.044 625.649,8.173C624.505,8.759 624.505,9.411 625.649,9.997C626.199,10.25 626.927,10.486 627.813,10.696C626.975,11.282 625.755,11.843 624.187,12.364C622.843,12.785 621.795,13.242 621.069,13.722C620.437,14.192 619.357,14.631 617.887,15.016C617.135,15.197 616.631,15.416 616.425,15.649C616.599,16.177 617.089,16.698 617.887,17.202C618.073,17.363 618.439,17.514 618.957,17.642C619.475,17.77 620.133,17.871 620.877,17.939C620.877,17.939 621.259,18.016 621.451,18.068C621.899,18.673 621.703,19.291 620.877,19.879C620.769,20.028 620.463,20.168 619.993,20.284C619.523,20.401 618.905,20.489 618.205,20.539C616.743,20.668 615.407,20.849 614.007,21.004C612.491,21.158 611.207,21.391 610.289,21.68C609.371,21.969 608.853,22.303 608.789,22.647C608.821,22.737 608.821,22.828 608.789,22.919C608.769,22.966 608.769,23.014 608.789,23.061L612.479,23.63L609.107,24.548C609.107,24.988 610.953,24.988 611.971,25.169L611.525,25.415C610.889,25.609 609.871,25.557 608.981,25.57L608.089,25.57L608.089,25.777C607.707,26.114 605.673,26.088 605.035,26.385C604.399,26.683 605.035,26.825 606.245,26.877C607.091,26.923 607.977,26.929 608.835,26.896C609.695,26.862 610.507,26.789 611.207,26.683C611.617,26.602 611.941,26.505 612.161,26.398C613.493,25.885 615.003,25.393 616.679,24.924C617.949,24.536 619.621,24.209 621.577,23.966C622.139,23.871 622.849,23.818 623.581,23.818C624.315,23.818 625.025,23.871 625.585,23.966L626.603,23.85C626.603,23.85 627.241,23.941 627.177,23.979C627.051,24.535 627.811,25.084 629.339,25.544L628.321,25.751C626.795,25.907 627.941,26.152 627.813,26.372C626.731,26.489 625.267,26.527 624.887,26.838L624.123,26.928L624.441,26.928L624.759,26.799L626.349,26.954C625.713,27.109 625.267,27.252 624.695,27.368C624.385,27.443 624.151,27.529 624.009,27.623C623.867,27.716 623.819,27.814 623.869,27.911C623.947,28.061 623.835,28.212 623.547,28.35C623.257,28.488 622.797,28.609 622.213,28.7C621.515,28.804 621.195,29.024 620.815,29.14L623.105,29.865C623.105,29.865 622.151,29.865 622.723,29.968L622.723,29.839L623.931,29.929C624.823,30.033 625.395,30.007 625.777,29.787C626.159,29.567 626.159,29.787 626.349,29.696C626.349,29.865 625.905,30.046 625.523,30.201C625.063,30.345 624.531,30.48 623.931,30.602C625.395,31.132 625.459,31.145 623.931,31.559C622.405,31.973 623.105,32.167 621.769,32.4C620.433,32.632 622.215,32.878 623.169,32.839C623.873,32.803 624.605,32.798 625.319,32.825C626.033,32.852 626.711,32.91 627.303,32.995L627.303,33.564C626.883,33.577 626.453,33.577 626.031,33.564C624.567,33.46 623.233,33.357 622.151,33.693L622.913,34.016L618.715,34.366C618.975,34.653 619.773,34.908 620.941,35.077C620.879,35.271 620.879,35.465 620.941,35.659C620.941,35.801 620.497,35.776 620.241,35.827C619.319,35.983 618.599,36.182 618.143,36.408C617.689,36.633 617.513,36.878 617.633,37.121C617.633,37.341 619.287,37.561 620.179,37.418C622.441,37.139 624.947,36.95 627.559,36.862C629.085,36.681 629.021,36.112 631.693,36.125C631.871,36.366 631.657,36.613 631.083,36.828C630.509,37.043 629.607,37.214 628.513,37.315C629.403,37.78 632.839,37.444 633.285,38C632.427,38.079 631.481,38.111 630.545,38.093C629.607,38.075 628.709,38.007 627.941,37.897C627.771,37.867 627.567,37.846 627.347,37.836C627.127,37.826 626.899,37.828 626.683,37.841C626.469,37.854 626.271,37.877 626.113,37.91C625.955,37.942 625.839,37.982 625.777,38.026C626.349,38.168 626.985,38.337 627.685,38.479C628.385,38.621 628.577,38.699 629.021,38.686C632.393,38.686 634.303,39.281 637.293,39.423C638.057,39.423 638.311,39.734 637.675,39.785C637.069,39.833 636.539,39.913 636.145,40.018C635.753,40.124 635.511,40.249 635.447,40.38C635.061,40.578 634.547,40.765 633.921,40.936C637.135,41.368 640.833,41.626 644.673,41.687C645.403,41.703 646.139,41.671 646.773,41.596C648.753,41.314 650.889,41.08 653.135,40.898C653.925,40.822 654.639,40.717 655.235,40.587C657.207,40.199 658.925,40.186 660.705,40.587L663.633,41.208C663.633,41.376 663.315,41.609 663.123,41.894L665.287,42.139L679.157,38.88L682.655,39.617L686.791,38.957C687.127,38.945 687.473,38.945 687.809,38.957C688.827,39.177 689.655,39.41 690.735,39.604C691.817,39.798 693.471,39.604 694.807,39.824C696.143,40.044 697.289,39.889 698.815,39.915C699.101,40.192 699.101,40.478 698.815,40.755C698.815,41.027 698.179,41.286 698.179,41.544C698.319,41.786 698.159,42.031 697.713,42.257C697.269,42.483 696.555,42.682 695.635,42.838C693.291,43.729 690.335,44.548 686.855,45.269C686.547,45.33 686.303,45.402 686.139,45.482C685.975,45.562 685.895,45.648 685.901,45.735C686.027,45.971 685.893,46.209 685.507,46.433C685.121,46.657 684.495,46.86 683.673,47.029C683.453,47.07 683.299,47.124 683.229,47.184C682.923,47.259 682.717,47.35 682.635,47.446C682.551,47.543 682.591,47.642 682.751,47.734C682.911,47.826 683.185,47.909 683.547,47.973C683.909,48.038 684.347,48.082 684.819,48.102C685.509,48.144 686.209,48.179 686.919,48.206C686.919,48.283 686.283,48.387 686.409,48.438C686.769,48.61 686.929,48.796 686.873,48.983C686.819,49.169 686.551,49.35 686.091,49.512L690.417,50.702C692.639,50.635 694.903,50.736 696.779,50.986C696.823,51.065 696.763,51.145 696.607,51.218C696.451,51.29 696.203,51.353 695.889,51.4C695.063,51.556 694.299,51.737 693.407,51.905C692.865,52.013 692.435,52.142 692.141,52.284C691.845,52.426 691.693,52.578 691.691,52.733L694.045,53.069C693.471,53.315 693.027,53.457 692.645,53.612C692.989,53.774 693.513,53.918 694.175,54.033C694.837,54.147 695.619,54.229 696.461,54.272C696.683,54.274 696.903,54.267 697.111,54.251C697.319,54.236 697.509,54.212 697.671,54.181C699.133,53.742 701.169,53.858 703.143,53.961C705.115,54.065 706.197,54.143 707.659,54.233L710.205,53.91C710.911,53.95 711.561,54.024 712.103,54.125C712.645,54.227 713.061,54.352 713.321,54.492C713.321,54.776 712.049,54.802 711.349,54.932C709.741,55.338 707.495,55.621 704.987,55.733C704.351,55.733 703.779,55.889 703.205,55.979C701.979,56.19 700.811,56.414 699.707,56.652C698.991,56.828 698.331,57.014 697.735,57.208C697.735,57.57 700.597,57.441 699.133,57.829C699.707,57.829 699.961,57.906 700.215,57.829C702.085,57.797 703.873,57.658 705.369,57.428C708.233,56.969 711.591,56.654 715.167,56.51C719.021,56.339 722.619,55.984 725.665,55.475C726.837,55.303 728.185,55.188 729.609,55.138C731.305,55.109 732.953,55.008 734.445,54.841C734.931,54.773 735.491,54.729 736.077,54.714C736.663,54.698 737.259,54.71 737.817,54.75C737.817,54.841 737.371,54.97 737.499,54.996C739.343,55.41 740.297,55.979 742.969,56.29C744.687,56.29 746.661,56.29 747.551,55.837C748.441,55.384 747.933,55.177 745.451,54.699C745.897,54.623 746.461,54.581 747.041,54.581C747.623,54.581 748.187,54.623 748.633,54.699L750.731,55.022L752.641,55.345C752.641,55.643 752.641,55.876 752.641,56.121C752.579,56.391 752.935,56.658 753.659,56.885C754.085,57.004 754.469,57.129 754.803,57.26C756.161,57.78 756.777,58.367 756.585,58.954C756.089,59.83 755.217,60.696 753.977,61.541C752.641,62.382 752.131,63.274 751.113,64.128C750.575,64.527 749.873,64.917 749.015,65.292C747.423,66.081 745.643,66.87 744.051,67.672C742.461,68.474 740.553,69.159 738.707,69.897C735.891,70.861 732.789,71.79 729.419,72.678C727.383,73.324 725.283,73.971 723.437,74.644C721.247,75.418 718.575,76.131 715.485,76.765C712.785,77.382 710.437,78.058 708.487,78.783C708.283,78.86 708.133,78.943 708.041,79.028C707.869,79.507 706.931,79.962 705.369,80.322C705.531,80.432 705.723,80.54 705.941,80.645C706.245,80.765 706.365,80.9 706.287,81.034C706.207,81.168 705.931,81.294 705.497,81.395C704.249,81.686 703.259,82.019 702.569,82.378C702.301,82.482 702.163,82.598 702.163,82.715C702.163,82.832 702.301,82.947 702.569,83.051C702.817,83.162 702.893,83.285 702.791,83.405C702.689,83.525 702.413,83.636 701.997,83.724C700.961,84.01 699.835,84.282 698.625,84.539C696.053,85.09 692.959,85.53 689.527,85.832C689.145,85.832 688.827,85.961 688.381,85.961C685.917,86.102 683.709,86.385 682.019,86.776C679.983,87.125 677.821,87.423 675.657,87.759C672.505,88.191 669.657,88.709 667.195,89.298C664.141,89.505 662.677,90.113 660.197,90.475C657.923,90.841 655.795,91.244 653.835,91.678C650.653,92.338 647.473,92.972 644.355,93.657C641.377,94.197 638.689,94.8 636.339,95.455C635.447,95.727 633.603,95.766 633.093,96.141C632.585,96.516 631.249,96.671 630.231,96.917L626.985,97.628C626.435,97.766 625.817,97.891 625.141,98.003C622.023,98.469 620.051,99.154 617.187,99.646L616.869,99.646C612.003,100.941 606.263,102.091 599.819,103.061C596.129,103.772 591.993,104.354 588.049,105.053C587.221,105.441 584.803,105.454 583.723,105.855C582.641,106.255 580.605,106.385 579.077,106.644C577.551,106.902 576.087,107.213 574.433,107.445C572.999,107.652 571.839,107.927 571.061,108.247C569.223,108.856 566.875,109.394 564.127,109.838C560.501,110.446 557.129,111.132 553.375,111.623C553.549,111.85 553.421,112.082 553.007,112.296C552.595,112.51 551.909,112.697 551.021,112.839C547.075,113.499 543.577,114.249 539.569,114.896L538.487,115.051L526.461,116.913C523.217,117.405 520.099,117.897 516.791,118.401C515.455,118.401 515.583,118.711 514.691,118.776C514.373,118.66 514.055,118.634 513.673,118.776L513.673,118.97L499.995,121.182C494.681,122.129 489.023,122.994 483.071,123.769C481.677,123.987 480.397,124.234 479.253,124.506C478.165,124.701 477.017,124.883 475.819,125.049C474.177,125.235 472.585,125.438 471.047,125.657C467.039,126.304 462.775,126.873 458.321,127.455C453.869,128.037 450.561,128.606 446.615,129.162C443.943,129.538 441.271,129.887 438.471,130.21C437.135,130.365 435.417,130.417 434.019,130.546C432.619,130.676 432.173,130.74 432.045,130.87C431.601,131.245 430.009,131.271 428.801,131.413C426.447,131.698 426.065,131.646 425.047,130.986L427.783,130.339C428.443,130.162 429.317,130.023 430.321,129.935C431.323,129.846 432.421,129.812 433.509,129.835C433.941,129.85 434.381,129.847 434.807,129.827C435.233,129.807 435.635,129.77 435.991,129.719C438.853,129.266 441.653,128.774 444.389,128.309L444.771,128.205L444.453,127.533C444.051,127.519 443.643,127.519 443.243,127.533L429.119,129.085C425.875,129.434 422.439,129.667 419.257,130.016C416.077,130.365 414.359,130.546 411.877,130.792C410.823,130.881 409.739,130.954 408.633,131.012C408.661,130.939 408.661,130.865 408.633,130.792C408.633,130.676 408.633,130.521 408.123,130.469C407.549,130.375 406.823,130.329 406.087,130.339C405.411,130.374 404.765,130.431 404.179,130.508C401.331,130.854 397.929,130.961 394.699,130.805L393.873,131.335C389.355,131.749 384.775,132.176 380.065,132.629C379.115,132.705 378.093,132.736 377.075,132.719C375.995,132.719 374.913,132.551 373.767,132.538C372.659,132.57 371.571,132.626 370.523,132.706C370.747,132.568 371.069,132.438 371.477,132.318C371.897,132.237 372.181,132.13 372.283,132.014C372.387,131.898 372.305,131.778 372.049,131.672C371.605,131.491 371.349,131.297 372.049,131.167C372.683,131.021 373.097,130.841 373.243,130.649C373.389,130.456 373.263,130.259 372.877,130.081C372.691,129.971 372.543,129.858 372.431,129.744L372.113,129.744C370.905,129.434 368.869,129.55 367.277,129.382C366.561,129.37 365.845,129.406 365.241,129.486C363.651,129.628 362.125,129.809 360.471,129.939C359.681,130.002 358.837,130.033 357.989,130.029C356.781,130.029 356.653,130.029 355.699,129.538C356.719,129.403 357.479,129.2 357.851,128.965C358.221,128.729 358.181,128.474 357.735,128.244C356.589,127.766 355.381,127.261 351.373,127.377C352.597,127.18 353.765,126.968 354.871,126.744C355.195,126.683 355.421,126.604 355.517,126.516C355.613,126.429 355.577,126.337 355.411,126.254C355.243,126.171 354.957,126.101 354.587,126.052C354.219,126.003 353.785,125.978 353.345,125.981C351.171,125.928 348.967,126 346.983,126.188C345.329,126.382 343.865,126.614 341.955,126.886L339.539,126.886C339.539,126.808 339.157,126.757 339.221,126.705C339.603,126.252 340.047,125.799 340.493,125.308C339.343,125.241 338.311,125.11 337.511,124.929C336.713,124.748 336.181,124.526 335.975,124.286C335.881,124.219 335.859,124.148 335.915,124.078C335.969,124.009 336.099,123.943 336.293,123.885C336.861,123.752 337.271,123.594 337.493,123.424C337.713,123.253 337.739,123.075 337.567,122.902L335.467,122.475C329.945,122.746 324.589,123.14 319.497,123.652L314.917,124.144C314.281,124.04 314.407,123.937 314.917,123.859C315.425,123.782 316.889,123.626 317.907,123.51C318.791,123.422 319.551,123.288 320.107,123.123C320.665,122.957 321.003,122.766 321.087,122.566L319.179,122.01C319.179,121.854 319.179,121.635 320.007,121.531C320.557,121.434 320.933,121.303 321.071,121.157C321.211,121.012 321.105,120.861 320.769,120.729C320.669,120.614 320.669,120.495 320.769,120.38C321.979,120.199 323.187,120.031 324.269,119.837C324.775,119.751 325.185,119.645 325.471,119.524C325.755,119.404 325.911,119.272 325.923,119.138C325.901,119.013 325.735,118.89 325.435,118.78C325.137,118.67 324.715,118.575 324.205,118.504C322.395,118.585 320.817,118.808 319.815,119.125C319.493,119.307 318.909,119.466 318.137,119.579C317.363,119.692 316.441,119.755 315.489,119.759C314.399,119.763 313.351,119.846 312.535,119.993C311.719,120.14 311.187,120.341 311.035,120.561C309.953,120.639 308.999,120.716 308.045,120.768C306.917,120.823 305.883,120.939 305.055,121.104C303.711,121.33 302.237,121.521 300.665,121.673C296.147,122.139 291.631,122.618 287.305,123.161C286.159,123.303 285.205,123.497 284.059,123.614C282.915,123.73 282.087,123.976 280.561,123.937C280.273,123.938 279.993,123.952 279.739,123.979C279.485,124.006 279.265,124.045 279.097,124.092C276.729,124.634 273.851,125.073 270.635,125.386C266.309,125.968 261.791,126.511 257.465,127.106C256.209,127.305 255.039,127.526 253.965,127.766C253.143,127.935 252.273,128.095 251.357,128.244C250.657,128.36 249.957,128.412 250.211,128.658C250.467,128.904 249.321,128.891 248.685,128.93C246.519,129.102 244.285,129.236 242.005,129.331C239.747,129.402 237.583,129.564 235.643,129.809C234.243,129.99 232.843,130.262 230.871,130.158C230.871,130.016 230.871,129.874 231.189,129.68C229.535,129.507 227.703,129.417 225.845,129.417C223.985,129.417 222.153,129.507 220.501,129.68L217.891,129.279C217.297,129.273 216.703,129.292 216.145,129.334C215.587,129.376 215.077,129.441 214.647,129.525C214.311,129.584 213.883,129.616 213.439,129.616C212.993,129.616 212.565,129.584 212.229,129.525C211.739,129.458 211.163,129.423 210.575,129.423C209.987,129.423 209.411,129.458 208.921,129.525C207.343,129.666 205.609,129.719 203.895,129.68C203.405,129.583 203.067,129.459 202.919,129.323C202.773,129.188 202.825,129.046 203.067,128.917C203.453,128.694 203.613,128.458 203.537,128.222C203.459,127.986 203.149,127.756 202.623,127.546C202.339,127.411 202.193,127.266 202.193,127.119C202.193,126.972 202.339,126.827 202.623,126.692C203.641,126.11 203.195,125.929 200.841,125.541C200.457,125.475 200.01,125.426 199.528,125.397C199.046,125.368 198.54,125.36 198.041,125.373C196.881,125.42 195.75,125.494 194.669,125.593C194.033,125.593 193.46,125.748 192.761,125.812C189.261,126.136 188.625,125.942 187.225,125.528L186.207,125.23C184.541,125.11 182.764,125.066 181.003,125.101C179.243,125.137 177.544,125.252 176.028,125.437C175.43,125.52 174.715,125.561 173.992,125.554C171.649,125.549 169.329,125.646 167.184,125.838C165.851,125.964 164.368,126.009 162.912,125.968C161.456,125.927 160.089,125.801 158.977,125.605C157.977,125.429 156.732,125.321 155.414,125.295C153.887,125.295 153.633,125.075 154.333,124.778C155.032,124.48 156.241,124.053 157.323,123.691C157.7,123.567 157.9,123.423 157.9,123.277C157.9,123.131 157.7,122.988 157.323,122.863C156.989,122.606 156.818,122.341 156.814,122.074C156.826,121.962 156.72,121.85 156.502,121.746C156.284,121.642 155.959,121.549 155.549,121.473C155.139,121.397 154.653,121.34 154.125,121.305C153.597,121.271 153.039,121.259 152.487,121.272C150.133,121.272 147.843,121.272 145.489,121.363C144.496,121.389 143.491,121.389 142.499,121.363C140.432,121.243 138.27,121.208 136.136,121.259C135.127,121.29 134.099,121.239 133.273,121.117C130.724,120.835 128.334,120.497 126.148,120.108C125.597,119.97 124.912,119.855 124.135,119.773C123.358,119.691 122.505,119.642 121.63,119.63C120.931,119.63 120.294,119.5 119.722,119.436C119.194,119.172 119.005,118.885 119.172,118.602C119.339,118.319 119.856,118.05 120.676,117.819C121.44,117.573 122.139,117.314 122.776,117.056C123.574,116.806 124.562,116.583 125.702,116.396C127.032,116.133 127.941,115.795 128.311,115.426C124.303,115.426 120.358,115.167 117.177,115.814L114.441,115.685C114.441,115.478 114.441,115.297 114.441,115.129C114.886,114.759 114.886,114.373 114.441,114.003C114.145,113.836 114.071,113.656 114.228,113.481C114.384,113.306 114.765,113.143 115.332,113.007C118.577,111.985 122.458,111.054 125.448,109.994C126.424,109.735 127.606,109.512 128.947,109.334C130.219,109.114 130.029,108.855 128.374,108.739C127.452,108.686 126.518,108.643 125.575,108.61C121.758,109.127 120.612,110.136 116.159,110.537L113.614,109.787C113.062,109.848 112.53,109.917 112.023,109.994L104.961,111.455C104.366,111.563 103.931,111.702 103.706,111.858C103.481,112.013 103.475,112.179 103.689,112.335C103.847,112.54 103.847,112.75 103.689,112.956C103.591,113.098 103.774,113.242 104.198,113.357C105.152,113.615 104.198,113.809 103.625,113.99C103.471,114.022 103.288,114.047 103.086,114.064C102.884,114.081 102.667,114.09 102.448,114.09C102.229,114.09 102.012,114.081 101.81,114.064C101.608,114.047 101.425,114.022 101.271,113.99C99.999,113.796 98.853,113.563 97.581,113.331C98.154,112.852 96.945,112.373 97.963,111.869C98.061,111.783 98.073,111.694 97.996,111.607C97.92,111.521 97.757,111.438 97.517,111.365C96.9,111.175 96.539,110.955 96.472,110.728C96.405,110.501 96.634,110.275 97.136,110.071L97.136,109.929C95.418,109.696 95.609,109.243 94.782,108.855L93.191,108.752C89.246,108.519 89.246,108.532 86.192,108.998C85.429,108.804 86.193,108.648 86.765,108.532L91.537,107.51C94.654,106.838 97.899,106.217 101.462,105.622C105.025,105.027 108.906,104.186 112.532,103.462C112.713,103.42 112.842,103.37 112.908,103.316C112.975,103.262 112.977,103.205 112.914,103.151C112.733,103.109 112.508,103.075 112.255,103.053C112.001,103.03 111.727,103.02 111.451,103.022C110.178,103.022 108.906,103.087 107.57,103.125L105.088,103.216L104.198,102.996C103.625,102.867 103.18,102.673 102.48,102.621C101.909,102.589 101.307,102.589 100.736,102.621C100.165,102.653 99.647,102.716 99.235,102.802C98.09,103.035 97.072,103.281 95.99,103.526C94.909,103.772 94.336,103.953 93.382,104.134C91.409,104.436 89.519,104.76 87.72,105.104C86.267,105.518 84.95,105.95 83.775,106.398C83.012,106.618 82.312,106.85 80.848,106.915C80.124,106.888 79.471,106.809 79.005,106.693C78.54,106.577 78.291,106.431 78.303,106.281C78.323,106.163 78.49,106.047 78.791,105.945C79.092,105.843 79.515,105.759 80.021,105.699C81.41,105.479 82.67,105.228 83.775,104.949C85.289,104.514 87.213,104.145 89.437,103.863C90.201,103.785 90.646,103.604 91.282,103.475C91.919,103.345 92.428,103.177 93.191,103.138C95.545,102.983 96.499,102.569 97.772,102.207C98.194,102.067 98.417,101.906 98.417,101.741C98.417,101.577 98.194,101.416 97.772,101.276C96.954,100.993 95.994,100.729 94.909,100.487C94.355,100.371 93.676,100.282 92.925,100.228C92.174,100.174 91.373,100.157 90.582,100.176C90.019,100.012 89.666,99.822 89.555,99.624C89.444,99.425 89.579,99.224 89.946,99.038C90.901,98.598 91.728,98.171 94.273,97.977C95.462,97.872 96.558,97.728 97.517,97.551C99.661,97.189 102.223,96.944 104.961,96.839C105.669,96.811 106.355,96.763 106.997,96.697C111.578,96.218 115.904,95.688 120.231,95.132C122.521,94.834 124.812,94.498 127.229,94.239C132.892,93.619 137.918,92.804 143.326,92.092C146.158,91.719 148.618,91.241 150.579,90.682C150.942,90.537 151.24,90.386 151.469,90.23C149.927,90.127 148.281,90.106 146.688,90.169C145.095,90.233 143.609,90.378 142.371,90.592C141.725,90.775 140.841,90.918 139.819,91.004C138.797,91.091 137.676,91.118 136.582,91.083L139.445,90.566C141.354,90.243 143.326,89.945 145.171,89.609C148.097,89.066 150.77,88.484 153.823,87.966C156.285,87.54 158.428,87.043 160.186,86.492C161.455,86.091 162.949,85.722 164.639,85.392C165.848,85.172 165.848,85.172 166.421,84.642C165.657,84.461 164.83,84.539 164.067,84.642C159.418,85.124 155.062,85.714 151.088,86.401C149.059,86.702 147.313,87.074 145.934,87.501C145.616,87.643 144.662,87.733 143.898,87.811C141.529,88.102 139.294,88.435 137.218,88.807C134.359,89.341 131.093,89.778 127.547,90.1C126.784,89.984 127.547,89.893 127.547,89.816C130.156,89.298 132.701,88.768 135.373,88.264C136.098,88.116 136.886,87.982 137.727,87.863C140.901,87.485 143.415,86.915 144.916,86.233C144.916,86.052 146.062,85.91 146.507,85.728C146.705,85.599 146.812,85.464 146.825,85.328C145.934,85.121 145.107,85.237 144.471,85.328C142.643,85.626 140.901,85.946 139.254,86.285C137.724,86.602 135.99,86.876 134.1,87.1C132.701,87.255 131.555,87.488 130.156,87.669C129.382,87.739 128.571,87.791 127.738,87.824C128.508,87.481 129.637,87.176 131.047,86.931C132.065,86.647 133.401,86.414 133.401,86.052C132.764,85.884 132.192,85.961 131.746,86.052C130.792,86.187 129.879,86.334 129.011,86.492C127.171,86.828 125.142,87.119 122.966,87.358C121.826,87.494 120.759,87.655 119.785,87.837C117.558,88.212 115.459,88.639 113.423,88.988C109.224,89.648 105.47,90.398 101.462,91.083C100.571,91.239 99.808,91.446 98.535,91.458C97.263,91.471 97.199,91.458 97.008,91.381C96.591,91.265 96.409,91.122 96.5,90.98C96.678,90.834 97.106,90.705 97.708,90.618C101.248,89.92 104.563,89.177 107.633,88.393C109.024,88.125 110.204,87.815 111.133,87.475C111.879,87.225 112.801,86.998 113.868,86.802C115.402,86.479 117.016,86.173 118.704,85.884C119.488,85.746 120.128,85.578 120.587,85.389C121.045,85.2 121.314,84.995 121.376,84.784L118.958,84.461C118.614,84.479 118.274,84.501 117.94,84.526L100.762,87.462L99.044,87.72C97.136,87.953 96.627,87.927 94.464,87.462C98.467,86.707 101.428,85.753 103.053,84.694C102.525,84.68 101.99,84.68 101.462,84.694C98.099,84.979 94.984,85.372 92.237,85.858C90.583,86.104 88.865,86.323 87.147,86.556C87.465,86.129 89.437,85.961 90.646,85.703C93.568,85.151 96.076,84.514 98.09,83.814C98.775,83.555 99.68,83.323 100.762,83.129C101.858,82.958 102.732,82.736 103.309,82.481C103.885,82.227 104.147,81.947 104.07,81.667C104.048,81.407 104.155,81.147 104.389,80.891C103.636,80.683 102.535,80.538 101.293,80.483C100.051,80.428 98.754,80.468 97.645,80.593C95.247,80.806 92.723,80.954 90.137,81.033C88.848,81.071 87.612,81.164 86.511,81.305C85.54,81.431 84.393,81.489 83.244,81.471C82.095,81.452 81.008,81.357 80.148,81.201C79.003,81.02 77.922,80.826 76.84,80.632C75.758,80.438 74.486,80.18 73.214,79.934C72.24,80.006 71.303,80.097 70.414,80.205C69.737,80.318 68.916,80.389 68.048,80.409C67.18,80.43 66.301,80.399 65.515,80.322C65.833,80.089 66.215,79.869 66.597,79.598C65.793,79.426 65.17,79.222 64.765,79C64.36,78.778 64.183,78.541 64.243,78.304C64.243,78.097 63.352,77.877 62.97,77.657C62.535,77.483 62.368,77.286 62.493,77.092C62.618,76.898 63.028,76.717 63.67,76.571C64.45,76.36 65.053,76.124 65.452,75.872C65.59,75.802 65.64,75.726 65.596,75.651C65.553,75.576 65.417,75.504 65.202,75.442C64.987,75.38 64.699,75.331 64.365,75.297C64.03,75.264 63.66,75.248 63.288,75.252C62.155,75.272 61.052,75.338 60.044,75.446C58.305,75.627 56.65,75.821 55.081,76.028C53.342,76.25 51.345,76.375 49.291,76.39C47.446,76.39 45.792,76.39 44.711,76.041C43.629,75.691 42.293,75.898 41.084,75.704C41.506,75.313 42.428,74.952 43.756,74.657C44.64,74.493 45.346,74.293 45.828,74.07C46.31,73.847 46.558,73.606 46.556,73.363L42.929,72.859C40.193,72.768 38.985,73.311 36.185,73.518L38.794,72.768C38.832,72.725 38.832,72.682 38.794,72.639C38.157,71.966 37.648,71.876 34.595,71.889L32.877,71.889L30.205,71.979C29.724,71.891 29.365,71.779 29.164,71.655C28.963,71.53 28.927,71.396 29.059,71.268C29.342,71.043 29.342,70.807 29.059,70.582C28.73,70.454 28.632,70.306 28.783,70.164C28.934,70.022 29.324,69.895 29.887,69.806C30.332,69.729 30.268,69.535 30.459,69.392C30.628,69.21 30.988,69.037 31.515,68.885C32.042,68.733 32.723,68.606 33.513,68.513C35.822,68.199 37.955,67.834 39.875,67.426L39.493,67.426C41.618,67.24 43.558,66.977 45.219,66.65C46.874,66.301 49.101,66.055 50.882,65.732C52.367,65.535 53.416,65.229 53.809,64.878C54.19,64.542 56.099,64.335 57.562,64.18C58.431,64.09 59.261,63.987 60.044,63.869C61.068,63.659 62.415,63.527 63.861,63.494C64.296,63.486 64.712,63.454 65.07,63.404C68.569,62.977 72.068,62.563 75.504,62.11C76.282,61.977 77.231,61.892 78.24,61.864C78.664,61.854 79.064,61.818 79.385,61.761C84.729,60.881 90.964,60.286 96.181,59.381C96.805,59.254 97.511,59.145 98.281,59.058C100.031,58.902 101.483,58.634 102.416,58.294C102.921,58.113 103.605,57.955 104.427,57.83C105.248,57.705 106.189,57.617 107.188,57.57C108.835,57.462 110.308,57.265 111.451,57.001C113.729,56.582 116.153,56.197 118.704,55.85C119.491,55.754 120.158,55.622 120.655,55.465C121.151,55.308 121.463,55.13 121.567,54.944C120.803,54.763 120.103,54.828 119.467,54.944C116.922,55.242 114.377,55.526 111.896,55.85C109.646,56.082 107.515,56.36 105.534,56.678C104.561,56.856 103.28,56.949 101.971,56.936C100.363,56.913 98.771,57.015 97.517,57.221C96.582,57.361 95.58,57.483 94.527,57.583C93.84,57.621 93.115,57.621 92.428,57.583C92.152,57.563 91.86,57.555 91.569,57.56C91.277,57.564 90.994,57.581 90.737,57.609C90.479,57.637 90.253,57.676 90.073,57.722C89.893,57.769 89.764,57.823 89.692,57.881C88.928,58.385 86.702,58.501 84.856,58.721C81.803,58.488 79.958,59.148 77.222,59.161C77.008,59.167 76.801,59.181 76.615,59.203C76.43,59.225 76.268,59.255 76.14,59.29C71.305,60.209 65.452,60.855 60.298,61.67C59.731,61.763 59.048,61.821 58.326,61.839C53.604,61.946 49.248,62.407 46.11,63.132C45.724,63.212 45.272,63.278 44.774,63.326C42.43,63.435 40.249,63.657 38.412,63.973C35.485,64.374 32.686,64.788 29.696,65.163C27.616,65.386 25.861,65.716 24.606,66.12C24.606,66.21 23.651,66.249 22.951,66.34C22.443,66.184 21.997,66.042 21.488,65.913C21,65.733 20.327,65.576 19.515,65.453C18.702,65.33 17.77,65.245 16.78,65.201C15.126,65.201 14.808,64.904 15.826,64.632C18.405,63.846 21.819,63.188 25.815,62.705C29.123,62.239 32.495,61.774 35.867,61.334C37.839,61.088 39.939,60.868 41.847,60.61C42.504,60.547 43.185,60.495 43.883,60.455C44.747,60.417 45.567,60.347 46.301,60.248C48.614,59.844 51.265,59.529 54.127,59.316C55.161,59.211 56.141,59.086 57.053,58.941C59.201,58.581 61.576,58.281 64.115,58.049C65.69,57.897 67.201,57.72 68.633,57.518C69.142,57.454 69.523,57.337 70.032,57.311C74.55,57.156 77.413,56.393 81.357,56.018C83.256,55.799 85.046,55.544 86.702,55.255C89.983,54.788 93.381,54.357 96.881,53.961C101.526,53.47 105.725,52.81 110.115,52.254C110.982,52.145 111.811,52.024 112.596,51.892C116.398,51.216 120.611,50.643 125.13,50.185C126.148,50.066 127.036,49.906 127.737,49.715C128.437,49.523 128.936,49.305 129.201,49.072C129.289,48.926 129.108,48.779 128.693,48.658C128.036,48.522 127.311,48.401 126.529,48.296L101.526,51.142C100.472,51.254 99.452,51.38 98.472,51.517C95.589,51.922 92.594,52.294 89.501,52.629C86.447,52.965 83.584,53.392 80.657,53.78C79.795,53.893 78.903,53.997 77.985,54.091C71.763,54.683 65.747,55.362 59.98,56.121C57.562,56.458 54.89,56.704 52.409,57.014C49.928,57.324 46.556,57.79 43.629,58.191L34.595,59.484C32.813,59.73 31.095,60.002 29.377,60.261C26.833,59.678 26.005,59.575 23.015,59.588C21.987,59.582 20.972,59.636 20.089,59.743C17.353,60.209 13.726,60.416 11.118,60.83C9.522,61.037 8.227,61.327 7.364,61.67C6.606,61.951 5.711,62.215 4.692,62.459C1.383,62.123 0.874,61.67 2.974,61.166C3.547,61.037 4.374,60.933 4.755,60.778C4.973,60.686 5.293,60.605 5.69,60.542C6.088,60.479 6.552,60.436 7.046,60.416C8.591,60.327 9.996,60.158 11.118,59.924C12.16,59.678 13.497,59.491 14.999,59.381C16.144,59.381 16.971,59.032 17.862,58.838C18.752,58.644 19.452,58.424 20.979,58.385C21.26,58.381 21.532,58.363 21.775,58.334C22.018,58.305 22.224,58.265 22.379,58.217C23.871,57.888 25.724,57.636 27.787,57.48C30.914,57.169 33.789,56.764 36.312,56.277C37.806,55.953 39.031,55.581 39.939,55.177C40.178,55.051 40.572,54.94 41.084,54.854C43.711,54.536 46.637,54.333 49.673,54.259C50.821,54.239 51.953,54.191 53.045,54.117C55.296,53.976 57.438,53.771 59.407,53.509C62.257,53.104 65.257,52.746 68.378,52.435C70.301,52.236 72.132,52.002 73.85,51.737C75.621,51.474 77.544,51.257 79.576,51.09C81.586,50.903 83.287,50.602 84.475,50.223C84.845,50.058 85.122,49.884 85.302,49.706C82.192,49.654 79.1,49.843 76.649,50.236C75.695,50.34 74.931,50.482 73.85,50.443L73.85,50.508C73.673,50.575 73.381,50.627 73.029,50.653C72.677,50.679 72.29,50.678 71.941,50.65C71.941,50.404 71.941,50.172 71.941,50.003C73.838,49.762 75.665,49.499 77.413,49.214C78.876,48.956 81.103,49.072 82.312,48.736C84.92,48.568 86.383,48.076 88.674,47.83C90.964,47.585 93.573,47.481 95.863,47.235C97.849,46.996 99.761,46.733 101.589,46.446C102.207,46.323 102.943,46.226 103.752,46.162C104.901,46.095 105.935,45.964 106.734,45.783C107.532,45.602 108.065,45.379 108.27,45.14C107.888,44.998 107.379,44.817 106.806,44.636C107.525,44.317 108.73,44.054 110.242,43.885L112.342,43.575C112.902,43.501 113.3,43.385 113.454,43.253C113.608,43.121 113.506,42.981 113.169,42.864C108.779,42.657 108.588,42.592 105.916,43.51L101.907,43.834L101.971,43.821ZM155.669,38.44L155.351,38.44L155.669,38.44ZM682.783,51.879L682.783,52.021L682.783,51.866L683.483,51.866L683.483,51.775L682.783,51.879ZM558.273,7.307C557.277,7.294 556.279,7.294 555.283,7.307C555.029,7.323 554.797,7.351 554.609,7.39C554.421,7.428 554.281,7.475 554.201,7.527C554.201,7.682 554.773,7.708 555.283,7.708C555.927,7.713 556.569,7.684 557.139,7.623C557.709,7.561 558.189,7.47 558.527,7.358L559.037,7.229L558.273,7.307ZM101.716,110.369C102.336,110.306 102.913,110.228 103.434,110.136C105.725,109.683 107.888,109.192 110.242,108.739C113.141,108.029 116.577,107.418 120.422,106.928C121.926,106.742 123.14,106.473 123.921,106.152C124.395,105.972 125.044,105.814 125.829,105.686L135.755,103.927C136.344,103.772 136.836,103.603 137.218,103.423C136.264,103.423 135.627,103.423 135.246,103.423C134.5,103.514 133.886,103.643 133.464,103.798C133.039,104.019 132.222,104.199 131.174,104.302C130.12,104.415 129.1,104.54 128.12,104.677C126.275,104.949 124.43,105.247 122.585,105.531C122.076,106.049 119.849,106.165 118.004,106.385L116.604,106.605C112.108,107.478 107.86,108.402 103.88,109.373C103.106,109.551 102.463,109.752 101.971,109.968C101.814,110.104 101.814,110.245 101.971,110.382L101.653,110.382L101.716,110.369ZM327.769,120.587C328.901,120.455 330.093,120.347 331.331,120.264C332.295,120.221 333.219,120.147 334.067,120.044C338.813,119.465 343.819,118.98 349.019,118.595C349.701,118.552 350.345,118.486 350.927,118.401L354.999,117.728C356.271,117.496 356.271,117.444 354.999,116.939C354.151,116.927 353.301,116.927 352.453,116.939C351.945,116.939 351.117,116.939 350.991,117.069C350.037,117.508 347.937,117.612 346.219,117.793C341.257,118.336 336.103,118.828 331.077,119.345C330.011,119.448 328.989,119.57 328.023,119.707C327.417,119.783 326.881,119.88 326.433,119.992C326.297,120.016 326.189,120.046 326.115,120.079C326.039,120.113 326.001,120.149 326.001,120.186C326.001,120.223 326.039,120.259 326.115,120.292C326.189,120.326 326.297,120.356 326.433,120.38C326.909,120.465 327.445,120.534 328.023,120.587L327.769,120.587ZM315.871,22.686L320.643,21.923C321.215,21.832 321.661,21.677 322.297,21.625C325.649,21.27 328.683,20.802 331.267,20.241C332.141,20.038 333.199,19.871 334.385,19.75C338.011,19.373 341.371,18.899 344.373,18.34C346.341,18.033 348.153,17.686 349.781,17.305C349.897,17.254 349.955,17.199 349.955,17.143C349.955,17.088 349.897,17.032 349.781,16.982C349.739,16.945 349.659,16.911 349.547,16.882C349.435,16.852 349.291,16.828 349.127,16.811C348.965,16.793 348.785,16.784 348.601,16.782C348.417,16.78 348.235,16.787 348.063,16.801C345.821,16.921 343.751,17.147 342.019,17.46C340.423,17.768 338.675,18.041 336.803,18.275C335.021,18.521 333.939,18.935 331.649,19.064C330.689,19.136 329.881,19.273 329.359,19.452C328.291,19.778 326.691,20.016 324.841,20.125C323.741,20.203 322.711,20.317 321.787,20.461C319.561,20.836 317.461,21.25 315.425,21.651C314.779,21.769 314.075,21.873 313.325,21.962L302.765,23.255C300.219,23.552 297.675,23.837 295.193,24.16C293.143,24.386 291.277,24.673 289.659,25.014C287.931,25.376 286.011,25.697 283.933,25.971C280.751,26.489 277.569,26.967 274.071,27.459C271.843,27.782 269.553,28.092 267.199,28.377C265.989,28.483 265.015,28.677 264.463,28.92C264.145,29.101 263.191,29.127 262.427,29.205C258.291,29.493 254.513,29.96 251.357,30.576C250.957,30.66 250.509,30.734 250.021,30.796C246.903,31.236 243.659,31.662 240.669,32.089C239.887,32.214 239.163,32.352 238.505,32.503C238.623,32.579 238.881,32.643 239.225,32.682C239.567,32.72 239.971,32.73 240.351,32.71C243.303,32.548 246.099,32.286 248.621,31.934C252.797,31.304 257.225,30.746 261.855,30.265C265.469,29.932 268.665,29.436 271.207,28.817C273.199,28.341 275.943,28.021 278.969,27.911C280.273,27.88 281.495,27.767 282.469,27.588C283.401,27.403 284.503,27.258 285.713,27.161C288.257,26.942 290.669,26.664 292.903,26.333C295.067,25.971 297.039,25.544 299.265,25.182C301.493,24.82 304.927,24.354 307.663,23.889C310.399,23.423 313.135,23.022 315.871,22.686ZM112.914,44.118C113.359,44.455 114.378,44.558 115.395,44.519C118.956,44.484 122.348,44.201 125.002,43.717C126.394,43.373 128.368,43.147 130.538,43.084C133.049,42.981 135.302,42.702 136.9,42.295C137.297,42.207 137.581,42.1 137.727,41.984C137.727,41.906 137.727,41.764 137.727,41.738C137.519,41.703 137.273,41.677 137.008,41.663C136.743,41.65 136.467,41.649 136.2,41.661L124.939,42.812L122.966,42.993C119.325,43.249 115.926,43.63 112.914,44.118ZM137.663,46.912C139.699,47.274 139.699,47.261 140.653,47.274C145.21,47.243 149.626,46.947 153.378,46.421C154.21,46.3 154.887,46.14 155.351,45.955C155.611,45.902 155.757,45.83 155.757,45.754C155.757,45.679 155.611,45.607 155.351,45.554L153.76,45.321C151.176,45.491 148.647,45.694 146.189,45.929C143.326,46.201 140.844,46.55 137.918,46.912L137.663,46.912ZM326.177,117.922C328.213,118.53 328.213,118.517 331.013,118.349C332.965,118.235 334.829,118.065 336.549,117.845C338.647,117.573 340.811,117.314 342.911,117.056C343.431,117.01 343.851,116.926 344.087,116.821C344.321,116.716 344.355,116.597 344.183,116.487C343.839,116.389 343.345,116.319 342.779,116.286C342.213,116.253 341.609,116.26 341.065,116.306L339.921,116.448C338.521,116.603 337.057,116.745 335.721,116.926C334.875,117.085 333.861,117.201 332.757,117.266C331.653,117.331 330.489,117.343 329.359,117.302L326.177,117.922ZM143.771,40.885C144.274,40.968 144.831,41.038 145.425,41.092C147.654,41.157 149.923,41.051 151.787,40.794C152.678,40.691 153.442,40.497 154.396,40.484C156.081,40.408 157.679,40.267 159.104,40.07C159.104,40.07 159.486,39.979 159.613,39.953L159.613,39.384C158.877,39.358 158.123,39.358 157.386,39.384C154.969,39.578 152.615,39.811 150.261,40.031C147.907,40.251 147.08,40.316 145.553,40.484C144.895,40.605 144.299,40.739 143.771,40.885ZM126.847,114.055L130.474,114.702C131.516,114.654 132.452,114.539 133.141,114.373C133.83,114.207 134.234,114 134.291,113.783C134.497,113.656 134.453,113.518 134.169,113.397C133.884,113.277 133.381,113.183 132.764,113.137C132.157,113.064 131.482,113.017 130.781,112.999C130.081,112.981 129.37,112.993 128.693,113.033L126.847,114.055ZM149.624,105.001C147.522,105.104 145.564,105.303 143.898,105.583C142.892,105.842 141.435,106.014 139.827,106.061C136.887,106.119 134.172,106.407 132.255,106.863C132.255,106.863 132.255,107.019 131.937,107.109C131.619,107.2 133.019,107.109 133.337,107.109C135.564,106.902 137.791,106.669 139.699,106.437C140.871,106.267 142.13,106.124 143.453,106.01C145.279,105.864 146.977,105.658 148.479,105.402C148.479,105.402 149.052,105.285 149.624,105.014L149.624,105.001ZM334.957,17.848C333.893,17.781 332.769,17.763 331.667,17.797C330.565,17.831 329.515,17.914 328.595,18.042C327.887,18.132 327.345,18.267 327.057,18.427C326.769,18.586 326.751,18.76 327.005,18.922C327.769,18.922 328.787,18.922 329.359,18.922C331.203,18.65 332.731,18.327 334.957,17.848ZM523.281,9.428C522.427,9.373 521.515,9.369 520.649,9.414C519.783,9.46 518.997,9.555 518.381,9.687C518.063,9.751 518.381,9.907 518.381,10.023C518.359,10.053 518.375,10.083 518.429,10.111C518.483,10.139 518.573,10.164 518.691,10.183C518.807,10.201 518.947,10.213 519.095,10.217C519.241,10.22 519.391,10.216 519.527,10.204C520.399,10.156 521.197,10.064 521.851,9.938C522.507,9.811 522.997,9.654 523.281,9.48L523.281,9.428ZM536.515,10.062C536.345,9.982 536.041,9.917 535.655,9.879C535.269,9.841 534.829,9.832 534.415,9.855C533.711,9.95 533.089,10.068 532.569,10.204C531.997,10.333 532.569,10.553 533.461,10.605C533.835,10.623 534.227,10.623 534.603,10.606C534.979,10.588 535.329,10.552 535.625,10.502C535.921,10.452 536.157,10.388 536.311,10.316C536.465,10.244 536.535,10.166 536.515,10.088L536.515,10.062ZM175.519,37.457C173.546,37.366 172.21,37.651 170.62,37.729C169.029,37.806 168.648,37.845 168.966,38.039C169.284,38.233 170.302,38.039 171.002,38.039C171.946,38.037 172.869,37.981 173.667,37.878C174.464,37.776 175.106,37.63 175.519,37.457ZM579.523,42.734C578.533,42.792 577.573,42.87 576.661,42.967C576.559,43.016 576.507,43.069 576.507,43.122C576.507,43.176 576.559,43.228 576.661,43.278C576.661,43.278 577.359,43.368 577.741,43.368C579.141,43.355 579.077,43.096 579.523,42.734ZM730.437,55.863C731.199,56.005 731.581,56.121 732.153,56.16C732.411,56.165 732.669,56.159 732.911,56.141C733.155,56.123 733.373,56.094 733.553,56.057C733.745,55.957 733.745,55.846 733.553,55.746C733.553,55.746 732.791,55.63 732.535,55.656C731.799,55.708 731.093,55.777 730.437,55.863ZM143.962,39.837C142.499,39.837 141.099,39.837 140.272,40.199C142.562,40.134 142.562,40.134 143.962,39.837ZM167.184,38.906C165.594,38.686 164.767,38.763 164.13,38.906C163.996,38.938 163.917,38.978 163.905,39.02C163.893,39.062 163.948,39.104 164.063,39.139C164.179,39.174 164.347,39.201 164.542,39.214C164.738,39.228 164.951,39.229 165.148,39.216C165.872,39.126 166.554,39.022 167.184,38.906ZM238.123,28.959C238.123,28.894 238.123,28.817 237.741,28.817C237.635,28.804 237.515,28.798 237.393,28.798C237.269,28.798 237.149,28.804 237.043,28.817C237.043,28.817 237.043,28.894 237.043,28.946L238.123,28.959ZM338.711,121.958L337.947,122.126L338.329,122.126L339.283,122.023L338.711,121.958ZM576.979,3.271C576.661,3.271 576.343,3.271 576.343,3.362C576.287,3.384 576.257,3.408 576.257,3.433C576.257,3.458 576.287,3.482 576.343,3.504C576.343,3.504 576.787,3.504 576.979,3.504L576.979,3.271ZM531.169,10.54C530.973,10.563 530.799,10.594 530.661,10.631L530.661,10.709L531.297,10.709L531.169,10.54ZM137.791,85.237C137.539,85.226 137.279,85.226 137.027,85.237L136.709,85.237C136.709,85.237 137.091,85.315 137.281,85.315C137.472,85.315 137.6,85.263 137.791,85.237Z" transform="rotate(14.121 379.169 66.541)" fill="#DF6951"/>
</g>
</svg>
