<svg width="380" height="66" viewBox="0 0 380 66" fill="none" xmlns="http://www.w3.org/2000/svg" xmlns:xlink="http://www.w3.org/1999/xlink">
<mask id="mask_0_i_125_3322;420_4743" style="mask-type:alpha" maskUnits="userSpaceOnUse" x="0.908203" y="8.72998" width="189.516129" height="5.906996">
<rect  x="0.908" y="8.73" width="379.032" height="11.814" fill="#C4C4C4"/>
</mask>
<g mask="url(#mask_0_i_125_3322;420_4743)">
<path d="M51.103,21.44L51.886,21.147L50.07,21.147L50.79,20.854C51.604,20.74 52.795,20.854 53.296,20.632C53.296,20.485 52.387,20.568 52.106,20.491C51.848,20.409 51.628,20.321 51.448,20.23C51.891,20.168 52.392,20.125 52.92,20.103C53.637,20.088 54.32,20.033 54.893,19.944C56.083,19.797 57.21,19.613 58.494,19.435L57.899,19.167L59.591,19.008C59.778,19.008 59.966,18.938 60.154,18.944C61.72,19.002 62.253,18.772 62.879,18.556C63.004,18.505 63.162,18.458 63.349,18.416C65.29,18.206 67.201,18.327 69.017,18.269C69.366,18.271 69.708,18.289 70.02,18.32C70.689,18.373 71.412,18.391 72.123,18.372C72.834,18.353 73.511,18.298 74.091,18.212C75.375,18.025 76.874,17.909 78.444,17.875C78.914,17.87 79.374,17.846 79.794,17.803C80.215,17.76 80.587,17.7 80.887,17.626L81.983,17.671C82.378,17.533 82.906,17.413 83.535,17.317C84.165,17.222 84.884,17.154 85.647,17.117C86.462,17.079 87.276,17.015 88.122,16.977C89.862,16.886 91.529,16.745 93.07,16.557C95.387,16.321 97.642,16.073 99.991,15.856C101.452,15.705 102.865,15.535 104.219,15.347C105.849,15.137 107.653,14.988 109.543,14.908L109.543,14.908C109.543,15.086 108.729,15.15 108.197,15.22C106.474,15.436 104.689,15.614 102.904,15.812C102.101,15.904 101.327,16.006 100.586,16.117C99.339,16.288 98.006,16.431 96.609,16.544C94.422,16.761 92.327,17.014 90.345,17.302C90.193,17.33 90.056,17.362 89.938,17.397C89.919,17.415 89.923,17.434 89.95,17.452C89.977,17.469 90.025,17.486 90.091,17.498C90.157,17.511 90.238,17.52 90.327,17.525C90.415,17.529 90.508,17.529 90.596,17.524C91.441,17.524 92.349,17.524 93.101,17.435C93.13,17.433 93.163,17.431 93.195,17.431C93.228,17.431 93.26,17.433 93.289,17.435C95.074,17.435 96.421,17.2 97.736,17.053C99.941,16.85 102.039,16.603 104,16.315C104.297,16.273 104.625,16.241 104.971,16.219C107.083,16.031 109.013,15.768 110.671,15.442C111.36,15.322 111.986,15.181 112.738,15.073C113.199,15.004 113.587,14.916 113.878,14.815C114.168,14.715 114.356,14.603 114.429,14.487C114.773,14.494 115.118,14.494 115.462,14.487C115.667,14.483 115.855,14.462 115.989,14.43C116.123,14.398 116.192,14.357 116.183,14.316C116.183,14.195 115.713,14.201 115.306,14.207C115.524,14.15 115.776,14.099 116.057,14.054C117.637,13.801 119.362,13.587 121.194,13.418C122.634,13.322 123.699,13.08 125.234,13.017C125.422,13.017 125.547,12.959 125.703,12.928C126.1,12.821 126.618,12.736 127.213,12.679C127.807,12.623 128.461,12.596 129.117,12.603C129.743,12.24 131.529,12.297 132.75,12.151C133.188,12.227 132.75,12.265 132.75,12.304C132.75,12.342 132.75,12.304 132.593,12.304C131.482,12.659 129.85,12.935 127.927,13.093C127.582,13.143 127.257,13.198 126.956,13.259C126.499,13.348 125.969,13.422 125.39,13.475C124.762,13.543 124.2,13.634 123.73,13.742C123.448,13.782 123.22,13.836 123.067,13.898C122.913,13.96 122.84,14.029 122.853,14.099C123.068,14.124 123.301,14.141 123.542,14.15C124.778,14.146 125.963,14.049 126.862,13.876C128.428,13.577 130.37,13.373 132.061,13.106C133.208,12.932 134.447,12.784 135.757,12.666C135.757,12.666 135.757,12.737 135.757,12.743C135.922,12.75 136.092,12.75 136.258,12.743C136.258,12.743 136.258,12.743 136.258,12.711C136.173,12.693 136.064,12.679 135.944,12.673L135.537,12.673C135.788,12.622 136.007,12.545 136.289,12.533C136.88,12.5 137.431,12.442 137.91,12.365C138.389,12.287 138.786,12.19 139.076,12.081C139.607,11.917 140.301,11.779 141.112,11.673C141.725,11.576 142.311,11.472 142.866,11.361C142.866,11.361 142.866,11.285 143.116,11.208C142.837,11.198 142.55,11.198 142.271,11.208C141.081,11.304 139.891,11.406 138.732,11.52C138.311,11.575 137.923,11.639 137.573,11.711C136.588,11.878 135.448,12.004 134.222,12.081C134.222,12.081 133.971,12.081 133.846,12.081C134.097,11.877 135.318,11.871 135.725,11.699C136.007,11.66 136.508,11.603 136.477,11.578C136.419,11.546 136.397,11.512 136.411,11.478C136.426,11.445 136.477,11.412 136.561,11.383C136.645,11.354 136.759,11.329 136.896,11.309C137.033,11.29 137.19,11.278 137.354,11.272C138.699,11.177 139.935,11.028 140.987,10.833C141.394,10.775 141.864,10.737 142.271,10.686C142.522,10.659 142.745,10.622 142.928,10.578C143.84,10.314 145.148,10.118 146.655,10.018C147.377,9.956 148.036,9.868 148.597,9.757C149.004,9.693 149.223,9.757 149.537,9.757L150.821,9.668L149.286,10.005C149.756,10.209 150.069,10.253 150.633,10.19C151.456,10.098 152.25,9.996 153.013,9.884C153.577,9.801 154.015,9.68 154.829,9.668C154.973,9.664 155.105,9.651 155.205,9.629C156.057,9.416 157.125,9.242 158.337,9.12C158.869,8.872 159.997,8.878 161.03,8.865C161.281,8.7 160.686,8.725 160.31,8.7C161.124,8.592 161.939,8.471 162.784,8.369C163.033,8.326 163.326,8.296 163.641,8.281C163.956,8.265 164.285,8.265 164.601,8.28C164.759,8.296 164.942,8.299 165.111,8.288C165.28,8.277 165.423,8.254 165.509,8.222C165.916,8.108 166.636,8.057 166.949,7.917C167.067,7.878 167.247,7.849 167.46,7.835C167.672,7.821 167.902,7.823 168.108,7.84L168.108,7.84C167.914,7.883 167.746,7.93 167.607,7.98C167.106,8.152 167.388,8.28 168.202,8.407C169.267,8.241 170.363,8.089 171.334,7.904C171.868,7.786 172.552,7.702 173.31,7.659C174.068,7.616 174.87,7.617 175.625,7.662C175.9,7.681 176.2,7.679 176.467,7.656C176.734,7.632 176.948,7.589 177.065,7.535C177.129,7.482 177.129,7.428 177.065,7.376L176.314,7.376C176.314,7.376 176.314,7.318 176.314,7.305L177.316,7.153C177.848,7.076 178.412,7.013 178.913,6.936C179.637,6.801 180.49,6.697 181.419,6.631C182.278,6.576 183.116,6.508 183.924,6.427C184.707,6.35 185.208,6.166 185.928,6.045C186.473,5.953 187.086,5.88 187.745,5.828C188.883,5.74 189.895,5.596 190.689,5.408C191.848,5.644 192.349,5.637 193.194,5.408L193.601,5.319L193.758,5.383L194.071,5.319C194.666,5.217 195.261,5.115 195.888,5.02C196.78,4.929 197.773,4.888 198.769,4.899C198.957,4.899 199.239,4.95 199.427,4.994C199.615,5.039 200.053,5.192 200.366,5.287C200.147,5.421 199.896,5.555 199.74,5.695C199.728,5.716 199.742,5.738 199.779,5.759C199.817,5.779 199.878,5.798 199.957,5.813C200.037,5.828 200.132,5.839 200.235,5.845C200.339,5.851 200.448,5.852 200.554,5.847C200.761,5.842 200.963,5.829 201.149,5.809C202.056,5.692 202.916,5.56 203.716,5.414C203.994,5.331 204.4,5.269 204.872,5.238C205.342,5.207 205.85,5.208 206.316,5.243C207.356,5.034 208.606,4.873 209.98,4.771C211.358,4.517 213.112,4.383 214.366,4.077C214.366,4.141 214.554,4.224 214.772,4.256C215.118,4.302 215.498,4.337 215.9,4.358L218.75,4.103C218.892,4.161 219.058,4.217 219.25,4.268C219.386,4.312 219.6,4.343 219.846,4.354C220.09,4.366 220.35,4.358 220.566,4.332C221.13,4.275 221.568,4.16 222.288,4.186C221.332,4.444 219.956,4.624 218.406,4.695C216.962,4.787 215.598,4.924 214.366,5.102C213.958,5.16 213.426,5.243 213.332,5.325C213.144,5.548 212.392,5.625 211.516,5.714C210.822,5.773 210.206,5.866 209.722,5.983C209.238,6.1 208.896,6.239 208.728,6.389C208.728,6.51 208.916,6.586 209.542,6.567L212.142,6.478C212.488,6.392 212.812,6.303 213.112,6.21C213.628,6.071 214.294,5.958 215.06,5.879C215.826,5.801 216.67,5.76 217.528,5.758C217.966,5.758 218.406,5.758 218.688,5.688C218.93,5.619 219.15,5.547 219.344,5.472C219.374,5.436 219.374,5.399 219.344,5.364C219.51,5.358 219.68,5.358 219.846,5.364C221.224,5.504 222.164,5.364 222.978,5.16C223.196,5.102 223.354,5.039 223.572,4.975C223.792,4.911 223.854,4.861 224.074,4.841C225.828,4.701 226.14,4.288 227.582,4.097C227.644,4.073 227.678,4.047 227.678,4.02C227.678,3.993 227.644,3.967 227.582,3.944C227.466,3.931 227.338,3.924 227.206,3.924C227.074,3.924 226.946,3.931 226.83,3.944C226.148,3.994 225.572,4.091 225.202,4.217C224.928,4.287 224.636,4.353 224.324,4.415L222.634,4.122C224.048,3.969 225.362,3.781 226.548,3.562C226.798,3.498 227.268,3.479 227.644,3.434L230.4,3.091C230.964,3.014 231.402,2.868 232.28,2.938C232.28,2.938 232.812,2.893 232.936,2.849C233.062,2.804 233.594,2.562 233.908,2.409C234.346,2.377 234.972,2.371 235.224,2.307C235.652,2.178 236.008,2.039 236.288,1.894L238.01,1.798C238.072,1.923 238.072,2.049 238.01,2.174C237.936,2.296 238.004,2.421 238.21,2.537C238.418,2.653 238.756,2.758 239.2,2.842L241.204,3.339C241.496,3.35 241.796,3.342 242.066,3.317C242.334,3.292 242.558,3.251 242.708,3.199C243.366,3.014 244.118,2.836 244.776,2.651C245.746,2.651 245.62,2.893 246.372,2.982L248.658,2.982C249.128,3.218 249.598,3.441 248.658,3.676C248.47,3.721 248.658,3.81 248.502,3.88C249.378,3.982 250.256,3.925 251.102,3.944C251.456,3.994 251.764,4.056 252.01,4.128C252.3,4.248 252.812,4.34 253.432,4.384C254.054,4.428 254.734,4.421 255.33,4.364C256.346,4.304 257.406,4.28 258.462,4.294C258.822,4.3 259.186,4.289 259.526,4.264C259.866,4.239 260.176,4.199 260.434,4.147C261.368,3.988 262.126,3.791 262.658,3.568C263.194,3.367 263.97,3.196 264.912,3.071C266.636,3.071 267.136,3.371 268.264,3.536L266.604,3.81C266.604,3.937 266.792,4.071 266.102,4.167C265.414,4.262 265.822,4.326 266.102,4.408C266.212,4.455 266.394,4.492 266.624,4.514C266.852,4.536 267.11,4.542 267.356,4.529L268.858,4.472C269.394,4.456 269.896,4.409 270.31,4.339C270.726,4.268 271.036,4.175 271.208,4.071C271.414,3.966 271.722,3.871 272.116,3.791C272.602,3.66 272.984,3.514 273.244,3.358L275.342,3.231C275.37,3.108 275.608,2.99 276.012,2.899C276.418,2.807 276.966,2.747 277.566,2.728L278.974,2.632C280.54,2.524 280.854,2.441 281.136,2.065L279.038,1.766C279.226,1.582 279.414,1.416 279.602,1.25C279.056,1.131 278.364,1.043 277.596,0.996C276.87,0.931 276.128,0.873 275.374,0.824C274.558,0.779 273.714,0.76 272.712,0.722C272.524,0.69 272.242,0.626 271.896,0.576C271.554,0.527 271.198,0.483 270.832,0.442C270.832,0.315 270.832,0.2 270.644,0.079C271.23,0.042 271.852,0.036 272.454,0.06C273.056,0.085 273.618,0.139 274.09,0.219C274.17,0.234 274.264,0.245 274.366,0.251C274.468,0.258 274.578,0.26 274.684,0.257C275.718,0.2 276.282,0.308 276.876,0.455C277.26,0.518 277.73,0.556 278.224,0.563C279.162,0.563 280.102,0.601 281.01,0.62C281.29,0.63 281.576,0.63 281.856,0.62C282.778,0.585 283.722,0.585 284.644,0.62C284.938,0.62 285.228,0.635 285.49,0.663C285.752,0.69 285.976,0.73 286.146,0.779C285.976,0.884 285.912,0.994 285.958,1.104C285.958,1.18 286.648,1.238 286.992,1.301C287.336,1.365 286.742,1.397 286.554,1.435C285.77,1.569 285.646,1.632 286.24,1.798C286.436,1.849 286.58,1.907 286.66,1.97C286.742,2.032 286.758,2.097 286.71,2.161C286.71,2.397 286.46,2.626 286.334,2.874C286.774,2.963 287.462,3.027 287.618,3.192C287.67,3.227 287.76,3.258 287.878,3.285C287.998,3.311 288.144,3.332 288.308,3.345C288.73,3.364 289.124,3.403 289.462,3.458C289.798,3.514 290.068,3.584 290.25,3.664C290.314,3.698 290.438,3.727 290.602,3.743C290.764,3.76 290.952,3.763 291.126,3.753C291.336,3.741 291.514,3.713 291.624,3.675C291.734,3.637 291.77,3.592 291.722,3.549C291.682,3.461 291.608,3.374 291.502,3.288C291.502,3.218 291.502,3.148 291.314,3.059C291.932,3.013 292.6,3.002 293.246,3.028C293.892,3.054 294.492,3.115 294.978,3.205C295.51,3.294 296.012,3.396 296.606,3.504C296.606,3.721 296.606,3.721 297.86,3.925L303.622,3.288L304.906,3.358C306.096,3.409 306.346,3.358 306.974,3.154L307.38,2.989C308.414,2.989 309.604,2.989 310.074,2.645C310.356,2.785 310.512,2.823 310.48,2.855C310.32,3.144 309.93,3.426 309.322,3.689C309.166,3.753 309.072,3.829 308.884,3.893C308.32,4.181 308.32,4.502 308.884,4.791C309.154,4.915 309.512,5.031 309.948,5.134C309.536,5.423 308.936,5.699 308.164,5.956C307.502,6.163 306.986,6.388 306.628,6.624C306.318,6.855 305.786,7.072 305.062,7.261C304.692,7.35 304.444,7.458 304.342,7.573C304.428,7.833 304.67,8.089 305.062,8.337C305.154,8.416 305.334,8.491 305.59,8.554C305.844,8.616 306.168,8.667 306.534,8.7C306.534,8.7 306.722,8.738 306.816,8.764C307.038,9.061 306.94,9.365 306.534,9.655C306.482,9.728 306.33,9.797 306.1,9.854C305.868,9.912 305.564,9.955 305.22,9.98C304.5,10.043 303.842,10.132 303.152,10.209C302.406,10.284 301.774,10.399 301.322,10.541C300.87,10.684 300.616,10.848 300.584,11.017C300.6,11.062 300.6,11.107 300.584,11.151C300.574,11.174 300.574,11.198 300.584,11.221L302.4,11.501L300.74,11.953C300.74,12.17 301.65,12.17 302.15,12.259L301.932,12.38C301.618,12.475 301.116,12.45 300.678,12.456L300.24,12.456L300.24,12.558C300.052,12.724 299.05,12.711 298.736,12.857C298.424,13.004 298.736,13.074 299.332,13.099C299.748,13.122 300.184,13.125 300.606,13.109C301.03,13.092 301.43,13.056 301.774,13.004C301.976,12.964 302.136,12.917 302.244,12.864C302.9,12.612 303.644,12.369 304.468,12.138C305.092,11.947 305.916,11.786 306.88,11.667C307.156,11.62 307.506,11.594 307.866,11.594C308.226,11.594 308.576,11.62 308.852,11.667L308.852,11.667L309.354,11.61C309.354,11.61 309.666,11.654 309.636,11.673C309.574,11.947 309.948,12.217 310.7,12.444L310.7,12.444L310.2,12.545C309.448,12.622 310.012,12.743 309.948,12.851C309.416,12.908 308.696,12.928 308.508,13.08L308.132,13.125L308.288,13.125L308.446,13.061L309.228,13.138C308.916,13.214 308.696,13.284 308.414,13.341C308.26,13.378 308.146,13.421 308.076,13.467C308.006,13.513 307.982,13.561 308.006,13.609C308.046,13.682 307.99,13.757 307.848,13.825C307.706,13.893 307.48,13.952 307.192,13.997C306.848,14.048 306.692,14.156 306.504,14.214L307.63,14.57C307.63,14.57 307.162,14.57 307.444,14.621L307.444,14.557L308.038,14.602C308.476,14.653 308.758,14.64 308.946,14.532C309.134,14.424 309.134,14.532 309.228,14.487C309.228,14.57 309.008,14.659 308.822,14.736C308.596,14.807 308.332,14.873 308.038,14.933C308.758,15.194 308.79,15.201 308.038,15.404C307.286,15.608 307.63,15.704 306.974,15.818C306.316,15.933 307.192,16.054 307.662,16.035C308.008,16.017 308.37,16.014 308.722,16.027C309.072,16.041 309.406,16.069 309.698,16.111L309.698,16.391C309.49,16.398 309.28,16.398 309.072,16.391C308.352,16.34 307.694,16.289 307.162,16.455L307.536,16.614L305.47,16.786C305.598,16.927 305.992,17.053 306.566,17.136L306.566,17.136C306.536,17.231 306.536,17.327 306.566,17.423C306.566,17.493 306.346,17.48 306.222,17.505C305.768,17.582 305.412,17.68 305.188,17.791C304.964,17.902 304.878,18.023 304.938,18.142C304.938,18.25 305.752,18.359 306.19,18.289C307.304,18.151 308.538,18.058 309.824,18.015C310.574,17.926 310.544,17.645 311.858,17.652C311.946,17.771 311.84,17.892 311.558,17.998C311.276,18.104 310.832,18.188 310.294,18.238C310.732,18.467 312.422,18.301 312.642,18.575C312.22,18.614 311.754,18.63 311.294,18.621C310.832,18.612 310.39,18.578 310.012,18.524C309.928,18.509 309.828,18.499 309.72,18.494C309.612,18.489 309.498,18.49 309.392,18.497C309.286,18.503 309.19,18.515 309.112,18.53C309.034,18.546 308.976,18.566 308.946,18.588C309.228,18.658 309.542,18.741 309.886,18.811C310.23,18.881 310.324,18.919 310.544,18.912C312.204,18.912 313.144,19.205 314.614,19.275C314.99,19.275 315.116,19.428 314.802,19.454C314.504,19.477 314.244,19.517 314.05,19.568C313.856,19.62 313.738,19.682 313.706,19.747C313.516,19.844 313.264,19.936 312.956,20.02C314.536,20.233 316.358,20.36 318.248,20.39C318.606,20.398 318.97,20.382 319.282,20.345C320.256,20.206 321.308,20.091 322.414,20.001C322.802,19.964 323.154,19.912 323.446,19.848C324.418,19.657 325.264,19.651 326.14,19.848L327.58,20.154C327.58,20.237 327.424,20.351 327.33,20.491L328.394,20.612L335.222,19.008L336.944,19.371L338.98,19.046C339.146,19.04 339.316,19.04 339.482,19.046C339.982,19.154 340.39,19.269 340.922,19.365C341.454,19.46 342.268,19.365 342.926,19.473C343.584,19.581 344.148,19.505 344.9,19.517C345.04,19.654 345.04,19.795 344.9,19.931C344.9,20.065 344.586,20.192 344.586,20.32C344.654,20.439 344.576,20.559 344.358,20.67C344.138,20.781 343.786,20.88 343.334,20.956C342.18,21.395 340.726,21.798 339.012,22.153C338.86,22.183 338.74,22.219 338.66,22.258C338.58,22.297 338.54,22.34 338.542,22.382C338.604,22.498 338.538,22.616 338.348,22.726C338.158,22.836 337.85,22.936 337.446,23.019C337.338,23.04 337.262,23.066 337.226,23.096C337.076,23.133 336.976,23.177 336.934,23.225C336.894,23.272 336.912,23.321 336.992,23.366C337.07,23.412 337.206,23.452 337.384,23.484C337.562,23.516 337.778,23.538 338.01,23.548C338.35,23.568 338.694,23.585 339.044,23.599C339.044,23.637 338.73,23.688 338.792,23.713C338.97,23.798 339.048,23.889 339.02,23.981C338.994,24.073 338.862,24.162 338.636,24.242L340.766,24.827C341.858,24.795 342.974,24.844 343.898,24.967C343.918,25.006 343.89,25.045 343.812,25.081C343.736,25.117 343.614,25.148 343.46,25.171C343.052,25.248 342.676,25.337 342.238,25.42C341.97,25.473 341.758,25.536 341.614,25.606C341.468,25.676 341.394,25.751 341.392,25.827L342.55,25.993C342.268,26.114 342.05,26.184 341.862,26.26C342.032,26.34 342.29,26.411 342.616,26.467C342.94,26.523 343.326,26.563 343.74,26.585C343.85,26.586 343.958,26.582 344.06,26.575C344.162,26.567 344.256,26.555 344.336,26.54C345.056,26.324 346.058,26.381 347.03,26.432C348,26.483 348.532,26.521 349.252,26.566L350.506,26.406C350.854,26.426 351.174,26.463 351.44,26.513C351.706,26.562 351.912,26.624 352.04,26.693C352.04,26.833 351.414,26.846 351.07,26.909C350.278,27.11 349.172,27.249 347.938,27.304C347.624,27.304 347.342,27.381 347.06,27.425C346.456,27.529 345.882,27.639 345.338,27.756C344.986,27.843 344.662,27.935 344.368,28.03C344.368,28.208 345.776,28.145 345.056,28.336C345.338,28.336 345.464,28.374 345.588,28.336C346.51,28.32 347.388,28.251 348.126,28.138C349.536,27.912 351.188,27.757 352.948,27.686C354.846,27.602 356.616,27.427 358.116,27.177C358.692,27.092 359.356,27.036 360.058,27.011C360.892,26.997 361.704,26.947 362.438,26.865C362.678,26.831 362.954,26.81 363.242,26.802C363.53,26.794 363.824,26.801 364.098,26.82L364.098,26.82C364.098,26.865 363.878,26.928 363.942,26.941C364.85,27.145 365.32,27.425 366.634,27.578C367.48,27.578 368.45,27.578 368.89,27.355C369.328,27.132 369.078,27.03 367.856,26.795C368.076,26.757 368.352,26.737 368.638,26.737C368.926,26.737 369.202,26.757 369.422,26.795L370.456,26.954L371.394,27.113C371.394,27.26 371.394,27.374 371.394,27.495C371.364,27.628 371.54,27.759 371.896,27.871C372.106,27.929 372.294,27.991 372.46,28.055C373.128,28.312 373.432,28.6 373.336,28.89C373.092,29.321 372.662,29.747 372.052,30.163C371.394,30.577 371.144,31.016 370.644,31.436C370.378,31.633 370.032,31.825 369.61,32.009C368.826,32.398 367.95,32.786 367.166,33.181C366.384,33.576 365.444,33.913 364.536,34.276C363.15,34.751 361.624,35.208 359.964,35.645C358.962,35.963 357.928,36.282 357.02,36.613C355.942,36.994 354.626,37.345 353.106,37.657C351.776,37.96 350.62,38.294 349.66,38.65C349.56,38.688 349.486,38.729 349.44,38.771C349.356,39.007 348.894,39.23 348.126,39.408C348.206,39.462 348.3,39.515 348.408,39.567C348.556,39.626 348.616,39.693 348.576,39.758C348.538,39.824 348.402,39.886 348.188,39.936C347.574,40.079 347.086,40.243 346.748,40.42C346.616,40.471 346.546,40.528 346.546,40.586C346.546,40.643 346.616,40.7 346.748,40.751C346.868,40.806 346.906,40.867 346.856,40.926C346.806,40.985 346.67,41.039 346.466,41.082C345.956,41.223 345.402,41.357 344.806,41.483C343.54,41.755 342.016,41.972 340.328,42.12C340.14,42.12 339.982,42.184 339.764,42.184C338.55,42.253 337.462,42.392 336.632,42.585C335.63,42.757 334.564,42.903 333.5,43.069C331.948,43.282 330.546,43.536 329.334,43.826C327.832,43.928 327.11,44.228 325.89,44.406C324.77,44.586 323.722,44.784 322.758,44.998C321.192,45.323 319.626,45.635 318.092,45.972C316.626,46.238 315.302,46.535 314.146,46.857C313.706,46.991 312.798,47.01 312.548,47.195C312.298,47.379 311.64,47.456 311.138,47.577L309.542,47.927C309.27,47.995 308.966,48.056 308.634,48.111C307.098,48.341 306.128,48.678 304.718,48.92L304.562,48.92C302.166,49.558 299.34,50.124 296.168,50.601C294.352,50.951 292.316,51.238 290.374,51.581C289.968,51.772 288.778,51.779 288.244,51.976C287.712,52.174 286.71,52.237 285.958,52.365C285.208,52.492 284.486,52.645 283.672,52.759C282.966,52.861 282.396,52.997 282.012,53.154C281.108,53.454 279.952,53.719 278.598,53.937C276.814,54.237 275.154,54.574 273.306,54.816C273.392,54.928 273.33,55.042 273.126,55.147C272.922,55.252 272.584,55.345 272.148,55.414C270.206,55.739 268.484,56.108 266.51,56.427L265.978,56.503L260.058,57.42C258.462,57.662 256.926,57.904 255.298,58.152C254.64,58.152 254.704,58.305 254.264,58.337C254.108,58.28 253.952,58.267 253.764,58.337L253.764,58.432L247.03,59.521C244.414,59.987 241.63,60.413 238.7,60.795C238.014,60.902 237.384,61.024 236.82,61.157C236.284,61.254 235.72,61.343 235.13,61.425C234.322,61.516 233.538,61.616 232.78,61.724C230.808,62.042 228.708,62.323 226.516,62.609C224.324,62.896 222.696,63.176 220.754,63.45C219.438,63.634 218.124,63.806 216.746,63.965C216.088,64.042 215.242,64.067 214.554,64.131C213.864,64.194 213.644,64.226 213.582,64.29C213.364,64.475 212.58,64.487 211.984,64.557C210.826,64.697 210.638,64.672 210.138,64.347L211.484,64.029C211.81,63.942 212.24,63.873 212.734,63.83C213.226,63.786 213.768,63.769 214.302,63.781C214.514,63.788 214.732,63.787 214.942,63.777C215.152,63.767 215.35,63.749 215.524,63.723C216.934,63.5 218.312,63.259 219.658,63.029L219.846,62.978L219.69,62.647C219.492,62.641 219.292,62.641 219.094,62.647L212.142,63.411C210.544,63.583 208.854,63.698 207.288,63.87C205.722,64.042 204.876,64.131 203.654,64.252C203.136,64.295 202.602,64.332 202.058,64.36C202.072,64.324 202.072,64.288 202.058,64.252C202.058,64.194 202.058,64.118 201.806,64.093C201.524,64.047 201.166,64.024 200.805,64.029C200.471,64.046 200.154,64.074 199.865,64.112C198.463,64.282 196.789,64.335 195.199,64.258L194.791,64.519C192.568,64.723 190.313,64.933 187.995,65.156C187.528,65.193 187.024,65.208 186.523,65.2C185.991,65.2 185.459,65.118 184.895,65.111C184.349,65.127 183.813,65.155 183.298,65.194C183.408,65.126 183.566,65.062 183.767,65.003C183.975,64.963 184.114,64.911 184.164,64.853C184.215,64.796 184.175,64.737 184.049,64.685C183.83,64.596 183.705,64.5 184.049,64.436C184.361,64.364 184.565,64.276 184.637,64.181C184.709,64.086 184.646,63.989 184.456,63.902C184.365,63.847 184.292,63.792 184.237,63.736L184.237,63.736L184.081,63.736C183.486,63.583 182.483,63.641 181.7,63.558C181.348,63.552 180.995,63.57 180.698,63.609C179.915,63.679 179.164,63.768 178.349,63.832C177.961,63.863 177.546,63.878 177.128,63.876C176.533,63.876 176.47,63.876 176.001,63.634C176.503,63.568 176.877,63.468 177.06,63.352C177.242,63.236 177.222,63.111 177.003,62.997C176.439,62.762 175.844,62.514 173.871,62.571C174.474,62.474 175.049,62.37 175.593,62.259C175.753,62.229 175.864,62.19 175.911,62.147C175.959,62.104 175.94,62.059 175.858,62.018C175.777,61.977 175.636,61.942 175.454,61.918C175.272,61.894 175.059,61.882 174.842,61.883C173.772,61.857 172.687,61.893 171.71,61.985C170.896,62.081 170.175,62.195 169.236,62.329L168.046,62.329C168.046,62.291 167.858,62.265 167.889,62.24C168.077,62.017 168.296,61.794 168.515,61.552C167.95,61.519 167.441,61.455 167.048,61.366C166.655,61.277 166.393,61.167 166.292,61.049C166.245,61.016 166.235,60.981 166.262,60.947C166.289,60.913 166.353,60.88 166.448,60.852C166.728,60.786 166.93,60.709 167.039,60.625C167.147,60.541 167.16,60.453 167.075,60.368L166.041,60.158C163.323,60.291 160.687,60.485 158.18,60.737L155.926,60.979C155.612,60.928 155.675,60.877 155.926,60.839C156.176,60.801 156.896,60.724 157.397,60.667C157.833,60.624 158.206,60.558 158.481,60.477C158.755,60.395 158.921,60.301 158.963,60.202L158.024,59.929C158.024,59.852 158.024,59.744 158.431,59.693C158.703,59.645 158.887,59.581 158.956,59.509C159.024,59.437 158.971,59.363 158.807,59.298C158.758,59.241 158.758,59.183 158.807,59.126C159.402,59.037 159.997,58.954 160.529,58.859C160.779,58.817 160.98,58.764 161.121,58.705C161.261,58.646 161.337,58.581 161.344,58.515C161.333,58.453 161.251,58.393 161.104,58.339C160.957,58.284 160.749,58.238 160.498,58.203C159.607,58.243 158.83,58.353 158.337,58.509C158.179,58.598 157.891,58.676 157.51,58.732C157.13,58.788 156.676,58.819 156.207,58.821C155.671,58.823 155.155,58.864 154.753,58.936C154.351,59.008 154.09,59.107 154.015,59.216C153.483,59.254 153.013,59.292 152.543,59.317C151.987,59.344 151.478,59.401 151.071,59.483C150.41,59.594 149.684,59.688 148.91,59.763C146.687,59.992 144.463,60.228 142.333,60.495C141.77,60.565 141.3,60.661 140.736,60.718C140.172,60.775 139.765,60.896 139.014,60.877C138.873,60.878 138.734,60.885 138.609,60.898C138.484,60.911 138.376,60.93 138.293,60.954C137.128,61.22 135.711,61.437 134.128,61.59C131.998,61.877 129.775,62.144 127.645,62.437C127.027,62.535 126.451,62.644 125.923,62.762C125.518,62.845 125.089,62.924 124.639,62.997C124.294,63.055 123.95,63.08 124.075,63.201C124.2,63.322 123.636,63.316 123.323,63.335C122.257,63.42 121.157,63.486 120.035,63.532C118.924,63.567 117.858,63.647 116.903,63.768C116.214,63.857 115.525,63.991 114.554,63.94C114.554,63.87 114.554,63.8 114.711,63.704C113.897,63.619 112.995,63.575 112.08,63.575C111.165,63.575 110.263,63.619 109.449,63.704L108.165,63.507C107.873,63.504 107.58,63.513 107.305,63.534C107.031,63.555 106.78,63.587 106.568,63.628C106.403,63.657 106.191,63.673 105.973,63.673C105.754,63.673 105.543,63.657 105.378,63.628C105.136,63.595 104.853,63.578 104.564,63.578C104.274,63.578 103.991,63.595 103.749,63.628C102.972,63.697 102.119,63.724 101.275,63.704C101.034,63.657 100.867,63.596 100.795,63.529C100.723,63.462 100.748,63.392 100.868,63.329C101.058,63.219 101.136,63.103 101.099,62.987C101.061,62.871 100.908,62.757 100.649,62.654C100.509,62.587 100.437,62.516 100.437,62.444C100.437,62.371 100.509,62.3 100.649,62.233C101.15,61.947 100.931,61.858 99.772,61.667C99.583,61.634 99.363,61.61 99.126,61.596C98.888,61.582 98.639,61.578 98.394,61.584C97.823,61.608 97.266,61.644 96.734,61.692C96.421,61.692 96.139,61.769 95.794,61.8C94.072,61.96 93.759,61.864 93.07,61.66L92.569,61.514C91.748,61.455 90.873,61.433 90.007,61.451C89.14,61.468 88.304,61.525 87.558,61.616C87.264,61.657 86.911,61.677 86.556,61.673C85.402,61.671 84.26,61.719 83.205,61.813C82.548,61.875 81.818,61.897 81.101,61.877C80.385,61.857 79.712,61.795 79.164,61.699C78.672,61.612 78.059,61.558 77.411,61.546C76.659,61.546 76.534,61.438 76.878,61.291C77.223,61.145 77.818,60.935 78.35,60.756C78.536,60.695 78.634,60.625 78.634,60.553C78.634,60.481 78.536,60.41 78.35,60.349C78.186,60.222 78.102,60.092 78.1,59.96C78.106,59.905 78.054,59.85 77.946,59.799C77.839,59.748 77.679,59.702 77.477,59.664C77.275,59.627 77.036,59.599 76.776,59.582C76.516,59.565 76.241,59.559 75.97,59.566C74.811,59.566 73.684,59.566 72.525,59.61C72.036,59.623 71.542,59.623 71.053,59.61C70.036,59.551 68.971,59.534 67.921,59.559C67.424,59.575 66.918,59.549 66.512,59.489C65.257,59.35 64.08,59.184 63.004,58.993C62.733,58.924 62.396,58.868 62.013,58.828C61.631,58.787 61.211,58.763 60.781,58.757C60.436,58.757 60.123,58.693 59.841,58.662C59.581,58.532 59.488,58.391 59.57,58.251C59.653,58.112 59.907,57.979 60.311,57.866C60.687,57.745 61.031,57.617 61.344,57.49C61.738,57.367 62.224,57.257 62.785,57.165C63.439,57.036 63.887,56.87 64.069,56.688C62.096,56.688 60.154,56.56 58.588,56.879L57.242,56.815C57.242,56.713 57.242,56.624 57.242,56.541C57.461,56.359 57.461,56.169 57.242,55.987C57.096,55.905 57.06,55.816 57.137,55.73C57.214,55.644 57.401,55.564 57.68,55.497C59.277,54.994 61.188,54.536 62.66,54.014C63.14,53.887 63.722,53.777 64.382,53.689C65.009,53.581 64.915,53.453 64.1,53.396C63.647,53.37 63.187,53.349 62.722,53.332C60.843,53.587 60.28,54.084 58.087,54.281L56.835,53.912C56.563,53.942 56.301,53.976 56.052,54.014L52.575,54.733C52.282,54.786 52.068,54.855 51.957,54.931C51.847,55.008 51.844,55.089 51.949,55.166C52.027,55.267 52.027,55.37 51.949,55.472C51.901,55.542 51.991,55.613 52.199,55.669C52.669,55.796 52.199,55.892 51.918,55.981C51.842,55.997 51.752,56.009 51.652,56.017C51.553,56.026 51.446,56.03 51.338,56.03C51.23,56.03 51.124,56.026 51.024,56.017C50.925,56.009 50.835,55.997 50.759,55.981C50.132,55.886 49.569,55.771 48.942,55.656C49.224,55.421 48.629,55.185 49.13,54.937C49.179,54.895 49.184,54.851 49.147,54.808C49.109,54.765 49.029,54.725 48.911,54.689C48.607,54.595 48.43,54.487 48.397,54.375C48.364,54.264 48.476,54.152 48.723,54.052L48.723,53.982C47.877,53.867 47.971,53.644 47.564,53.453L46.781,53.402C44.84,53.288 44.84,53.294 43.336,53.523C42.961,53.428 43.336,53.352 43.618,53.294L45.967,52.791C47.502,52.46 49.099,52.155 50.853,51.862C52.607,51.569 54.517,51.155 56.302,50.798C56.391,50.778 56.455,50.753 56.487,50.727C56.52,50.7 56.521,50.672 56.49,50.646C56.401,50.625 56.29,50.608 56.165,50.597C56.041,50.586 55.906,50.581 55.77,50.582C55.143,50.582 54.517,50.614 53.859,50.633L52.638,50.677L52.199,50.569C51.918,50.505 51.698,50.41 51.354,50.384C51.073,50.369 50.776,50.369 50.495,50.385C50.214,50.4 49.959,50.431 49.757,50.474C49.193,50.588 48.692,50.709 48.159,50.83C47.627,50.951 47.345,51.04 46.875,51.129C45.904,51.278 44.974,51.438 44.088,51.607C43.373,51.81 42.725,52.023 42.146,52.244C41.771,52.352 41.426,52.466 40.706,52.498C40.349,52.485 40.028,52.446 39.799,52.389C39.569,52.332 39.447,52.26 39.453,52.186C39.462,52.128 39.545,52.071 39.693,52.021C39.841,51.971 40.049,51.929 40.298,51.9C40.982,51.792 41.602,51.668 42.146,51.531C42.891,51.316 43.839,51.135 44.934,50.996C45.309,50.958 45.529,50.868 45.842,50.805C46.155,50.741 46.406,50.658 46.781,50.639C47.94,50.563 48.41,50.359 49.036,50.181C49.244,50.112 49.354,50.032 49.354,49.952C49.354,49.871 49.244,49.791 49.036,49.722C48.634,49.583 48.161,49.453 47.627,49.334C47.354,49.277 47.02,49.233 46.65,49.207C46.281,49.18 45.886,49.171 45.497,49.181C45.22,49.1 45.046,49.007 44.992,48.909C44.937,48.811 45.003,48.712 45.184,48.621C45.654,48.404 46.061,48.194 47.314,48.099C47.899,48.047 48.439,47.976 48.911,47.889C49.966,47.711 51.227,47.59 52.575,47.538C52.924,47.525 53.261,47.501 53.577,47.468C55.832,47.233 57.962,46.972 60.092,46.698C61.219,46.552 62.347,46.386 63.537,46.259C66.324,45.953 68.798,45.552 71.46,45.202C72.854,45.018 74.066,44.783 75.03,44.508C75.209,44.436 75.356,44.362 75.469,44.285C74.71,44.234 73.899,44.224 73.115,44.255C72.331,44.286 71.599,44.358 70.99,44.463C70.672,44.553 70.237,44.624 69.734,44.666C69.231,44.709 68.679,44.722 68.14,44.705L68.14,44.705L69.55,44.45C70.489,44.291 71.46,44.145 72.368,43.979C73.809,43.712 75.124,43.425 76.628,43.171C77.839,42.961 78.894,42.716 79.759,42.445C80.384,42.248 81.12,42.066 81.952,41.904C82.547,41.795 82.547,41.795 82.829,41.534C82.453,41.445 82.046,41.483 81.67,41.534C79.382,41.771 77.238,42.062 75.281,42.4C74.282,42.548 73.423,42.732 72.744,42.941C72.588,43.012 72.118,43.056 71.742,43.094C70.576,43.237 69.475,43.401 68.454,43.585C67.046,43.848 65.439,44.063 63.693,44.221C63.317,44.164 63.693,44.119 63.693,44.081C64.977,43.826 66.23,43.565 67.545,43.317C67.903,43.245 68.29,43.179 68.704,43.12C70.267,42.934 71.504,42.653 72.243,42.318C72.243,42.228 72.807,42.158 73.026,42.069C73.124,42.005 73.176,41.939 73.183,41.872C72.744,41.77 72.337,41.827 72.024,41.872C71.124,42.019 70.267,42.176 69.456,42.343C68.703,42.499 67.849,42.634 66.919,42.744C66.23,42.821 65.666,42.935 64.977,43.024C64.597,43.059 64.197,43.085 63.787,43.101C64.166,42.932 64.722,42.782 65.416,42.661C65.917,42.521 66.575,42.407 66.575,42.228C66.261,42.146 65.979,42.184 65.76,42.228C65.29,42.295 64.841,42.367 64.414,42.445C63.508,42.61 62.509,42.754 61.438,42.871C60.877,42.938 60.352,43.017 59.872,43.107C58.776,43.292 57.743,43.502 56.741,43.674C54.674,43.998 52.826,44.368 50.853,44.705C50.414,44.782 50.038,44.883 49.412,44.89C48.786,44.896 48.754,44.89 48.66,44.852C48.455,44.795 48.365,44.724 48.41,44.654C48.498,44.582 48.709,44.519 49.005,44.476C50.747,44.133 52.379,43.767 53.891,43.381C54.575,43.249 55.156,43.096 55.613,42.929C55.981,42.806 56.434,42.694 56.96,42.598C57.715,42.439 58.509,42.288 59.34,42.146C59.726,42.078 60.041,41.995 60.267,41.902C60.493,41.809 60.625,41.708 60.655,41.604L59.465,41.445C59.296,41.454 59.129,41.465 58.964,41.477L50.508,42.922L49.663,43.05C48.723,43.164 48.473,43.152 47.408,42.922C49.378,42.551 50.836,42.081 51.636,41.56C51.376,41.553 51.113,41.553 50.853,41.56C49.198,41.7 47.664,41.894 46.312,42.133C45.497,42.254 44.652,42.362 43.806,42.477C43.963,42.267 44.934,42.184 45.529,42.056C46.967,41.785 48.202,41.472 49.193,41.127C49.53,41 49.976,40.885 50.508,40.789C51.048,40.706 51.478,40.596 51.762,40.471C52.046,40.345 52.174,40.208 52.137,40.07C52.126,39.942 52.178,39.814 52.293,39.688C51.923,39.586 51.381,39.514 50.77,39.487C50.158,39.46 49.52,39.48 48.974,39.542C47.794,39.646 46.551,39.719 45.278,39.758C44.644,39.777 44.035,39.822 43.493,39.892C43.015,39.954 42.45,39.982 41.885,39.973C41.319,39.964 40.784,39.918 40.361,39.841C39.797,39.752 39.265,39.656 38.733,39.561C38.2,39.465 37.574,39.338 36.947,39.217C36.468,39.252 36.007,39.297 35.569,39.35C35.236,39.406 34.832,39.441 34.405,39.451C33.978,39.461 33.545,39.446 33.158,39.408L33.158,39.408C33.314,39.293 33.502,39.185 33.69,39.051C33.295,38.967 32.988,38.867 32.789,38.757C32.589,38.648 32.502,38.531 32.532,38.415C32.532,38.313 32.093,38.204 31.905,38.096C31.691,38.01 31.609,37.913 31.67,37.818C31.732,37.723 31.934,37.633 32.25,37.561C32.634,37.457 32.93,37.341 33.127,37.218C33.195,37.183 33.219,37.145 33.198,37.108C33.176,37.071 33.11,37.036 33.004,37.006C32.898,36.975 32.756,36.951 32.592,36.934C32.427,36.918 32.245,36.91 32.062,36.912C31.504,36.922 30.961,36.955 30.465,37.007C29.609,37.097 28.794,37.192 28.022,37.294C27.166,37.403 26.183,37.465 25.172,37.472C24.264,37.472 23.449,37.472 22.917,37.3C22.384,37.128 21.727,37.23 21.132,37.135C21.34,36.942 21.793,36.764 22.447,36.619C22.882,36.538 23.23,36.44 23.467,36.33C23.704,36.221 23.826,36.102 23.825,35.982L22.04,35.734C20.693,35.689 20.098,35.957 18.72,36.059L20.004,35.689C20.023,35.668 20.023,35.647 20.004,35.626C19.691,35.295 19.441,35.25 17.937,35.257L17.092,35.257L15.776,35.301C15.54,35.258 15.363,35.203 15.264,35.141C15.165,35.08 15.148,35.014 15.213,34.951C15.352,34.84 15.352,34.724 15.213,34.613C15.05,34.55 15.002,34.477 15.077,34.407C15.151,34.338 15.343,34.275 15.62,34.231C15.839,34.193 15.808,34.098 15.902,34.028C15.985,33.938 16.162,33.853 16.421,33.778C16.681,33.703 17.016,33.641 17.405,33.595C18.541,33.44 19.592,33.261 20.537,33.06L20.349,33.06C21.394,32.968 22.349,32.839 23.167,32.678C23.982,32.506 25.078,32.385 25.955,32.226C26.686,32.129 27.202,31.978 27.395,31.806C27.583,31.64 28.523,31.538 29.243,31.462C29.671,31.418 30.079,31.367 30.465,31.309C30.969,31.206 31.632,31.14 32.344,31.124C32.558,31.12 32.762,31.105 32.939,31.08C34.661,30.87 36.384,30.666 38.075,30.443C38.458,30.378 38.925,30.336 39.422,30.322C39.631,30.317 39.827,30.299 39.985,30.271C42.616,29.838 45.685,29.545 48.253,29.1C48.56,29.037 48.908,28.984 49.287,28.94C50.148,28.864 50.863,28.732 51.323,28.565C51.571,28.475 51.908,28.398 52.312,28.336C52.717,28.275 53.18,28.231 53.671,28.208C54.482,28.155 55.207,28.058 55.77,27.928C56.891,27.722 58.084,27.533 59.34,27.361C59.727,27.314 60.056,27.249 60.3,27.172C60.545,27.095 60.698,27.007 60.749,26.916C60.373,26.827 60.029,26.858 59.716,26.916C58.463,27.062 57.21,27.202 55.989,27.361C54.881,27.476 53.832,27.612 52.857,27.769C52.378,27.857 51.748,27.903 51.103,27.896C50.312,27.885 49.528,27.935 48.911,28.036C48.45,28.105 47.957,28.165 47.439,28.215C47.101,28.233 46.744,28.233 46.406,28.215C46.27,28.205 46.126,28.201 45.983,28.203C45.839,28.205 45.7,28.214 45.573,28.227C45.447,28.241 45.335,28.26 45.247,28.283C45.158,28.306 45.094,28.333 45.059,28.361C44.683,28.609 43.587,28.667 42.679,28.775C41.175,28.66 40.267,28.985 38.921,28.991C38.815,28.994 38.714,29.001 38.622,29.012C38.531,29.023 38.451,29.038 38.388,29.055C36.008,29.507 33.127,29.825 30.59,30.227C30.311,30.272 29.974,30.301 29.619,30.309C27.295,30.362 25.151,30.589 23.606,30.946C23.416,30.985 23.193,31.018 22.948,31.042C21.794,31.095 20.721,31.205 19.816,31.36C18.376,31.557 16.998,31.761 15.526,31.946C14.502,32.055 13.638,32.218 13.02,32.417C13.02,32.461 12.551,32.481 12.206,32.525C11.956,32.449 11.736,32.379 11.486,32.315C11.245,32.226 10.914,32.149 10.514,32.089C10.114,32.028 9.655,31.986 9.168,31.965C8.354,31.965 8.197,31.818 8.698,31.685C9.968,31.298 11.648,30.974 13.615,30.736C15.244,30.507 16.904,30.278 18.564,30.061C19.535,29.94 20.568,29.832 21.508,29.705C21.831,29.673 22.166,29.648 22.51,29.628C22.935,29.61 23.339,29.575 23.7,29.526C24.839,29.328 26.143,29.172 27.552,29.068C28.061,29.016 28.544,28.954 28.993,28.883C30.05,28.706 31.219,28.558 32.469,28.444C33.244,28.369 33.988,28.282 34.693,28.183C34.943,28.151 35.131,28.094 35.382,28.081C37.605,28.005 39.014,27.629 40.956,27.444C41.891,27.337 42.772,27.211 43.587,27.069C45.202,26.839 46.875,26.626 48.598,26.432C50.884,26.19 52.951,25.865 55.112,25.591C55.539,25.538 55.947,25.478 56.333,25.413C58.205,25.081 60.279,24.798 62.503,24.573C63.005,24.514 63.441,24.436 63.786,24.341C64.131,24.247 64.377,24.14 64.508,24.025C64.551,23.953 64.462,23.881 64.257,23.821C63.934,23.755 63.577,23.695 63.192,23.643L50.884,25.044C50.365,25.099 49.863,25.161 49.381,25.229C47.962,25.428 46.487,25.611 44.965,25.776C43.462,25.942 42.052,26.152 40.612,26.343C40.187,26.398 39.748,26.449 39.296,26.496C36.233,26.787 33.272,27.121 30.433,27.495C29.243,27.661 27.928,27.782 26.706,27.934C25.485,28.087 23.825,28.317 22.384,28.514L17.937,29.151C17.06,29.272 16.215,29.405 15.369,29.533C14.116,29.246 13.709,29.195 12.237,29.202C11.731,29.199 11.231,29.225 10.797,29.278C9.45,29.507 7.665,29.609 6.381,29.813C5.595,29.915 4.958,30.058 4.533,30.227C4.16,30.365 3.719,30.495 3.218,30.615C1.589,30.449 1.339,30.227 2.372,29.978C2.654,29.915 3.061,29.864 3.249,29.787C3.356,29.742 3.514,29.702 3.709,29.671C3.905,29.64 4.133,29.619 4.376,29.609C5.137,29.565 5.829,29.482 6.381,29.367C6.894,29.246 7.552,29.154 8.291,29.1C8.855,29.1 9.262,28.928 9.701,28.832C10.139,28.737 10.484,28.628 11.235,28.609C11.374,28.607 11.508,28.599 11.627,28.584C11.746,28.57 11.848,28.55 11.924,28.527C12.659,28.365 13.571,28.24 14.586,28.164C16.126,28.011 17.541,27.811 18.783,27.572C19.518,27.412 20.121,27.229 20.568,27.03C20.686,26.968 20.88,26.914 21.132,26.871C22.425,26.715 23.865,26.615 25.36,26.578C25.925,26.569 26.482,26.545 27.02,26.508C28.128,26.439 29.182,26.338 30.151,26.209C31.554,26.01 33.031,25.833 34.567,25.681C35.514,25.583 36.415,25.467 37.261,25.337C38.132,25.208 39.079,25.101 40.079,25.018C41.069,24.926 41.906,24.778 42.491,24.592C42.673,24.51 42.81,24.425 42.898,24.337C41.367,24.312 39.845,24.405 38.639,24.598C38.169,24.649 37.793,24.719 37.261,24.7L37.261,24.732C37.174,24.765 37.03,24.79 36.856,24.803C36.683,24.816 36.493,24.816 36.321,24.802L36.321,24.802C36.321,24.681 36.321,24.566 36.321,24.484C37.255,24.365 38.154,24.235 39.015,24.095C39.735,23.968 40.831,24.025 41.426,23.86C42.71,23.777 43.43,23.535 44.558,23.414C45.685,23.293 46.969,23.242 48.097,23.121C49.074,23.003 50.016,22.874 50.915,22.733C51.22,22.672 51.582,22.624 51.98,22.593C52.546,22.56 53.054,22.495 53.448,22.406C53.841,22.317 54.103,22.207 54.204,22.09C54.016,22.02 53.765,21.93 53.484,21.841C53.837,21.684 54.43,21.555 55.175,21.472L56.208,21.319C56.484,21.283 56.68,21.226 56.756,21.161C56.832,21.095 56.781,21.027 56.615,20.969C54.454,20.867 54.36,20.835 53.045,21.287L51.072,21.447L51.103,21.44ZM77.536,18.792L77.379,18.792L77.536,18.792ZM337.008,25.407L337.008,25.477L337.008,25.4L337.352,25.4L337.352,25.356L337.008,25.407ZM275.718,3.466C275.228,3.46 274.736,3.46 274.246,3.466C274.12,3.474 274.006,3.488 273.914,3.507C273.822,3.526 273.752,3.549 273.714,3.574C273.714,3.651 273.996,3.664 274.246,3.664C274.564,3.666 274.878,3.652 275.16,3.622C275.44,3.592 275.676,3.547 275.842,3.492L276.094,3.428L275.718,3.466ZM50.978,54.198C51.283,54.168 51.567,54.129 51.824,54.084C52.951,53.861 54.016,53.619 55.175,53.396C56.602,53.047 58.293,52.746 60.186,52.505C60.926,52.413 61.524,52.281 61.908,52.123C62.141,52.034 62.461,51.956 62.848,51.893L67.733,51.028C68.024,50.951 68.266,50.868 68.454,50.779C67.984,50.779 67.671,50.779 67.483,50.779C67.116,50.824 66.814,50.888 66.606,50.964C66.397,51.072 65.994,51.161 65.478,51.212C64.96,51.268 64.458,51.329 63.975,51.397C63.067,51.531 62.159,51.677 61.25,51.817C61,52.072 59.904,52.129 58.995,52.237L58.306,52.346C56.093,52.775 54.002,53.23 52.043,53.708C51.662,53.796 51.345,53.895 51.103,54.001C51.026,54.068 51.026,54.138 51.103,54.205L50.947,54.205L50.978,54.198ZM162.252,59.228C162.809,59.164 163.397,59.11 164.006,59.069C164.48,59.048 164.935,59.012 165.352,58.961C167.689,58.676 170.153,58.437 172.712,58.248C173.048,58.226 173.366,58.194 173.652,58.152L175.656,57.821C176.282,57.707 176.282,57.681 175.656,57.433C175.239,57.427 174.82,57.427 174.403,57.433C174.153,57.433 173.746,57.433 173.683,57.496C173.213,57.713 172.18,57.764 171.334,57.853C168.891,58.12 166.355,58.362 163.88,58.617C163.356,58.668 162.853,58.727 162.377,58.795C162.079,58.833 161.815,58.88 161.594,58.935C161.527,58.947 161.474,58.962 161.438,58.978C161.401,58.995 161.382,59.013 161.382,59.031C161.382,59.049 161.401,59.067 161.438,59.083C161.474,59.1 161.527,59.114 161.594,59.126C161.829,59.168 162.093,59.202 162.377,59.228L162.252,59.228ZM156.395,11.037L158.744,10.661C159.026,10.616 159.245,10.54 159.558,10.514C161.209,10.34 162.702,10.109 163.974,9.833C164.404,9.733 164.925,9.651 165.509,9.591C167.294,9.406 168.948,9.172 170.426,8.897C171.395,8.746 172.286,8.575 173.088,8.388C173.144,8.363 173.173,8.336 173.173,8.308C173.173,8.281 173.144,8.254 173.088,8.229C173.067,8.211 173.028,8.194 172.972,8.179C172.917,8.165 172.847,8.153 172.766,8.144C172.686,8.136 172.597,8.131 172.507,8.13C172.417,8.129 172.326,8.133 172.242,8.14C171.138,8.199 170.119,8.31 169.267,8.464C168.482,8.616 167.621,8.75 166.699,8.865C165.822,8.986 165.29,9.19 164.162,9.254C163.69,9.289 163.291,9.357 163.035,9.445C162.509,9.605 161.722,9.722 160.811,9.776C160.27,9.814 159.762,9.87 159.308,9.941C158.212,10.126 157.178,10.33 156.176,10.527C155.858,10.585 155.512,10.636 155.143,10.68L149.944,11.317C148.691,11.463 147.438,11.603 146.217,11.762C145.208,11.873 144.289,12.015 143.492,12.183C142.642,12.361 141.697,12.519 140.674,12.654C139.108,12.908 137.542,13.144 135.819,13.386C134.723,13.545 133.596,13.698 132.437,13.838C131.841,13.89 131.361,13.986 131.09,14.105C130.934,14.195 130.464,14.207 130.088,14.245C128.051,14.387 126.192,14.617 124.639,14.92C124.442,14.962 124.221,14.998 123.981,15.029C122.446,15.245 120.849,15.455 119.377,15.665C118.993,15.727 118.636,15.795 118.312,15.869C118.37,15.907 118.497,15.938 118.666,15.957C118.835,15.976 119.034,15.981 119.221,15.971C120.674,15.891 122.05,15.762 123.292,15.589C125.348,15.279 127.527,15.004 129.806,14.768C131.585,14.603 133.158,14.36 134.41,14.054C135.39,13.82 136.741,13.663 138.231,13.609C138.872,13.593 139.473,13.538 139.953,13.45C140.412,13.359 140.955,13.287 141.55,13.24C142.803,13.132 143.99,12.995 145.089,12.832C146.154,12.654 147.125,12.444 148.221,12.265C149.317,12.087 151.008,11.858 152.355,11.629C153.702,11.399 155.049,11.202 156.395,11.037ZM56.49,21.587C56.709,21.752 57.21,21.803 57.712,21.784C59.464,21.767 61.134,21.627 62.44,21.389C63.125,21.22 64.097,21.108 65.165,21.077C66.401,21.027 67.511,20.889 68.297,20.689C68.493,20.646 68.633,20.593 68.704,20.536C68.704,20.498 68.704,20.428 68.704,20.415C68.602,20.397 68.481,20.385 68.35,20.378C68.22,20.372 68.084,20.371 67.953,20.377L62.409,20.944L61.438,21.033C59.646,21.159 57.973,21.346 56.49,21.587L56.49,21.587ZM68.673,22.962C69.675,23.14 69.675,23.134 70.145,23.14C72.388,23.125 74.562,22.979 76.408,22.72C76.818,22.66 77.151,22.582 77.379,22.491C77.508,22.464 77.579,22.429 77.579,22.392C77.579,22.355 77.508,22.32 77.379,22.293L76.596,22.179C75.324,22.262 74.08,22.362 72.87,22.478C71.46,22.612 70.239,22.784 68.798,22.962L68.673,22.962ZM161.469,57.917C162.471,58.216 162.471,58.21 163.849,58.127C164.81,58.07 165.727,57.987 166.574,57.878C167.607,57.745 168.672,57.617 169.706,57.49C169.962,57.467 170.169,57.426 170.284,57.375C170.4,57.323 170.417,57.264 170.332,57.21C170.163,57.162 169.92,57.127 169.641,57.111C169.362,57.095 169.065,57.098 168.797,57.121L168.234,57.191C167.545,57.267 166.824,57.337 166.167,57.426C165.75,57.504 165.251,57.561 164.707,57.593C164.164,57.625 163.591,57.631 163.035,57.611L161.469,57.917ZM71.679,19.995C71.927,20.036 72.201,20.07 72.494,20.097C73.591,20.129 74.708,20.077 75.625,19.95C76.064,19.899 76.44,19.804 76.91,19.797C77.739,19.76 78.525,19.691 79.227,19.594C79.227,19.594 79.415,19.549 79.478,19.536L79.478,19.256C79.115,19.243 78.744,19.243 78.381,19.256C77.191,19.352 76.033,19.466 74.874,19.575C73.715,19.683 73.308,19.715 72.556,19.797C72.233,19.857 71.939,19.923 71.679,19.995ZM63.349,56.013L65.134,56.331C65.647,56.308 66.108,56.251 66.447,56.169C66.786,56.088 66.985,55.986 67.013,55.879C67.114,55.817 67.093,55.749 66.953,55.689C66.812,55.63 66.565,55.584 66.261,55.561C65.962,55.525 65.63,55.502 65.285,55.493C64.94,55.484 64.59,55.49 64.257,55.51L63.349,56.013ZM74.561,51.556C73.526,51.607 72.562,51.705 71.742,51.843C71.246,51.97 70.529,52.055 69.738,52.078C68.291,52.106 66.954,52.248 66.011,52.473C66.011,52.473 66.011,52.549 65.854,52.594C65.698,52.638 66.387,52.594 66.543,52.594C67.639,52.492 68.735,52.377 69.675,52.263C70.252,52.179 70.872,52.109 71.523,52.053C72.422,51.981 73.257,51.88 73.997,51.753C73.997,51.753 74.279,51.696 74.561,51.562L74.561,51.556ZM165.791,8.655C165.267,8.622 164.713,8.613 164.171,8.63C163.629,8.647 163.112,8.688 162.659,8.751C162.31,8.795 162.044,8.862 161.902,8.94C161.76,9.018 161.751,9.104 161.876,9.184C162.252,9.184 162.753,9.184 163.035,9.184C163.943,9.05 164.695,8.891 165.791,8.655ZM258.492,4.51C258.072,4.483 257.624,4.481 257.196,4.504C256.77,4.526 256.384,4.573 256.082,4.638C255.924,4.67 256.082,4.746 256.082,4.803C256.07,4.818 256.078,4.833 256.104,4.847C256.13,4.861 256.176,4.873 256.234,4.882C256.29,4.891 256.36,4.897 256.432,4.899C256.504,4.9 256.578,4.898 256.644,4.892C257.074,4.869 257.466,4.824 257.79,4.761C258.112,4.699 258.354,4.622 258.492,4.536L258.492,4.51ZM265.006,4.822C264.924,4.783 264.774,4.751 264.584,4.732C264.394,4.714 264.178,4.709 263.974,4.72C263.628,4.768 263.32,4.826 263.066,4.892C262.784,4.956 263.066,5.064 263.504,5.09C263.688,5.099 263.88,5.099 264.066,5.09C264.25,5.081 264.424,5.064 264.57,5.039C264.714,5.014 264.83,4.983 264.906,4.948C264.982,4.912 265.016,4.874 265.006,4.835L265.006,4.822ZM87.307,18.308C86.336,18.263 85.679,18.403 84.896,18.441C84.113,18.48 83.925,18.499 84.081,18.594C84.238,18.69 84.739,18.594 85.084,18.594C85.549,18.593 86.003,18.566 86.395,18.515C86.788,18.464 87.104,18.393 87.307,18.308L87.307,18.308ZM286.178,20.905C285.69,20.934 285.218,20.972 284.768,21.02C284.718,21.044 284.692,21.07 284.692,21.096C284.692,21.123 284.718,21.149 284.768,21.173C284.768,21.173 285.114,21.217 285.302,21.217C285.99,21.211 285.958,21.084 286.178,20.905L286.178,20.905ZM360.464,27.368C360.84,27.438 361.028,27.495 361.31,27.514C361.436,27.517 361.564,27.514 361.684,27.505C361.802,27.496 361.91,27.482 362,27.463C362.094,27.414 362.094,27.36 362,27.311C362,27.311 361.624,27.253 361.498,27.266C361.136,27.292 360.788,27.326 360.464,27.368L360.464,27.368ZM71.773,19.479C71.053,19.479 70.364,19.479 69.957,19.657C71.084,19.626 71.084,19.626 71.773,19.479ZM83.205,19.021C82.422,18.912 82.014,18.951 81.701,19.021C81.635,19.037 81.596,19.056 81.59,19.077C81.584,19.098 81.612,19.118 81.668,19.136C81.725,19.153 81.808,19.166 81.904,19.173C82,19.18 82.105,19.18 82.202,19.174C82.559,19.129 82.894,19.078 83.205,19.021L83.205,19.021ZM118.124,14.125C118.124,14.093 118.124,14.054 117.936,14.054C117.884,14.048 117.825,14.045 117.764,14.045C117.704,14.045 117.644,14.048 117.592,14.054C117.592,14.054 117.592,14.093 117.592,14.118L118.124,14.125ZM167.639,59.903L167.263,59.986L167.451,59.986L167.92,59.935L167.639,59.903ZM284.926,1.48C284.768,1.48 284.612,1.48 284.612,1.524C284.584,1.535 284.57,1.547 284.57,1.559C284.57,1.571 284.584,1.583 284.612,1.594C284.612,1.594 284.832,1.594 284.926,1.594L284.926,1.48ZM262.376,5.058C262.278,5.069 262.194,5.084 262.126,5.102C262.126,5.102 262.126,5.141 262.126,5.141L262.438,5.141L262.376,5.058ZM68.736,41.827C68.612,41.822 68.483,41.822 68.36,41.827L68.203,41.827C68.203,41.827 68.391,41.865 68.485,41.865C68.579,41.865 68.642,41.84 68.736,41.827Z" transform="rotate(14.121 187.554 32.624)" fill="#DF6951"/>
</g>
</svg>
