<svg width="176" height="458" viewBox="0 0 176 458" fill="none" xmlns="http://www.w3.org/2000/svg" xmlns:xlink="http://www.w3.org/1999/xlink">
<path d="M56.956,118.855L57.424,119.626L57.531,119.561L57.617,119.469L56.956,118.855ZM50.615,81.39L50.259,80.56L50.234,80.572L50.615,81.39ZM141.2,98.681L140.361,99.014L140.367,99.029L141.2,98.681ZM98.625,175.532L98.273,174.702L98.262,174.706L98.625,175.532ZM30.687,139.028L30.294,138.216L30.159,138.281L30.052,138.387L30.687,139.028ZM118.554,113.091L118.741,112.208L118.636,112.186L118.53,112.189L118.554,113.091ZM162.034,175.532L161.138,175.423L161.128,175.51L161.134,175.598L162.034,175.532ZM101.343,220.683L101.539,221.563L101.58,221.553L101.62,221.541L101.343,220.683ZM53.333,229.329L53.269,228.427L53.235,228.431L53.201,228.435L53.333,229.329ZM14.382,235.091L13.628,234.597L12.521,236.279L14.514,235.985L14.382,235.091ZM111.307,196.666L111.1,197.545L111.307,196.666ZM173.81,235.091L174.694,234.911L174.663,234.759L174.582,234.625L173.81,235.091ZM53.333,289.849L52.431,289.849L52.431,290.409L52.934,290.657L53.333,289.849ZM53.333,254.305L53.416,253.407L52.431,253.315L52.431,254.305L53.333,254.305ZM169.281,223.565L170.063,224.015L170.097,223.955L170.121,223.893L169.281,223.565ZM111.307,151.516L111.358,150.615L111.315,150.613L111.272,150.615L111.307,151.516ZM51.521,157.28L51.221,156.429L50.602,156.648L50.619,157.304L51.521,157.28ZM53.333,225.485L52.431,225.509L52.452,226.311L53.251,226.385L53.333,225.485ZM164.752,273.517L165.595,273.197L165.585,273.173L164.752,273.517ZM127.612,337.881L127.646,338.781L127.703,338.779L127.76,338.771L127.612,337.881ZM53.333,321.549L52.431,321.549L52.431,321.593L52.435,321.637L53.333,321.549ZM132.141,286.967L131.532,287.631L131.548,287.647L131.566,287.661L132.141,286.967ZM138.482,373.423L138.795,374.271L138.917,374.225L139.021,374.147L138.482,373.423ZM123.083,400.321L123.981,400.237L123.979,400.217L123.977,400.197L123.083,400.321ZM92.284,455.079L92.441,455.967L92.453,455.965L92.284,455.079ZM53.333,445.471L52.431,445.433L52.412,445.897L52.777,446.183L53.333,445.471ZM16.889,25.286C23.162,17.684 34.217,8.063 46.958,3.858C53.314,1.761 60.065,1.019 66.85,2.52C73.629,4.019 80.505,7.771 87.098,14.764L88.411,13.526C81.599,6.301 74.412,2.344 67.24,0.758C60.075,-0.828 52.989,-0.032 46.392,2.145C33.226,6.49 21.906,16.37 15.497,24.138L16.889,25.286ZM87.098,14.764C100.112,28.565 97.96,48.496 89.619,68.165C81.301,87.78 66.969,106.761 56.295,118.24L57.617,119.469C68.382,107.893 82.855,88.737 91.281,68.869C99.683,49.056 102.211,28.16 88.411,13.526L87.098,14.764ZM56.489,118.083C51.233,121.268 43.14,125.557 35.936,128.09C32.324,129.36 29.008,130.163 26.413,130.201C23.797,130.239 22.215,129.512 21.539,128.076L19.906,128.846C21.041,131.253 23.574,132.047 26.44,132.005C29.327,131.963 32.862,131.084 36.534,129.793C43.9,127.203 52.111,122.846 57.424,119.626L56.489,118.083ZM21.539,128.076C19.345,123.424 17.605,116.25 20.88,108.145C24.16,100.029 32.543,90.799 50.996,82.208L50.234,80.572C31.548,89.272 22.72,98.774 19.206,107.469C15.688,116.176 17.57,123.891 19.906,128.846L21.539,128.076ZM50.972,82.219C62.819,77.13 81.521,71.892 99.105,72.685C116.662,73.476 132.93,80.251 140.361,99.014L142.039,98.349C134.251,78.686 117.154,71.692 99.187,70.882C81.246,70.073 62.266,75.403 50.259,80.561L50.972,82.219ZM140.367,99.029C143.764,107.173 145.776,120.773 140.69,134.977C135.616,149.148 123.44,164.026 98.273,174.702L98.977,176.363C124.537,165.521 137.121,150.299 142.389,135.586C147.645,120.907 145.581,106.841 142.033,98.334L140.367,99.029ZM98.262,174.706L34.853,202.565L35.579,204.217L98.988,176.358L98.262,174.706ZM35.18,202.489C29.209,202.729 22.618,202.193 16.94,200.447C11.248,198.697 6.608,195.774 4.313,191.338C2.033,186.931 1.945,180.788 5.887,172.303C9.832,163.811 17.768,153.089 31.322,139.669L30.052,138.387C16.43,151.874 8.325,162.772 4.25,171.543C0.171,180.323 0.083,187.089 2.71,192.167C5.322,197.215 10.495,200.354 16.409,202.173C22.338,203.995 29.145,204.537 35.252,204.293L35.18,202.489ZM31.08,139.84C39.652,135.694 54.335,129.417 70.487,124.082C86.654,118.743 104.218,114.374 118.578,113.993L118.53,112.189C103.903,112.577 86.139,117.013 69.921,122.369C53.689,127.729 38.933,134.037 30.294,138.216L31.08,139.84ZM118.366,113.974C126.523,115.704 138.486,120.862 147.768,130.69C157.019,140.485 163.641,154.95 161.138,175.423L162.93,175.642C165.5,154.615 158.685,139.621 149.08,129.451C139.505,119.313 127.192,114 118.741,112.208L118.366,113.974ZM161.134,175.598C161.407,179.363 158.962,186.367 150.057,194.511C141.183,202.627 125.986,211.781 101.065,219.823L101.62,221.541C126.702,213.445 142.153,204.185 151.275,195.843C160.365,187.529 163.265,180.027 162.934,175.467L161.134,175.598ZM101.146,219.801C89.652,222.367 64.058,227.665 53.269,228.427L53.397,230.229C64.348,229.453 90.085,224.121 101.539,221.563L101.146,219.801ZM53.201,228.435L14.25,234.199L14.514,235.985L53.465,230.221L53.201,228.435ZM15.136,235.587L35.97,203.887L34.462,202.895L13.628,234.597L15.136,235.587ZM35.462,204.259C43.347,202.029 56.618,199.012 70.757,197.225C84.917,195.436 99.846,194.893 111.1,197.545L111.514,195.788C99.936,193.06 84.745,193.638 70.53,195.435C56.294,197.234 42.935,200.27 34.97,202.523L35.462,204.259ZM111.1,197.545C118.265,199.233 124.371,200.142 129.767,201.127C135.181,202.115 139.892,203.181 144.404,205.177C153.383,209.149 161.753,216.889 173.038,235.559L174.582,234.625C163.221,215.829 154.61,207.719 145.134,203.527C140.418,201.439 135.533,200.344 130.091,199.351C124.629,198.354 118.619,197.462 111.514,195.788L111.1,197.545ZM172.926,235.273C174.864,244.757 175.122,259.207 169.654,271.715C164.22,284.149 153.102,294.743 132.061,296.635L132.222,298.433C153.936,296.481 165.616,285.461 171.308,272.437C176.968,259.489 176.682,244.639 174.694,234.911L172.926,235.273ZM132.061,296.635C89.411,300.467 61.993,293.107 53.732,289.039L52.934,290.657C61.582,294.915 89.36,302.285 132.222,298.433L132.061,296.635ZM54.235,289.849L54.235,254.305L52.431,254.305L52.431,289.849L54.235,289.849ZM53.25,255.203C68.86,256.649 93.402,256.843 116.336,252.719C127.803,250.657 138.904,247.509 148.294,242.875C157.682,238.243 165.416,232.097 170.063,224.015L168.499,223.115C164.088,230.787 156.686,236.721 147.495,241.257C138.306,245.791 127.383,248.899 116.016,250.943C93.28,255.031 68.907,254.841 53.416,253.407L53.25,255.203ZM170.121,223.893C174.554,212.547 176.974,195.215 169.662,180.181C162.311,165.066 145.266,152.549 111.358,150.615L111.256,152.417C144.742,154.327 161.063,166.626 168.039,180.97C175.055,195.396 172.764,212.167 168.44,223.235L170.121,223.893ZM111.272,150.615C103.11,150.935 90.324,151.608 78.486,152.586C72.568,153.075 66.879,153.641 62.119,154.278C57.384,154.912 53.494,155.626 51.221,156.429L51.822,158.131C53.897,157.397 57.615,156.702 62.358,156.067C67.076,155.436 72.732,154.873 78.635,154.385C90.44,153.41 103.199,152.738 111.342,152.418L111.272,150.615ZM50.619,157.304L52.431,225.509L54.235,225.461L52.423,157.256L50.619,157.304ZM53.251,226.385C69.05,227.821 93.569,231.939 115.745,239.619C126.832,243.459 137.302,248.177 145.795,253.875C154.295,259.575 160.751,266.211 163.918,273.863L165.585,273.173C162.231,265.069 155.461,258.183 146.801,252.375C138.134,246.563 127.509,241.783 116.335,237.913C93.989,230.175 69.32,226.033 53.415,224.587L53.251,226.385ZM163.908,273.839C167.333,282.841 169.591,296.785 165.324,309.371C161.088,321.869 150.366,333.195 127.465,336.989L127.76,338.771C151.237,334.881 162.558,323.151 167.033,309.951C171.477,296.841 169.115,282.447 165.595,273.197L163.908,273.839ZM127.579,336.979C119.025,337.297 105.046,336.867 90.959,334.541C76.839,332.209 62.768,327.995 53.899,320.847L52.767,322.251C62.015,329.705 76.477,333.977 90.665,336.321C104.886,338.669 118.988,339.105 127.646,338.781L127.579,336.979ZM54.235,321.549L54.235,254.305L52.431,254.305L52.431,321.549L54.235,321.549ZM53.118,255.181C62.903,257.575 78.584,262.081 93.801,267.805C109.057,273.545 123.702,280.461 131.532,287.631L132.751,286.301C124.638,278.871 109.692,271.857 94.436,266.117C79.141,260.363 63.39,255.837 53.547,253.429L53.118,255.181ZM131.566,287.661C141.148,295.601 152.912,309.383 157.178,324.911C159.306,332.655 159.564,340.811 156.782,348.905C154,356.997 148.153,365.101 137.943,372.699L139.021,374.147C149.464,366.375 155.567,357.989 158.489,349.491C161.41,340.993 161.124,332.459 158.919,324.433C154.519,308.419 142.46,294.343 132.717,286.271L131.566,287.661ZM138.169,372.577C125.42,377.293 91.249,381.137 57.462,358.267L56.45,359.761C90.783,383.001 125.577,379.161 138.795,374.271L138.169,372.577ZM57.854,358.927L54.231,321.463L52.435,321.637L56.058,359.101L57.854,358.927ZM52.812,322.287C63.648,329.947 80.137,343.075 94.358,357.533C101.469,364.763 107.996,372.309 112.966,379.657C117.944,387.019 121.311,394.113 122.189,400.445L123.977,400.197C123.043,393.467 119.503,386.103 114.461,378.647C109.409,371.177 102.801,363.545 95.645,356.269C81.333,341.717 64.758,328.521 53.854,320.813L52.812,322.287ZM122.184,400.407C122.93,408.309 122.299,420.505 118.009,431.355C113.729,442.179 105.853,451.577 92.115,454.191L92.453,455.965C106.978,453.199 115.256,443.225 119.687,432.019C124.108,420.839 124.746,408.345 123.981,400.237L122.184,400.407ZM92.127,454.189C85.027,455.445 67.385,455.307 53.889,444.761L52.777,446.183C66.819,457.155 85.047,457.273 92.441,455.967L92.127,454.189ZM54.235,445.509L57.858,359.053L56.055,358.977L52.431,445.433L54.235,445.509Z" fill="#84829A"/>
</svg>
