<svg width="138" height="136" viewBox="0 0 138 136" fill="none" xmlns="http://www.w3.org/2000/svg" xmlns:xlink="http://www.w3.org/1999/xlink">
<path d="M23.919,0.11L112.797,0.11C126.272,0.11 137.167,11.005 137.167,24.48L137.167,109.917C137.167,123.392 126.272,134.287 112.797,134.287L23.919,134.287C10.444,134.287 -0.45,123.392 -0.45,109.917L-0.45,24.48C-0.45,11.005 10.444,0.11 23.919,0.11Z" fill="#FFFFFF"/>
<path d="M50.457,122.245C59.951,122.245 67.656,114.54 67.656,105.046L67.656,87.847L50.457,87.847C40.964,87.847 33.259,95.552 33.259,105.046C33.259,114.54 40.964,122.245 50.457,122.245Z" fill="#0ACF83"/>
<path d="M33.259,70.65C33.259,61.157 40.964,53.452 50.457,53.452L67.656,53.452L67.656,87.849L50.457,87.849C40.964,87.849 33.259,80.144 33.259,70.65Z" fill="#A259FF"/>
<path d="M33.259,36.252C33.259,26.758 40.964,19.053 50.457,19.053L67.656,19.053L67.656,53.45L50.457,53.45C40.964,53.45 33.259,45.745 33.259,36.252Z" fill="#F24E1E"/>
<path d="M67.656,19.053L84.855,19.053C94.349,19.053 102.054,26.758 102.054,36.252C102.054,45.745 94.349,53.45 84.855,53.45L67.656,53.45L67.656,19.053Z" fill="#FF7262"/>
<path d="M102.054,70.65C102.054,80.144 94.349,87.849 84.855,87.849C75.361,87.849 67.656,80.144 67.656,70.65C67.656,61.157 75.361,53.452 84.855,53.452C94.349,53.452 102.054,61.157 102.054,70.65Z" fill="#1ABCFE"/>
</svg>
