<svg width="36" height="36" viewBox="0 0 36 36" fill="none" xmlns="http://www.w3.org/2000/svg" xmlns:xlink="http://www.w3.org/1999/xlink">
<path d="M19.978,17.829L1.852,35.283C1.003,34.703 0.499,33.738 0.508,32.71L0.508,2.948C0.499,1.92 1.003,0.955 1.852,0.375L19.978,17.829Z" fill="#2196F3"/>
<path d="M26.32,11.732L19.978,17.829L1.852,0.374C1.92,0.321 1.991,0.272 2.065,0.227C3.023,-0.354 4.219,-0.373 5.195,0.178L26.32,11.732Z" fill="#4CAF50"/>
<path d="M34.007,17.829C34.019,18.989 33.388,20.061 32.368,20.615L26.321,23.925L19.978,17.829L26.321,11.732L32.368,15.043C33.388,15.596 34.019,16.668 34.007,17.829Z" fill="#F0BB1F"/>
<path d="M26.32,23.925L5.195,35.48C4.217,36.021 3.025,36.003 2.065,35.431C1.991,35.385 1.92,35.336 1.852,35.283L19.978,17.829L26.32,23.925Z" fill="#F15A2B"/>
</svg>
