<svg width="22" height="20" viewBox="0 0 22 20" fill="none" xmlns="http://www.w3.org/2000/svg" xmlns:xlink="http://www.w3.org/1999/xlink">
<path d="M12.069,9.164L2.181,18.685C1.718,18.369 1.443,17.843 1.448,17.282L1.448,1.046C1.443,0.485 1.718,-0.041 2.181,-0.357L12.069,9.164Z" fill="#2196F3"/>
<path d="M15.529,5.838L12.069,9.164L2.181,-0.357C2.218,-0.386 2.257,-0.413 2.297,-0.438C2.82,-0.755 3.473,-0.765 4.005,-0.465L15.529,5.838Z" fill="#4CAF50"/>
<path d="M19.722,9.164C19.728,9.797 19.384,10.382 18.828,10.684L15.529,12.49L12.069,9.164L15.529,5.838L18.828,7.644C19.384,7.946 19.728,8.531 19.722,9.164Z" fill="#F0BB1F"/>
<path d="M15.529,12.49L4.005,18.793C3.472,19.088 2.821,19.078 2.297,18.766C2.257,18.741 2.218,18.714 2.181,18.685L12.069,9.164L15.529,12.49Z" fill="#F15A2B"/>
</svg>
