<svg width="40" height="40" viewBox="0 0 40 40" fill="none" xmlns="http://www.w3.org/2000/svg" xmlns:xlink="http://www.w3.org/1999/xlink">
<path d="M23.015,20.004L2.928,39.346C1.987,38.703 1.429,37.634 1.439,36.495L1.439,3.513C1.429,2.373 1.987,1.304 2.928,0.661L23.015,20.004Z" fill="#2196F3"/>
<path d="M30.044,13.247L23.015,20.004L2.928,0.661C3.003,0.602 3.082,0.548 3.164,0.498C4.225,-0.146 5.551,-0.167 6.633,0.443L30.044,13.247Z" fill="#4CAF50"/>
<path d="M38.561,20.003C38.574,21.289 37.875,22.477 36.745,23.091L30.043,26.76L23.015,20.003L30.043,13.247L36.745,16.916C37.875,17.529 38.574,18.717 38.561,20.003Z" fill="#F0BB1F"/>
<path d="M30.044,26.76L6.633,39.564C5.549,40.165 4.228,40.144 3.164,39.51C3.082,39.46 3.003,39.405 2.928,39.346L23.015,20.004L30.044,26.76Z" fill="#F15A2B"/>
</svg>
