<svg width="224" height="278" viewBox="0 0 224 278" fill="none" xmlns="http://www.w3.org/2000/svg" xmlns:xlink="http://www.w3.org/1999/xlink">
<path d="M133.215,160.055C130.624,159.148 127.837,158.697 125.028,158.728C117.759,158.728 111.866,161.461 111.866,164.831C111.866,168.202 117.759,170.933 125.028,170.933C127.837,170.963 130.623,170.512 133.215,169.608C134.439,169.154 135.227,168.139 135.226,167.02L135.226,162.642C135.229,161.522 134.44,160.507 133.215,160.055Z" transform="rotate(-65.011 123.546 164.83)" fill="#D5D6DB"/>
<path d="M117.772,110.261C115.893,109.604 113.871,109.277 111.834,109.3C106.565,109.3 102.291,111.28 102.291,113.722C102.291,116.164 106.566,118.145 111.834,118.145C113.871,118.167 115.892,117.839 117.772,117.183C118.659,116.854 119.229,116.118 119.228,115.307L119.228,112.137C119.231,111.325 118.66,110.589 117.772,110.261Z" transform="rotate(-65.01 110.76 113.722)" fill="#D5D6DB"/>
<path d="M95.869,100.842C95.523,100.577 95.071,100.43 94.602,100.431L82.225,100.431C81.19,100.429 80.35,101.129 80.348,101.994C80.348,102.192 80.392,102.389 80.48,102.573L93.792,130.806L135.063,130.806L95.869,100.842Z" transform="rotate(-65.016 107.706 115.619)" fill="#029BC5"/>
<path d="M206.821,154.774L94.666,154.774L34.912,143.984L7.332,133.75L7.332,127.664L193.305,129.252C198.853,129.289 204.293,130.544 209.072,132.889C211.158,133.927 213.08,135.178 214.794,136.613C216.32,137.873 217.622,139.308 218.658,140.875C219.81,142.635 222.848,144.599 222.906,146.752C222.91,146.751 220.932,155.281 206.821,154.774L206.821,154.774Z" transform="rotate(-64.383 115.118 141.23)" fill="#E1E6E9"/>
<path d="M115.116,152.159L46.673,184.754C45.767,185.246 45.51,186.257 46.099,187.013C46.461,187.476 47.079,187.756 47.742,187.756L60.103,187.756C62.48,187.755 64.833,187.349 67.016,186.562L182.937,150.913L115.116,152.159Z" transform="rotate(-64.781 114.36 169.334)" fill="#029BC5"/>
<path d="M17.008,147.303C16.534,146.749 15.77,146.421 14.956,146.421L4.733,146.421C3.341,146.42 2.211,147.363 2.21,148.527C2.21,148.748 2.251,148.968 2.333,149.178L13.464,177.92L43.42,178.178L17.008,147.303Z" transform="rotate(-64.984 22.815 162.299)" fill="#029BC5"/>
<path d="M32.964,182.804L12.514,191.07C12.217,191.187 12.09,191.483 12.23,191.731C12.331,191.91 12.549,192.021 12.786,192.016L22.334,192.016C22.408,192.016 22.482,192.004 22.551,191.982L50.658,182.811L32.964,182.804Z" transform="rotate(-64.723 31.415 187.41)" fill="#029BC5"/>
<path d="M190.671,91.908C188.905,90.421 186.923,89.125 184.771,88.05C181.154,89.502 178.056,91.722 175.785,94.487C175.384,95.076 175.629,95.825 176.334,96.161C176.553,96.265 176.8,96.321 177.052,96.322L194.657,96.322C193.587,94.699 192.245,93.213 190.671,91.908Z" transform="rotate(-64.974 185.125 92.186)" fill="#029BC5"/>
<path d="M162.312,100.806L173.795,100.806L173.795,118.297L162.312,118.297L162.312,100.806Z" transform="rotate(-64.55 168.054 109.552)" fill="#D5D6DB"/>
<path d="M155.176,110.342C153.791,110.342 152.667,111.276 152.667,112.43L152.667,114.298C152.714,115.45 153.875,116.353 155.26,116.314C156.579,116.276 157.638,115.396 157.683,114.298L157.683,112.43C157.683,111.277 156.561,110.343 155.176,110.342L155.176,110.342Z" transform="rotate(-64.707 155.175 113.328)" fill="#3A556A"/>
<path d="M147.119,115.346C145.734,115.346 144.61,116.28 144.61,117.434L144.61,119.302C144.657,120.454 145.818,121.357 147.203,121.318C148.522,121.28 149.581,120.4 149.626,119.302L149.626,117.434C149.625,116.281 148.504,115.347 147.119,115.346L147.119,115.346Z" transform="rotate(-64.707 147.118 118.332)" fill="#3A556A"/>
<path d="M139.059,120.349C137.674,120.351 136.552,121.285 136.552,122.437L136.552,124.305C136.599,125.458 137.76,126.36 139.145,126.321C140.464,126.284 141.523,125.403 141.568,124.305L141.568,122.437C141.568,121.284 140.445,120.349 139.059,120.349L139.059,120.349Z" transform="rotate(-64.705 139.06 123.336)" fill="#3A556A"/>
<path d="M131.002,125.353C129.617,125.354 128.495,126.289 128.495,127.441L128.495,129.309C128.542,130.461 129.703,131.364 131.088,131.325C132.407,131.288 133.466,130.407 133.511,129.309L133.511,127.441C133.51,126.288 132.387,125.353 131.002,125.353L131.002,125.353Z" transform="rotate(-64.707 131.003 128.34)" fill="#3A556A"/>
<path d="M122.963,130.351C121.577,130.352 120.455,131.287 120.455,132.44L120.455,134.309C120.455,135.461 121.578,136.395 122.963,136.395C124.348,136.395 125.47,135.461 125.47,134.309L125.47,132.44C125.472,131.287 124.351,130.352 122.966,130.351C122.964,130.351 122.964,130.351 122.963,130.351Z" transform="rotate(-64.698 122.963 133.373)" fill="#3A556A"/>
<path d="M114.906,135.354C113.52,135.356 112.398,136.29 112.398,137.443L112.398,139.313C112.398,140.465 113.521,141.399 114.906,141.399C116.291,141.399 117.413,140.465 117.413,139.313L117.413,137.443C117.415,136.291 116.293,135.356 114.908,135.354C114.907,135.354 114.906,135.354 114.906,135.354Z" transform="rotate(-64.698 114.906 138.377)" fill="#3A556A"/>
<path d="M106.847,140.359C105.462,140.36 104.339,141.295 104.339,142.448L104.339,144.317C104.341,145.469 105.466,146.402 106.85,146.4C108.232,146.399 109.353,145.467 109.354,144.317L109.354,142.448C109.355,141.295 108.233,140.36 106.847,140.359Z" transform="rotate(-64.697 106.847 143.38)" fill="#3A556A"/>
<path d="M98.79,145.362C97.404,145.364 96.282,146.298 96.282,147.451L96.282,149.321C96.284,150.473 97.408,151.406 98.793,151.404C100.175,151.403 101.295,150.47 101.297,149.321L101.297,147.451C101.297,146.298 100.175,145.363 98.79,145.362Z" transform="rotate(-64.699 98.789 148.383)" fill="#3A556A"/>
<path d="M90.732,150.366C89.347,150.368 88.225,151.302 88.225,152.455L88.225,154.324C88.227,155.476 89.351,156.409 90.735,156.408C92.117,156.406 93.238,155.474 93.24,154.324L93.24,152.455C93.24,151.302 92.117,150.367 90.732,150.366Z" transform="rotate(-64.697 90.732 153.387)" fill="#3A556A"/>
<path d="M82.673,155.371C81.288,155.371 80.165,156.305 80.165,157.457L80.165,157.46L80.165,159.329C80.167,160.481 81.291,161.414 82.676,161.413C84.058,161.411 85.178,160.479 85.18,159.329L85.18,157.46C85.181,156.307 84.058,155.372 82.673,155.371Z" transform="rotate(-64.699 82.673 158.392)" fill="#3A556A"/>
<path d="M74.618,160.373C73.233,160.373 72.11,161.308 72.11,162.46L72.11,162.462L72.11,164.332C72.112,165.484 73.236,166.416 74.621,166.415C76.003,166.414 77.123,165.481 77.125,164.332L77.125,162.462C77.125,161.309 76.003,160.374 74.618,160.373Z" transform="rotate(-64.696 74.617 163.394)" fill="#3A556A"/>
</svg>
