<svg width="24" height="30" viewBox="0 0 24 30" fill="none" xmlns="http://www.w3.org/2000/svg" xmlns:xlink="http://www.w3.org/1999/xlink">
<path d="M7.598,28.458C3.3,28.434 -0.255,19.661 -0.255,15.193C-0.255,7.895 5.22,6.297 7.33,6.297C8.281,6.297 9.296,6.67 10.192,7.001C10.818,7.231 11.466,7.469 11.826,7.469C12.042,7.469 12.55,7.267 12.998,7.089C13.955,6.708 15.146,6.235 16.532,6.235C16.534,6.235 16.538,6.235 16.54,6.235C17.575,6.235 20.714,6.462 22.601,9.296L23.043,9.96L22.407,10.44C21.498,11.126 19.84,12.377 19.84,14.854C19.84,17.789 21.718,18.917 22.62,19.46C23.018,19.7 23.43,19.947 23.43,20.487C23.43,20.84 20.615,28.415 16.526,28.415C15.526,28.415 14.818,28.114 14.195,27.849C13.563,27.58 13.019,27.349 12.119,27.349C11.663,27.349 11.087,27.565 10.476,27.793C9.642,28.105 8.697,28.458 7.626,28.458L7.598,28.458Z" fill="#FFFFFF"/>
<path d="M16.965,-0.417C17.071,3.422 14.326,6.086 11.583,5.919C11.131,2.855 14.325,-0.417 16.965,-0.417Z" fill="#FFFFFF"/>
</svg>
