<svg width="224" height="276" viewBox="0 0 224 276" fill="none" xmlns="http://www.w3.org/2000/svg" xmlns:xlink="http://www.w3.org/1999/xlink">
<path d="M133.383,159.885C130.791,158.979 128.004,158.527 125.196,158.559C117.927,158.559 112.034,161.291 112.034,164.662C112.034,168.032 117.927,170.763 125.196,170.763C128.004,170.794 130.791,170.343 133.383,169.439C134.607,168.985 135.395,167.97 135.393,166.851L135.393,162.472C135.397,161.353 134.607,160.338 133.383,159.885Z" transform="rotate(-65.011 123.714 164.661)" fill="#D5D6DB"/>
<path d="M117.94,110.091C116.06,109.435 114.039,109.107 112.002,109.13C106.733,109.13 102.458,111.111 102.458,113.553C102.458,115.995 106.733,117.975 112.002,117.975C114.039,117.997 116.06,117.669 117.94,117.014C118.826,116.684 119.397,115.949 119.396,115.138L119.396,111.967C119.399,111.156 118.827,110.42 117.94,110.091Z" transform="rotate(-65.01 110.927 113.553)" fill="#D5D6DB"/>
<path d="M96.037,100.672C95.691,100.407 95.239,100.261 94.77,100.261L82.393,100.261C81.358,100.26 80.518,100.959 80.516,101.825C80.515,102.023 80.56,102.219 80.648,102.403L93.96,130.637L135.231,130.637L96.037,100.672Z" transform="rotate(-65.016 107.874 115.449)" fill="#029BC5"/>
<path d="M206.989,154.605L94.834,154.605L35.08,143.815L7.5,133.581L7.5,127.494L193.473,129.083C199.022,129.12 204.461,130.374 209.24,132.72C211.326,133.757 213.248,135.008 214.962,136.444C216.488,137.704 217.79,139.138 218.826,140.705C219.978,142.466 223.016,144.429 223.074,146.582C223.078,146.582 221.1,155.112 206.989,154.605Z" transform="rotate(-64.383 115.286 141.06)" fill="#E1E6E9"/>
<path d="M115.284,151.99L46.842,184.585C45.935,185.076 45.679,186.087 46.268,186.843C46.629,187.307 47.247,187.586 47.91,187.586L60.271,187.586C62.648,187.585 65.001,187.179 67.184,186.392L183.105,150.743L115.284,151.99Z" transform="rotate(-64.781 114.528 169.165)" fill="#029BC5"/>
<path d="M17.176,147.134C16.703,146.58 15.938,146.251 15.124,146.251L4.902,146.251C3.509,146.251 2.379,147.194 2.378,148.357C2.378,148.579 2.42,148.799 2.501,149.009L13.632,177.751L43.589,178.008L17.176,147.134Z" transform="rotate(-64.984 22.983 162.13)" fill="#029BC5"/>
<path d="M33.132,182.634L12.683,190.901C12.385,191.018 12.258,191.314 12.398,191.562C12.499,191.74 12.718,191.852 12.954,191.846L22.502,191.846C22.576,191.846 22.65,191.835 22.719,191.812L50.826,182.642L33.132,182.634Z" transform="rotate(-64.723 31.583 187.24)" fill="#029BC5"/>
<path d="M190.839,91.738C189.074,90.251 187.091,88.956 184.94,87.88C181.322,89.333 178.224,91.552 175.953,94.317C175.552,94.906 175.797,95.656 176.502,95.992C176.721,96.096 176.968,96.152 177.22,96.153L194.825,96.153C193.756,94.53 192.414,93.043 190.839,91.738Z" transform="rotate(-64.974 185.293 92.017)" fill="#029BC5"/>
<path d="M162.48,100.637L173.963,100.637L173.963,118.128L162.48,118.128L162.48,100.637Z" transform="rotate(-64.55 168.222 109.382)" fill="#D5D6DB"/>
<path d="M155.344,110.172C153.959,110.172 152.835,111.107 152.835,112.26L152.835,114.129C152.882,115.281 154.043,116.183 155.428,116.144C156.747,116.107 157.806,115.226 157.851,114.129L157.851,112.26C157.851,111.108 156.729,110.173 155.344,110.172L155.344,110.172Z" transform="rotate(-64.707 155.343 113.159)" fill="#3A556A"/>
<path d="M147.287,115.176C145.902,115.176 144.778,116.111 144.778,117.264L144.778,119.132C144.825,120.284 145.986,121.187 147.371,121.148C148.69,121.111 149.749,120.23 149.794,119.132L149.794,117.264C149.793,116.112 148.672,115.177 147.287,115.176L147.287,115.176Z" transform="rotate(-64.707 147.286 118.163)" fill="#3A556A"/>
<path d="M139.227,120.18C137.842,120.181 136.72,121.116 136.72,122.268L136.72,124.136C136.767,125.288 137.928,126.191 139.313,126.152C140.632,126.114 141.691,125.234 141.736,124.136L141.736,122.268C141.736,121.115 140.613,120.18 139.227,120.18L139.227,120.18Z" transform="rotate(-64.705 139.228 123.166)" fill="#3A556A"/>
<path d="M131.17,125.183C129.785,125.185 128.663,126.119 128.663,127.271L128.663,129.14C128.71,130.292 129.871,131.194 131.256,131.155C132.575,131.118 133.634,130.237 133.679,129.14L133.679,127.271C133.678,126.118 132.555,125.183 131.17,125.183L131.17,125.183Z" transform="rotate(-64.707 131.171 128.17)" fill="#3A556A"/>
<path d="M123.131,130.181C121.745,130.183 120.623,131.117 120.623,132.27L120.623,134.139C120.623,135.292 121.746,136.226 123.131,136.226C124.516,136.226 125.638,135.292 125.638,134.139L125.638,132.27C125.64,131.118 124.519,130.183 123.134,130.181C123.132,130.181 123.132,130.181 123.131,130.181Z" transform="rotate(-64.698 123.131 133.204)" fill="#3A556A"/>
<path d="M115.073,135.185C113.688,135.186 112.566,136.121 112.566,137.274L112.566,139.143C112.566,140.295 113.688,141.23 115.073,141.23C116.458,141.23 117.581,140.295 117.581,139.143L117.581,137.274C117.583,136.122 116.461,135.186 115.076,135.185C115.075,135.185 115.074,135.185 115.073,135.185Z" transform="rotate(-64.698 115.073 138.207)" fill="#3A556A"/>
<path d="M107.015,140.189C105.63,140.191 104.507,141.125 104.507,142.278L104.507,144.147C104.509,145.3 105.634,146.232 107.018,146.231C108.4,146.229 109.521,145.297 109.522,144.147L109.522,142.278C109.523,141.125 108.401,140.19 107.015,140.189Z" transform="rotate(-64.697 107.015 143.21)" fill="#3A556A"/>
<path d="M98.958,145.193C97.572,145.194 96.45,146.129 96.45,147.282L96.45,149.151C96.452,150.303 97.576,151.236 98.96,151.235C100.343,151.233 101.463,150.301 101.465,149.151L101.465,147.282C101.465,146.129 100.343,145.194 98.958,145.193Z" transform="rotate(-64.699 98.957 148.214)" fill="#3A556A"/>
<path d="M90.901,150.197C89.515,150.198 88.393,151.133 88.393,152.285L88.393,154.155C88.395,155.307 89.519,156.24 90.904,156.238C92.286,156.237 93.406,155.304 93.408,154.155L93.408,152.285C93.408,151.133 92.286,150.198 90.901,150.197Z" transform="rotate(-64.697 90.9 153.217)" fill="#3A556A"/>
<path d="M82.841,155.202C81.456,155.202 80.333,156.136 80.333,157.288L80.333,157.291L80.333,159.16C80.335,160.312 81.459,161.245 82.844,161.243C84.226,161.242 85.346,160.31 85.348,159.16L85.348,157.291C85.349,156.138 84.226,155.203 82.841,155.202Z" transform="rotate(-64.699 82.841 158.222)" fill="#3A556A"/>
<path d="M74.786,160.204C73.401,160.204 72.278,161.138 72.278,162.29L72.278,162.293L72.278,164.162C72.28,165.314 73.404,166.247 74.789,166.245C76.171,166.244 77.291,165.312 77.293,164.162L77.293,162.293C77.293,161.14 76.171,160.205 74.786,160.204Z" transform="rotate(-64.696 74.785 163.225)" fill="#3A556A"/>
</svg>
