<svg width="224" height="278" viewBox="0 0 224 278" fill="none" xmlns="http://www.w3.org/2000/svg" xmlns:xlink="http://www.w3.org/1999/xlink">
<path d="M133.703,161.23C131.112,160.324 128.325,159.873 125.516,159.904C118.248,159.904 112.354,162.636 112.354,166.007C112.354,169.377 118.248,172.108 125.516,172.108C128.325,172.139 131.111,171.688 133.703,170.784C134.927,170.33 135.716,169.315 135.714,168.196L135.714,163.817C135.717,162.698 134.928,161.683 133.703,161.23Z" transform="rotate(-65.011 124.034 166.006)" fill="#D5D6DB"/>
<path d="M118.26,111.437C116.381,110.78 114.359,110.453 112.322,110.475C107.053,110.475 102.779,112.456 102.779,114.898C102.779,117.34 107.054,119.32 112.322,119.32C114.359,119.342 116.38,119.015 118.26,118.359C119.147,118.03 119.718,117.294 119.716,116.483L119.716,113.312C119.719,112.501 119.148,111.765 118.26,111.437Z" transform="rotate(-65.01 111.248 114.898)" fill="#D5D6DB"/>
<path d="M96.358,102.017C96.012,101.752 95.56,101.606 95.09,101.606L82.713,101.606C81.679,101.605 80.838,102.304 80.837,103.169C80.836,103.368 80.881,103.564 80.968,103.748L94.28,131.982L135.552,131.982L96.358,102.017Z" transform="rotate(-65.016 108.194 116.794)" fill="#029BC5"/>
<path d="M207.309,155.95L95.154,155.95L35.4,145.16L7.82,134.926L7.82,128.839L193.793,130.428C199.342,130.465 204.781,131.719 209.56,134.065C211.646,135.102 213.568,136.353 215.282,137.789C216.808,139.049 218.11,140.483 219.146,142.05C220.298,143.811 223.336,145.774 223.394,147.927C223.398,147.927 221.42,156.457 207.309,155.95L207.309,155.95Z" transform="rotate(-64.383 115.607 142.405)" fill="#E1E6E9"/>
<path d="M115.605,153.335L47.162,185.93C46.256,186.421 45.999,187.433 46.588,188.188C46.95,188.652 47.568,188.932 48.23,188.931L60.591,188.931C62.969,188.931 65.322,188.524 67.505,187.737L183.426,152.088L115.605,153.335Z" transform="rotate(-64.781 114.849 170.51)" fill="#029BC5"/>
<path d="M17.496,148.478C17.023,147.925 16.259,147.596 15.444,147.596L5.222,147.596C3.829,147.596 2.7,148.539 2.699,149.702C2.699,149.924 2.74,150.144 2.822,150.354L13.952,179.096L43.909,179.353L17.496,148.478Z" transform="rotate(-64.984 23.304 163.475)" fill="#029BC5"/>
<path d="M33.453,183.979L13.003,192.246C12.706,192.363 12.578,192.659 12.719,192.907C12.82,193.085 13.038,193.197 13.275,193.191L22.822,193.191C22.897,193.191 22.971,193.18 23.04,193.157L51.146,183.987L33.453,183.979Z" transform="rotate(-64.723 31.904 188.585)" fill="#029BC5"/>
<path d="M191.16,93.083C189.394,91.596 187.412,90.301 185.26,89.225C181.643,90.678 178.545,92.897 176.274,95.663C175.872,96.251 176.118,97.001 176.822,97.337C177.042,97.441 177.289,97.497 177.541,97.498L195.146,97.498C194.076,95.875 192.734,94.388 191.16,93.083Z" transform="rotate(-64.974 185.613 93.362)" fill="#029BC5"/>
<path d="M162.801,101.982L174.284,101.982L174.284,119.473L162.801,119.473L162.801,101.982Z" transform="rotate(-64.55 168.542 110.727)" fill="#D5D6DB"/>
<path d="M155.665,111.517C154.28,111.517 153.156,112.452 153.156,113.605L153.156,115.474C153.203,116.626 154.363,117.528 155.749,117.489C157.067,117.452 158.126,116.571 158.171,115.474L158.171,113.605C158.171,112.453 157.05,111.518 155.665,111.517L155.665,111.517Z" transform="rotate(-64.707 155.664 114.504)" fill="#3A556A"/>
<path d="M147.608,116.521C146.222,116.521 145.099,117.456 145.099,118.609L145.099,120.477C145.145,121.63 146.306,122.532 147.692,122.493C149.01,122.456 150.069,121.575 150.114,120.477L150.114,118.609C150.114,117.457 148.992,116.522 147.608,116.521L147.608,116.521Z" transform="rotate(-64.707 147.606 119.508)" fill="#3A556A"/>
<path d="M139.547,121.525C138.163,121.526 137.041,122.46 137.041,123.613L137.041,125.481C137.088,126.633 138.249,127.536 139.634,127.497C140.953,127.459 142.012,126.579 142.057,125.481L142.057,123.613C142.057,122.46 140.933,121.525 139.547,121.525L139.547,121.525Z" transform="rotate(-64.705 139.549 124.511)" fill="#3A556A"/>
<path d="M131.49,126.529C130.105,126.53 128.984,127.464 128.984,128.616L128.984,130.485C129.03,131.637 130.191,132.54 131.577,132.501C132.895,132.463 133.954,131.582 133.999,130.485L133.999,128.616C133.999,127.463 132.875,126.529 131.49,126.529L131.49,126.529Z" transform="rotate(-64.707 131.491 129.515)" fill="#3A556A"/>
<path d="M123.451,131.526C122.066,131.528 120.943,132.462 120.943,133.615L120.943,135.484C120.943,136.637 122.066,137.571 123.451,137.571C124.836,137.571 125.959,136.637 125.959,135.484L125.959,133.615C125.961,132.463 124.839,131.528 123.454,131.526C123.453,131.526 123.452,131.526 123.451,131.526Z" transform="rotate(-64.698 123.451 134.549)" fill="#3A556A"/>
<path d="M115.394,136.53C114.008,136.531 112.886,137.466 112.886,138.619L112.886,140.488C112.886,141.64 114.009,142.575 115.394,142.575C116.779,142.575 117.902,141.64 117.902,140.488L117.902,138.619C117.903,137.467 116.782,136.531 115.397,136.53C115.396,136.53 115.394,136.53 115.394,136.53Z" transform="rotate(-64.698 115.394 139.552)" fill="#3A556A"/>
<path d="M107.335,141.534C105.95,141.536 104.828,142.47 104.828,143.623L104.828,145.492C104.83,146.644 105.954,147.577 107.338,147.576C108.72,147.574 109.841,146.642 109.843,145.492L109.843,143.623C109.843,142.47 108.721,141.535 107.335,141.534Z" transform="rotate(-64.697 107.335 144.555)" fill="#3A556A"/>
<path d="M99.278,146.538C97.893,146.539 96.77,147.474 96.77,148.627L96.77,150.496C96.772,151.648 97.897,152.581 99.281,152.58C100.663,152.578 101.783,151.646 101.785,150.496L101.785,148.627C101.786,147.474 100.664,146.539 99.278,146.538Z" transform="rotate(-64.699 99.278 149.559)" fill="#3A556A"/>
<path d="M91.221,151.542C89.835,151.543 88.713,152.478 88.713,153.63L88.713,155.5C88.715,156.652 89.84,157.585 91.224,157.583C92.606,157.582 93.726,156.65 93.728,155.5L93.728,153.63C93.728,152.478 92.606,151.543 91.221,151.542Z" transform="rotate(-64.697 91.221 154.562)" fill="#3A556A"/>
<path d="M83.161,156.546C81.776,156.546 80.653,157.481 80.653,158.633L80.653,158.635L80.653,160.505C80.655,161.657 81.78,162.59 83.164,162.588C84.546,162.587 85.667,161.655 85.668,160.505L85.668,158.635C85.669,157.483 84.547,156.547 83.161,156.546Z" transform="rotate(-64.699 83.161 159.567)" fill="#3A556A"/>
<path d="M75.106,161.549C73.721,161.549 72.598,162.483 72.598,163.635L72.598,163.638L72.598,165.507C72.6,166.659 73.725,167.592 75.109,167.591C76.491,167.589 77.611,166.657 77.613,165.507L77.613,163.638C77.613,162.485 76.491,161.55 75.106,161.549Z" transform="rotate(-64.696 75.106 164.57)" fill="#3A556A"/>
</svg>
