<svg width="2420" height="972" viewBox="0 0 2420 972" fill="none" xmlns="http://www.w3.org/2000/svg" xmlns:xlink="http://www.w3.org/1999/xlink">
<g opacity="0.2">
<path d="M2269.232,67.068C2269.232,47.133 2253.072,30.973 2233.137,30.973L390.461,30.973C261.88,30.973 157.645,135.208 157.645,263.789L157.645,729.421C157.645,749.356 173.805,765.516 193.74,765.516L2233.137,765.516C2253.072,765.516 2269.232,749.356 2269.232,729.421Z" fill="#DFD7F9"/>
</g>
<g opacity="0.1">
</g>
<path d="M2390.727,352.801C2390.727,444.804 2316.143,519.388 2224.14,519.388C2132.136,519.388 2057.553,444.804 2057.553,352.801C2057.553,260.797 2132.136,186.214 2224.14,186.214C2316.143,186.214 2390.727,260.797 2390.727,352.801Z" stroke="#6246E5" stroke-width="0.902" stroke-miterlimit="3.999327"/>
<circle cx="2210.988" cy="335.265" r="186.314" stroke="#6246E5" stroke-width="0.902" stroke-miterlimit="3.999327"/>
<circle cx="2200.029" cy="321.018" r="203.85" stroke="#6246E5" stroke-width="0.902" stroke-miterlimit="3.999327"/>
<circle cx="2189.07" cy="300.194" r="219.193" stroke="#6246E5" stroke-width="0.902" stroke-miterlimit="3.999327"/>
<circle cx="2178.658" cy="279.919" r="233.989" stroke="#6246E5" stroke-width="0.902" stroke-miterlimit="3.999327"/>
<circle cx="2161.122" cy="256.903" r="257.004" stroke="#6246E5" stroke-width="0.902" stroke-miterlimit="3.999327"/>
<g opacity="0.1">
</g>
<path d="M655.263,706.323C655.263,831.953 553.275,933.797 427.467,933.797C301.661,933.797 199.673,831.953 199.673,706.323C199.673,580.694 301.661,478.851 427.467,478.851C553.275,478.851 655.263,580.694 655.263,706.323Z" transform="rotate(180 427.468 706.324)" stroke="#6246E5" stroke-width="0.902" stroke-miterlimit="3.999327"/>
<path d="M706.184,688.339C706.184,828.847 592.118,942.749 451.412,942.749C310.707,942.749 196.642,828.847 196.642,688.339C196.642,547.833 310.707,433.929 451.412,433.929C592.118,433.929 706.184,547.833 706.184,688.339Z" transform="rotate(180 451.413 688.34)" stroke="#6246E5" stroke-width="0.902" stroke-miterlimit="3.999327"/>
<path d="M749.617,673.354C749.617,827.084 624.817,951.708 470.867,951.708C316.919,951.708 192.119,827.084 192.119,673.354C192.119,519.622 316.919,394.998 470.867,394.998C624.817,394.998 749.617,519.622 749.617,673.354Z" transform="rotate(180 470.868 673.353)" stroke="#6246E5" stroke-width="0.902" stroke-miterlimit="3.999327"/>
<path d="M799.032,658.367C799.032,823.669 664.838,957.673 499.302,957.673C333.766,957.673 199.572,823.669 199.572,658.367C199.572,493.065 333.766,359.061 499.302,359.061C664.838,359.061 799.032,493.065 799.032,658.367Z" transform="rotate(180 499.302 658.367)" stroke="#6246E5" stroke-width="0.902" stroke-miterlimit="3.999327"/>
<path d="M846.95,644.13C846.95,820.59 703.698,963.64 526.988,963.64C350.278,963.64 207.026,820.59 207.026,644.13C207.026,467.67 350.278,324.62 526.988,324.62C703.698,324.62 846.95,467.67 846.95,644.13Z" transform="rotate(180 526.988 644.13)" stroke="#6246E5" stroke-width="0.902" stroke-miterlimit="3.999327"/>
<path d="M909.85,620.151C909.85,813.969 752.506,971.089 558.416,971.089C364.324,971.089 206.982,813.969 206.982,620.151C206.982,426.335 364.324,269.215 558.416,269.215C752.506,269.215 909.85,426.335 909.85,620.151Z" transform="rotate(180 558.415 620.152)" stroke="#6246E5" stroke-width="0.902" stroke-miterlimit="3.999327"/>
</svg>
