<svg width="30" height="30" viewBox="0 0 30 30" fill="none" xmlns="http://www.w3.org/2000/svg" xmlns:xlink="http://www.w3.org/1999/xlink">
<path d="M28.407,28.892L25.519,28.892L25.519,13.01C25.519,12.744 25.304,12.528 25.038,12.528L18.3,12.528L18.3,1.459C18.3,1.193 18.085,0.978 17.819,0.978L5.306,0.978C5.04,0.978 4.825,1.193 4.825,1.459L4.825,28.892L0.493,28.892C0.227,28.892 0.012,29.107 0.012,29.373C0.012,29.639 0.227,29.854 0.493,29.854L28.407,29.854C28.673,29.854 28.888,29.639 28.888,29.373C28.888,29.107 28.673,28.892 28.407,28.892ZM10.119,28.892L8.193,28.892L8.193,24.56C8.193,24.294 8.409,24.079 8.675,24.079L9.637,24.079C9.903,24.079 10.119,24.294 10.119,24.56L10.119,28.892ZM12.044,13.01L12.044,28.892L11.081,28.892L11.081,24.56C11.081,23.763 10.435,23.116 9.637,23.116L8.675,23.116C7.877,23.116 7.231,23.763 7.231,24.56L7.231,28.892L5.787,28.892L5.787,1.94L17.338,1.94L17.338,12.528L12.525,12.528C12.259,12.528 12.044,12.744 12.044,13.01ZM24.557,28.892L13.006,28.892L13.006,13.491L24.557,13.491L24.557,28.892Z" transform="rotate(360 14.45 15.416)" fill="#84829A"/>
<path d="M16.375,7.716L13.487,7.716C13.222,7.716 13.006,7.931 13.006,8.197L13.006,11.085C13.006,11.35 13.222,11.566 13.487,11.566L16.375,11.566C16.641,11.566 16.856,11.35 16.856,11.085L16.856,8.197C16.856,7.931 16.641,7.716 16.375,7.716ZM15.894,10.603L13.969,10.603L13.969,8.678L15.894,8.678L15.894,10.603Z" transform="rotate(360 14.931 9.641)" fill="#84829A"/>
<path d="M16.375,2.903L13.487,2.903C13.222,2.903 13.006,3.118 13.006,3.384L13.006,6.272C13.006,6.537 13.222,6.753 13.487,6.753L16.375,6.753C16.641,6.753 16.856,6.537 16.856,6.272L16.856,3.384C16.856,3.118 16.641,2.903 16.375,2.903ZM15.894,5.79L13.969,5.79L13.969,3.865L15.894,3.865L15.894,5.79Z" transform="rotate(360 14.931 4.828)" fill="#84829A"/>
<path d="M21.188,7.716L18.3,7.716C18.034,7.716 17.819,7.931 17.819,8.197L17.819,11.085C17.819,11.35 18.034,11.566 18.3,11.566L21.188,11.566C21.453,11.566 21.669,11.35 21.669,11.085L21.669,8.197C21.669,7.931 21.453,7.716 21.188,7.716ZM20.706,10.603L18.781,10.603L18.781,8.678L20.706,8.678L20.706,10.603Z" transform="rotate(360 19.744 9.641)" fill="#84829A"/>
<path d="M21.188,2.903L18.3,2.903C18.034,2.903 17.819,3.118 17.819,3.384L17.819,6.272C17.819,6.537 18.034,6.753 18.3,6.753L21.188,6.753C21.453,6.753 21.669,6.537 21.669,6.272L21.669,3.384C21.669,3.118 21.453,2.903 21.188,2.903ZM20.706,5.79L18.781,5.79L18.781,3.865L20.706,3.865L20.706,5.79Z" transform="rotate(360 19.744 4.828)" fill="#84829A"/>
<path d="M21.188,12.528L18.3,12.528C18.034,12.528 17.819,12.744 17.819,13.009L17.819,15.897C17.819,16.163 18.034,16.378 18.3,16.378L21.188,16.378C21.453,16.378 21.669,16.163 21.669,15.897L21.669,13.009C21.669,12.744 21.453,12.528 21.188,12.528ZM20.706,15.416L18.781,15.416L18.781,13.491L20.706,13.491L20.706,15.416Z" transform="rotate(360 19.744 14.453)" fill="#84829A"/>
<path d="M21.188,17.341L18.3,17.341C18.034,17.341 17.819,17.556 17.819,17.822L17.819,20.71C17.819,20.976 18.034,21.191 18.3,21.191L21.188,21.191C21.453,21.191 21.669,20.976 21.669,20.71L21.669,17.822C21.669,17.556 21.453,17.341 21.188,17.341ZM20.706,20.229L18.781,20.229L18.781,18.303L20.706,18.303L20.706,20.229Z" transform="rotate(360 19.744 19.266)" fill="#84829A"/>
<path d="M6.268,23.116L9.156,23.116C9.421,23.116 9.637,22.901 9.637,22.635L9.637,19.747C9.637,19.481 9.421,19.266 9.156,19.266L6.268,19.266C6.002,19.266 5.787,19.481 5.787,19.747L5.787,22.635C5.787,22.901 6.002,23.116 6.268,23.116ZM6.749,20.229L8.674,20.229L8.674,22.154L6.749,22.154L6.749,20.229Z" transform="rotate(360 7.712 21.191)" fill="#84829A"/>
<path d="M6.268,18.303L9.156,18.303C9.421,18.303 9.637,18.088 9.637,17.822L9.637,14.934C9.637,14.669 9.421,14.453 9.156,14.453L6.268,14.453C6.002,14.453 5.787,14.669 5.787,14.934L5.787,17.822C5.787,18.088 6.002,18.303 6.268,18.303ZM6.749,15.416L8.674,15.416L8.674,17.341L6.749,17.341L6.749,15.416Z" transform="rotate(360 7.712 16.378)" fill="#84829A"/>
<path d="M6.268,27.929L9.156,27.929C9.421,27.929 9.637,27.714 9.637,27.448L9.637,24.56C9.637,24.294 9.421,24.079 9.156,24.079L6.268,24.079C6.002,24.079 5.787,24.294 5.787,24.56L5.787,27.448C5.787,27.714 6.002,27.929 6.268,27.929ZM6.749,25.041L8.674,25.041L8.674,26.966L6.749,26.966L6.749,25.041Z" transform="rotate(360 7.712 26.004)" fill="#84829A"/>
<path d="M11.081,23.116L13.969,23.116C14.234,23.116 14.45,22.901 14.45,22.635L14.45,19.747C14.45,19.481 14.234,19.266 13.969,19.266L11.081,19.266C10.815,19.266 10.6,19.481 10.6,19.747L10.6,22.635C10.6,22.901 10.815,23.116 11.081,23.116ZM11.562,20.229L13.487,20.229L13.487,22.154L11.562,22.154L11.562,20.229Z" transform="rotate(360 12.525 21.191)" fill="#84829A"/>
<path d="M11.081,18.303L13.969,18.303C14.234,18.303 14.45,18.088 14.45,17.822L14.45,14.934C14.45,14.669 14.234,14.453 13.969,14.453L11.081,14.453C10.815,14.453 10.6,14.669 10.6,14.934L10.6,17.822C10.6,18.088 10.815,18.303 11.081,18.303ZM11.562,15.416L13.487,15.416L13.487,17.341L11.562,17.341L11.562,15.416Z" transform="rotate(360 12.525 16.378)" fill="#84829A"/>
<path d="M11.081,27.929L13.969,27.929C14.234,27.929 14.45,27.714 14.45,27.448L14.45,24.56C14.45,24.294 14.234,24.079 13.969,24.079L11.081,24.079C10.815,24.079 10.6,24.294 10.6,24.56L10.6,27.448C10.6,27.714 10.815,27.929 11.081,27.929ZM11.562,25.041L13.487,25.041L13.487,26.966L11.562,26.966L11.562,25.041Z" transform="rotate(360 12.525 26.004)" fill="#84829A"/>
</svg>
