<svg width="30" height="30" viewBox="0 0 30 30" fill="none" xmlns="http://www.w3.org/2000/svg" xmlns:xlink="http://www.w3.org/1999/xlink">
<path d="M24.972,0.276L4.555,0.276C2.223,0.276 0.325,2.174 0.325,4.506L0.325,24.923C0.325,27.256 2.223,29.153 4.555,29.153L24.972,29.153C27.304,29.153 29.202,27.256 29.202,24.923L29.202,4.506C29.202,2.174 27.304,0.276 24.972,0.276ZM27.51,24.923C27.51,26.322 26.371,27.461 24.972,27.461L4.555,27.461C3.156,27.461 2.017,26.322 2.017,24.923L2.017,4.506C2.017,3.107 3.156,1.968 4.555,1.968L24.972,1.968C26.371,1.968 27.51,3.107 27.51,4.506L27.51,24.923Z" fill="#FFFFFF"/>
<path d="M24.069,3.717C23.136,3.717 22.377,4.476 22.377,5.409C22.377,6.342 23.136,7.101 24.069,7.101C25.002,7.101 25.761,6.342 25.761,5.409C25.761,4.476 25.002,3.717 24.069,3.717Z" fill="#FFFFFF"/>
<path d="M14.763,7.101C10.565,7.101 7.149,10.516 7.149,14.714C7.149,18.913 10.565,22.328 14.763,22.328C18.962,22.328 22.377,18.913 22.377,14.714C22.377,10.516 18.962,7.101 14.763,7.101ZM14.763,20.636C11.498,20.636 8.841,17.98 8.841,14.714C8.841,11.449 11.498,8.793 14.763,8.793C18.029,8.793 20.685,11.449 20.685,14.714C20.685,17.98 18.029,20.636 14.763,20.636Z" fill="#FFFFFF"/>
</svg>
