<svg width="16" height="16" viewBox="0 0 16 16" fill="none" xmlns="http://www.w3.org/2000/svg" xmlns:xlink="http://www.w3.org/1999/xlink">
<path d="M13.161,-0.055L2.024,-0.055C0.752,-0.055 -0.283,0.98 -0.283,2.252L-0.283,13.389C-0.283,14.662 0.752,15.697 2.024,15.697L13.161,15.697C14.434,15.697 15.469,14.662 15.469,13.389L15.469,2.252C15.469,0.98 14.434,-0.055 13.161,-0.055ZM14.546,13.389C14.546,14.153 13.925,14.774 13.161,14.774L2.024,14.774C1.261,14.774 0.64,14.153 0.64,13.389L0.64,2.252C0.64,1.489 1.261,0.868 2.024,0.868L13.161,0.868C13.925,0.868 14.546,1.489 14.546,2.252L14.546,13.389Z" fill="#FFFFFF"/>
<path d="M12.669,1.822C12.16,1.822 11.746,2.236 11.746,2.744C11.746,3.253 12.16,3.667 12.669,3.667C13.178,3.667 13.592,3.253 13.592,2.744C13.592,2.236 13.178,1.822 12.669,1.822Z" fill="#FFFFFF"/>
<path d="M7.593,3.667C5.303,3.667 3.439,5.531 3.439,7.821C3.439,10.111 5.303,11.974 7.593,11.974C9.883,11.974 11.746,10.111 11.746,7.821C11.746,5.531 9.883,3.667 7.593,3.667ZM7.593,11.051C5.811,11.051 4.362,9.602 4.362,7.821C4.362,6.039 5.811,4.59 7.593,4.59C9.374,4.59 10.823,6.039 10.823,7.821C10.823,9.602 9.374,11.051 7.593,11.051Z" fill="#FFFFFF"/>
</svg>
