<svg width="250" height="308" viewBox="0 0 250 308" fill="none" xmlns="http://www.w3.org/2000/svg" xmlns:xlink="http://www.w3.org/1999/xlink">
<path d="M149.221,178.04C146.349,177.036 143.261,176.536 140.148,176.57C132.093,176.57 125.563,179.599 125.563,183.334C125.563,187.069 132.093,190.095 140.148,190.095C143.261,190.129 146.349,189.629 149.221,188.627C150.578,188.124 151.451,186.999 151.449,185.759L151.449,180.907C151.453,179.666 150.578,178.542 149.221,178.04Z" transform="rotate(-65.011 138.506 183.332)" fill="#D5D6DB"/>
<path d="M132.107,122.86C130.025,122.132 127.785,121.77 125.528,121.795C119.688,121.795 114.952,123.99 114.952,126.696C114.952,129.402 119.689,131.597 125.528,131.597C127.785,131.621 130.024,131.258 132.107,130.532C133.09,130.167 133.723,129.351 133.721,128.452L133.721,124.939C133.724,124.04 133.091,123.224 132.107,122.86Z" transform="rotate(-65.01 124.336 126.696)" fill="#D5D6DB"/>
<path d="M107.836,112.422C107.452,112.128 106.951,111.966 106.431,111.967L92.715,111.967C91.569,111.965 90.637,112.74 90.635,113.699C90.635,113.919 90.684,114.137 90.781,114.341L105.534,145.628L151.269,145.628L107.836,112.422Z" transform="rotate(-65.016 120.953 128.797)" fill="#029BC5"/>
<path d="M230.789,172.189L106.502,172.189L40.284,160.232L9.721,148.89L9.721,142.145L215.811,143.906C221.959,143.947 227.987,145.337 233.283,147.936C235.595,149.086 237.725,150.473 239.623,152.063C241.315,153.459 242.757,155.049 243.907,156.786C245.183,158.737 248.551,160.913 248.613,163.298C248.619,163.298 246.427,172.75 230.789,172.189L230.789,172.189Z" transform="rotate(-64.383 129.167 157.179)" fill="#E1E6E9"/>
<path d="M129.164,169.291L53.318,205.411C52.314,205.956 52.03,207.077 52.682,207.914C53.083,208.428 53.768,208.738 54.502,208.737L68.2,208.737C70.835,208.737 73.443,208.287 75.861,207.414L204.321,167.909L129.164,169.291Z" transform="rotate(-64.781 128.327 188.323)" fill="#029BC5"/>
<path d="M20.444,163.909C19.919,163.296 19.072,162.932 18.17,162.932L6.842,162.932C5.298,162.931 4.047,163.976 4.045,165.265C4.045,165.511 4.091,165.754 4.182,165.988L16.516,197.838L49.713,198.124L20.444,163.909Z" transform="rotate(-64.984 26.879 180.528)" fill="#029BC5"/>
<path d="M38.126,203.25L15.464,212.411C15.135,212.541 14.994,212.868 15.149,213.143C15.261,213.341 15.503,213.465 15.765,213.458L26.346,213.458C26.428,213.458 26.51,213.446 26.587,213.421L57.733,203.258L38.126,203.25Z" transform="rotate(-64.723 36.41 208.354)" fill="#029BC5"/>
<path d="M212.893,102.522C210.936,100.874 208.739,99.438 206.355,98.247C202.346,99.856 198.912,102.316 196.396,105.38C195.951,106.032 196.223,106.863 197.004,107.235C197.247,107.351 197.521,107.412 197.8,107.414L217.309,107.414C216.124,105.615 214.637,103.968 212.893,102.522Z" transform="rotate(-64.974 206.746 102.83)" fill="#029BC5"/>
<path d="M181.466,112.383L194.191,112.383L194.191,131.766L181.466,131.766L181.466,112.383Z" transform="rotate(-64.55 187.828 122.075)" fill="#D5D6DB"/>
<path d="M173.558,122.95C172.023,122.95 170.778,123.986 170.778,125.264L170.778,127.334C170.83,128.611 172.116,129.611 173.651,129.568C175.112,129.526 176.286,128.551 176.336,127.334L176.336,125.264C176.336,123.987 175.093,122.951 173.558,122.95L173.558,122.95Z" transform="rotate(-64.707 173.557 126.26)" fill="#3A556A"/>
<path d="M164.63,128.495C163.094,128.495 161.849,129.531 161.849,130.809L161.849,132.879C161.901,134.156 163.187,135.156 164.722,135.113C166.184,135.071 167.357,134.095 167.407,132.879L167.407,130.809C167.406,129.532 166.164,128.496 164.63,128.495L164.63,128.495Z" transform="rotate(-64.707 164.628 131.805)" fill="#3A556A"/>
<path d="M155.697,134.04C154.163,134.042 152.92,135.077 152.92,136.354L152.92,138.424C152.972,139.701 154.258,140.701 155.793,140.658C157.255,140.616 158.428,139.64 158.478,138.424L158.478,136.354C158.478,135.076 157.233,134.04 155.697,134.04L155.697,134.04Z" transform="rotate(-64.705 155.699 137.35)" fill="#3A556A"/>
<path d="M146.769,139.585C145.234,139.586 143.991,140.621 143.991,141.898L143.991,143.969C144.043,145.246 145.329,146.246 146.864,146.203C148.326,146.161 149.499,145.185 149.549,143.969L149.549,141.898C149.549,140.62 148.304,139.585 146.769,139.585L146.769,139.585Z" transform="rotate(-64.707 146.77 142.894)" fill="#3A556A"/>
<path d="M137.86,145.123C136.324,145.125 135.081,146.161 135.081,147.438L135.081,149.51C135.081,150.787 136.325,151.822 137.86,151.822C139.395,151.822 140.639,150.787 140.639,149.51L140.639,147.438C140.641,146.161 139.398,145.125 137.863,145.123C137.862,145.123 137.861,145.123 137.86,145.123Z" transform="rotate(-64.698 137.86 148.472)" fill="#3A556A"/>
<path d="M128.931,150.668C127.396,150.67 126.152,151.705 126.152,152.983L126.152,155.054C126.152,156.331 127.396,157.367 128.931,157.367C130.466,157.367 131.71,156.331 131.71,155.054L131.71,152.983C131.712,151.706 130.469,150.67 128.934,150.668C128.933,150.668 128.932,150.668 128.931,150.668Z" transform="rotate(-64.698 128.931 154.017)" fill="#3A556A"/>
<path d="M120.001,156.214C118.466,156.215 117.222,157.251 117.222,158.528L117.222,160.6C117.224,161.877 118.47,162.91 120.004,162.909C121.536,162.907 122.778,161.874 122.78,160.6L122.78,158.528C122.78,157.251 121.537,156.215 120.001,156.214Z" transform="rotate(-64.697 120.001 159.561)" fill="#3A556A"/>
<path d="M111.072,161.759C109.537,161.76 108.293,162.796 108.293,164.074L108.293,166.145C108.295,167.422 109.541,168.456 111.075,168.454C112.607,168.452 113.848,167.419 113.85,166.145L113.85,164.074C113.851,162.796 112.607,161.76 111.072,161.759Z" transform="rotate(-64.699 111.072 165.106)" fill="#3A556A"/>
<path d="M102.143,167.304C100.608,167.305 99.364,168.341 99.364,169.618L99.364,171.69C99.366,172.967 100.612,174 102.147,173.999C103.678,173.997 104.92,172.964 104.922,171.69L104.922,169.618C104.922,168.341 103.678,167.305 102.143,167.304Z" transform="rotate(-64.697 102.143 170.651)" fill="#3A556A"/>
<path d="M93.212,172.85C91.677,172.85 90.433,173.885 90.433,175.162L90.433,175.165L90.433,177.236C90.435,178.513 91.681,179.547 93.215,179.545C94.746,179.544 95.988,178.511 95.99,177.236L95.99,175.165C95.991,173.887 94.747,172.851 93.212,172.85Z" transform="rotate(-64.699 93.211 176.198)" fill="#3A556A"/>
<path d="M84.285,178.393C82.751,178.393 81.506,179.429 81.506,180.705L81.506,180.708L81.506,182.78C81.508,184.057 82.755,185.09 84.289,185.089C85.82,185.087 87.062,184.054 87.064,182.78L87.064,180.708C87.064,179.431 85.82,178.394 84.285,178.393Z" transform="rotate(-64.696 84.285 181.741)" fill="#3A556A"/>
</svg>
