<svg width="32" height="32" viewBox="0 0 32 32" fill="none" xmlns="http://www.w3.org/2000/svg" xmlns:xlink="http://www.w3.org/1999/xlink">
<path d="M31.467,30.933L28.267,30.933L28.267,13.333C28.267,13.039 28.028,12.8 27.733,12.8L20.267,12.8L20.267,0.533C20.267,0.239 20.028,0 19.733,0L5.867,0C5.572,0 5.333,0.239 5.333,0.533L5.333,30.933L0.533,30.933C0.239,30.933 0,31.172 0,31.467C0,31.761 0.239,32 0.533,32L31.467,32C31.761,32 32,31.761 32,31.467C32,31.172 31.761,30.933 31.467,30.933ZM11.2,30.933L9.067,30.933L9.067,26.133C9.067,25.839 9.305,25.6 9.6,25.6L10.667,25.6C10.961,25.6 11.2,25.839 11.2,26.133L11.2,30.933ZM13.333,13.333L13.333,30.933L12.267,30.933L12.267,26.133C12.267,25.25 11.55,24.533 10.667,24.533L9.6,24.533C8.716,24.533 8,25.25 8,26.133L8,30.933L6.4,30.933L6.4,1.067L19.2,1.067L19.2,12.8L13.867,12.8C13.572,12.8 13.333,13.039 13.333,13.333ZM27.2,30.933L14.4,30.933L14.4,13.867L27.2,13.867L27.2,30.933Z" transform="rotate(360 16 16)" fill="#84829A"/>
<path d="M18.133,7.467L14.933,7.467C14.639,7.467 14.4,7.706 14.4,8L14.4,11.2C14.4,11.495 14.639,11.733 14.933,11.733L18.133,11.733C18.428,11.733 18.666,11.495 18.666,11.2L18.666,8C18.666,7.706 18.428,7.467 18.133,7.467ZM17.6,10.667L15.467,10.667L15.467,8.533L17.6,8.533L17.6,10.667Z" transform="rotate(360 16.533 9.6)" fill="#84829A"/>
<path d="M18.133,2.133L14.933,2.133C14.639,2.133 14.4,2.372 14.4,2.667L14.4,5.867C14.4,6.161 14.639,6.4 14.933,6.4L18.133,6.4C18.428,6.4 18.666,6.161 18.666,5.867L18.666,2.667C18.666,2.372 18.428,2.133 18.133,2.133ZM17.6,5.333L15.467,5.333L15.467,3.2L17.6,3.2L17.6,5.333Z" transform="rotate(360 16.533 4.267)" fill="#84829A"/>
<path d="M23.467,7.467L20.267,7.467C19.972,7.467 19.733,7.706 19.733,8L19.733,11.2C19.733,11.495 19.972,11.733 20.267,11.733L23.467,11.733C23.761,11.733 24,11.495 24,11.2L24,8C24,7.706 23.761,7.467 23.467,7.467ZM22.933,10.667L20.8,10.667L20.8,8.533L22.933,8.533L22.933,10.667Z" transform="rotate(360 21.867 9.6)" fill="#84829A"/>
<path d="M23.467,2.133L20.267,2.133C19.972,2.133 19.733,2.372 19.733,2.667L19.733,5.867C19.733,6.161 19.972,6.4 20.267,6.4L23.467,6.4C23.761,6.4 24,6.161 24,5.867L24,2.667C24,2.372 23.761,2.133 23.467,2.133ZM22.933,5.333L20.8,5.333L20.8,3.2L22.933,3.2L22.933,5.333Z" transform="rotate(360 21.867 4.267)" fill="#84829A"/>
<path d="M23.467,12.8L20.267,12.8C19.972,12.8 19.733,13.039 19.733,13.333L19.733,16.533C19.733,16.828 19.972,17.066 20.267,17.066L23.467,17.066C23.761,17.066 24,16.828 24,16.533L24,13.333C24,13.039 23.761,12.8 23.467,12.8ZM22.933,16L20.8,16L20.8,13.866L22.933,13.866L22.933,16Z" transform="rotate(360 21.867 14.933)" fill="#84829A"/>
<path d="M23.467,18.133L20.267,18.133C19.972,18.133 19.733,18.372 19.733,18.667L19.733,21.867C19.733,22.161 19.972,22.4 20.267,22.4L23.467,22.4C23.761,22.4 24,22.161 24,21.867L24,18.667C24,18.372 23.761,18.133 23.467,18.133ZM22.933,21.333L20.8,21.333L20.8,19.2L22.933,19.2L22.933,21.333Z" transform="rotate(360 21.867 20.267)" fill="#84829A"/>
<path d="M6.933,24.533L10.133,24.533C10.428,24.533 10.666,24.294 10.666,24L10.666,20.8C10.666,20.505 10.428,20.267 10.133,20.267L6.933,20.267C6.639,20.267 6.4,20.505 6.4,20.8L6.4,24C6.4,24.294 6.639,24.533 6.933,24.533ZM7.467,21.333L9.6,21.333L9.6,23.467L7.467,23.467L7.467,21.333Z" transform="rotate(360 8.533 22.4)" fill="#84829A"/>
<path d="M6.933,19.2L10.133,19.2C10.428,19.2 10.666,18.961 10.666,18.666L10.666,15.466C10.666,15.172 10.428,14.933 10.133,14.933L6.933,14.933C6.639,14.933 6.4,15.172 6.4,15.466L6.4,18.666C6.4,18.961 6.639,19.2 6.933,19.2ZM7.467,16L9.6,16L9.6,18.133L7.467,18.133L7.467,16Z" transform="rotate(360 8.533 17.066)" fill="#84829A"/>
<path d="M6.933,29.867L10.133,29.867C10.428,29.867 10.666,29.628 10.666,29.333L10.666,26.133C10.666,25.839 10.428,25.6 10.133,25.6L6.933,25.6C6.639,25.6 6.4,25.839 6.4,26.133L6.4,29.333C6.4,29.628 6.639,29.867 6.933,29.867ZM7.467,26.667L9.6,26.667L9.6,28.8L7.467,28.8L7.467,26.667Z" transform="rotate(360 8.533 27.733)" fill="#84829A"/>
<path d="M12.267,24.533L15.467,24.533C15.761,24.533 16,24.294 16,24L16,20.8C16,20.505 15.761,20.267 15.467,20.267L12.267,20.267C11.972,20.267 11.733,20.505 11.733,20.8L11.733,24C11.733,24.294 11.972,24.533 12.267,24.533ZM12.8,21.333L14.933,21.333L14.933,23.467L12.8,23.467L12.8,21.333Z" transform="rotate(360 13.867 22.4)" fill="#84829A"/>
<path d="M12.267,19.2L15.467,19.2C15.761,19.2 16,18.961 16,18.666L16,15.466C16,15.172 15.761,14.933 15.467,14.933L12.267,14.933C11.972,14.933 11.733,15.172 11.733,15.466L11.733,18.666C11.733,18.961 11.972,19.2 12.267,19.2ZM12.8,16L14.933,16L14.933,18.133L12.8,18.133L12.8,16Z" transform="rotate(360 13.867 17.066)" fill="#84829A"/>
<path d="M12.267,29.867L15.467,29.867C15.761,29.867 16,29.628 16,29.333L16,26.133C16,25.839 15.761,25.6 15.467,25.6L12.267,25.6C11.972,25.6 11.733,25.839 11.733,26.133L11.733,29.333C11.733,29.628 11.972,29.867 12.267,29.867ZM12.8,26.667L14.933,26.667L14.933,28.8L12.8,28.8L12.8,26.667Z" transform="rotate(360 13.867 27.733)" fill="#84829A"/>
</svg>
