<svg width="166" height="142" viewBox="0 0 166 142" fill="none" xmlns="http://www.w3.org/2000/svg" xmlns:xlink="http://www.w3.org/1999/xlink">
<path d="M165.628,108.751C165.628,126.692 151.083,141.237 133.142,141.237L84.413,141.237C79.429,141.237 75.389,137.197 75.389,132.213L75.389,70.85C75.389,60.883 83.469,52.803 93.437,52.803L156.604,52.803C161.588,52.803 165.628,56.843 165.628,61.827Z" fill="#FFF1DA"/>
<path d="M42.049,91.889L38.642,90.258L18.398,120.19L40.99,120.19L43.168,118.77L43.168,92.914L42.049,91.889Z" fill="#407093"/>
<path d="M38.95,90.406L31.288,86.738L29.844,86.738L8.18,118.77L9.47,120.19L18.806,120.19L38.95,90.406Z" fill="#365E7D"/>
<path d="M47.235,118.77L17.361,118.77C16.004,118.77 14.904,119.87 14.904,121.227L14.904,124.341C14.904,125.698 16.004,126.798 17.361,126.798L47.235,126.798C48.592,126.798 49.692,125.698 49.692,124.341L49.692,121.227C49.692,119.87 48.592,118.77 47.235,118.77L47.235,118.77Z" fill="#4A80AA"/>
<path d="M15.412,124.341L15.412,121.227C15.412,119.87 16.513,118.77 17.87,118.77L2.046,118.77C0.689,118.77 -0.411,119.87 -0.411,121.227L-0.411,124.341C-0.411,125.698 0.689,126.798 2.046,126.798L17.87,126.798C16.512,126.798 15.412,125.698 15.412,124.341L15.412,124.341Z" fill="#407093"/>
<path d="M37.921,72.624C37.002,74.521 36.482,76.648 36.482,78.898C36.482,85.047 40.332,90.292 45.751,92.367C48.078,91.638 50.145,90.323 51.778,88.592L51.778,85.45L37.921,72.624Z" fill="#4A80AA"/>
<path d="M36.725,78.947C36.725,76.749 37.233,74.672 38.133,72.819L33.704,68.719L31.907,68.719C29.189,71.283 27.49,74.916 27.49,78.947C27.49,86.713 33.785,93.009 41.551,93.009C43.169,93.009 44.72,92.731 46.166,92.228C40.67,90.316 36.725,85.094 36.725,78.947L36.725,78.947Z" fill="#407093"/>
<path d="M118.364,2.133C116.139,-0.092 112.532,-0.092 110.307,2.133L104.869,7.571L104.869,8.26L111.656,15.335L112.927,15.628L118.364,10.191C120.59,7.966 120.59,4.358 118.364,2.133L118.364,2.133Z" fill="#FFD086"/>
<path d="M119.868,4.823C119.63,3.837 119.133,2.902 118.364,2.133C116.139,-0.092 112.532,-0.092 110.307,2.133L104.869,7.571L104.869,8.26L108.467,12.011C110.613,9.778 112.743,7.575 113.838,6.48C115.664,4.654 118.331,4.64 119.868,4.823L119.868,4.823Z" fill="#FFC365"/>
<path d="M99.749,16.617C99.687,16.617 99.623,16.614 99.56,16.608L36.724,10.423C35.676,10.32 34.911,9.387 35.014,8.339C35.117,7.291 36.05,6.526 37.098,6.628L99.934,12.813C100.981,12.916 101.747,13.849 101.644,14.897C101.547,15.882 100.718,16.617 99.749,16.617Z" fill="#365E7D"/>
<path d="M54.898,28.381C54.052,28.381 53.28,27.814 53.055,26.957C52.788,25.939 53.397,24.897 54.415,24.629L99.264,12.866C100.282,12.599 101.325,13.208 101.592,14.226C101.859,15.245 101.25,16.287 100.232,16.554L55.383,28.318C55.221,28.36 55.058,28.381 54.898,28.381L54.898,28.381Z" fill="#407093"/>
<path d="M111.93,85.534C110.96,85.534 110.131,84.798 110.034,83.813L103.888,20.939C103.785,19.891 104.552,18.958 105.6,18.855C106.648,18.758 107.58,19.52 107.683,20.568L113.829,83.442C113.931,84.49 113.165,85.422 112.117,85.525C112.054,85.531 111.991,85.534 111.93,85.534Z" fill="#365E7D"/>
<path d="M93.843,67.688C93.682,67.688 93.517,67.667 93.354,67.623C92.336,67.353 91.73,66.31 91.999,65.292L103.936,20.27C104.206,19.252 105.25,18.646 106.268,18.915C107.285,19.185 107.892,20.229 107.622,21.247L95.685,66.269C95.459,67.123 94.687,67.688 93.843,67.688L93.843,67.688Z" fill="#407093"/>
<path d="M102.304,8.639L110.014,8.639L110.014,20.033L102.304,20.033L102.304,8.639Z" transform="rotate(-90 106.159 14.336)" fill="#FFC365"/>
<path d="M103.545,17.151C104.856,15.779 106.902,13.639 108.88,11.582L104.87,7.57L99.417,13.023L103.545,17.151Z" fill="#FFA90F"/>
<path d="M108.689,24.2C108.201,24.2 107.713,24.014 107.341,23.642L96.856,13.157C96.111,12.412 96.111,11.206 96.856,10.461C97.6,9.717 98.807,9.717 99.552,10.461L110.037,20.945C110.782,21.69 110.782,22.897 110.037,23.642C109.665,24.014 109.177,24.2 108.689,24.2Z" fill="#4A80AA"/>
<path d="M109.919,88.966L46.083,24.576C37.62,43.682 36.15,64.193 42.486,81.88C59.984,97.665 86.123,100.088 110.187,90.166L109.919,88.966Z" fill="#B5DCFF"/>
<path d="M46.423,24.919L31.797,10.166L30.331,10.311C20.027,35.302 23.036,62.534 40.5,79.998C41.558,81.056 42.652,82.059 43.779,83.012C36.417,65.346 37.614,44.334 46.423,24.919L46.423,24.919Z" fill="#8BCAFF"/>
<path d="M115.753,84.389L51.009,19.646C50.372,19.744 49.759,20.034 49.268,20.524L46.452,23.34C45.847,23.945 45.546,24.735 45.538,25.528L110.076,90.066C111.036,91.026 112.592,91.026 113.551,90.066L115.753,87.864C116.712,86.905 116.712,85.349 115.753,84.389Z" fill="#DBEDFF"/>
<path d="M46.549,23.389L49.307,20.631C49.814,20.123 50.456,19.833 51.117,19.754L36.108,4.745C35.149,3.785 33.593,3.785 32.633,4.745L30.431,6.947C29.472,7.907 29.472,9.462 30.431,10.422L45.651,25.642C45.631,24.829 45.929,24.009 46.549,23.389L46.549,23.389Z" fill="#B5DCFF"/>
</svg>
