<svg width="28" height="32" viewBox="0 0 28 32" fill="none" xmlns="http://www.w3.org/2000/svg" xmlns:xlink="http://www.w3.org/1999/xlink">
<path d="M9.579,32C4.816,31.972 0.876,22.25 0.876,17.299C0.876,9.211 6.944,7.441 9.282,7.441C10.336,7.441 11.461,7.855 12.453,8.221C13.147,8.476 13.865,8.74 14.264,8.74C14.503,8.74 15.066,8.516 15.563,8.319C16.624,7.897 17.943,7.372 19.479,7.372C19.482,7.372 19.485,7.372 19.488,7.372C20.635,7.372 24.113,7.624 26.204,10.764L26.694,11.5L25.989,12.032C24.982,12.792 23.145,14.178 23.145,16.924C23.145,20.176 25.226,21.426 26.225,22.028C26.667,22.293 27.124,22.567 27.124,23.166C27.124,23.557 24.003,31.951 19.473,31.951C18.364,31.951 17.58,31.618 16.889,31.324C16.19,31.026 15.586,30.77 14.589,30.77C14.084,30.77 13.445,31.009 12.768,31.263C11.844,31.608 10.797,32 9.61,32L9.579,32Z" fill="#FFFFFF"/>
<path d="M19.959,0C20.077,4.255 17.034,7.207 13.995,7.021C13.494,3.626 17.034,0 19.959,0Z" fill="#FFFFFF"/>
</svg>
