<svg width="2680" height="1078" viewBox="0 0 2680 1078" fill="none" xmlns="http://www.w3.org/2000/svg" xmlns:xlink="http://www.w3.org/1999/xlink">
<g opacity="0.2">
<path d="M2514,74C2514,51.909 2496.091,34 2474,34L432,34C289.511,34 174,149.511 174,292L174,808C174,830.091 191.909,848 214,848L2474,848C2496.091,848 2514,830.091 2514,808Z" fill="#DFD7F9"/>
</g>
<g opacity="0.1">
</g>
<circle cx="2464.03" cy="390.64" r="184.607" stroke="#6246E5" stroke-width="1" stroke-miterlimit="3.999327"/>
<circle cx="2449.455" cy="371.208" r="206.468" stroke="#6246E5" stroke-width="1" stroke-miterlimit="3.999327"/>
<circle cx="2437.31" cy="355.419" r="225.9" stroke="#6246E5" stroke-width="1" stroke-miterlimit="3.999327"/>
<circle cx="2425.166" cy="332.343" r="242.903" stroke="#6246E5" stroke-width="1" stroke-miterlimit="3.999327"/>
<circle cx="2413.628" cy="309.875" r="259.299" stroke="#6246E5" stroke-width="1" stroke-miterlimit="3.999327"/>
<circle cx="2394.195" cy="284.37" r="284.804" stroke="#6246E5" stroke-width="1" stroke-miterlimit="3.999327"/>
<g opacity="0.1">
</g>
<path d="M725.447,782.404C725.447,921.624 612.427,1034.484 473.011,1034.484C333.594,1034.484 220.575,921.624 220.575,782.404C220.575,643.185 333.594,530.326 473.011,530.326C612.427,530.326 725.447,643.185 725.447,782.404Z" transform="rotate(180 473.01 782.404)" stroke="#6246E5" stroke-width="1" stroke-miterlimit="3.999327"/>
<path d="M781.874,762.475C781.874,918.181 655.472,1044.405 499.546,1044.405C343.619,1044.405 217.216,918.181 217.216,762.475C217.216,606.769 343.619,480.545 499.546,480.545C655.472,480.545 781.874,606.769 781.874,762.475Z" transform="rotate(180 499.545 762.475)" stroke="#6246E5" stroke-width="1" stroke-miterlimit="3.999327"/>
<path d="M830.005,745.867C830.005,916.229 691.707,1054.333 521.105,1054.333C350.503,1054.333 212.203,916.229 212.203,745.867C212.203,575.507 350.503,437.403 521.105,437.403C691.707,437.403 830.005,575.507 830.005,745.867Z" transform="rotate(180 521.104 745.868)" stroke="#6246E5" stroke-width="1" stroke-miterlimit="3.999327"/>
<path d="M884.767,729.26C884.767,912.444 736.057,1060.944 552.615,1060.944C369.173,1060.944 220.463,912.444 220.463,729.26C220.463,546.077 369.173,397.578 552.615,397.578C736.057,397.578 884.767,546.077 884.767,729.26Z" transform="rotate(180 552.615 729.261)" stroke="#6246E5" stroke-width="1" stroke-miterlimit="3.999327"/>
<path d="M937.867,713.484C937.867,909.032 779.121,1067.554 583.295,1067.554C387.47,1067.554 228.723,909.032 228.723,713.484C228.723,517.935 387.47,359.412 583.295,359.412C779.121,359.412 937.867,517.935 937.867,713.484Z" transform="rotate(180 583.295 713.483)" stroke="#6246E5" stroke-width="1" stroke-miterlimit="3.999327"/>
<path d="M1007.57,686.911C1007.57,901.693 833.208,1075.809 618.122,1075.809C403.036,1075.809 228.674,901.693 228.674,686.911C228.674,472.129 403.036,298.013 618.122,298.013C833.208,298.013 1007.57,472.129 1007.57,686.911Z" transform="rotate(180 618.122 686.911)" stroke="#6246E5" stroke-width="1" stroke-miterlimit="3.999327"/>
</svg>
