<svg width="16" height="16" viewBox="0 0 16 16" fill="none" xmlns="http://www.w3.org/2000/svg" xmlns:xlink="http://www.w3.org/1999/xlink">
<path d="M14.205,0.902C13.842,0.796 4.959,-0.089 1.839,4.126C0.457,5.993 0.437,8.553 1.77,11.733C1.432,12.435 1.136,13.174 0.894,13.955C0.821,14.192 0.954,14.443 1.19,14.516C1.235,14.53 1.279,14.536 1.323,14.536C1.515,14.536 1.693,14.413 1.752,14.22C4.13,6.533 11.857,2.814 14.227,1.874C14.457,1.783 14.765,1.066 14.205,0.902Z" fill="#84829A"/>
<path d="M3.196,12.695C4.482,13.234 5.768,13.511 6.964,13.511C8.039,13.511 9.042,13.29 9.905,12.842C11.644,11.94 12.706,10.215 12.977,7.853C13.254,5.445 13.598,3.937 13.885,3.015C11.33,4.193 5.851,7.248 3.196,12.695Z" fill="#84829A"/>
</svg>
