<svg width="92" height="78" viewBox="0 0 92 78" fill="none" xmlns="http://www.w3.org/2000/svg" xmlns:xlink="http://www.w3.org/1999/xlink">
<path d="M90.365,58.686C90.365,68.473 82.431,76.407 72.644,76.407L46.063,76.407C43.344,76.407 41.14,74.203 41.14,71.485L41.14,38.012C41.14,32.575 45.548,28.167 50.985,28.167L85.443,28.167C88.161,28.167 90.365,30.371 90.365,33.089Z" fill="#FFF1DA"/>
<path d="M22.954,49.488L21.095,48.599L10.052,64.926L22.376,64.926L23.564,64.152L23.564,50.047L22.954,49.488Z" fill="#407093"/>
<path d="M21.263,48.679L17.084,46.678L16.296,46.678L4.479,64.152L5.182,64.926L10.275,64.926L21.263,48.679Z" fill="#365E7D"/>
<path d="M25.782,64.152L9.486,64.152C8.746,64.152 8.146,64.752 8.146,65.492L8.146,67.191C8.146,67.931 8.746,68.531 9.486,68.531L25.782,68.531C26.522,68.531 27.122,67.931 27.122,67.191L27.122,65.492C27.122,64.752 26.522,64.152 25.782,64.152L25.782,64.152Z" fill="#4A80AA"/>
<path d="M8.423,67.191L8.423,65.492C8.423,64.752 9.024,64.152 9.764,64.152L1.132,64.152C0.392,64.152 -0.208,64.752 -0.208,65.492L-0.208,67.191C-0.208,67.931 0.392,68.531 1.132,68.531L9.764,68.531C9.023,68.531 8.423,67.931 8.423,67.191L8.423,67.191Z" fill="#407093"/>
<path d="M20.702,38.979C20.2,40.014 19.917,41.174 19.917,42.402C19.917,45.756 22.017,48.617 24.973,49.749C26.242,49.351 27.37,48.634 28.261,47.69L28.261,45.976L20.702,38.979Z" fill="#4A80AA"/>
<path d="M20.049,42.429C20.049,41.23 20.326,40.096 20.817,39.086L18.401,36.849L17.421,36.849C15.938,38.248 15.011,40.229 15.011,42.429C15.011,46.665 18.445,50.099 22.682,50.099C23.564,50.099 24.41,49.948 25.199,49.673C22.201,48.63 20.049,45.782 20.049,42.429L20.049,42.429Z" fill="#407093"/>
<path d="M64.583,0.527C63.369,-0.687 61.402,-0.687 60.188,0.527L57.222,3.493L57.222,3.869L60.924,7.728L61.617,7.888L64.583,4.922C65.797,3.708 65.797,1.74 64.583,0.527L64.583,0.527Z" fill="#FFD086"/>
<path d="M65.403,1.994C65.274,1.456 65.003,0.946 64.583,0.527C63.369,-0.687 61.402,-0.687 60.188,0.527L57.222,3.493L57.222,3.869L59.185,5.915C60.355,4.697 61.517,3.495 62.114,2.898C63.11,1.902 64.565,1.894 65.403,1.994L65.403,1.994Z" fill="#FFC365"/>
<path d="M54.429,8.428C54.395,8.428 54.36,8.426 54.326,8.423L20.049,5.049C19.477,4.993 19.06,4.484 19.116,3.912C19.172,3.34 19.681,2.923 20.253,2.979L54.529,6.353C55.101,6.409 55.519,6.918 55.462,7.489C55.41,8.027 54.957,8.428 54.429,8.428Z" fill="#365E7D"/>
<path d="M29.962,14.845C29.501,14.845 29.08,14.535 28.957,14.068C28.811,13.513 29.144,12.944 29.699,12.798L54.164,6.381C54.72,6.236 55.288,6.568 55.434,7.124C55.58,7.679 55.247,8.248 54.692,8.393L30.227,14.81C30.138,14.834 30.05,14.845 29.962,14.845L29.962,14.845Z" fill="#407093"/>
<path d="M61.073,46.022C60.544,46.022 60.092,45.62 60.039,45.083L56.686,10.785C56.63,10.213 57.048,9.705 57.62,9.649C58.192,9.595 58.7,10.011 58.756,10.583L62.109,44.88C62.165,45.452 61.747,45.961 61.175,46.017C61.141,46.02 61.107,46.022 61.073,46.022Z" fill="#365E7D"/>
<path d="M51.207,36.286C51.119,36.286 51.029,36.275 50.94,36.251C50.384,36.104 50.054,35.535 50.201,34.979L56.713,10.42C56.86,9.865 57.429,9.535 57.984,9.681C58.539,9.829 58.87,10.398 58.723,10.953L52.211,35.512C52.088,35.978 51.667,36.286 51.207,36.286L51.207,36.286Z" fill="#407093"/>
<path d="M55.823,4.076L60.028,4.076L60.028,10.291L55.823,10.291L55.823,4.076Z" transform="rotate(-90 57.925 7.183)" fill="#FFC365"/>
<path d="M56.499,8.719C57.214,7.97 58.33,6.803 59.41,5.681L57.222,3.493L54.248,6.467L56.499,8.719Z" fill="#FFA90F"/>
<path d="M59.305,12.564C59.039,12.564 58.773,12.463 58.57,12.26L52.851,6.54C52.444,6.134 52.444,5.476 52.851,5.069C53.257,4.663 53.915,4.663 54.321,5.069L60.041,10.789C60.447,11.195 60.447,11.853 60.041,12.26C59.838,12.463 59.572,12.564 59.305,12.564Z" fill="#4A80AA"/>
<path d="M59.977,47.894L25.154,12.769C20.537,23.192 19.736,34.38 23.192,44.029C32.737,52.639 46.996,53.961 60.123,48.548L59.977,47.894Z" fill="#B5DCFF"/>
<path d="M25.339,12.956L17.361,4.909L16.561,4.988C10.94,18.62 12.582,33.475 22.108,43.002C22.685,43.579 23.282,44.126 23.897,44.646C19.881,35.009 20.534,23.547 25.339,12.956L25.339,12.956Z" fill="#8BCAFF"/>
<path d="M63.159,45.397L27.842,10.08C27.494,10.133 27.159,10.291 26.892,10.559L25.356,12.095C25.026,12.425 24.862,12.856 24.857,13.289L60.062,48.494C60.586,49.017 61.435,49.017 61.958,48.494L63.159,47.293C63.683,46.77 63.683,45.921 63.159,45.397Z" fill="#DBEDFF"/>
<path d="M25.409,12.121L26.913,10.617C27.19,10.34 27.539,10.182 27.9,10.139L19.713,1.951C19.19,1.428 18.341,1.428 17.817,1.951L16.616,3.153C16.093,3.676 16.093,4.525 16.616,5.048L24.919,13.351C24.908,12.907 25.07,12.46 25.409,12.121L25.409,12.121Z" fill="#B5DCFF"/>
</svg>
