<svg width="248" height="308" viewBox="0 0 248 308" fill="none" xmlns="http://www.w3.org/2000/svg" xmlns:xlink="http://www.w3.org/1999/xlink">
<path d="M147.651,178.228C144.779,177.224 141.69,176.724 138.578,176.758C130.523,176.758 123.992,179.787 123.992,183.522C123.992,187.257 130.523,190.283 138.578,190.283C141.69,190.317 144.778,189.817 147.651,188.816C149.007,188.312 149.88,187.187 149.879,185.947L149.879,181.095C149.882,179.855 149.008,178.73 147.651,178.228Z" transform="rotate(-65.011 136.935 183.521)" fill="#D5D6DB"/>
<path d="M130.536,123.048C128.454,122.32 126.214,121.958 123.957,121.983C118.118,121.983 113.381,124.178 113.381,126.884C113.381,129.59 118.118,131.785 123.957,131.785C126.214,131.809 128.453,131.446 130.536,130.72C131.519,130.355 132.152,129.54 132.151,128.64L132.151,125.127C132.154,124.228 131.52,123.412 130.536,123.048Z" transform="rotate(-65.01 122.766 126.884)" fill="#D5D6DB"/>
<path d="M106.265,112.61C105.882,112.317 105.381,112.154 104.86,112.155L91.144,112.155C89.998,112.153 89.067,112.929 89.065,113.887C89.064,114.107 89.114,114.325 89.211,114.529L103.963,145.816L149.699,145.816L106.265,112.61Z" transform="rotate(-65.016 119.382 128.986)" fill="#029BC5"/>
<path d="M229.219,172.377L104.932,172.377L38.714,160.42L8.151,149.079L8.151,142.334L214.241,144.094C220.389,144.135 226.417,145.525 231.713,148.124C234.025,149.274 236.155,150.661 238.053,152.251C239.745,153.647 241.187,155.237 242.337,156.974C243.613,158.925 246.981,161.101 247.043,163.487C247.049,163.486 244.857,172.938 229.219,172.377Z" transform="rotate(-64.383 127.596 157.367)" fill="#E1E6E9"/>
<path d="M127.594,169.479L51.748,205.6C50.744,206.144 50.459,207.265 51.112,208.102C51.512,208.616 52.197,208.926 52.932,208.926L66.63,208.926C69.265,208.925 71.872,208.475 74.291,207.603L202.751,168.098L127.594,169.479Z" transform="rotate(-64.781 126.756 188.512)" fill="#029BC5"/>
<path d="M18.873,164.097C18.349,163.484 17.502,163.12 16.599,163.12L5.271,163.12C3.728,163.119 2.476,164.164 2.475,165.454C2.475,165.699 2.521,165.943 2.611,166.176L14.946,198.027L48.143,198.312L18.873,164.097Z" transform="rotate(-64.984 25.309 180.716)" fill="#029BC5"/>
<path d="M36.556,203.438L13.894,212.599C13.564,212.729 13.423,213.057 13.578,213.331C13.69,213.529 13.933,213.653 14.195,213.647L24.775,213.647C24.858,213.647 24.94,213.634 25.016,213.609L56.163,203.447L36.556,203.438Z" transform="rotate(-64.723 34.839 208.543)" fill="#029BC5"/>
<path d="M211.322,102.71C209.365,101.062 207.169,99.626 204.784,98.435C200.776,100.044 197.342,102.504 194.826,105.568C194.381,106.221 194.653,107.051 195.434,107.424C195.676,107.539 195.95,107.601 196.23,107.602L215.739,107.602C214.554,105.803 213.067,104.156 211.322,102.71Z" transform="rotate(-64.974 205.176 103.018)" fill="#029BC5"/>
<path d="M179.895,112.571L192.62,112.571L192.62,131.954L179.895,131.954L179.895,112.571Z" transform="rotate(-64.55 186.258 122.263)" fill="#D5D6DB"/>
<path d="M171.988,123.138C170.452,123.138 169.207,124.174 169.207,125.452L169.207,127.522C169.259,128.799 170.545,129.799 172.08,129.756C173.542,129.715 174.715,128.739 174.765,127.522L174.765,125.452C174.765,124.175 173.522,123.139 171.988,123.138Z" transform="rotate(-64.707 171.986 126.448)" fill="#3A556A"/>
<path d="M163.059,128.683C161.524,128.683 160.278,129.719 160.278,130.997L160.278,133.067C160.33,134.344 161.616,135.344 163.152,135.301C164.613,135.26 165.786,134.284 165.836,133.067L165.836,130.997C165.836,129.72 164.593,128.684 163.059,128.683Z" transform="rotate(-64.707 163.057 131.993)" fill="#3A556A"/>
<path d="M154.126,134.228C152.592,134.23 151.349,135.265 151.349,136.542L151.349,138.612C151.401,139.889 152.687,140.889 154.222,140.846C155.684,140.804 156.857,139.829 156.907,138.612L156.907,136.542C156.907,135.264 155.662,134.228 154.126,134.228Z" transform="rotate(-64.705 154.128 137.538)" fill="#3A556A"/>
<path d="M145.198,139.773C143.663,139.774 142.42,140.81 142.42,142.087L142.42,144.157C142.472,145.434 143.758,146.434 145.294,146.391C146.755,146.349 147.928,145.373 147.978,144.157L147.978,142.087C147.978,140.809 146.733,139.773 145.198,139.773Z" transform="rotate(-64.707 145.199 143.083)" fill="#3A556A"/>
<path d="M136.289,145.311C134.754,145.313 133.51,146.349 133.51,147.626L133.51,149.698C133.51,150.975 134.754,152.01 136.289,152.01C137.824,152.01 139.068,150.975 139.068,149.698L139.068,147.626C139.07,146.349 137.827,145.313 136.292,145.311C136.291,145.311 136.29,145.311 136.289,145.311Z" transform="rotate(-64.698 136.289 148.661)" fill="#3A556A"/>
<path d="M127.36,150.856C125.825,150.858 124.581,151.894 124.581,153.171L124.581,155.243C124.581,156.52 125.826,157.555 127.36,157.555C128.895,157.555 130.139,156.52 130.139,155.243L130.139,153.171C130.141,151.894 128.898,150.858 127.364,150.856C127.362,150.856 127.361,150.856 127.36,150.856Z" transform="rotate(-64.698 127.36 154.206)" fill="#3A556A"/>
<path d="M118.43,156.402C116.895,156.403 115.651,157.439 115.651,158.717L115.651,160.788C115.653,162.065 116.9,163.099 118.434,163.097C119.965,163.095 121.207,162.062 121.209,160.788L121.209,158.717C121.209,157.439 119.966,156.403 118.43,156.402Z" transform="rotate(-64.697 118.43 159.749)" fill="#3A556A"/>
<path d="M109.501,161.947C107.966,161.948 106.722,162.984 106.722,164.262L106.722,166.333C106.724,167.61 107.97,168.644 109.504,168.642C111.036,168.64 112.278,167.607 112.28,166.333L112.28,164.262C112.28,162.984 111.037,161.948 109.501,161.947Z" transform="rotate(-64.699 109.501 165.294)" fill="#3A556A"/>
<path d="M100.573,167.492C99.037,167.493 97.794,168.529 97.794,169.807L97.794,171.878C97.796,173.155 99.042,174.188 100.576,174.187C102.108,174.185 103.349,173.152 103.351,171.878L103.351,169.807C103.351,168.529 102.108,167.493 100.573,167.492Z" transform="rotate(-64.697 100.572 170.839)" fill="#3A556A"/>
<path d="M91.641,173.038C90.106,173.038 88.862,174.073 88.862,175.35L88.862,175.353L88.862,177.424C88.864,178.701 90.11,179.735 91.644,179.733C93.176,179.732 94.418,178.699 94.419,177.424L94.419,175.353C94.42,174.076 93.177,173.039 91.641,173.038Z" transform="rotate(-64.699 91.641 176.386)" fill="#3A556A"/>
<path d="M82.715,178.582C81.18,178.582 79.936,179.617 79.936,180.894L79.936,180.896L79.936,182.968C79.938,184.245 81.184,185.278 82.718,185.277C84.249,185.275 85.491,184.242 85.493,182.968L85.493,180.896C85.493,179.619 84.249,178.583 82.715,178.582Z" transform="rotate(-64.696 82.714 181.929)" fill="#3A556A"/>
</svg>
