<svg width="32" height="32" viewBox="0 0 32 32" fill="none" xmlns="http://www.w3.org/2000/svg" xmlns:xlink="http://www.w3.org/1999/xlink">
<path d="M27.312,0L4.688,0C2.103,0 0,2.103 0,4.688L0,27.312C0,29.897 2.103,32 4.688,32L27.312,32C29.897,32 32,29.897 32,27.312L32,4.688C32,2.103 29.897,0 27.312,0ZM30.125,27.312C30.125,28.863 28.863,30.125 27.312,30.125L4.688,30.125C3.137,30.125 1.875,28.863 1.875,27.312L1.875,4.688C1.875,3.137 3.137,1.875 4.688,1.875L27.312,1.875C28.863,1.875 30.125,3.137 30.125,4.688L30.125,27.312Z" fill="#FFFFFF"/>
<path d="M26.313,3.813C25.279,3.813 24.438,4.654 24.438,5.688C24.438,6.721 25.279,7.563 26.313,7.563C27.346,7.563 28.188,6.721 28.188,5.688C28.188,4.654 27.346,3.813 26.313,3.813Z" fill="#FFFFFF"/>
<path d="M16,7.563C11.347,7.563 7.563,11.347 7.563,16C7.563,20.653 11.347,24.438 16,24.438C20.653,24.438 24.438,20.653 24.438,16C24.438,11.347 20.653,7.563 16,7.563ZM16,22.563C12.381,22.563 9.438,19.619 9.438,16C9.438,12.381 12.381,9.438 16,9.438C19.619,9.438 22.563,12.381 22.563,16C22.563,19.619 19.619,22.563 16,22.563Z" fill="#FFFFFF"/>
</svg>
