<svg width="184" height="156" viewBox="0 0 184 156" fill="none" xmlns="http://www.w3.org/2000/svg" xmlns:xlink="http://www.w3.org/1999/xlink">
<path d="M184,120C184,139.882 167.882,156 148,156L94,156C88.477,156 84,151.523 84,146L84,78C84,66.954 92.954,58 104,58L174,58C179.523,58 184,62.477 184,68Z" fill="#FFF1DA"/>
<path d="M47.054,101.315L43.278,99.507L20.844,132.676L45.88,132.676L48.293,131.103L48.293,102.45L47.054,101.315Z" fill="#407093"/>
<path d="M43.619,99.671L35.129,95.606L33.529,95.606L9.521,131.103L10.95,132.676L21.297,132.676L43.619,99.671Z" fill="#365E7D"/>
<path d="M52.8,131.103L19.695,131.103C18.191,131.103 16.972,132.322 16.972,133.826L16.972,137.277C16.972,138.781 18.191,140 19.695,140L52.8,140C54.304,140 55.523,138.781 55.523,137.277L55.523,133.826C55.523,132.322 54.304,131.103 52.8,131.103Z" fill="#4A80AA"/>
<path d="M17.535,137.277L17.535,133.826C17.535,132.322 18.755,131.103 20.259,131.103L2.723,131.103C1.219,131.103 0,132.322 0,133.826L0,137.277C0,138.781 1.219,140 2.723,140L20.258,140C18.754,140 17.535,138.781 17.535,137.277Z" fill="#407093"/>
<path d="M42.479,79.965C41.46,82.068 40.885,84.425 40.885,86.918C40.885,93.732 45.151,99.544 51.156,101.844C53.735,101.036 56.026,99.579 57.835,97.66L57.835,94.179L42.479,79.965Z" fill="#4A80AA"/>
<path d="M41.153,86.973C41.153,84.537 41.717,82.235 42.714,80.182L37.805,75.638L35.814,75.638C32.802,78.48 30.919,82.505 30.919,86.972C30.919,95.579 37.895,102.555 46.502,102.555C48.294,102.555 50.013,102.247 51.616,101.69C45.526,99.571 41.153,93.784 41.153,86.973Z" fill="#407093"/>
<path d="M131.624,1.849C129.158,-0.616 125.16,-0.616 122.695,1.849L116.669,7.875L116.669,8.639L124.19,16.479L125.598,16.804L131.624,10.779C134.09,8.313 134.09,4.315 131.624,1.849Z" fill="#FFD086"/>
<path d="M133.29,4.83C133.027,3.738 132.476,2.702 131.624,1.849C129.158,-0.616 125.16,-0.616 122.695,1.849L116.669,7.875L116.669,8.639L120.656,12.796C123.034,10.322 125.394,7.881 126.608,6.667C128.631,4.644 131.587,4.628 133.29,4.83Z" fill="#FFC365"/>
<path d="M110.995,17.901C110.926,17.901 110.856,17.897 110.785,17.89L41.153,11.036C39.991,10.922 39.143,9.888 39.257,8.727C39.371,7.565 40.406,6.718 41.567,6.831L111.199,13.685C112.36,13.799 113.209,14.833 113.095,15.994C112.987,17.085 112.068,17.901 110.995,17.901Z" fill="#365E7D"/>
<path d="M61.292,30.936C60.355,30.936 59.499,30.308 59.25,29.359C58.954,28.23 59.629,27.075 60.757,26.779L110.457,13.743C111.586,13.447 112.741,14.122 113.037,15.251C113.333,16.379 112.658,17.534 111.53,17.83L61.829,30.867C61.65,30.914 61.469,30.936 61.292,30.936Z" fill="#407093"/>
<path d="M124.493,94.272C123.419,94.272 122.5,93.456 122.393,92.365L115.581,22.689C115.468,21.528 116.317,20.494 117.479,20.381C118.64,20.272 119.673,21.117 119.787,22.278L126.598,91.954C126.711,93.115 125.862,94.148 124.701,94.262C124.631,94.269 124.562,94.272 124.493,94.272Z" fill="#365E7D"/>
<path d="M104.45,74.495C104.271,74.495 104.089,74.472 103.908,74.424C102.78,74.125 102.108,72.968 102.407,71.84L115.635,21.948C115.934,20.82 117.09,20.149 118.219,20.447C119.346,20.746 120.018,21.903 119.719,23.031L106.491,72.923C106.24,73.87 105.385,74.495 104.45,74.495Z" fill="#407093"/>
<path d="M113.827,9.059L122.37,9.059L122.37,21.685L113.827,21.685L113.827,9.059Z" transform="rotate(-90 118.098 15.372)" fill="#FFC365"/>
<path d="M115.202,18.491C116.654,16.971 118.921,14.6 121.114,12.32L116.669,7.875L110.627,13.917L115.202,18.491Z" fill="#FFA90F"/>
<path d="M120.902,26.304C120.361,26.304 119.82,26.097 119.408,25.685L107.789,14.066C106.964,13.241 106.964,11.903 107.789,11.078C108.614,10.253 109.951,10.253 110.777,11.078L122.396,22.697C123.221,23.522 123.221,24.859 122.396,25.685C121.983,26.098 121.443,26.304 120.902,26.304Z" fill="#4A80AA"/>
<path d="M122.265,98.075L51.524,26.72C42.145,47.893 40.516,70.623 47.538,90.223C66.929,107.715 95.895,110.401 122.562,99.405L122.265,98.075Z" fill="#B5DCFF"/>
<path d="M51.9,27.1L35.693,10.751L34.068,10.912C22.649,38.606 25.983,68.783 45.337,88.137C46.509,89.309 47.722,90.421 48.971,91.476C40.812,71.9 42.138,48.615 51.9,27.1Z" fill="#8BCAFF"/>
<path d="M128.73,93.003L56.983,21.256C56.277,21.365 55.597,21.686 55.053,22.23L51.933,25.351C51.263,26.021 50.929,26.896 50.92,27.775L122.439,99.294C123.503,100.358 125.227,100.358 126.29,99.294L128.73,96.854C129.793,95.791 129.793,94.067 128.73,93.003Z" fill="#DBEDFF"/>
<path d="M52.041,25.404L55.096,22.349C55.659,21.786 56.37,21.464 57.103,21.376L40.47,4.744C39.407,3.68 37.683,3.68 36.619,4.744L34.179,7.184C33.116,8.247 33.116,9.971 34.179,11.035L51.046,27.901C51.023,27 51.353,26.092 52.041,25.404Z" fill="#B5DCFF"/>
</svg>
