<svg width="76" height="66" viewBox="0 0 76 66" fill="none" xmlns="http://www.w3.org/2000/svg" xmlns:xlink="http://www.w3.org/1999/xlink">
<g filter="url(#filterI125_3322;1_395)">
<path d="M26.143,47.702C26.143,57.489 34.077,65.423 43.864,65.423L70.446,65.423C73.164,65.423 75.368,63.219 75.368,60.5L75.368,27.027C75.368,21.59 70.96,17.182 65.523,17.182L31.066,17.182C28.347,17.182 26.143,19.386 26.143,22.105Z" fill="#FFF1DA"/>
<path d="M48.787,27.862L48.787,22.254C48.787,21.155 47.895,20.264 46.796,20.264L44.651,20.264C43.793,20.264 43.032,19.714 42.763,18.9C42.463,17.993 42.098,17.116 41.674,16.273C41.288,15.505 41.435,14.578 42.043,13.97L43.56,12.452C44.338,11.675 44.338,10.415 43.56,9.637L39.595,5.672C38.818,4.894 37.557,4.894 36.78,5.672L35.262,7.189C34.655,7.797 33.727,7.945 32.959,7.558C32.117,7.135 31.239,6.77 30.332,6.469C29.518,6.2 28.969,5.439 28.969,4.581L28.969,2.436C28.969,1.337 28.077,0.446 26.978,0.446L21.37,0.446C20.271,0.446 19.379,1.337 19.379,2.436L19.379,4.581C19.379,5.439 18.83,6.2 18.016,6.469C17.109,6.77 16.231,7.135 15.389,7.559C14.621,7.945 13.693,7.797 13.086,7.189L11.568,5.672C10.791,4.894 9.53,4.894 8.753,5.672L4.788,9.637C4.01,10.415 4.01,11.675 4.788,12.453L6.305,13.97C6.913,14.578 7.06,15.505 6.674,16.273C6.25,17.116 5.886,17.993 5.585,18.9C5.395,19.475 4.959,19.919 4.417,20.129C4.192,20.216 4.048,20.363 3.796,20.363L1.651,20.363C0.552,20.363 -0.339,21.254 -0.339,22.353L-0.339,27.763C-0.339,28.863 0.552,29.754 1.651,29.754L3.796,29.754C4.654,29.754 5.415,30.402 5.684,31.217C5.985,32.124 6.35,33.001 6.773,33.844C7.159,34.611 7.012,35.539 6.404,36.147L4.986,37.664C4.208,38.442 4.208,39.702 4.986,40.479L8.753,44.247C9.531,45.024 10.791,45.024 11.568,44.247L13.086,42.729C13.693,42.122 14.621,41.974 15.389,42.36C16.231,42.784 17.307,43.248 18.214,43.548C19.028,43.818 19.578,44.579 19.578,45.436L19.578,47.581C19.578,48.681 20.469,49.572 21.568,49.572L26.879,49.572C27.979,49.572 28.87,48.681 28.87,47.581L28.87,45.436C28.87,45.185 29.016,45.041 29.103,44.816C29.314,44.274 29.757,43.838 30.332,43.647C31.239,43.347 32.117,42.982 32.959,42.558C33.727,42.172 34.655,42.32 35.262,42.927L36.78,44.445C37.557,45.222 38.818,45.222 39.595,44.445L43.561,40.479C44.338,39.702 44.338,38.442 43.561,37.664L42.043,36.147C41.436,35.539 41.288,34.611 41.674,33.844C42.098,33.001 42.463,32.124 42.763,31.217C43.033,30.402 43.794,29.853 44.651,29.853L46.796,29.853C47.895,29.853 48.787,28.962 48.787,27.862L48.787,27.862Z" fill="#B6C4CF"/>
<path d="M29.104,44.816C29.017,45.041 28.969,45.284 28.969,45.536L28.969,47.68C28.969,48.78 28.078,49.671 26.978,49.671L21.371,49.671C20.271,49.671 19.38,48.78 19.38,47.68L19.38,45.536C19.38,44.678 18.83,43.916 18.016,43.647C17.11,43.347 16.232,42.982 15.389,42.559C14.622,42.172 13.694,42.32 13.086,42.927L11.569,44.444C10.792,45.222 9.531,45.222 8.753,44.444L4.788,40.48C4.011,39.702 4.011,38.441 4.788,37.664L6.306,36.146C6.913,35.539 7.061,34.611 6.674,33.844C6.25,33.001 5.886,32.123 5.586,31.217C5.316,30.403 4.555,29.853 3.697,29.853L1.553,29.853C0.453,29.853 -0.438,28.962 -0.438,27.862L-0.438,22.254C-0.438,21.155 0.453,20.264 1.553,20.264L3.697,20.264C3.949,20.264 4.192,20.216 4.417,20.129C4.415,20.253 4.414,20.378 4.414,20.502C4.414,33.932 15.301,44.819 28.731,44.819C28.855,44.819 28.98,44.818 29.104,44.816L29.104,44.816Z" fill="#9FACBA"/>
<circle cx="24.174" cy="25.058" r="16.342" fill="#9FACBA"/>
<circle cx="24.174" cy="25.058" r="12.876" fill="#F8F7F7"/>
</g>
<defs>
<filter id="filterI125_3322;1_395" x="-2.406987" y="-1.523198" width="41.841223" height="36.426477" filterUnits="userSpaceOnUse" color-interpolation-filters="sRGB">
<feFlood flood-opacity="0" result="BackgroundImageFix"/>
<feColorMatrix in="SourceAlpha" type="matrix" values="0 0 0 0 0 0 0 0 0 0 0 0 0 0 0 0 0 0 127 0" result="hardAlpha"/>
<feMorphology radius="0" operator="dilate" in="SourceAlpha" result="0dropshadow"/>
<feOffset dx="0" dy="1.968999"/>
<feGaussianBlur stdDeviation="0.984499"/>
<feComposite in2="hardAlpha" operator="out"/>
<feColorMatrix type="matrix" values="0 0 0 0 0 0 0 0 0 0 0 0 0 0 0 0 0 0 0.25 0"/>
<feBlend mode="normal" in2="BackgroundImageFix" result="0dropshadow"/>
<feBlend mode="normal" in="SourceGraphic" in2="0dropshadow" result="shape"/>
</filter>
</defs>
</svg>
