<svg width="124" height="152" viewBox="0 0 124 152" fill="none" xmlns="http://www.w3.org/2000/svg" xmlns:xlink="http://www.w3.org/1999/xlink">
<path d="M74.07,88.031C72.656,87.537 71.136,87.291 69.604,87.308C65.639,87.308 62.424,88.798 62.424,90.637C62.424,92.475 65.639,93.965 69.604,93.965C71.136,93.982 72.656,93.736 74.07,93.243C74.738,92.995 75.168,92.441 75.167,91.831L75.167,89.442C75.169,88.832 74.738,88.278 74.07,88.031Z" transform="rotate(-65.011 68.796 90.636)" fill="#D5D6DB"/>
<path d="M65.646,60.869C64.621,60.51 63.518,60.332 62.407,60.344C59.532,60.344 57.201,61.425 57.201,62.757C57.201,64.089 59.533,65.169 62.407,65.169C63.518,65.181 64.62,65.003 65.646,64.645C66.129,64.465 66.441,64.064 66.44,63.622L66.44,61.892C66.442,61.45 66.13,61.048 65.646,60.869Z" transform="rotate(-65.01 61.821 62.757)" fill="#D5D6DB"/>
<path d="M53.698,55.731C53.509,55.586 53.263,55.506 53.006,55.506L46.255,55.506C45.69,55.506 45.232,55.887 45.231,56.359C45.231,56.467 45.255,56.575 45.303,56.675L52.565,72.076L75.078,72.076L53.698,55.731Z" transform="rotate(-65.016 60.155 63.791)" fill="#029BC5"/>
<path d="M114.222,85.151L53.042,85.151L20.446,79.265L5.401,73.682L5.401,70.362L106.849,71.229C109.875,71.249 112.842,71.933 115.449,73.212C116.588,73.778 117.636,74.461 118.571,75.244C119.403,75.931 120.113,76.714 120.679,77.569C121.307,78.529 122.965,79.6 122.995,80.774C122.998,80.774 121.92,85.427 114.222,85.151Z" transform="rotate(-64.383 64.198 77.762)" fill="#E1E6E9"/>
<path d="M64.197,83.724L26.862,101.505C26.368,101.773 26.228,102.324 26.549,102.737C26.746,102.99 27.083,103.142 27.445,103.142L34.188,103.142C35.485,103.142 36.768,102.92 37.959,102.491L101.193,83.044L64.197,83.724Z" transform="rotate(-64.781 63.785 93.093)" fill="#029BC5"/>
<path d="M10.679,81.075C10.421,80.773 10.004,80.594 9.56,80.594L3.984,80.594C3.224,80.594 2.608,81.108 2.607,81.743C2.607,81.864 2.63,81.984 2.675,82.098L8.746,97.777L25.087,97.917L10.679,81.075Z" transform="rotate(-64.984 13.847 89.256)" fill="#029BC5"/>
<path d="M19.383,100.441L8.228,104.95C8.066,105.014 7.996,105.175 8.073,105.311C8.128,105.408 8.247,105.469 8.376,105.466L13.584,105.466C13.625,105.466 13.665,105.459 13.703,105.447L29.035,100.445L19.383,100.441Z" transform="rotate(-64.723 18.538 102.953)" fill="#029BC5"/>
<path d="M105.412,50.857C104.449,50.046 103.368,49.339 102.194,48.753C100.221,49.545 98.531,50.756 97.292,52.264C97.073,52.585 97.207,52.994 97.591,53.178C97.711,53.234 97.846,53.265 97.983,53.266L107.587,53.266C107.003,52.38 106.271,51.569 105.412,50.857Z" transform="rotate(-64.974 102.387 51.009)" fill="#029BC5"/>
<path d="M89.943,55.712L96.206,55.712L96.206,65.253L89.943,65.253L89.943,55.712Z" transform="rotate(-64.55 93.075 60.482)" fill="#D5D6DB"/>
<path d="M86.05,60.913C85.295,60.913 84.681,61.423 84.681,62.052L84.681,63.071C84.707,63.7 85.34,64.192 86.096,64.171C86.815,64.15 87.393,63.67 87.417,63.071L87.417,62.052C87.417,61.423 86.806,60.914 86.05,60.913L86.05,60.913Z" transform="rotate(-64.707 86.049 62.542)" fill="#3A556A"/>
<path d="M81.655,63.642C80.899,63.642 80.286,64.152 80.286,64.781L80.286,65.801C80.311,66.429 80.945,66.921 81.7,66.9C82.42,66.88 82.997,66.399 83.022,65.801L83.022,64.781C83.022,64.153 82.41,63.643 81.655,63.642L81.655,63.642Z" transform="rotate(-64.707 81.654 65.272)" fill="#3A556A"/>
<path d="M77.258,66.372C76.503,66.373 75.891,66.882 75.891,67.511L75.891,68.53C75.916,69.159 76.55,69.651 77.305,69.63C78.025,69.609 78.602,69.129 78.627,68.53L78.627,67.511C78.627,66.882 78.014,66.372 77.258,66.372L77.258,66.372Z" transform="rotate(-64.705 77.259 68.001)" fill="#3A556A"/>
<path d="M72.863,69.101C72.107,69.102 71.495,69.612 71.495,70.24L71.495,71.26C71.521,71.888 72.154,72.38 72.91,72.359C73.629,72.339 74.207,71.858 74.231,71.26L74.231,70.24C74.231,69.611 73.618,69.101 72.863,69.101L72.863,69.101Z" transform="rotate(-64.707 72.863 70.731)" fill="#3A556A"/>
<path d="M68.477,71.828C67.721,71.829 67.109,72.338 67.109,72.967L67.109,73.987C67.109,74.616 67.722,75.125 68.477,75.125C69.233,75.125 69.845,74.616 69.845,73.987L69.845,72.967C69.846,72.339 69.234,71.829 68.479,71.828C68.478,71.828 68.478,71.828 68.477,71.828Z" transform="rotate(-64.698 68.477 73.477)" fill="#3A556A"/>
<path d="M64.082,74.557C63.326,74.558 62.714,75.068 62.714,75.697L62.714,76.717C62.714,77.345 63.327,77.855 64.082,77.855C64.838,77.855 65.45,77.345 65.45,76.717L65.45,75.697C65.451,75.068 64.839,74.558 64.084,74.557C64.083,74.557 64.083,74.557 64.082,74.557Z" transform="rotate(-64.698 64.082 76.206)" fill="#3A556A"/>
<path d="M59.686,77.287C58.931,77.288 58.318,77.798 58.318,78.427L58.318,79.446C58.319,80.075 58.933,80.584 59.688,80.583C60.442,80.582 61.053,80.073 61.054,79.446L61.054,78.427C61.054,77.798 60.442,77.288 59.686,77.287Z" transform="rotate(-64.697 59.686 78.935)" fill="#3A556A"/>
<path d="M55.291,80.017C54.535,80.017 53.923,80.527 53.923,81.156L53.923,82.176C53.924,82.804 54.538,83.313 55.293,83.312C56.047,83.312 56.658,82.803 56.659,82.176L56.659,81.156C56.659,80.527 56.047,80.017 55.291,80.017Z" transform="rotate(-64.699 55.291 81.664)" fill="#3A556A"/>
<path d="M50.896,82.746C50.14,82.747 49.528,83.257 49.528,83.886L49.528,84.905C49.529,85.534 50.142,86.043 50.897,86.042C51.651,86.041 52.262,85.532 52.263,84.905L52.263,83.886C52.263,83.257 51.651,82.747 50.896,82.746Z" transform="rotate(-64.697 50.896 84.394)" fill="#3A556A"/>
<path d="M46.499,85.476C45.744,85.476 45.131,85.986 45.131,86.614L45.131,86.616L45.131,87.635C45.132,88.264 45.746,88.773 46.501,88.772C47.255,88.771 47.866,88.263 47.867,87.635L47.867,86.616C47.867,85.987 47.255,85.477 46.499,85.476Z" transform="rotate(-64.699 46.499 87.124)" fill="#3A556A"/>
<path d="M42.105,88.205C41.35,88.205 40.737,88.715 40.737,89.343L40.737,89.345L40.737,90.364C40.738,90.993 41.352,91.502 42.107,91.501C42.861,91.5 43.472,90.991 43.473,90.364L43.473,89.345C43.473,88.716 42.861,88.206 42.105,88.205Z" transform="rotate(-64.696 42.105 89.853)" fill="#3A556A"/>
</svg>
