<svg width="122" height="152" viewBox="0 0 122 152" fill="none" xmlns="http://www.w3.org/2000/svg" xmlns:xlink="http://www.w3.org/1999/xlink">
<path d="M72.76,88.416C71.346,87.922 69.826,87.676 68.294,87.693C64.329,87.693 61.114,89.183 61.114,91.022C61.114,92.86 64.329,94.35 68.294,94.35C69.826,94.367 71.346,94.121 72.76,93.628C73.428,93.38 73.858,92.826 73.857,92.216L73.857,89.827C73.859,89.217 73.428,88.663 72.76,88.416Z" transform="rotate(-65.011 67.486 91.021)" fill="#D5D6DB"/>
<path d="M64.336,61.254C63.311,60.895 62.208,60.717 61.097,60.729C58.223,60.729 55.891,61.81 55.891,63.142C55.891,64.474 58.223,65.554 61.097,65.554C62.208,65.566 63.311,65.388 64.336,65.03C64.82,64.85 65.131,64.449 65.131,64.007L65.131,62.277C65.132,61.835 64.82,61.433 64.336,61.254Z" transform="rotate(-65.01 60.511 63.142)" fill="#D5D6DB"/>
<path d="M52.388,56.116C52.2,55.971 51.953,55.891 51.697,55.892L44.945,55.892C44.381,55.891 43.922,56.273 43.922,56.744C43.921,56.853 43.946,56.96 43.993,57.06L51.255,72.461L73.769,72.461L52.388,56.116Z" transform="rotate(-65.016 58.845 64.177)" fill="#029BC5"/>
<path d="M112.912,85.536L51.732,85.536L19.136,79.65L4.091,74.067L4.091,70.747L105.539,71.614C108.566,71.634 111.533,72.318 114.14,73.598C115.278,74.164 116.327,74.846 117.261,75.629C118.094,76.316 118.804,77.099 119.37,77.954C119.997,78.914 121.655,79.985 121.686,81.16C121.688,81.159 120.61,85.812 112.912,85.536L112.912,85.536Z" transform="rotate(-64.383 62.889 78.148)" fill="#E1E6E9"/>
<path d="M62.887,84.109L25.552,101.889C25.058,102.158 24.918,102.709 25.239,103.121C25.436,103.374 25.773,103.527 26.135,103.527L32.878,103.527C34.175,103.526 35.458,103.305 36.649,102.875L99.883,83.429L62.887,84.109Z" transform="rotate(-64.781 62.475 93.478)" fill="#029BC5"/>
<path d="M9.369,81.46C9.111,81.158 8.694,80.979 8.25,80.979L2.674,80.979C1.914,80.979 1.298,81.493 1.297,82.128C1.297,82.249 1.32,82.369 1.365,82.484L7.436,98.162L23.777,98.303L9.369,81.46Z" transform="rotate(-64.984 12.537 89.641)" fill="#029BC5"/>
<path d="M18.074,100.826L6.918,105.335C6.756,105.399 6.687,105.56 6.763,105.696C6.818,105.793 6.938,105.854 7.067,105.851L12.275,105.851C12.315,105.851 12.356,105.844 12.394,105.832L27.725,100.83L18.074,100.826Z" transform="rotate(-64.723 17.229 103.338)" fill="#029BC5"/>
<path d="M104.102,51.242C103.139,50.431 102.058,49.724 100.884,49.138C98.911,49.93 97.221,51.141 95.982,52.649C95.763,52.97 95.897,53.379 96.281,53.562C96.401,53.619 96.536,53.65 96.673,53.65L106.277,53.65C105.693,52.765 104.961,51.954 104.102,51.242Z" transform="rotate(-64.974 101.077 51.394)" fill="#029BC5"/>
<path d="M88.633,56.096L94.897,56.096L94.897,65.638L88.633,65.638L88.633,56.096Z" transform="rotate(-64.55 91.765 60.867)" fill="#D5D6DB"/>
<path d="M84.74,61.298C83.984,61.298 83.371,61.808 83.371,62.437L83.371,63.456C83.397,64.085 84.03,64.577 84.786,64.556C85.505,64.535 86.083,64.055 86.107,63.456L86.107,62.437C86.107,61.808 85.496,61.299 84.74,61.298L84.74,61.298Z" transform="rotate(-64.707 84.739 62.927)" fill="#3A556A"/>
<path d="M80.345,64.028C79.589,64.028 78.976,64.537 78.976,65.166L78.976,66.186C79.002,66.814 79.635,67.307 80.391,67.285C81.11,67.265 81.688,66.784 81.712,66.186L81.712,65.166C81.712,64.538 81.1,64.028 80.345,64.028L80.345,64.028Z" transform="rotate(-64.707 80.344 65.657)" fill="#3A556A"/>
<path d="M75.948,66.757C75.193,66.758 74.581,67.267 74.581,67.896L74.581,68.915C74.606,69.544 75.24,70.036 75.995,70.015C76.715,69.994 77.292,69.514 77.317,68.915L77.317,67.896C77.317,67.267 76.704,66.757 75.948,66.757L75.948,66.757Z" transform="rotate(-64.705 75.949 68.386)" fill="#3A556A"/>
<path d="M71.553,69.486C70.798,69.487 70.186,69.997 70.186,70.625L70.186,71.645C70.211,72.273 70.845,72.765 71.6,72.744C72.32,72.724 72.897,72.243 72.922,71.645L72.922,70.625C72.921,69.996 72.309,69.486 71.553,69.486L71.553,69.486Z" transform="rotate(-64.707 71.554 71.116)" fill="#3A556A"/>
<path d="M67.168,72.213C66.412,72.214 65.8,72.723 65.8,73.352L65.8,74.372C65.8,75.001 66.412,75.51 67.168,75.51C67.923,75.51 68.536,75.001 68.536,74.372L68.536,73.352C68.537,72.724 67.925,72.214 67.169,72.213C67.169,72.213 67.168,72.213 67.168,72.213Z" transform="rotate(-64.698 67.168 73.862)" fill="#3A556A"/>
<path d="M62.773,74.942C62.017,74.943 61.405,75.453 61.405,76.082L61.405,77.102C61.405,77.73 62.017,78.24 62.773,78.24C63.528,78.24 64.141,77.73 64.141,77.102L64.141,76.082C64.142,75.453 63.53,74.943 62.774,74.942C62.774,74.942 62.773,74.942 62.773,74.942Z" transform="rotate(-64.698 62.773 76.591)" fill="#3A556A"/>
<path d="M58.377,77.672C57.621,77.673 57.009,78.183 57.009,78.812L57.009,79.831C57.01,80.46 57.623,80.969 58.378,80.968C59.132,80.967 59.743,80.458 59.744,79.831L59.744,78.812C59.745,78.183 59.133,77.673 58.377,77.672Z" transform="rotate(-64.697 58.377 79.32)" fill="#3A556A"/>
<path d="M53.981,80.402C53.225,80.402 52.613,80.912 52.613,81.541L52.613,82.561C52.614,83.189 53.228,83.698 53.983,83.697C54.737,83.697 55.348,83.188 55.349,82.561L55.349,81.541C55.349,80.912 54.737,80.402 53.981,80.402Z" transform="rotate(-64.699 53.981 82.049)" fill="#3A556A"/>
<path d="M49.586,83.131C48.83,83.132 48.218,83.642 48.218,84.271L48.218,85.29C48.219,85.919 48.833,86.428 49.588,86.427C50.342,86.426 50.953,85.917 50.954,85.29L50.954,84.271C50.954,83.642 50.342,83.132 49.586,83.131Z" transform="rotate(-64.697 49.586 84.779)" fill="#3A556A"/>
<path d="M45.19,85.862C44.434,85.862 43.822,86.371 43.822,87L43.822,87.001L43.822,88.021C43.823,88.649 44.436,89.158 45.191,89.157C45.945,89.156 46.556,88.648 46.557,88.021L46.557,87.001C46.558,86.372 45.946,85.862 45.19,85.862Z" transform="rotate(-64.699 45.19 87.509)" fill="#3A556A"/>
<path d="M40.796,88.59C40.04,88.59 39.428,89.1 39.428,89.728L39.428,89.73L39.428,90.749C39.429,91.378 40.042,91.887 40.797,91.886C41.551,91.885 42.162,91.376 42.163,90.749L42.163,89.73C42.163,89.101 41.551,88.591 40.796,88.59Z" transform="rotate(-64.696 40.796 90.238)" fill="#3A556A"/>
</svg>
