<svg width="122" height="152" viewBox="0 0 122 152" fill="none" xmlns="http://www.w3.org/2000/svg" xmlns:xlink="http://www.w3.org/1999/xlink">
<path d="M72.263,88.145C70.849,87.65 69.329,87.404 67.796,87.421C63.831,87.421 60.617,88.912 60.617,90.75C60.617,92.589 63.831,94.079 67.796,94.079C69.329,94.095 70.849,93.849 72.263,93.356C72.93,93.109 73.36,92.555 73.359,91.944L73.359,89.556C73.361,88.945 72.931,88.392 72.263,88.145Z" transform="rotate(-65.011 66.988 90.75)" fill="#D5D6DB"/>
<path d="M63.839,60.982C62.813,60.624 61.711,60.446 60.6,60.458C57.725,60.458 55.394,61.538 55.394,62.87C55.394,64.203 57.726,65.283 60.6,65.283C61.711,65.295 62.813,65.116 63.839,64.759C64.322,64.579 64.634,64.178 64.633,63.735L64.633,62.006C64.635,61.563 64.323,61.162 63.839,60.982Z" transform="rotate(-65.01 60.013 62.87)" fill="#D5D6DB"/>
<path d="M51.891,55.844C51.702,55.7 51.455,55.62 51.199,55.62L44.448,55.62C43.883,55.619 43.425,56.001 43.424,56.473C43.424,56.581 43.448,56.688 43.496,56.789L50.758,72.19L73.271,72.19L51.891,55.844Z" transform="rotate(-65.016 58.348 63.905)" fill="#029BC5"/>
<path d="M112.414,85.265L51.234,85.265L18.639,79.379L3.594,73.796L3.594,70.476L105.041,71.342C108.068,71.362 111.035,72.047 113.642,73.326C114.781,73.892 115.829,74.575 116.763,75.358C117.596,76.045 118.306,76.828 118.872,77.682C119.5,78.643 121.157,79.714 121.188,80.888C121.191,80.888 120.112,85.541 112.414,85.265L112.414,85.265Z" transform="rotate(-64.383 62.391 77.876)" fill="#E1E6E9"/>
<path d="M62.39,83.838L25.055,101.618C24.56,101.886 24.42,102.438 24.741,102.85C24.939,103.103 25.276,103.255 25.637,103.255L32.38,103.255C33.677,103.255 34.961,103.033 36.151,102.604L99.386,83.158L62.39,83.838Z" transform="rotate(-64.781 61.977 93.206)" fill="#029BC5"/>
<path d="M8.872,81.189C8.614,80.887 8.197,80.708 7.753,80.708L2.176,80.708C1.417,80.708 0.8,81.222 0.8,81.857C0.8,81.977 0.822,82.097 0.867,82.212L6.939,97.891L23.28,98.031L8.872,81.189Z" transform="rotate(-64.984 12.04 89.369)" fill="#029BC5"/>
<path d="M17.576,100.554L6.421,105.064C6.259,105.127 6.189,105.289 6.266,105.424C6.321,105.522 6.44,105.583 6.569,105.579L11.777,105.579C11.818,105.579 11.858,105.573 11.896,105.561L27.228,100.558L17.576,100.554Z" transform="rotate(-64.723 16.731 103.067)" fill="#029BC5"/>
<path d="M103.605,50.971C102.641,50.16 101.56,49.453 100.386,48.866C98.413,49.658 96.723,50.869 95.484,52.378C95.265,52.699 95.399,53.108 95.784,53.291C95.903,53.348 96.038,53.378 96.176,53.379L105.779,53.379C105.195,52.493 104.463,51.683 103.605,50.971Z" transform="rotate(-64.974 100.579 51.123)" fill="#029BC5"/>
<path d="M88.135,55.825L94.399,55.825L94.399,65.366L88.135,65.366L88.135,55.825Z" transform="rotate(-64.55 91.267 60.595)" fill="#D5D6DB"/>
<path d="M84.243,61.027C83.487,61.027 82.874,61.536 82.874,62.165L82.874,63.185C82.899,63.813 83.533,64.306 84.288,64.284C85.008,64.264 85.585,63.783 85.61,63.185L85.61,62.165C85.61,61.537 84.998,61.027 84.243,61.027L84.243,61.027Z" transform="rotate(-64.707 84.242 62.656)" fill="#3A556A"/>
<path d="M79.848,63.756C79.092,63.756 78.479,64.266 78.479,64.895L78.479,65.914C78.504,66.543 79.138,67.035 79.893,67.014C80.613,66.993 81.19,66.513 81.215,65.914L81.215,64.895C81.214,64.266 80.603,63.757 79.848,63.756L79.848,63.756Z" transform="rotate(-64.707 79.847 65.385)" fill="#3A556A"/>
<path d="M75.45,66.486C74.695,66.486 74.083,66.996 74.083,67.624L74.083,68.644C74.109,69.272 74.742,69.764 75.498,69.743C76.217,69.723 76.795,69.242 76.819,68.644L76.819,67.624C76.819,66.995 76.207,66.486 75.45,66.486L75.45,66.486Z" transform="rotate(-64.705 75.451 68.115)" fill="#3A556A"/>
<path d="M71.055,69.215C70.3,69.216 69.688,69.725 69.688,70.354L69.688,71.373C69.714,72.002 70.347,72.494 71.103,72.473C71.822,72.452 72.4,71.972 72.424,71.373L72.424,70.354C72.424,69.725 71.811,69.215 71.055,69.215L71.055,69.215Z" transform="rotate(-64.707 71.056 70.844)" fill="#3A556A"/>
<path d="M66.67,71.941C65.914,71.942 65.302,72.452 65.302,73.081L65.302,74.101C65.302,74.729 65.915,75.239 66.67,75.239C67.426,75.239 68.038,74.729 68.038,74.101L68.038,73.081C68.039,72.452 67.427,71.942 66.672,71.941C66.671,71.941 66.671,71.941 66.67,71.941Z" transform="rotate(-64.698 66.67 73.59)" fill="#3A556A"/>
<path d="M62.275,74.671C61.519,74.672 60.907,75.181 60.907,75.81L60.907,76.83C60.907,77.459 61.52,77.968 62.275,77.968C63.031,77.968 63.643,77.459 63.643,76.83L63.643,75.81C63.644,75.182 63.032,74.672 62.277,74.671C62.276,74.671 62.275,74.671 62.275,74.671Z" transform="rotate(-64.698 62.275 76.32)" fill="#3A556A"/>
<path d="M57.879,77.401C57.123,77.401 56.511,77.911 56.511,78.54L56.511,79.56C56.512,80.188 57.126,80.697 57.881,80.696C58.635,80.695 59.246,80.187 59.247,79.56L59.247,78.54C59.247,77.911 58.635,77.401 57.879,77.401Z" transform="rotate(-64.697 57.879 79.048)" fill="#3A556A"/>
<path d="M53.484,80.13C52.728,80.131 52.116,80.641 52.116,81.27L52.116,82.289C52.117,82.918 52.73,83.427 53.485,83.426C54.239,83.425 54.85,82.917 54.851,82.289L54.851,81.27C54.852,80.641 54.24,80.131 53.484,80.13Z" transform="rotate(-64.699 53.484 81.778)" fill="#3A556A"/>
<path d="M49.089,82.86C48.333,82.86 47.721,83.37 47.721,83.999L47.721,85.019C47.722,85.647 48.335,86.156 49.09,86.155C49.844,86.154 50.455,85.646 50.456,85.019L50.456,83.999C50.456,83.37 49.844,82.86 49.089,82.86Z" transform="rotate(-64.697 49.089 84.507)" fill="#3A556A"/>
<path d="M44.692,85.59C43.937,85.59 43.324,86.1 43.324,86.728L43.324,86.73L43.324,87.749C43.325,88.378 43.939,88.887 44.694,88.886C45.448,88.885 46.059,88.376 46.06,87.749L46.06,86.73C46.06,86.101 45.448,85.591 44.692,85.59Z" transform="rotate(-64.699 44.692 87.238)" fill="#3A556A"/>
<path d="M40.298,88.319C39.543,88.319 38.93,88.828 38.93,89.457L38.93,89.458L38.93,90.478C38.931,91.106 39.545,91.615 40.3,91.614C41.054,91.613 41.665,91.105 41.666,90.478L41.666,89.458C41.666,88.829 41.054,88.319 40.298,88.319Z" transform="rotate(-64.696 40.298 89.966)" fill="#3A556A"/>
</svg>
