<svg width="26" height="26" viewBox="0 0 26 26" fill="none" xmlns="http://www.w3.org/2000/svg" xmlns:xlink="http://www.w3.org/1999/xlink">
<path d="M23.922,-0.403C23.256,-0.598 6.971,-2.219 1.252,5.507C-1.281,8.93 -1.319,13.622 1.125,19.452C0.505,20.739 -0.037,22.095 -0.48,23.525C-0.614,23.96 -0.371,24.42 0.063,24.554C0.144,24.58 0.226,24.591 0.307,24.591C0.658,24.591 0.984,24.365 1.093,24.012C5.452,9.919 19.617,3.101 23.961,1.379C24.384,1.211 24.949,-0.103 23.922,-0.403Z" fill="#84829A"/>
<path d="M3.74,21.216C6.098,22.205 8.455,22.712 10.647,22.712C12.618,22.712 14.455,22.307 16.039,21.485C19.226,19.832 21.173,16.67 21.67,12.339C22.177,7.926 22.808,5.161 23.334,3.47C18.65,5.631 8.607,11.231 3.74,21.216Z" fill="#84829A"/>
</svg>
