<svg width="18" height="18" viewBox="0 0 18 18" fill="none" xmlns="http://www.w3.org/2000/svg" xmlns:xlink="http://www.w3.org/1999/xlink">
<path d="M16.469,16.159L14.894,16.159L14.894,7.495C14.894,7.35 14.776,7.233 14.631,7.233L10.956,7.233L10.956,1.194C10.956,1.049 10.838,0.932 10.693,0.932L3.867,0.932C3.722,0.932 3.605,1.049 3.605,1.194L3.605,16.159L1.242,16.159C1.097,16.159 0.979,16.276 0.979,16.421C0.979,16.566 1.097,16.684 1.242,16.684L16.469,16.684C16.614,16.684 16.731,16.566 16.731,16.421C16.731,16.276 16.614,16.159 16.469,16.159ZM6.493,16.159L5.443,16.159L5.443,13.796C5.443,13.651 5.56,13.533 5.705,13.533L6.23,13.533C6.375,13.533 6.493,13.651 6.493,13.796L6.493,16.159ZM7.543,7.495L7.543,16.159L7.018,16.159L7.018,13.796C7.018,13.361 6.665,13.008 6.23,13.008L5.705,13.008C5.27,13.008 4.917,13.361 4.917,13.796L4.917,16.159L4.13,16.159L4.13,1.457L10.431,1.457L10.431,7.233L7.805,7.233C7.66,7.233 7.543,7.35 7.543,7.495ZM14.369,16.159L8.068,16.159L8.068,7.758L14.369,7.758L14.369,16.159Z" transform="rotate(360 8.855 8.808)" fill="#84829A"/>
<path d="M9.905,4.607L8.33,4.607C8.185,4.607 8.068,4.725 8.068,4.87L8.068,6.445C8.068,6.59 8.185,6.708 8.33,6.708L9.905,6.708C10.05,6.708 10.168,6.59 10.168,6.445L10.168,4.87C10.168,4.725 10.05,4.607 9.905,4.607ZM9.643,6.183L8.593,6.183L8.593,5.132L9.643,5.132L9.643,6.183Z" transform="rotate(360 9.118 5.658)" fill="#84829A"/>
<path d="M9.905,1.982L8.33,1.982C8.185,1.982 8.068,2.099 8.068,2.244L8.068,3.82C8.068,3.965 8.185,4.082 8.33,4.082L9.905,4.082C10.05,4.082 10.168,3.965 10.168,3.82L10.168,2.244C10.168,2.099 10.05,1.982 9.905,1.982ZM9.643,3.557L8.593,3.557L8.593,2.507L9.643,2.507L9.643,3.557Z" transform="rotate(360 9.118 3.032)" fill="#84829A"/>
<path d="M12.531,4.607L10.956,4.607C10.811,4.607 10.693,4.725 10.693,4.87L10.693,6.445C10.693,6.59 10.811,6.708 10.956,6.708L12.531,6.708C12.676,6.708 12.793,6.59 12.793,6.445L12.793,4.87C12.793,4.725 12.676,4.607 12.531,4.607ZM12.268,6.183L11.218,6.183L11.218,5.132L12.268,5.132L12.268,6.183Z" transform="rotate(360 11.743 5.658)" fill="#84829A"/>
<path d="M12.531,1.982L10.956,1.982C10.811,1.982 10.693,2.099 10.693,2.244L10.693,3.82C10.693,3.965 10.811,4.082 10.956,4.082L12.531,4.082C12.676,4.082 12.793,3.965 12.793,3.82L12.793,2.244C12.793,2.099 12.676,1.982 12.531,1.982ZM12.268,3.557L11.218,3.557L11.218,2.507L12.268,2.507L12.268,3.557Z" transform="rotate(360 11.743 3.032)" fill="#84829A"/>
<path d="M12.531,7.232L10.956,7.232C10.811,7.232 10.693,7.35 10.693,7.495L10.693,9.07C10.693,9.215 10.811,9.333 10.956,9.333L12.531,9.333C12.676,9.333 12.793,9.215 12.793,9.07L12.793,7.495C12.793,7.35 12.676,7.232 12.531,7.232ZM12.268,8.808L11.218,8.808L11.218,7.757L12.268,7.757L12.268,8.808Z" transform="rotate(360 11.743 8.283)" fill="#84829A"/>
<path d="M12.531,9.858L10.956,9.858C10.811,9.858 10.693,9.975 10.693,10.12L10.693,11.696C10.693,11.841 10.811,11.958 10.956,11.958L12.531,11.958C12.676,11.958 12.793,11.841 12.793,11.696L12.793,10.12C12.793,9.975 12.676,9.858 12.531,9.858ZM12.268,11.433L11.218,11.433L11.218,10.383L12.268,10.383L12.268,11.433Z" transform="rotate(360 11.743 10.908)" fill="#84829A"/>
<path d="M4.392,13.008L5.967,13.008C6.112,13.008 6.23,12.891 6.23,12.746L6.23,11.17C6.23,11.026 6.112,10.908 5.967,10.908L4.392,10.908C4.247,10.908 4.13,11.026 4.13,11.17L4.13,12.746C4.13,12.891 4.247,13.008 4.392,13.008ZM4.655,11.433L5.705,11.433L5.705,12.483L4.655,12.483L4.655,11.433Z" transform="rotate(360 5.18 11.958)" fill="#84829A"/>
<path d="M4.392,10.383L5.967,10.383C6.112,10.383 6.23,10.265 6.23,10.12L6.23,8.545C6.23,8.4 6.112,8.283 5.967,8.283L4.392,8.283C4.247,8.283 4.13,8.4 4.13,8.545L4.13,10.12C4.13,10.265 4.247,10.383 4.392,10.383ZM4.655,8.808L5.705,8.808L5.705,9.858L4.655,9.858L4.655,8.808Z" transform="rotate(360 5.18 9.333)" fill="#84829A"/>
<path d="M4.392,15.634L5.967,15.634C6.112,15.634 6.23,15.516 6.23,15.371L6.23,13.796C6.23,13.651 6.112,13.533 5.967,13.533L4.392,13.533C4.247,13.533 4.13,13.651 4.13,13.796L4.13,15.371C4.13,15.516 4.247,15.634 4.392,15.634ZM4.655,14.059L5.705,14.059L5.705,15.109L4.655,15.109L4.655,14.059Z" transform="rotate(360 5.18 14.584)" fill="#84829A"/>
<path d="M7.018,13.008L8.593,13.008C8.738,13.008 8.855,12.891 8.855,12.746L8.855,11.17C8.855,11.026 8.738,10.908 8.593,10.908L7.018,10.908C6.873,10.908 6.755,11.026 6.755,11.17L6.755,12.746C6.755,12.891 6.873,13.008 7.018,13.008ZM7.28,11.433L8.33,11.433L8.33,12.483L7.28,12.483L7.28,11.433Z" transform="rotate(360 7.805 11.958)" fill="#84829A"/>
<path d="M7.018,10.383L8.593,10.383C8.738,10.383 8.855,10.265 8.855,10.12L8.855,8.545C8.855,8.4 8.738,8.283 8.593,8.283L7.018,8.283C6.873,8.283 6.755,8.4 6.755,8.545L6.755,10.12C6.755,10.265 6.873,10.383 7.018,10.383ZM7.28,8.808L8.33,8.808L8.33,9.858L7.28,9.858L7.28,8.808Z" transform="rotate(360 7.805 9.333)" fill="#84829A"/>
<path d="M7.018,15.634L8.593,15.634C8.738,15.634 8.855,15.516 8.855,15.371L8.855,13.796C8.855,13.651 8.738,13.533 8.593,13.533L7.018,13.533C6.873,13.533 6.755,13.651 6.755,13.796L6.755,15.371C6.755,15.516 6.873,15.634 7.018,15.634ZM7.28,14.059L8.33,14.059L8.33,15.109L7.28,15.109L7.28,14.059Z" transform="rotate(360 7.805 14.584)" fill="#84829A"/>
</svg>
