<svg width="28" height="28" viewBox="0 0 28 28" fill="none" xmlns="http://www.w3.org/2000/svg" xmlns:xlink="http://www.w3.org/1999/xlink">
<path d="M27.309,0.302C26.571,0.086 8.525,-1.711 2.187,6.851C-0.62,10.644 -0.662,15.844 2.047,22.305C1.36,23.731 0.758,25.233 0.268,26.818C0.119,27.3 0.388,27.81 0.87,27.959C0.959,27.987 1.05,28 1.14,28C1.529,28 1.89,27.749 2.01,27.357C6.841,11.741 22.538,4.185 27.352,2.277C27.821,2.091 28.447,0.635 27.309,0.302Z" fill="#84829A"/>
<path d="M4.944,24.26C7.557,25.356 10.169,25.917 12.598,25.917C14.782,25.917 16.818,25.468 18.573,24.558C22.105,22.726 24.263,19.222 24.814,14.423C25.376,9.532 26.075,6.468 26.658,4.594C21.467,6.989 10.338,13.195 4.944,24.26Z" fill="#84829A"/>
</svg>
