<svg width="140" height="120" viewBox="0 0 140 120" fill="none" xmlns="http://www.w3.org/2000/svg" xmlns:xlink="http://www.w3.org/1999/xlink">
<g filter="url(#filterI125_2847;1_395)">
<path d="M49.102,86.946C49.102,104.887 63.646,119.432 81.588,119.432L130.316,119.432C135.3,119.432 139.34,115.392 139.34,110.408L139.34,49.046C139.34,39.078 131.26,30.998 121.293,30.998L58.125,30.998C53.142,30.998 49.102,35.038 49.102,40.022Z" fill="#FFF1DA"/>
<path d="M90.611,50.576L90.611,40.296C90.611,38.28 88.978,36.647 86.962,36.647L83.03,36.647C81.458,36.647 80.063,35.639 79.569,34.147C79.018,32.484 78.349,30.875 77.572,29.331C76.865,27.924 77.136,26.223 78.249,25.109L81.031,22.327C82.456,20.902 82.456,18.592 81.031,17.166L73.761,9.897C72.336,8.472 70.026,8.472 68.601,9.897L65.819,12.679C64.705,13.793 63.004,14.063 61.597,13.356C60.052,12.578 58.444,11.91 56.781,11.359C55.289,10.865 54.281,9.47 54.281,7.898L54.281,3.966C54.281,1.95 52.648,0.317 50.632,0.317L40.352,0.317C38.336,0.317 36.702,1.95 36.702,3.966L36.702,7.898C36.702,9.47 35.695,10.865 34.203,11.359C32.54,11.91 30.931,12.579 29.386,13.356C27.98,14.063 26.279,13.793 25.165,12.679L22.383,9.897C20.958,8.472 18.647,8.472 17.222,9.897L9.953,17.167C8.528,18.592 8.528,20.902 9.953,22.327L12.735,25.109C13.849,26.223 14.119,27.924 13.412,29.331C12.635,30.876 11.966,32.484 11.415,34.147C11.066,35.202 10.267,36.014 9.273,36.4C8.861,36.56 8.597,36.828 8.135,36.828L4.203,36.828C2.188,36.828 0.554,38.462 0.554,40.477L0.554,50.395C0.554,52.41 2.188,54.044 4.203,54.044L8.135,54.044C9.708,54.044 11.103,55.233 11.597,56.725C12.147,58.388 12.816,59.996 13.593,61.541C14.301,62.948 14.03,64.649 12.917,65.763L10.316,68.545C8.891,69.97 8.891,72.28 10.316,73.706L17.223,80.612C18.648,82.037 20.958,82.037 22.383,80.612L25.165,77.83C26.279,76.716 27.98,76.446 29.387,77.153C30.932,77.93 32.903,78.781 34.566,79.331C36.059,79.826 37.066,81.221 37.066,82.793L37.066,86.725C37.066,88.74 38.7,90.374 40.715,90.374L50.451,90.374C52.466,90.374 54.1,88.74 54.1,86.725L54.1,82.793C54.1,82.332 54.368,82.067 54.528,81.655C54.914,80.661 55.727,79.862 56.781,79.513C58.444,78.963 60.053,78.294 61.597,77.517C63.004,76.809 64.705,77.08 65.819,78.193L68.601,80.975C70.026,82.4 72.337,82.4 73.762,80.975L81.031,73.706C82.456,72.28 82.456,69.97 81.031,68.545L78.249,65.763C77.136,64.649 76.865,62.948 77.573,61.541C78.35,59.997 79.019,58.388 79.569,56.725C80.063,55.233 81.458,54.225 83.03,54.225L86.962,54.225C88.978,54.225 90.611,52.592 90.611,50.576L90.611,50.576Z" fill="#B6C4CF"/>
<path d="M54.529,81.655C54.369,82.067 54.282,82.514 54.282,82.975L54.282,86.906C54.282,88.921 52.648,90.555 50.633,90.555L40.352,90.555C38.337,90.555 36.703,88.921 36.703,86.906L36.703,82.975C36.703,81.403 35.695,80.006 34.203,79.512C32.541,78.962 30.933,78.294 29.387,77.517C27.98,76.809 26.279,77.079 25.166,78.192L22.384,80.974C20.959,82.399 18.648,82.399 17.222,80.974L9.953,73.706C8.529,72.281 8.529,69.969 9.953,68.544L12.736,65.762C13.849,64.649 14.119,62.948 13.411,61.541C12.634,59.996 11.966,58.387 11.416,56.726C10.922,55.233 9.526,54.226 7.953,54.226L4.023,54.226C2.007,54.226 0.373,52.592 0.373,50.576L0.373,40.296C0.373,38.28 2.007,36.646 4.023,36.646L7.953,36.646C8.415,36.646 8.861,36.559 9.273,36.399C9.27,36.626 9.268,36.855 9.268,37.084C9.268,61.703 29.226,81.66 53.844,81.66C54.073,81.66 54.302,81.659 54.529,81.655L54.529,81.655Z" fill="#9FACBA"/>
<circle cx="45.492" cy="45.436" r="29.959" fill="#9FACBA"/>
<circle cx="45.492" cy="45.436" r="23.604" fill="#F8F7F7"/>
</g>
<defs>
<filter id="filterI125_2847;1_395" x="-3.236505" y="-3.292901" width="76.702975" height="66.776705" filterUnits="userSpaceOnUse" color-interpolation-filters="sRGB">
<feFlood flood-opacity="0" result="BackgroundImageFix"/>
<feColorMatrix in="SourceAlpha" type="matrix" values="0 0 0 0 0 0 0 0 0 0 0 0 0 0 0 0 0 0 127 0" result="hardAlpha"/>
<feMorphology radius="0" operator="dilate" in="SourceAlpha" result="0dropshadow"/>
<feOffset dx="0" dy="3.609552"/>
<feGaussianBlur stdDeviation="1.804776"/>
<feComposite in2="hardAlpha" operator="out"/>
<feColorMatrix type="matrix" values="0 0 0 0 0 0 0 0 0 0 0 0 0 0 0 0 0 0 0.25 0"/>
<feBlend mode="normal" in2="BackgroundImageFix" result="0dropshadow"/>
<feBlend mode="normal" in="SourceGraphic" in2="0dropshadow" result="shape"/>
</filter>
</defs>
</svg>
