<svg width="1318" height="532" viewBox="0 0 1318 532" fill="none" xmlns="http://www.w3.org/2000/svg" xmlns:xlink="http://www.w3.org/1999/xlink">
<g opacity="0.2">
<path d="M1236.771,37.059C1236.771,26.185 1227.956,17.369 1217.081,17.369L211.908,17.369C141.767,17.369 84.907,74.229 84.907,144.37L84.907,398.37C84.907,409.245 93.723,418.06 104.597,418.06L1217.081,418.06C1227.956,418.06 1236.771,409.245 1236.771,398.37Z" fill="#DFD7F9"/>
</g>
<g opacity="0.1">
</g>
<path d="M1303.046,192.925C1303.046,243.113 1262.361,283.798 1212.174,283.798C1161.986,283.798 1121.301,243.113 1121.301,192.925C1121.301,142.737 1161.986,102.052 1212.174,102.052C1262.361,102.052 1303.046,142.737 1303.046,192.925Z" stroke="#6246E5" stroke-width="0.492" stroke-miterlimit="3.999327"/>
<circle cx="1205" cy="183.36" r="101.634" stroke="#6246E5" stroke-width="0.492" stroke-miterlimit="3.999327"/>
<circle cx="1199.021" cy="175.588" r="111.199" stroke="#6246E5" stroke-width="0.492" stroke-miterlimit="3.999327"/>
<circle cx="1193.043" cy="164.228" r="119.569" stroke="#6246E5" stroke-width="0.492" stroke-miterlimit="3.999327"/>
<circle cx="1187.363" cy="153.168" r="127.64" stroke="#6246E5" stroke-width="0.492" stroke-miterlimit="3.999327"/>
<circle cx="1177.798" cy="140.614" r="140.195" stroke="#6246E5" stroke-width="0.492" stroke-miterlimit="3.999327"/>
<g opacity="0.1">
</g>
<path d="M356.356,385.771C356.356,454.302 300.723,509.857 232.095,509.857C163.468,509.857 107.834,454.302 107.834,385.771C107.834,317.24 163.468,261.685 232.095,261.685C300.723,261.685 356.356,317.24 356.356,385.771Z" transform="rotate(180 232.095 385.771)" stroke="#6246E5" stroke-width="0.492" stroke-miterlimit="3.999327"/>
<path d="M384.134,375.961C384.134,452.607 321.912,514.741 245.157,514.741C168.402,514.741 106.18,452.607 106.18,375.961C106.18,299.315 168.402,237.181 245.157,237.181C321.912,237.181 384.134,299.315 384.134,375.961Z" transform="rotate(180 245.157 375.961)" stroke="#6246E5" stroke-width="0.492" stroke-miterlimit="3.999327"/>
<path d="M407.827,367.786C407.827,451.646 339.749,519.628 255.77,519.628C171.791,519.628 103.713,451.646 103.713,367.786C103.713,283.926 171.791,215.944 255.77,215.944C339.749,215.944 407.827,283.926 407.827,367.786Z" transform="rotate(180 255.77 367.786)" stroke="#6246E5" stroke-width="0.492" stroke-miterlimit="3.999327"/>
<path d="M434.783,359.611C434.783,449.782 361.581,522.882 271.281,522.882C180.981,522.882 107.779,449.782 107.779,359.611C107.779,269.439 180.981,196.34 271.281,196.34C361.581,196.34 434.783,269.439 434.783,359.611Z" transform="rotate(180 271.281 359.611)" stroke="#6246E5" stroke-width="0.492" stroke-miterlimit="3.999327"/>
<path d="M460.921,351.844C460.921,448.103 382.777,526.135 286.383,526.135C189.988,526.135 111.845,448.103 111.845,351.844C111.845,255.586 189.988,177.553 286.383,177.553C382.777,177.553 460.921,255.586 460.921,351.844Z" transform="rotate(180 286.383 351.844)" stroke="#6246E5" stroke-width="0.492" stroke-miterlimit="3.999327"/>
<path d="M495.233,338.765C495.233,444.492 409.403,530.2 303.526,530.2C197.65,530.2 111.821,444.492 111.821,338.765C111.821,233.038 197.65,147.33 303.526,147.33C409.403,147.33 495.233,233.038 495.233,338.765Z" transform="rotate(180 303.527 338.765)" stroke="#6246E5" stroke-width="0.492" stroke-miterlimit="3.999327"/>
</svg>
