<svg width="14" height="18" viewBox="0 0 14 18" fill="none" xmlns="http://www.w3.org/2000/svg" xmlns:xlink="http://www.w3.org/1999/xlink">
<path d="M3.688,16.054C1.344,16.04 -0.596,11.254 -0.596,8.817C-0.596,4.836 2.391,3.964 3.542,3.964C4.061,3.964 4.614,4.168 5.103,4.348C5.445,4.474 5.798,4.604 5.994,4.604C6.112,4.604 6.389,4.493 6.634,4.397C7.156,4.189 7.805,3.931 8.561,3.931C8.563,3.931 8.565,3.931 8.566,3.931C9.131,3.931 10.843,4.055 11.872,5.6L12.113,5.963L11.766,6.225C11.27,6.599 10.366,7.281 10.366,8.632C10.366,10.233 11.39,10.849 11.882,11.145C12.1,11.276 12.324,11.41 12.324,11.705C12.324,11.898 10.789,16.03 8.558,16.03C8.012,16.03 7.627,15.866 7.286,15.721C6.942,15.575 6.645,15.448 6.154,15.448C5.906,15.448 5.591,15.566 5.258,15.691C4.803,15.861 4.288,16.054 3.703,16.054L3.688,16.054Z" fill="#FFFFFF"/>
<path d="M8.798,0.302C8.856,2.396 7.358,3.849 5.862,3.758C5.615,2.087 7.358,0.302 8.798,0.302Z" fill="#FFFFFF"/>
</svg>
