<svg width="154" height="132" viewBox="0 0 154 132" fill="none" xmlns="http://www.w3.org/2000/svg" xmlns:xlink="http://www.w3.org/1999/xlink">
<g filter="url(#filter1_395)">
<path d="M54,96C54,115.882 70.118,132 90,132L144,132C149.523,132 154,127.523 154,122L154,54C154,42.954 145.046,34 134,34L64,34C58.477,34 54,38.477 54,44Z" fill="#FFF1DA"/>
<path d="M100,55.696L100,44.304C100,42.07 98.19,40.26 95.956,40.26L91.599,40.26C89.857,40.26 88.311,39.143 87.763,37.49C87.153,35.647 86.412,33.864 85.55,32.153C84.766,30.593 85.066,28.708 86.3,27.474L89.383,24.391C90.963,22.812 90.963,20.252 89.383,18.672L81.327,10.617C79.748,9.037 77.188,9.037 75.608,10.617L72.526,13.699C71.291,14.934 69.406,15.234 67.847,14.449C66.135,13.588 64.353,12.847 62.51,12.237C60.856,11.689 59.74,10.143 59.74,8.401L59.74,4.044C59.74,1.81 57.93,0 55.696,0L44.303,0C42.07,0 40.26,1.81 40.26,4.044L40.26,8.401C40.26,10.143 39.143,11.689 37.489,12.237C35.647,12.847 33.864,13.588 32.152,14.449C30.593,15.234 28.708,14.934 27.474,13.7L24.391,10.617C22.812,9.037 20.252,9.037 18.672,10.617L10.617,18.673C9.037,20.252 9.037,22.812 10.617,24.392L13.7,27.474C14.934,28.709 15.234,30.594 14.449,32.153C13.588,33.865 12.847,35.647 12.237,37.49C11.85,38.659 10.964,39.559 9.863,39.986C9.406,40.164 9.113,40.461 8.602,40.461L4.245,40.461C2.012,40.461 0.201,42.271 0.201,44.505L0.201,55.495C0.201,57.729 2.012,59.539 4.245,59.539L8.602,59.539C10.345,59.539 11.891,60.857 12.438,62.51C13.048,64.353 13.79,66.135 14.651,67.847C15.435,69.407 15.135,71.292 13.901,72.526L11.019,75.609C9.44,77.188 9.44,79.748 11.019,81.328L18.673,88.981C20.252,90.56 22.812,90.56 24.392,88.981L27.474,85.898C28.708,84.664 30.594,84.364 32.153,85.148C33.865,86.009 36.05,86.952 37.892,87.562C39.546,88.11 40.662,89.656 40.662,91.398L40.662,95.755C40.662,97.989 42.473,99.799 44.706,99.799L55.495,99.799C57.729,99.799 59.539,97.989 59.539,95.755L59.539,91.398C59.539,90.887 59.836,90.594 60.014,90.137C60.441,89.036 61.342,88.15 62.51,87.763C64.353,87.153 66.136,86.412 67.847,85.551C69.407,84.766 71.292,85.067 72.526,86.301L75.609,89.383C77.188,90.963 79.748,90.963 81.328,89.383L89.383,81.328C90.963,79.748 90.963,77.188 89.383,75.609L86.301,72.526C85.067,71.292 84.766,69.407 85.551,67.847C86.412,66.136 87.153,64.353 87.763,62.51C88.311,60.857 89.857,59.74 91.599,59.74L95.956,59.74C98.19,59.74 100,57.93 100,55.696Z" fill="#B6C4CF"/>
<path d="M60.014,90.137C59.837,90.593 59.74,91.088 59.74,91.599L59.74,95.956C59.74,98.189 57.93,100 55.696,100L44.304,100C42.07,100 40.26,98.189 40.26,95.956L40.26,91.599C40.26,89.857 39.143,88.31 37.489,87.762C35.648,87.153 33.865,86.412 32.153,85.551C30.594,84.766 28.708,85.066 27.475,86.3L24.392,89.382C22.813,90.962 20.252,90.962 18.672,89.382L10.616,81.328C9.038,79.748 9.038,77.187 10.616,75.608L13.7,72.525C14.934,71.292 15.233,69.406 14.449,67.847C13.588,66.135 12.847,64.352 12.237,62.511C11.69,60.857 10.143,59.74 8.4,59.74L4.044,59.74C1.811,59.74 0,57.929 0,55.696L0,44.304C0,42.07 1.811,40.259 4.044,40.259L8.4,40.259C8.911,40.259 9.406,40.163 9.863,39.986C9.859,40.237 9.857,40.491 9.857,40.744C9.857,68.026 31.974,90.143 59.256,90.143C59.509,90.143 59.763,90.141 60.014,90.137Z" fill="#9FACBA"/>
<circle cx="50" cy="50" r="33.199" fill="#9FACBA"/>
<circle cx="50" cy="50" r="26.157" fill="#F8F7F7"/>
</g>
<defs>
<filter id="filter1_395" x="-4" y="-4" width="85" height="74" filterUnits="userSpaceOnUse" color-interpolation-filters="sRGB">
<feFlood flood-opacity="0" result="BackgroundImageFix"/>
<feColorMatrix in="SourceAlpha" type="matrix" values="0 0 0 0 0 0 0 0 0 0 0 0 0 0 0 0 0 0 127 0" result="hardAlpha"/>
<feMorphology radius="0" operator="dilate" in="SourceAlpha" result="0dropshadow"/>
<feOffset dx="0" dy="4"/>
<feGaussianBlur stdDeviation="2"/>
<feComposite in2="hardAlpha" operator="out"/>
<feColorMatrix type="matrix" values="0 0 0 0 0 0 0 0 0 0 0 0 0 0 0 0 0 0 0.25 0"/>
<feBlend mode="normal" in2="BackgroundImageFix" result="0dropshadow"/>
<feBlend mode="normal" in="SourceGraphic" in2="0dropshadow" result="shape"/>
</filter>
</defs>
</svg>
