<svg width="70" height="104" viewBox="0 0 70 104" fill="none" xmlns="http://www.w3.org/2000/svg" xmlns:xlink="http://www.w3.org/1999/xlink">
<path d="M16.855,102.245C26.349,102.245 34.054,94.54 34.054,85.047L34.054,67.848L16.855,67.848C7.361,67.848 -0.344,75.553 -0.344,85.047C-0.344,94.54 7.361,102.245 16.855,102.245Z" fill="#0ACF83"/>
<path d="M-0.344,50.651C-0.344,41.157 7.361,33.452 16.855,33.452L34.054,33.452L34.054,67.85L16.855,67.85C7.361,67.85 -0.344,60.145 -0.344,50.651Z" fill="#A259FF"/>
<path d="M-0.344,16.252C-0.344,6.758 7.361,-0.947 16.855,-0.947L34.054,-0.947L34.054,33.451L16.855,33.451C7.361,33.451 -0.344,25.746 -0.344,16.252Z" fill="#F24E1E"/>
<path d="M34.054,-0.947L51.252,-0.947C60.746,-0.947 68.451,6.758 68.451,16.252C68.451,25.746 60.746,33.451 51.252,33.451L34.054,33.451L34.054,-0.947Z" fill="#FF7262"/>
<path d="M68.451,50.651C68.451,60.145 60.746,67.85 51.252,67.85C41.759,67.85 34.054,60.145 34.054,50.651C34.054,41.157 41.759,33.452 51.252,33.452C60.746,33.452 68.451,41.157 68.451,50.651Z" fill="#1ABCFE"/>
</svg>
