<svg width="90" height="56" viewBox="0 0 90 56" fill="none" xmlns="http://www.w3.org/2000/svg" xmlns:xlink="http://www.w3.org/1999/xlink">
<path d="M81.574,27.55C81.574,32.45 80.316,37.057 78.104,41.067L85.464,51.137L75.686,44.74C70.531,51.374 62.464,55.645 53.395,55.645C37.833,55.645 25.217,43.066 25.217,27.55C25.217,26.951 25.236,26.357 25.273,25.768L15.438,21.994L25.768,21.994C28.354,9.138 39.74,-0.545 53.395,-0.545C68.958,-0.545 81.574,12.033 81.574,27.55Z" fill="#000000"/>
<path d="M44.761,25.558C44.834,25.923 44.858,26.312 44.858,26.677C44.858,27.09 44.809,27.479 44.761,27.868C44.248,31.444 41.345,34.241 37.76,34.678L30.222,34.678L30.222,24.415L33.637,24.415L33.637,31.273L37.491,31.273C39.394,30.982 40.931,29.522 41.321,27.65C41.394,27.333 41.419,27.017 41.419,26.677C41.419,26.385 41.394,26.069 41.345,25.777C41.102,24.658 40.492,23.661 39.565,22.98C39.004,22.566 38.369,22.275 37.686,22.129C37.467,22.08 37.223,22.056 36.979,22.031L15.502,22.031L15.502,18.626L37.394,18.651C39.126,18.772 40.809,19.478 42.126,20.645C43.565,21.91 44.492,23.661 44.761,25.558Z" fill="#FFFFFF"/>
<path d="M56.913,18.626L60.328,18.626L60.328,28.671C60.328,29.96 59.865,31.2 58.987,32.125C58.669,32.465 58.328,32.781 57.938,33.073C56.523,34.119 54.864,34.678 53.083,34.678C51.303,34.678 49.62,34.119 48.229,33.073C47.839,32.781 47.497,32.465 47.156,32.1C46.302,31.176 45.839,29.96 45.839,28.647L45.839,18.626L49.254,18.626L49.254,27.431C49.254,29.474 50.912,31.225 52.937,31.273C52.986,31.273 53.035,31.273 53.083,31.273C53.132,31.273 53.181,31.273 53.23,31.273C55.254,31.225 56.913,29.498 56.913,27.431L56.913,18.626Z" fill="#FFFFFF"/>
<path d="M62.068,33.681L65.971,28.404L68.093,31.273L65.776,34.435L65.58,34.678L61.336,34.678L62.068,33.681ZM88.846,50.035L89.602,51.032L85.357,51.032L85.162,50.789L67.459,26.409L67.459,26.385L62.458,19.624L61.702,18.626L65.971,18.626L66.166,18.87L69.581,23.515L72.996,18.87L73.191,18.626L77.436,18.626L76.704,19.648L71.703,26.385L88.846,50.035Z" fill="#FFFFFF"/>
<path d="M8.624,37.465C7.433,37.465 6.347,37.298 5.389,36.936C4.419,36.575 3.591,36.059 2.892,35.376C2.194,34.705 1.663,33.841 1.288,32.809C0.9,31.777 0.719,30.616 0.719,29.313L0.719,18.426L5.816,18.426L5.816,29.029C5.816,29.726 5.907,30.345 6.101,30.9C6.295,31.454 6.605,31.906 7.045,32.267C7.485,32.628 8.003,32.796 8.624,32.796C9.167,32.796 9.659,32.654 10.099,32.37C10.538,32.086 10.875,31.648 11.134,31.067C11.392,30.5 11.522,29.816 11.522,29.029L11.522,18.426L16.593,18.426L16.593,29.313C16.593,30.964 16.283,32.396 15.688,33.608C15.079,34.821 14.174,35.776 12.971,36.446C11.755,37.13 10.306,37.465 8.624,37.465Z" fill="#000000"/>
<path d="M19.336,37.194L19.336,18.426L24.446,18.426L24.446,37.194L19.336,37.194Z" fill="#000000"/>
<path d="M19.34,23.482L19.329,22.036L24.443,21.994L24.443,25.453L19.34,23.482Z" fill="#FFFFFF"/>
<path d="M16.595,22.434L16.595,22.036L15.516,22.036L16.595,22.434Z" fill="#FFFFFF"/>
</svg>
