<svg width="138" height="136" viewBox="0 0 138 136" fill="none" xmlns="http://www.w3.org/2000/svg" xmlns:xlink="http://www.w3.org/1999/xlink">
<path d="M24.37,0.111L113.247,0.111C126.722,0.111 137.617,11.006 137.617,24.481L137.617,109.918C137.617,123.393 126.722,134.288 113.247,134.288L24.37,134.288C10.895,134.288 0,123.393 0,109.918L0,24.481C0,11.006 10.895,0.111 24.37,0.111Z" fill="#470137"/>
<path d="M72.364,35.373L55.162,63.757L73.51,93.861C73.625,94.09 73.683,94.319 73.625,94.549C73.568,94.778 73.338,94.606 72.994,94.663L59.863,94.663C58.946,94.663 58.315,94.606 57.914,94.033C56.71,91.624 55.448,89.273 54.244,86.865C53.04,84.514 51.721,82.106 50.345,79.64C48.969,77.175 47.593,74.709 46.216,72.186L46.102,72.186C44.898,74.652 43.579,77.117 42.26,79.583C40.941,82.049 39.622,84.514 38.361,86.922C37.042,89.331 35.723,91.796 34.404,94.147C34.175,94.721 33.716,94.778 33.086,94.778L20.471,94.778C20.241,94.778 20.069,94.893 20.069,94.606C20.012,94.377 20.069,94.147 20.184,93.975L38.017,64.732L20.643,35.316C20.471,35.087 20.413,34.857 20.528,34.743C20.643,34.571 20.872,34.513 21.101,34.513L34.118,34.513C34.404,34.513 34.691,34.571 34.921,34.628C35.15,34.743 35.322,34.915 35.494,35.144C36.583,37.61 37.845,40.075 39.164,42.541C40.54,45.007 41.859,47.415 43.292,49.823C44.668,52.231 45.93,54.64 47.134,57.105L47.249,57.105C48.453,54.583 49.714,52.117 50.976,49.709C52.237,47.3 53.556,44.892 54.875,42.484C56.194,40.075 57.455,37.61 58.717,35.259C58.774,35.029 58.889,34.8 59.061,34.685C59.29,34.571 59.519,34.513 59.806,34.571L71.905,34.571C72.192,34.513 72.478,34.685 72.536,34.972C72.593,35.029 72.478,35.259 72.364,35.373Z" fill="#FF61F6"/>
<path d="M98.855,95.867C94.612,95.925 90.369,95.065 86.527,93.287C82.915,91.624 79.933,88.872 77.869,85.489C75.747,81.991 74.715,77.633 74.715,72.415C74.658,68.172 75.747,63.986 77.869,60.316C80.048,56.589 83.201,53.493 86.986,51.429C91,49.193 95.816,48.103 101.493,48.103C101.78,48.103 102.181,48.103 102.697,48.16C103.213,48.218 103.786,48.218 104.475,48.275L104.475,30.156C104.475,29.754 104.647,29.525 105.048,29.525L116.688,29.525C116.975,29.467 117.204,29.697 117.261,29.926C117.261,29.984 117.261,30.041 117.261,30.041L117.261,84.629C117.261,85.661 117.319,86.808 117.376,88.069C117.491,89.273 117.548,90.42 117.606,91.395C117.606,91.796 117.433,92.14 117.032,92.312C114.05,93.574 110.897,94.491 107.686,95.065C104.761,95.581 101.837,95.867 98.855,95.867ZM104.475,84.399L104.475,59.17C103.959,59.055 103.442,58.94 102.926,58.883C102.296,58.826 101.665,58.768 101.034,58.768C98.798,58.768 96.562,59.227 94.555,60.259C92.605,61.234 90.942,62.667 89.681,64.502C88.419,66.337 87.789,68.803 87.789,71.785C87.731,73.791 88.075,75.798 88.763,77.691C89.337,79.239 90.197,80.615 91.344,81.762C92.433,82.794 93.752,83.597 95.243,84.055C96.791,84.571 98.397,84.801 100.002,84.801C100.862,84.801 101.665,84.743 102.41,84.686C103.156,84.743 103.786,84.629 104.475,84.399Z" fill="#FF61F6"/>
</svg>
