<svg width="28" height="28" viewBox="0 0 28 28" fill="none" xmlns="http://www.w3.org/2000/svg" xmlns:xlink="http://www.w3.org/1999/xlink">
<path d="M24.687,2.485L12.052,15.166C11.907,15.083 11.754,15.012 11.597,14.956L3.255,12.133C3.003,12.07 2.779,11.924 2.619,11.719C2.459,11.514 2.372,11.262 2.372,11.001C2.372,10.741 2.459,10.489 2.619,10.284C2.779,10.079 3.003,9.933 3.255,9.87L23.952,2.508C24.087,2.462 24.229,2.439 24.372,2.438C24.478,2.436 24.585,2.452 24.687,2.485Z" fill="#84829A"/>
<path d="M25.492,4.048L18.13,24.768C18.049,25.01 17.891,25.218 17.68,25.361C17.47,25.505 17.218,25.575 16.963,25.562C16.706,25.574 16.452,25.5 16.241,25.352C16.03,25.204 15.874,24.991 15.797,24.745L13.02,16.403C12.964,16.246 12.894,16.093 12.81,15.948L25.515,3.313C25.587,3.555 25.579,3.812 25.492,4.048Z" fill="#84829A"/>
</svg>
