<svg width="92" height="88" viewBox="0 0 92 88" fill="none" xmlns="http://www.w3.org/2000/svg" xmlns:xlink="http://www.w3.org/1999/xlink">
<path d="M79.879,43.365C79.879,46.13 78.293,48.507 75.738,49.567L19.633,72.848C17.32,73.808 14.64,73.431 12.664,71.722C10.73,70.047 9.921,67.465 10.554,64.986L15.548,45.402L16.066,43.365L15.548,41.328L10.554,21.744C9.921,19.265 10.73,16.683 12.664,15.009C14.577,13.354 17.245,12.892 19.633,13.883L75.738,37.164C78.293,38.223 79.879,40.6 79.879,43.365Z" transform="rotate(-60 45.11 43.365)" fill="#FFFFFF"/>
<path d="M23.048,43.393L18.054,62.977C17.421,65.456 18.23,68.038 20.164,69.712C22.14,71.422 24.82,71.798 27.133,70.838L83.238,47.557C85.793,46.498 87.379,44.121 87.379,41.356L23.567,41.356L23.048,43.393Z" transform="rotate(-60 52.61 56.356)" fill="#FFFFFF"/>
<path d="M44.221,51.525C44.221,52.649 43.309,53.562 42.183,53.562L17.734,53.562L18.253,51.525L17.734,49.487L42.183,49.487C43.309,49.487 44.221,50.4 44.221,51.525Z" transform="rotate(-60 30.977 51.525)" fill="url(#pf_0_1_494)"/>
<path d="M18.244,53.426L42.693,53.426C43.819,53.426 44.73,52.513 44.73,51.388L18.763,51.388L18.244,53.426Z" transform="rotate(-60 31.487 52.407)" fill="url(#pf_0_1_495)"/>
<defs>
<linearGradient id="pf_0_1_494" x1="34.815" y1="47.088" x2="20.527" y2="59.911" gradientUnits="userSpaceOnUse">
<stop stop-color="#747DEF"/>
<stop offset="1" stop-color="#5E3BE1"/>
</linearGradient>
<linearGradient id="pf_0_1_495" x1="35.806" y1="48.803" x2="20.527" y2="59.911" gradientUnits="userSpaceOnUse">
<stop stop-color="#747DEF"/>
<stop offset="1" stop-color="#5E3BE1"/>
</linearGradient>
</defs>
</svg>
