<svg width="46" height="44" viewBox="0 0 46 44" fill="none" xmlns="http://www.w3.org/2000/svg" xmlns:xlink="http://www.w3.org/1999/xlink">
<path d="M39.635,20.747C39.635,22.108 38.854,23.278 37.596,23.799L9.979,35.26C8.84,35.732 7.521,35.547 6.548,34.705C5.596,33.881 5.198,32.61 5.509,31.39L7.968,21.75L8.223,20.747L7.968,19.744L5.509,10.104C5.198,8.883 5.596,7.613 6.548,6.788C7.49,5.974 8.803,5.746 9.979,6.234L37.596,17.694C38.854,18.215 39.635,19.386 39.635,20.747Z" transform="rotate(-60 22.52 20.747)" fill="#FFFFFF"/>
<path d="M11.659,20.76L9.201,30.401C8.889,31.621 9.288,32.892 10.24,33.716C11.212,34.557 12.531,34.743 13.67,34.27L41.288,22.81C42.545,22.289 43.326,21.119 43.326,19.757L11.915,19.757L11.659,20.76Z" transform="rotate(-60 26.211 27.141)" fill="#FFFFFF"/>
<path d="M22.082,24.763C22.082,25.317 21.633,25.766 21.079,25.766L9.044,25.766L9.299,24.763L9.044,23.76L21.079,23.76C21.633,23.76 22.082,24.21 22.082,24.763Z" transform="rotate(-60 15.563 24.763)" fill="url(#pf_0_i_125_3322;1_494)"/>
<path d="M9.295,25.699L21.33,25.699C21.884,25.699 22.333,25.25 22.333,24.696L9.55,24.696L9.295,25.699Z" transform="rotate(-60 15.814 25.197)" fill="url(#pf_0_i_125_3322;1_495)"/>
<defs>
<linearGradient id="pf_0_i_125_3322;1_494" x1="17.452" y1="22.579" x2="10.419" y2="28.891" gradientUnits="userSpaceOnUse">
<stop stop-color="#747DEF"/>
<stop offset="1" stop-color="#5E3BE1"/>
</linearGradient>
<linearGradient id="pf_0_i_125_3322;1_495" x1="17.94" y1="23.424" x2="10.419" y2="28.891" gradientUnits="userSpaceOnUse">
<stop stop-color="#747DEF"/>
<stop offset="1" stop-color="#5E3BE1"/>
</linearGradient>
</defs>
</svg>
