<svg width="14" height="16" viewBox="0 0 14 16" fill="none" xmlns="http://www.w3.org/2000/svg" xmlns:xlink="http://www.w3.org/1999/xlink">
<path d="M12.318,1.977L6.098,8.219C6.027,8.178 5.952,8.143 5.874,8.116L1.768,6.726C1.644,6.695 1.534,6.623 1.455,6.522C1.376,6.421 1.333,6.297 1.333,6.169C1.333,6.041 1.376,5.917 1.455,5.816C1.534,5.715 1.644,5.643 1.768,5.612L11.956,1.988C12.023,1.966 12.093,1.954 12.163,1.954C12.215,1.953 12.268,1.961 12.318,1.977L12.318,1.977Z" fill="#84829A"/>
<path d="M12.714,2.746L9.09,12.945C9.05,13.064 8.973,13.167 8.869,13.237C8.765,13.308 8.641,13.343 8.516,13.336C8.389,13.342 8.264,13.306 8.161,13.233C8.057,13.16 7.98,13.055 7.942,12.934L6.575,8.828C6.548,8.75 6.513,8.675 6.472,8.604L12.726,2.384C12.761,2.503 12.757,2.63 12.714,2.746L12.714,2.746Z" fill="#84829A"/>
</svg>
