<svg width="26" height="26" viewBox="0 0 26 26" fill="none" xmlns="http://www.w3.org/2000/svg" xmlns:xlink="http://www.w3.org/1999/xlink">
<path d="M21.448,1.567L10.046,13.011C9.915,12.935 9.778,12.872 9.635,12.821L2.108,10.274C1.88,10.217 1.678,10.085 1.534,9.9C1.389,9.715 1.311,9.487 1.311,9.252C1.311,9.018 1.389,8.79 1.534,8.605C1.678,8.42 1.88,8.288 2.108,8.231L20.784,1.588C20.906,1.547 21.034,1.525 21.163,1.525C21.26,1.523 21.356,1.538 21.448,1.567L21.448,1.567Z" fill="#84829A"/>
<path d="M22.174,2.978L15.531,21.675C15.458,21.893 15.315,22.081 15.125,22.21C14.935,22.34 14.708,22.403 14.478,22.391C14.246,22.402 14.017,22.335 13.826,22.202C13.636,22.069 13.495,21.876 13.425,21.654L10.92,14.127C10.869,13.984 10.806,13.847 10.73,13.716L22.195,2.314C22.26,2.532 22.252,2.765 22.174,2.978L22.174,2.978Z" fill="#84829A"/>
</svg>
