<svg width="82" height="78" viewBox="0 0 82 78" fill="none" xmlns="http://www.w3.org/2000/svg" xmlns:xlink="http://www.w3.org/1999/xlink">
<path d="M72.147,38.495C72.147,40.991 70.716,43.136 68.41,44.092L17.782,65.1C15.694,65.966 13.276,65.626 11.494,64.084C9.748,62.573 9.018,60.243 9.589,58.006L14.095,40.334L14.564,38.495L14.095,36.657L9.589,18.985C9.018,16.748 9.748,14.418 11.494,12.907C13.22,11.413 15.627,10.996 17.782,11.891L68.41,32.899C70.716,33.855 72.147,36 72.147,38.495Z" transform="rotate(-60 40.773 38.495)" fill="#FFFFFF"/>
<path d="M20.863,38.52L16.357,56.193C15.786,58.429 16.516,60.759 18.261,62.27C20.044,63.813 22.462,64.153 24.55,63.286L75.178,42.278C77.484,41.322 78.915,39.177 78.915,36.682L21.331,36.682L20.863,38.52Z" transform="rotate(-60 47.54 50.218)" fill="#FFFFFF"/>
<path d="M39.969,45.858C39.969,46.873 39.147,47.697 38.131,47.697L16.068,47.697L16.536,45.858L16.068,44.02L38.131,44.02C39.147,44.02 39.969,44.844 39.969,45.858Z" transform="rotate(-60 28.019 45.858)" fill="url(#pf_0_i_125_2847;1_494)"/>
<path d="M16.528,47.574L38.591,47.574C39.607,47.574 40.429,46.75 40.429,45.735L16.997,45.735L16.528,47.574Z" transform="rotate(-60 28.479 46.655)" fill="url(#pf_0_i_125_2847;1_495)"/>
<defs>
<linearGradient id="pf_0_i_125_2847;1_494" x1="31.482" y1="41.855" x2="18.588" y2="53.426" gradientUnits="userSpaceOnUse">
<stop stop-color="#747DEF"/>
<stop offset="1" stop-color="#5E3BE1"/>
</linearGradient>
<linearGradient id="pf_0_i_125_2847;1_495" x1="32.376" y1="43.403" x2="18.589" y2="53.426" gradientUnits="userSpaceOnUse">
<stop stop-color="#747DEF"/>
<stop offset="1" stop-color="#5E3BE1"/>
</linearGradient>
</defs>
</svg>
