<svg width="34" height="34" viewBox="0 0 34 34" fill="none" xmlns="http://www.w3.org/2000/svg" xmlns:xlink="http://www.w3.org/1999/xlink">
<path d="M32.136,1.521L18.386,31.521C18.271,31.772 18.076,31.978 17.832,32.107C17.587,32.235 17.307,32.279 17.034,32.232C16.762,32.184 16.513,32.048 16.327,31.843C16.141,31.639 16.027,31.379 16.004,31.104L14.842,17.158L0.896,15.995C0.62,15.973 0.36,15.859 0.156,15.673C-0.048,15.486 -0.184,15.237 -0.232,14.965C-0.28,14.693 -0.236,14.413 -0.107,14.168C0.022,13.923 0.228,13.728 0.479,13.613L30.479,-0.137C30.711,-0.243 30.97,-0.276 31.221,-0.231C31.472,-0.186 31.703,-0.065 31.884,0.116C32.064,0.296 32.185,0.527 32.23,0.778C32.275,1.029 32.242,1.288 32.136,1.52L32.136,1.521Z" fill="#080809"/>
</svg>
