<svg width="16" height="10" viewBox="0 0 16 10" fill="none" xmlns="http://www.w3.org/2000/svg" xmlns:xlink="http://www.w3.org/1999/xlink">
<path d="M-0.42,7.326C-0.805,7.711 -0.805,8.334 -0.42,8.718C-0.036,9.103 0.588,9.103 0.972,8.718L-0.42,7.326ZM7.167,1.131L7.864,0.435L7.167,-0.262L6.471,0.435L7.167,1.131ZM13.363,8.718C13.747,9.103 14.371,9.103 14.755,8.718C15.139,8.334 15.139,7.711 14.755,7.326L13.363,8.718ZM0.972,8.718L7.864,1.827L6.471,0.435L-0.42,7.326L0.972,8.718ZM6.471,1.827L13.363,8.718L14.755,7.326L7.864,0.435L6.471,1.827Z" fill="#BCB7C2"/>
</svg>
