<svg width="26" height="10" viewBox="0 0 26 10" fill="none" xmlns="http://www.w3.org/2000/svg" xmlns:xlink="http://www.w3.org/1999/xlink">
<path d="M2.157,-0.755C1.758,-1.054 1.193,-0.973 0.894,-0.574C0.595,-0.175 0.675,0.39 1.074,0.689L2.157,-0.755ZM23.814,0.689C24.213,0.39 24.294,-0.175 23.995,-0.574C23.696,-0.973 23.13,-1.054 22.731,-0.755L23.814,0.689ZM11.361,7.277L10.82,7.999L11.361,7.277ZM1.074,0.689L10.82,7.999L11.903,6.555L2.157,-0.755L1.074,0.689ZM14.068,7.999L23.814,0.689L22.731,-0.755L12.986,6.555L14.068,7.999ZM10.82,7.999C11.782,8.72 13.106,8.72 14.068,7.999L12.986,6.555C12.665,6.795 12.224,6.795 11.903,6.555L10.82,7.999Z" fill="#39425D"/>
</svg>
