<svg width="22" height="22" viewBox="0 0 22 22" fill="none" xmlns="http://www.w3.org/2000/svg" xmlns:xlink="http://www.w3.org/1999/xlink">
<path d="M21.038,4.531C21.33,4.531 21.569,4.292 21.574,4L21.574,0.661C21.574,0.364 21.335,0.125 21.038,0.125L17.699,0.125C17.407,0.125 17.168,0.364 17.168,0.661L17.168,1.824L4.321,1.824L4.321,0.661C4.321,0.369 4.082,0.13 3.79,0.125L0.451,0.125C0.159,0.125 -0.079,0.364 -0.085,0.661L-0.085,4C-0.085,4.292 0.154,4.531 0.451,4.531L1.614,4.531L1.614,17.378L0.451,17.378C0.159,17.378 -0.079,17.617 -0.085,17.909L-0.085,21.248C-0.085,21.54 0.154,21.779 0.451,21.784L3.79,21.784C4.082,21.784 4.321,21.545 4.321,21.248L4.321,20.085L17.168,20.085L17.168,21.248C17.168,21.54 17.407,21.779 17.699,21.784L21.038,21.784C21.33,21.784 21.569,21.545 21.574,21.248L21.574,17.909C21.574,17.617 21.335,17.378 21.038,17.378L19.875,17.378L19.875,4.531L21.038,4.531ZM0.977,3.469L0.977,1.187L3.26,1.187L3.26,3.469L0.977,3.469ZM3.26,20.722L0.977,20.722L0.977,18.44L3.26,18.44L3.26,20.722ZM17.168,17.909L17.168,19.024L4.321,19.024L4.321,17.909C4.321,17.617 4.082,17.378 3.79,17.378L2.676,17.378L2.676,4.531L3.79,4.531C4.082,4.531 4.321,4.292 4.321,4L4.321,2.885L17.168,2.885L17.168,4C17.168,4.292 17.407,4.531 17.699,4.531L18.814,4.531L18.814,17.378L17.699,17.378C17.407,17.378 17.168,17.617 17.168,17.909ZM20.512,18.44L20.512,20.722L18.23,20.722L18.23,18.44L20.512,18.44ZM18.23,3.469L18.23,1.187L20.512,1.187L20.512,3.469L18.23,3.469Z" transform="rotate(360 10.745 10.954)" fill="#FFFFFF"/>
</svg>
