<svg width="98" height="28" viewBox="0 0 98 28" fill="none" xmlns="http://www.w3.org/2000/svg" xmlns:xlink="http://www.w3.org/1999/xlink">
<path d="M11.201,4.585L6.133,4.585L6.133,6.607L8.833,6.607C8.472,7.574 7.591,8.166 6.249,8.166C4.285,8.166 3.072,6.91 3.072,5.192C3.072,3.416 4.343,2.16 6.047,2.16C7.187,2.16 8.097,2.679 8.516,3.344L10.479,2.217C9.627,0.86 7.996,-0.093 6.061,-0.093C3.087,-0.093 0.762,2.246 0.762,5.177C0.762,8.079 3.043,10.418 6.22,10.418C9.05,10.418 11.201,8.541 11.201,5.452L11.201,4.585Z" fill="#FFFFFF"/>
<path d="M14.092,7.993L14.092,6.202L17.701,6.202L17.701,4.008L14.092,4.008L14.092,2.333L18.062,2.333L18.062,0.109L11.781,0.109L11.781,10.216L18.134,10.216L18.134,7.993L14.092,7.993Z" fill="#FFFFFF"/>
<path d="M25.502,0.109L17.994,0.109L17.994,2.333L20.593,2.333L20.593,10.216L22.903,10.216L22.903,2.333L25.502,2.333L25.502,0.109Z" fill="#FFFFFF"/>
<path d="M28.679,0.109L28.679,10.216L30.989,10.216L30.989,0.109L28.679,0.109Z" fill="#FFFFFF"/>
<path d="M38.789,0.109L31.282,0.109L31.282,2.333L33.88,2.333L33.88,10.216L36.191,10.216L36.191,2.333L38.789,2.333L38.789,0.109Z" fill="#FFFFFF"/>
<path d="M46.789,10.418C49.691,10.418 52.044,8.137 52.044,5.163C52.044,2.188 49.691,-0.093 46.789,-0.093C43.887,-0.093 41.533,2.188 41.533,5.163C41.533,8.137 43.887,10.418 46.789,10.418ZM46.789,8.166C45.143,8.166 43.843,6.968 43.843,5.163C43.843,3.358 45.143,2.16 46.789,2.16C48.435,2.16 49.734,3.358 49.734,5.163C49.734,6.968 48.435,8.166 46.789,8.166Z" fill="#FFFFFF"/>
<path d="M58.254,0.109L58.254,5.596L54.356,0.109L52.623,0.109L52.623,10.216L54.933,10.216L54.933,4.73L58.831,10.216L60.564,10.216L60.564,0.109L58.254,0.109Z" fill="#FFFFFF"/>
<path d="M11.201,21.752L11.201,22.142C11.201,23.403 10.753,24.467 9.858,25.333C8.963,26.19 7.784,26.618 6.321,26.618C4.781,26.618 3.51,26.117 2.509,25.116C1.508,24.106 1.008,22.869 1.008,21.406C1.008,19.943 1.503,18.711 2.495,17.71C3.486,16.699 4.742,16.194 6.263,16.194C7.187,16.194 8.034,16.415 8.804,16.858C9.584,17.3 10.186,17.892 10.609,18.634L9.93,19.038C9.594,18.403 9.093,17.892 8.429,17.507C7.774,17.122 7.052,16.93 6.263,16.93C4.954,16.93 3.876,17.363 3.029,18.229C2.192,19.086 1.773,20.145 1.773,21.406C1.773,22.667 2.196,23.73 3.043,24.597C3.89,25.453 4.983,25.882 6.321,25.882C7.505,25.882 8.463,25.559 9.194,24.914C9.926,24.269 10.335,23.456 10.421,22.474L6.133,22.474L6.133,21.752L11.201,21.752Z" fill="#FFFFFF"/>
<path d="M21.45,25.102C20.439,26.113 19.207,26.618 17.753,26.618C16.3,26.618 15.068,26.113 14.057,25.102C13.047,24.082 12.541,22.85 12.541,21.406C12.541,19.962 13.047,18.735 14.057,17.724C15.068,16.704 16.3,16.194 17.753,16.194C19.207,16.194 20.439,16.704 21.45,17.724C22.46,18.735 22.966,19.962 22.966,21.406C22.966,22.85 22.46,24.082 21.45,25.102ZM14.592,24.582C15.458,25.448 16.512,25.882 17.753,25.882C18.995,25.882 20.044,25.448 20.901,24.582C21.767,23.706 22.2,22.647 22.2,21.406C22.2,20.164 21.767,19.11 20.901,18.244C20.044,17.368 18.995,16.93 17.753,16.93C16.512,16.93 15.458,17.368 14.592,18.244C13.735,19.11 13.307,20.164 13.307,21.406C13.307,22.647 13.735,23.706 14.592,24.582Z" fill="#FFFFFF"/>
<path d="M33.237,25.102C32.226,26.113 30.994,26.618 29.541,26.618C28.087,26.618 26.855,26.113 25.845,25.102C24.834,24.082 24.329,22.85 24.329,21.406C24.329,19.962 24.834,18.735 25.845,17.724C26.855,16.704 28.087,16.194 29.541,16.194C30.994,16.194 32.226,16.704 33.237,17.724C34.248,18.735 34.753,19.962 34.753,21.406C34.753,22.85 34.248,24.082 33.237,25.102ZM26.379,24.582C27.245,25.448 28.299,25.882 29.541,25.882C30.783,25.882 31.832,25.448 32.688,24.582C33.555,23.706 33.988,22.647 33.988,21.406C33.988,20.164 33.555,19.11 32.688,18.244C31.832,17.368 30.783,16.93 29.541,16.93C28.299,16.93 27.245,17.368 26.379,18.244C25.522,19.11 25.094,20.164 25.094,21.406C25.094,22.647 25.522,23.706 26.379,24.582Z" fill="#FFFFFF"/>
<path d="M46.31,21.752L46.31,22.142C46.31,23.403 45.862,24.467 44.967,25.333C44.072,26.19 42.893,26.618 41.429,26.618C39.889,26.618 38.619,26.117 37.618,25.116C36.617,24.106 36.116,22.869 36.116,21.406C36.116,19.943 36.612,18.711 37.603,17.71C38.595,16.699 39.851,16.194 41.372,16.194C42.296,16.194 43.143,16.415 43.913,16.858C44.692,17.3 45.294,17.892 45.718,18.634L45.039,19.038C44.702,18.403 44.202,17.892 43.537,17.507C42.883,17.122 42.161,16.93 41.372,16.93C40.063,16.93 38.985,17.363 38.138,18.229C37.3,19.086 36.881,20.145 36.881,21.406C36.881,22.667 37.305,23.73 38.152,24.597C38.999,25.453 40.091,25.882 41.429,25.882C42.613,25.882 43.571,25.559 44.303,24.914C45.034,24.269 45.443,23.456 45.53,22.474L41.242,22.474L41.242,21.752L46.31,21.752Z" fill="#FFFFFF"/>
<path d="M48.993,25.737L53.757,25.737L53.757,26.459L48.227,26.459L48.227,16.352L48.993,16.352L48.993,25.737Z" fill="#FFFFFF"/>
<path d="M56.113,25.737L61.166,25.737L61.166,26.459L55.348,26.459L55.348,16.352L61.094,16.352L61.094,17.074L56.113,17.074L56.113,21.001L60.733,21.001L60.733,21.723L56.113,21.723L56.113,25.737Z" fill="#FFFFFF"/>
<path d="M70.332,16.352C71.237,16.352 71.987,16.651 72.584,17.248C73.181,17.844 73.479,18.59 73.479,19.485C73.479,20.381 73.181,21.127 72.584,21.723C71.987,22.31 71.237,22.604 70.332,22.604L67.661,22.604L67.661,26.459L66.896,26.459L66.896,16.352L70.332,16.352ZM70.332,21.882C71.025,21.882 71.593,21.656 72.036,21.204C72.488,20.751 72.714,20.178 72.714,19.485C72.714,18.783 72.488,18.205 72.036,17.753C71.593,17.3 71.025,17.074 70.332,17.074L67.661,17.074L67.661,21.882L70.332,21.882Z" fill="#FFFFFF"/>
<path d="M76.135,25.737L80.899,25.737L80.899,26.459L75.369,26.459L75.369,16.352L76.135,16.352L76.135,25.737Z" fill="#FFFFFF"/>
<path d="M89.572,26.459L88.59,23.889L83.523,23.889L82.541,26.459L81.732,26.459L85.66,16.352L86.468,16.352L90.381,26.459L89.572,26.459ZM83.811,23.167L88.316,23.167L86.064,17.291L83.811,23.167Z" fill="#FFFFFF"/>
<path d="M97.572,16.352L93.89,22.301L93.89,26.459L93.125,26.459L93.125,22.301L89.443,16.352L90.31,16.352L93.515,21.565L96.706,16.352L97.572,16.352Z" fill="#FFFFFF"/>
</svg>
