<svg width="6" height="6" viewBox="0 0 6 6" fill="none" xmlns="http://www.w3.org/2000/svg" xmlns:xlink="http://www.w3.org/1999/xlink">
<path d="M2.539,-0.849C2.003,-0.849 1.48,-0.69 1.035,-0.392C0.589,-0.095 0.243,0.328 0.038,0.823C-0.167,1.317 -0.221,1.862 -0.116,2.387C-0.012,2.912 0.246,3.394 0.624,3.773C1.003,4.151 1.485,4.409 2.011,4.514C2.536,4.618 3.08,4.565 3.575,4.36C4.069,4.155 4.492,3.808 4.79,3.363C5.087,2.917 5.246,2.394 5.246,1.859C5.246,1.141 4.961,0.452 4.453,-0.056C3.945,-0.563 3.257,-0.849 2.539,-0.849ZM2.539,3.212C2.271,3.212 2.009,3.133 1.787,2.984C1.564,2.835 1.391,2.624 1.288,2.377C1.186,2.129 1.159,1.857 1.211,1.594C1.263,1.332 1.392,1.091 1.582,0.901C1.771,0.712 2.012,0.583 2.275,0.531C2.537,0.479 2.809,0.506 3.057,0.608C3.304,0.71 3.515,0.884 3.664,1.107C3.813,1.329 3.892,1.591 3.892,1.859C3.892,2.218 3.75,2.562 3.496,2.816C3.242,3.07 2.898,3.212 2.539,3.212Z" fill="#FFFFFF"/>
</svg>
