<svg width="22" height="18" viewBox="0 0 22 18" fill="none" xmlns="http://www.w3.org/2000/svg" xmlns:xlink="http://www.w3.org/1999/xlink">
<path d="M21.821,7.728L21.821,6.99C21.82,6.697 21.703,6.415 21.495,6.208C21.288,6 21.007,5.883 20.713,5.882L19.251,5.882L18.487,3.202L18.258,2.29C18.198,2.051 18.06,1.838 17.865,1.686C17.67,1.535 17.431,1.452 17.184,1.452L14.068,1.452L14.068,-0.025C14.067,-0.22 13.989,-0.408 13.851,-0.546C13.712,-0.684 13.525,-0.762 13.329,-0.763L8.161,-0.763C7.965,-0.762 7.778,-0.684 7.639,-0.546C7.501,-0.408 7.423,-0.22 7.422,-0.025L7.422,1.452L4.306,1.452C4.06,1.452 3.82,1.535 3.625,1.686C3.43,1.838 3.292,2.051 3.232,2.29L3.007,3.198L2.239,5.882L0.777,5.882C0.484,5.883 0.202,6 -0.005,6.208C-0.213,6.415 -0.33,6.697 -0.331,6.99L-0.331,7.728C-0.33,7.915 -0.282,8.099 -0.191,8.263C-0.1,8.426 0.031,8.564 0.19,8.662C-0.144,9.005 -0.331,9.465 -0.331,9.944L-0.331,14.374C-0.33,14.529 -0.297,14.682 -0.233,14.823C-0.17,14.964 -0.077,15.09 0.039,15.193L0.039,16.589C0.039,16.882 0.156,17.164 0.364,17.371C0.572,17.579 0.853,17.696 1.146,17.696L4.1,17.696C4.393,17.696 4.674,17.579 4.882,17.371C5.089,17.164 5.206,16.882 5.207,16.589L5.207,15.481L16.283,15.481L16.283,16.589C16.284,16.882 16.401,17.164 16.608,17.371C16.816,17.579 17.097,17.696 17.39,17.696L20.344,17.696C20.637,17.696 20.919,17.579 21.126,17.371C21.334,17.164 21.451,16.882 21.451,16.589L21.451,15.193C21.567,15.09 21.66,14.964 21.723,14.823C21.787,14.682 21.82,14.529 21.821,14.374L21.821,9.944C21.821,9.465 21.634,9.005 21.3,8.662C21.459,8.564 21.59,8.426 21.681,8.263C21.772,8.099 21.82,7.915 21.821,7.728L21.821,7.728ZM8.161,-0.025L13.329,-0.025L13.329,1.452L8.161,1.452L8.161,-0.025ZM3.948,2.471C3.968,2.391 4.014,2.32 4.079,2.269C4.144,2.218 4.224,2.191 4.306,2.191L17.184,2.191C17.266,2.191 17.346,2.218 17.411,2.269C17.476,2.32 17.522,2.391 17.542,2.471L17.656,2.929L3.834,2.929L3.948,2.471ZM3.638,3.667L17.852,3.667L19.115,8.098L8.497,8.098C8.41,7.582 8.143,7.113 7.744,6.775C7.344,6.437 6.838,6.252 6.315,6.252C5.792,6.252 5.285,6.437 4.886,6.775C4.486,7.113 4.22,7.582 4.133,8.098L2.376,8.098L3.638,3.667ZM7.74,8.098L4.89,8.098C4.97,7.781 5.154,7.5 5.412,7.299C5.67,7.099 5.988,6.99 6.315,6.99C6.642,6.99 6.959,7.099 7.217,7.299C7.475,7.5 7.659,7.781 7.74,8.098L7.74,8.098ZM0.408,6.99C0.408,6.892 0.447,6.798 0.516,6.729C0.585,6.66 0.679,6.621 0.777,6.621L2.029,6.621L1.608,8.098L0.777,8.098C0.679,8.098 0.585,8.059 0.516,7.989C0.447,7.92 0.408,7.826 0.408,7.728L0.408,6.99ZM4.469,16.589C4.469,16.687 4.43,16.781 4.361,16.85C4.291,16.919 4.198,16.958 4.1,16.958L1.146,16.958C1.048,16.958 0.954,16.919 0.885,16.85C0.816,16.781 0.777,16.687 0.777,16.589L0.777,15.481L4.469,15.481L4.469,16.589ZM20.713,16.589C20.713,16.687 20.674,16.781 20.605,16.85C20.536,16.919 20.442,16.958 20.344,16.958L17.39,16.958C17.293,16.958 17.199,16.919 17.129,16.85C17.06,16.781 17.021,16.687 17.021,16.589L17.021,15.481L20.713,15.481L20.713,16.589ZM21.082,14.374C21.082,14.472 21.043,14.566 20.974,14.635C20.905,14.704 20.811,14.743 20.713,14.743L0.777,14.743C0.679,14.743 0.585,14.704 0.516,14.635C0.447,14.566 0.408,14.472 0.408,14.374L0.408,14.005L21.082,14.005L21.082,14.374ZM21.082,13.266L0.408,13.266L0.408,9.944C0.409,9.65 0.526,9.369 0.733,9.161C0.941,8.954 1.222,8.837 1.515,8.836L19.975,8.836C20.268,8.837 20.549,8.954 20.757,9.161C20.964,9.369 21.081,9.65 21.082,9.944L21.082,13.266ZM21.082,7.728C21.082,7.826 21.043,7.92 20.974,7.989C20.905,8.059 20.811,8.098 20.713,8.098L19.882,8.098L19.462,6.621L20.713,6.621C20.811,6.621 20.905,6.66 20.974,6.729C21.043,6.798 21.082,6.892 21.082,6.99L21.082,7.728Z" fill="#FFFFFF"/>
</svg>
