<svg width="28" height="26" viewBox="0 0 28 26" fill="none" xmlns="http://www.w3.org/2000/svg" xmlns:xlink="http://www.w3.org/1999/xlink">
<path d="M25.298,-0.48C25.158,-0.48 25.019,-0.448 24.894,-0.385L18.056,3.035L10.323,-0.402C10.311,-0.408 10.296,-0.409 10.283,-0.414C10.248,-0.427 10.212,-0.438 10.176,-0.446C10.14,-0.456 10.104,-0.464 10.067,-0.469C9.994,-0.475 9.92,-0.475 9.847,-0.469C9.81,-0.464 9.774,-0.456 9.738,-0.446C9.702,-0.438 9.666,-0.427 9.631,-0.414C9.618,-0.409 9.603,-0.408 9.591,-0.402L1.469,3.207C1.143,3.352 0.933,3.675 0.933,4.032L0.933,23.884C0.934,24.19 1.088,24.474 1.344,24.641C1.6,24.807 1.923,24.833 2.202,24.709L9.957,21.262L17.712,24.709C17.726,24.714 17.74,24.709 17.754,24.717C17.972,24.815 18.223,24.809 18.437,24.702C18.451,24.696 18.467,24.702 18.482,24.692L25.701,21.082C26.007,20.93 26.2,20.617 26.2,20.275L26.2,0.423C26.2,-0.076 25.796,-0.48 25.298,-0.48ZM9.055,19.688L2.738,22.496L2.738,4.619L9.055,1.811L9.055,19.688ZM17.176,22.496L10.859,19.688L10.859,1.811L17.176,4.619L17.176,22.496ZM24.395,19.717L18.981,22.424L18.981,4.59L24.395,1.883L24.395,19.717L24.395,19.717Z" fill="#84829A"/>
</svg>
