<svg width="36" height="34" viewBox="0 0 36 34" fill="none" xmlns="http://www.w3.org/2000/svg" xmlns:xlink="http://www.w3.org/1999/xlink">
<path d="M32.588,3.212C30.721,1.206 28.105,0.064 25.364,0.06C22.621,0.063 20.002,1.204 18.132,3.211L17.495,3.884L16.857,3.211C13.147,-0.782 6.902,-1.012 2.909,2.699C2.732,2.863 2.561,3.034 2.396,3.211C-1.54,7.457 -1.54,14.018 2.396,18.263L16.558,33.198C17.048,33.715 17.865,33.737 18.382,33.247C18.399,33.231 18.415,33.215 18.431,33.198L32.588,18.263C36.524,14.018 36.524,7.457 32.588,3.212ZM30.721,16.487L30.72,16.487L17.495,30.436L4.268,16.487C1.261,13.243 1.261,8.23 4.268,4.986C6.999,2.027 11.612,1.841 14.571,4.572C14.715,4.704 14.853,4.842 14.986,4.986L16.558,6.645C17.076,7.16 17.913,7.16 18.431,6.645L20.004,4.987C22.735,2.028 27.347,1.842 30.307,4.573C30.451,4.706 30.589,4.844 30.721,4.987C33.754,8.237 33.777,13.258 30.721,16.487Z" fill="#4152CA"/>
</svg>
