<svg width="8" height="6" viewBox="0 0 8 6" fill="none" xmlns="http://www.w3.org/2000/svg" xmlns:xlink="http://www.w3.org/1999/xlink">
<path d="M3.467,-0.849C2.932,-0.849 2.408,-0.69 1.963,-0.392C1.518,-0.095 1.171,0.328 0.966,0.823C0.761,1.317 0.708,1.862 0.812,2.387C0.916,2.912 1.174,3.394 1.553,3.773C1.932,4.151 2.414,4.409 2.939,4.514C3.464,4.618 4.008,4.565 4.503,4.36C4.998,4.155 5.421,3.808 5.718,3.363C6.016,2.917 6.174,2.394 6.174,1.859C6.174,1.141 5.889,0.452 5.381,-0.056C4.874,-0.563 4.185,-0.849 3.467,-0.849ZM3.467,3.212C3.199,3.212 2.938,3.133 2.715,2.984C2.493,2.835 2.319,2.624 2.217,2.377C2.114,2.129 2.087,1.857 2.14,1.594C2.192,1.332 2.321,1.091 2.51,0.901C2.699,0.712 2.941,0.583 3.203,0.531C3.466,0.479 3.738,0.506 3.985,0.608C4.233,0.71 4.444,0.884 4.593,1.107C4.741,1.329 4.821,1.591 4.821,1.859C4.821,2.218 4.678,2.562 4.424,2.816C4.17,3.07 3.826,3.212 3.467,3.212Z" fill="#FFFFFF"/>
</svg>
