<svg width="30" height="24" viewBox="0 0 30 24" fill="none" xmlns="http://www.w3.org/2000/svg" xmlns:xlink="http://www.w3.org/1999/xlink">
<path d="M28.122,2.663C27.048,3.134 25.904,3.447 24.711,3.598C25.938,2.865 26.875,1.714 27.315,0.326C26.171,1.008 24.907,1.49 23.561,1.759C22.474,0.602 20.926,-0.114 19.237,-0.114C15.959,-0.114 13.321,2.546 13.321,5.807C13.321,6.276 13.36,6.728 13.458,7.157C8.536,6.917 4.181,4.558 1.256,0.965C0.745,1.851 0.445,2.865 0.445,3.957C0.445,6.008 1.501,7.825 3.075,8.877C2.124,8.859 1.191,8.583 0.4,8.148C0.4,8.166 0.4,8.19 0.4,8.213C0.4,11.09 2.452,13.479 5.143,14.03C4.661,14.162 4.136,14.225 3.591,14.225C3.212,14.225 2.829,14.203 2.47,14.124C3.237,16.468 5.414,18.192 8.002,18.248C5.988,19.823 3.43,20.772 0.662,20.772C0.176,20.772 -0.289,20.751 -0.755,20.691C1.867,22.382 4.975,23.348 8.327,23.348C19.22,23.348 25.176,14.324 25.176,6.502C25.176,6.24 25.167,5.988 25.155,5.737C26.329,4.903 27.317,3.862 28.122,2.663Z" fill="#080809"/>
</svg>
