<svg width="110" height="34" viewBox="0 0 110 34" fill="none" xmlns="http://www.w3.org/2000/svg" xmlns:xlink="http://www.w3.org/1999/xlink">
<path d="M6.06,8L8.16,8L5.304,-0.4L2.856,-0.4L0,8L2.1,8L2.52,6.68L5.64,6.68L6.06,8ZM3.096,4.88L4.08,1.796L5.064,4.88L3.096,4.88Z" fill="#FFFFFF"/>
<path d="M12.41,2L11.162,5.804L9.914,2L7.922,2L10.142,8L12.182,8L14.402,2L12.41,2Z" fill="#FFFFFF"/>
<path d="M19.184,2L19.184,2.564C18.788,2.108 18.2,1.832 17.396,1.832C15.824,1.832 14.528,3.212 14.528,5C14.528,6.788 15.824,8.168 17.396,8.168C18.2,8.168 18.788,7.892 19.184,7.436L19.184,8L20.984,8L20.984,2L19.184,2ZM17.756,6.464C16.928,6.464 16.328,5.9 16.328,5C16.328,4.1 16.928,3.536 17.756,3.536C18.584,3.536 19.184,4.1 19.184,5C19.184,5.9 18.584,6.464 17.756,6.464Z" fill="#FFFFFF"/>
<path d="M22.305,8L24.105,8L24.105,-0.76L22.305,-0.76L22.305,8Z" fill="#FFFFFF"/>
<path d="M26.322,1.472C26.91,1.472 27.402,0.98 27.402,0.392C27.402,-0.196 26.91,-0.688 26.322,-0.688C25.734,-0.688 25.242,-0.196 25.242,0.392C25.242,0.98 25.734,1.472 26.322,1.472ZM25.422,8L27.222,8L27.222,2L25.422,2L25.422,8Z" fill="#FFFFFF"/>
<path d="M32.127,1.832C31.323,1.832 30.735,2.108 30.339,2.564L30.339,-0.4L28.539,-0.4L28.539,8L30.339,8L30.339,7.436C30.735,7.892 31.323,8.168 32.127,8.168C33.699,8.168 34.995,6.788 34.995,5C34.995,3.212 33.699,1.832 32.127,1.832ZM31.767,6.464C30.939,6.464 30.339,5.9 30.339,5C30.339,4.1 30.939,3.536 31.767,3.536C32.595,3.536 33.195,4.1 33.195,5C33.195,5.9 32.595,6.464 31.767,6.464Z" fill="#FFFFFF"/>
<path d="M36.015,8L37.815,8L37.815,-0.76L36.015,-0.76L36.015,8Z" fill="#FFFFFF"/>
<path d="M40.741,5.72L45.001,5.72C45.049,5.492 45.073,5.252 45.073,5C45.073,3.188 43.777,1.832 42.025,1.832C40.129,1.832 38.833,3.212 38.833,5C38.833,6.788 40.105,8.168 42.157,8.168C43.297,8.168 44.185,7.748 44.773,6.932L43.333,6.104C43.093,6.368 42.673,6.56 42.181,6.56C41.521,6.56 40.969,6.344 40.741,5.72ZM40.705,4.376C40.873,3.764 41.329,3.428 42.013,3.428C42.553,3.428 43.093,3.68 43.285,4.376L40.705,4.376Z" fill="#FFFFFF"/>
<path d="M51.974,8.168C53.738,8.168 55.154,6.788 55.154,5C55.154,3.212 53.738,1.832 51.974,1.832C50.21,1.832 48.794,3.212 48.794,5C48.794,6.788 50.21,8.168 51.974,8.168ZM51.974,6.416C51.194,6.416 50.594,5.852 50.594,5C50.594,4.148 51.194,3.584 51.974,3.584C52.754,3.584 53.354,4.148 53.354,5C53.354,5.852 52.754,6.416 51.974,6.416Z" fill="#FFFFFF"/>
<path d="M59.688,1.832C58.896,1.832 58.296,2.12 57.972,2.564L57.972,2L56.172,2L56.172,8L57.972,8L57.972,4.724C57.972,3.872 58.428,3.488 59.088,3.488C59.664,3.488 60.132,3.836 60.132,4.58L60.132,8L61.932,8L61.932,4.316C61.932,2.696 60.9,1.832 59.688,1.832Z" fill="#FFFFFF"/>
<path d="M69.684,3.728L69.684,2L68.448,2L68.448,0.32L66.648,0.86L66.648,2L65.688,2L65.688,3.728L66.648,3.728L66.648,5.852C66.648,7.532 67.332,8.24 69.684,8L69.684,6.368C68.892,6.416 68.448,6.368 68.448,5.852L68.448,3.728L69.684,3.728Z" fill="#FFFFFF"/>
<path d="M74.219,1.832C73.427,1.832 72.827,2.12 72.503,2.564L72.503,-0.4L70.703,-0.4L70.703,8L72.503,8L72.503,4.724C72.503,3.872 72.959,3.488 73.619,3.488C74.195,3.488 74.663,3.836 74.663,4.58L74.663,8L76.463,8L76.463,4.316C76.463,2.696 75.431,1.832 74.219,1.832Z" fill="#FFFFFF"/>
<path d="M79.307,5.72L83.567,5.72C83.615,5.492 83.639,5.252 83.639,5C83.639,3.188 82.343,1.832 80.591,1.832C78.695,1.832 77.399,3.212 77.399,5C77.399,6.788 78.671,8.168 80.723,8.168C81.863,8.168 82.751,7.748 83.339,6.932L81.899,6.104C81.659,6.368 81.239,6.56 80.747,6.56C80.087,6.56 79.535,6.344 79.307,5.72ZM79.271,4.376C79.439,3.764 79.895,3.428 80.579,3.428C81.119,3.428 81.659,3.68 81.851,4.376L79.271,4.376Z" fill="#FFFFFF"/>
<path d="M10.1,30L13.6,30L8.84,16L4.76,16L0,30L3.5,30L4.2,27.8L9.4,27.8L10.1,30ZM5.16,24.8L6.8,19.66L8.44,24.8L5.16,24.8Z" fill="#FFFFFF"/>
<path d="M20.674,19.72C19.334,19.72 18.354,20.18 17.694,20.94L17.694,20L14.694,20L14.694,34L17.694,34L17.694,29.06C18.354,29.82 19.334,30.28 20.674,30.28C23.294,30.28 25.454,27.98 25.454,25C25.454,22.02 23.294,19.72 20.674,19.72ZM20.074,27.44C18.694,27.44 17.694,26.5 17.694,25C17.694,23.5 18.694,22.56 20.074,22.56C21.454,22.56 22.454,23.5 22.454,25C22.454,26.5 21.454,27.44 20.074,27.44Z" fill="#FFFFFF"/>
<path d="M33.135,19.72C31.795,19.72 30.815,20.18 30.155,20.94L30.155,20L27.155,20L27.155,34L30.155,34L30.155,29.06C30.815,29.82 31.795,30.28 33.135,30.28C35.755,30.28 37.915,27.98 37.915,25C37.915,22.02 35.755,19.72 33.135,19.72ZM32.535,27.44C31.155,27.44 30.155,26.5 30.155,25C30.155,23.5 31.155,22.56 32.535,22.56C33.915,22.56 34.915,23.5 34.915,25C34.915,26.5 33.915,27.44 32.535,27.44Z" fill="#FFFFFF"/>
<path d="M39.616,30L42.616,30L42.616,15.4L39.616,15.4L39.616,30Z" fill="#FFFFFF"/>
<path d="M47.491,26.2L54.591,26.2C54.671,25.82 54.711,25.42 54.711,25C54.711,21.98 52.551,19.72 49.631,19.72C46.471,19.72 44.311,22.02 44.311,25C44.311,27.98 46.431,30.28 49.851,30.28C51.751,30.28 53.231,29.58 54.211,28.22L51.811,26.84C51.411,27.28 50.711,27.6 49.891,27.6C48.791,27.6 47.871,27.24 47.491,26.2ZM47.431,23.96C47.711,22.94 48.471,22.38 49.611,22.38C50.511,22.38 51.411,22.8 51.731,23.96L47.431,23.96Z" fill="#FFFFFF"/>
<path d="M66.412,30.28C69.452,30.28 71.613,28.68 71.613,25.98C71.613,23.02 69.233,22.28 67.113,21.64C64.933,20.98 64.592,20.54 64.592,19.9C64.592,19.34 65.092,18.84 66.092,18.84C67.372,18.84 68.032,19.46 68.512,20.46L71.213,18.88C70.193,16.82 68.393,15.72 66.092,15.72C63.673,15.72 61.393,17.28 61.393,19.98C61.393,22.66 63.432,23.66 65.512,24.24C67.612,24.82 68.412,25.16 68.412,26.02C68.412,26.56 68.032,27.16 66.512,27.16C64.932,27.16 64.073,26.38 63.572,25.22L60.812,26.82C61.592,28.88 63.472,30.28 66.412,30.28Z" fill="#FFFFFF"/>
<path d="M78.679,22.88L78.679,20L76.619,20L76.619,17.2L73.619,18.1L73.619,20L72.019,20L72.019,22.88L73.619,22.88L73.619,26.42C73.619,29.22 74.759,30.4 78.679,30L78.679,27.28C77.359,27.36 76.619,27.28 76.619,26.42L76.619,22.88L78.679,22.88Z" fill="#FFFFFF"/>
<path d="M84.982,30.28C87.922,30.28 90.282,27.98 90.282,25C90.282,22.02 87.922,19.72 84.982,19.72C82.042,19.72 79.682,22.02 79.682,25C79.682,27.98 82.042,30.28 84.982,30.28ZM84.982,27.36C83.682,27.36 82.682,26.42 82.682,25C82.682,23.58 83.682,22.64 84.982,22.64C86.282,22.64 87.282,23.58 87.282,25C87.282,26.42 86.282,27.36 84.982,27.36Z" fill="#FFFFFF"/>
<path d="M94.979,21.78L94.979,20L91.979,20L91.979,30L94.979,30L94.979,25.48C94.979,23.5 96.739,23 97.979,23.2L97.979,19.8C96.719,19.8 95.379,20.44 94.979,21.78Z" fill="#FFFFFF"/>
<path d="M101.768,26.2L108.868,26.2C108.948,25.82 108.988,25.42 108.988,25C108.988,21.98 106.828,19.72 103.908,19.72C100.748,19.72 98.588,22.02 98.588,25C98.588,27.98 100.708,30.28 104.128,30.28C106.028,30.28 107.508,29.58 108.488,28.22L106.088,26.84C105.688,27.28 104.988,27.6 104.168,27.6C103.068,27.6 102.148,27.24 101.768,26.2ZM101.708,23.96C101.988,22.94 102.748,22.38 103.888,22.38C104.788,22.38 105.688,22.8 106.008,23.96L101.708,23.96Z" fill="#FFFFFF"/>
</svg>
