<svg width="30" height="30" viewBox="0 0 30 30" fill="none" xmlns="http://www.w3.org/2000/svg" xmlns:xlink="http://www.w3.org/1999/xlink">
<path d="M28.602,1.541L16.194,28.612C16.091,28.839 15.915,29.025 15.694,29.141C15.473,29.257 15.22,29.297 14.974,29.254C14.729,29.211 14.504,29.087 14.336,28.903C14.168,28.719 14.065,28.484 14.045,28.236L12.996,15.651L0.411,14.602C0.163,14.582 -0.072,14.479 -0.256,14.311C-0.44,14.143 -0.564,13.918 -0.607,13.673C-0.65,13.427 -0.61,13.174 -0.494,12.953C-0.378,12.733 -0.192,12.557 0.035,12.453L27.106,0.045C27.316,-0.051 27.549,-0.081 27.776,-0.04C28.003,0.001 28.211,0.11 28.374,0.273C28.537,0.435 28.646,0.644 28.687,0.871C28.727,1.097 28.698,1.331 28.602,1.54L28.602,1.541Z" fill="#080809"/>
</svg>
