<svg width="30" height="30" viewBox="0 0 30 30" fill="none" xmlns="http://www.w3.org/2000/svg" xmlns:xlink="http://www.w3.org/1999/xlink">
<path d="M28.931,1.541L16.523,28.612C16.419,28.839 16.243,29.025 16.022,29.141C15.802,29.257 15.549,29.297 15.303,29.254C15.057,29.211 14.833,29.087 14.665,28.903C14.496,28.719 14.394,28.484 14.373,28.236L13.324,15.651L0.74,14.602C0.491,14.582 0.256,14.479 0.072,14.311C-0.112,14.143 -0.235,13.918 -0.278,13.673C-0.321,13.427 -0.281,13.174 -0.165,12.953C-0.049,12.733 0.137,12.557 0.363,12.453L27.435,0.045C27.644,-0.051 27.878,-0.081 28.105,-0.04C28.331,0.001 28.54,0.11 28.703,0.273C28.865,0.435 28.974,0.644 29.015,0.871C29.056,1.097 29.026,1.331 28.93,1.54L28.931,1.541Z" fill="#080809"/>
</svg>
