<svg width="44" height="44" viewBox="0 0 44 44" fill="none" xmlns="http://www.w3.org/2000/svg" xmlns:xlink="http://www.w3.org/1999/xlink">
<path d="M42.911,8.951C43.504,8.951 43.989,8.466 44,7.873L44,1.089C44,0.485 43.515,0 42.911,0L36.127,0C35.534,0 35.049,0.485 35.049,1.089L35.049,3.451L8.951,3.451L8.951,1.089C8.951,0.496 8.466,0.011 7.873,0L1.089,0C0.496,0 0.011,0.485 0,1.089L0,7.873C0,8.466 0.485,8.951 1.089,8.951L3.451,8.951L3.451,35.049L1.089,35.049C0.496,35.049 0.011,35.534 0,36.127L0,42.911C0,43.504 0.485,43.989 1.089,44L7.873,44C8.466,44 8.951,43.515 8.951,42.911L8.951,40.549L35.049,40.549L35.049,42.911C35.049,43.504 35.534,43.989 36.127,44L42.911,44C43.504,44 43.989,43.515 44,42.911L44,36.127C44,35.534 43.515,35.049 42.911,35.049L40.549,35.049L40.549,8.951L42.911,8.951ZM2.157,6.794L2.157,2.157L6.794,2.157L6.794,6.794L2.157,6.794ZM6.794,41.843L2.157,41.843L2.157,37.206L6.794,37.206L6.794,41.843ZM35.049,36.127L35.049,38.392L8.951,38.392L8.951,36.127C8.951,35.534 8.466,35.049 7.873,35.049L5.608,35.049L5.608,8.951L7.873,8.951C8.466,8.951 8.951,8.466 8.951,7.873L8.951,5.608L35.049,5.608L35.049,7.873C35.049,8.466 35.534,8.951 36.127,8.951L38.392,8.951L38.392,35.049L36.127,35.049C35.534,35.049 35.049,35.534 35.049,36.127ZM41.843,37.206L41.843,41.843L37.206,41.843L37.206,37.206L41.843,37.206ZM37.206,6.794L37.206,2.157L41.843,2.157L41.843,6.794L37.206,6.794Z" transform="rotate(360 22 22)" fill="#FFFFFF"/>
</svg>
