<svg width="18" height="16" viewBox="0 0 18 16" fill="none" xmlns="http://www.w3.org/2000/svg" xmlns:xlink="http://www.w3.org/1999/xlink">
<path d="M16.371,0.097L9.603,14.864C9.546,14.988 9.45,15.089 9.33,15.153C9.209,15.216 9.071,15.238 8.937,15.214C8.803,15.191 8.681,15.123 8.589,15.023C8.497,14.923 8.441,14.795 8.43,14.659L7.858,7.794L0.993,7.222C0.858,7.211 0.729,7.155 0.629,7.063C0.529,6.971 0.461,6.849 0.438,6.715C0.414,6.581 0.436,6.443 0.499,6.322C0.563,6.202 0.664,6.106 0.788,6.049L15.555,-0.719C15.67,-0.772 15.797,-0.788 15.921,-0.765C16.044,-0.743 16.158,-0.684 16.247,-0.595C16.336,-0.506 16.395,-0.392 16.417,-0.269C16.44,-0.145 16.423,-0.018 16.371,0.097L16.371,0.097Z" fill="#080809"/>
</svg>
