<svg width="6" height="8" viewBox="0 0 6 8" fill="none" xmlns="http://www.w3.org/2000/svg" xmlns:xlink="http://www.w3.org/1999/xlink">
<path d="M3,0.25C2.407,0.25 1.827,0.426 1.333,0.756C0.84,1.085 0.455,1.554 0.228,2.102C0.001,2.65 -0.058,3.253 0.058,3.835C0.173,4.417 0.459,4.952 0.879,5.371C1.298,5.791 1.833,6.077 2.415,6.192C2.997,6.308 3.6,6.249 4.148,6.022C4.696,5.795 5.165,5.41 5.494,4.917C5.824,4.423 6,3.843 6,3.25C6,2.454 5.684,1.691 5.121,1.129C4.559,0.566 3.796,0.25 3,0.25ZM3,4.75C2.703,4.75 2.413,4.662 2.167,4.497C1.92,4.332 1.728,4.098 1.614,3.824C1.501,3.55 1.471,3.248 1.529,2.957C1.587,2.666 1.73,2.399 1.939,2.189C2.149,1.98 2.416,1.837 2.707,1.779C2.998,1.721 3.3,1.751 3.574,1.864C3.848,1.978 4.082,2.17 4.247,2.417C4.412,2.663 4.5,2.953 4.5,3.25C4.5,3.648 4.342,4.029 4.061,4.311C3.779,4.592 3.398,4.75 3,4.75Z" fill="#FFFFFF"/>
</svg>
