<svg width="98" height="34" viewBox="0 0 98 34" fill="none" xmlns="http://www.w3.org/2000/svg" xmlns:xlink="http://www.w3.org/1999/xlink">
<path d="M4.714,8.607L6.609,8.607L4.031,1.027L1.822,1.027L-0.755,8.607L1.14,8.607L1.519,7.415L4.335,7.415L4.714,8.607ZM2.039,5.791L2.927,3.008L3.815,5.791L2.039,5.791Z" fill="#FFFFFF"/>
<path d="M10.444,3.192L9.317,6.625L8.191,3.192L6.394,3.192L8.397,8.607L10.238,8.607L12.241,3.192L10.444,3.192Z" fill="#FFFFFF"/>
<path d="M16.556,3.192L16.556,3.701C16.199,3.29 15.669,3.041 14.943,3.041C13.524,3.041 12.355,4.286 12.355,5.899C12.355,7.513 13.524,8.758 14.943,8.758C15.669,8.758 16.199,8.509 16.556,8.098L16.556,8.607L18.181,8.607L18.181,3.192L16.556,3.192ZM15.268,7.221C14.521,7.221 13.979,6.712 13.979,5.899C13.979,5.087 14.521,4.578 15.268,4.578C16.015,4.578 16.556,5.087 16.556,5.899C16.556,6.712 16.015,7.221 15.268,7.221Z" fill="#FFFFFF"/>
<path d="M19.373,8.607L20.997,8.607L20.997,0.702L19.373,0.702L19.373,8.607Z" fill="#FFFFFF"/>
<path d="M22.998,2.716C23.528,2.716 23.972,2.272 23.972,1.741C23.972,1.211 23.528,0.767 22.998,0.767C22.467,0.767 22.023,1.211 22.023,1.741C22.023,2.272 22.467,2.716 22.998,2.716ZM22.185,8.607L23.81,8.607L23.81,3.192L22.185,3.192L22.185,8.607Z" fill="#FFFFFF"/>
<path d="M28.236,3.041C27.511,3.041 26.98,3.29 26.623,3.701L26.623,1.027L24.998,1.027L24.998,8.607L26.623,8.607L26.623,8.098C26.98,8.509 27.511,8.758 28.236,8.758C29.655,8.758 30.824,7.513 30.824,5.899C30.824,4.286 29.655,3.041 28.236,3.041ZM27.911,7.221C27.164,7.221 26.623,6.712 26.623,5.899C26.623,5.087 27.164,4.578 27.911,4.578C28.658,4.578 29.2,5.087 29.2,5.899C29.2,6.712 28.658,7.221 27.911,7.221Z" fill="#FFFFFF"/>
<path d="M31.745,8.607L33.369,8.607L33.369,0.702L31.745,0.702L31.745,8.607Z" fill="#FFFFFF"/>
<path d="M36.009,6.549L39.853,6.549C39.897,6.343 39.918,6.127 39.918,5.899C39.918,4.264 38.749,3.041 37.168,3.041C35.457,3.041 34.287,4.286 34.287,5.899C34.287,7.513 35.435,8.758 37.287,8.758C38.316,8.758 39.117,8.379 39.648,7.643L38.348,6.896C38.131,7.134 37.752,7.307 37.309,7.307C36.713,7.307 36.215,7.112 36.009,6.549ZM35.977,5.336C36.128,4.784 36.54,4.481 37.157,4.481C37.644,4.481 38.131,4.708 38.305,5.336L35.977,5.336Z" fill="#FFFFFF"/>
<path d="M46.146,8.758C47.737,8.758 49.015,7.513 49.015,5.899C49.015,4.286 47.737,3.041 46.146,3.041C44.554,3.041 43.276,4.286 43.276,5.899C43.276,7.513 44.554,8.758 46.146,8.758ZM46.146,7.177C45.442,7.177 44.9,6.668 44.9,5.899C44.9,5.131 45.442,4.622 46.146,4.622C46.849,4.622 47.391,5.131 47.391,5.899C47.391,6.668 46.849,7.177 46.146,7.177Z" fill="#FFFFFF"/>
<path d="M53.107,3.041C52.392,3.041 51.851,3.301 51.558,3.701L51.558,3.192L49.934,3.192L49.934,8.607L51.558,8.607L51.558,5.65C51.558,4.882 51.97,4.535 52.565,4.535C53.085,4.535 53.507,4.849 53.507,5.52L53.507,8.607L55.132,8.607L55.132,5.282C55.132,3.82 54.2,3.041 53.107,3.041Z" fill="#FFFFFF"/>
<path d="M62.127,4.752L62.127,3.192L61.012,3.192L61.012,1.676L59.387,2.164L59.387,3.192L58.521,3.192L58.521,4.752L59.387,4.752L59.387,6.668C59.387,8.184 60.005,8.823 62.127,8.607L62.127,7.134C61.412,7.177 61.012,7.134 61.012,6.668L61.012,4.752L62.127,4.752Z" fill="#FFFFFF"/>
<path d="M66.22,3.041C65.505,3.041 64.963,3.301 64.671,3.701L64.671,1.027L63.047,1.027L63.047,8.607L64.671,8.607L64.671,5.65C64.671,4.882 65.082,4.535 65.678,4.535C66.198,4.535 66.62,4.849 66.62,5.52L66.62,8.607L68.244,8.607L68.244,5.282C68.244,3.82 67.313,3.041 66.22,3.041Z" fill="#FFFFFF"/>
<path d="M70.811,6.549L74.655,6.549C74.698,6.343 74.72,6.127 74.72,5.899C74.72,4.264 73.551,3.041 71.97,3.041C70.259,3.041 69.089,4.286 69.089,5.899C69.089,7.513 70.237,8.758 72.089,8.758C73.117,8.758 73.919,8.379 74.449,7.643L73.15,6.896C72.933,7.134 72.554,7.307 72.11,7.307C71.515,7.307 71.017,7.112 70.811,6.549ZM70.778,5.336C70.93,4.784 71.342,4.481 71.959,4.481C72.446,4.481 72.933,4.708 73.107,5.336L70.778,5.336Z" fill="#FFFFFF"/>
<path d="M8.359,28.459L11.518,28.459L7.222,15.826L3.54,15.826L-0.755,28.459L2.403,28.459L3.035,26.474L7.728,26.474L8.359,28.459ZM3.901,23.767L5.381,19.128L6.861,23.767L3.901,23.767Z" fill="#FFFFFF"/>
<path d="M17.901,19.183C16.692,19.183 15.807,19.598 15.212,20.283L15.212,19.435L12.505,19.435L12.505,32.069L15.212,32.069L15.212,27.611C15.807,28.297 16.692,28.712 17.901,28.712C20.265,28.712 22.214,26.636 22.214,23.947C22.214,21.258 20.265,19.183 17.901,19.183ZM17.359,26.149C16.114,26.149 15.212,25.301 15.212,23.947C15.212,22.594 16.114,21.745 17.359,21.745C18.605,21.745 19.507,22.594 19.507,23.947C19.507,25.301 18.605,26.149 17.359,26.149Z" fill="#FFFFFF"/>
<path d="M29.146,19.183C27.936,19.183 27.052,19.598 26.456,20.283L26.456,19.435L23.749,19.435L23.749,32.069L26.456,32.069L26.456,27.611C27.052,28.297 27.936,28.712 29.146,28.712C31.51,28.712 33.459,26.636 33.459,23.947C33.459,21.258 31.51,19.183 29.146,19.183ZM28.604,26.149C27.359,26.149 26.456,25.301 26.456,23.947C26.456,22.594 27.359,21.745 28.604,21.745C29.849,21.745 30.752,22.594 30.752,23.947C30.752,25.301 29.849,26.149 28.604,26.149Z" fill="#FFFFFF"/>
<path d="M34.994,28.459L37.701,28.459L37.701,15.284L34.994,15.284L34.994,28.459Z" fill="#FFFFFF"/>
<path d="M42.1,25.03L48.507,25.03C48.58,24.687 48.616,24.326 48.616,23.947C48.616,21.222 46.667,19.183 44.032,19.183C41.18,19.183 39.231,21.258 39.231,23.947C39.231,26.636 41.144,28.712 44.23,28.712C45.945,28.712 47.28,28.08 48.164,26.853L45.999,25.608C45.638,26.005 45.006,26.293 44.266,26.293C43.274,26.293 42.443,25.968 42.1,25.03ZM42.046,23.009C42.299,22.088 42.985,21.583 44.014,21.583C44.826,21.583 45.638,21.962 45.927,23.009L42.046,23.009Z" fill="#FFFFFF"/>
<path d="M59.175,28.712C61.918,28.712 63.867,27.268 63.867,24.831C63.867,22.16 61.72,21.493 59.807,20.915C57.84,20.32 57.533,19.923 57.533,19.345C57.533,18.84 57.984,18.388 58.886,18.388C60.041,18.388 60.637,18.948 61.07,19.85L63.506,18.425C62.586,16.566 60.962,15.573 58.886,15.573C56.702,15.573 54.645,16.981 54.645,19.417C54.645,21.836 56.486,22.738 58.363,23.261C60.258,23.785 60.98,24.091 60.98,24.868C60.98,25.355 60.637,25.896 59.265,25.896C57.839,25.896 57.063,25.192 56.612,24.146L54.122,25.589C54.826,27.448 56.522,28.712 59.175,28.712Z" fill="#FFFFFF"/>
<path d="M70.244,22.034L70.244,19.435L68.385,19.435L68.385,16.909L65.678,17.721L65.678,19.435L64.234,19.435L64.234,22.034L65.678,22.034L65.678,25.229C65.678,27.755 66.707,28.82 70.244,28.459L70.244,26.005C69.053,26.077 68.385,26.005 68.385,25.229L68.385,22.034L70.244,22.034Z" fill="#FFFFFF"/>
<path d="M75.932,28.712C78.585,28.712 80.715,26.636 80.715,23.947C80.715,21.258 78.585,19.183 75.932,19.183C73.279,19.183 71.149,21.258 71.149,23.947C71.149,26.636 73.279,28.712 75.932,28.712ZM75.932,26.077C74.759,26.077 73.856,25.229 73.856,23.947C73.856,22.666 74.759,21.817 75.932,21.817C77.105,21.817 78.007,22.666 78.007,23.947C78.007,25.229 77.105,26.077 75.932,26.077Z" fill="#FFFFFF"/>
<path d="M84.953,21.041L84.953,19.435L82.246,19.435L82.246,28.459L84.953,28.459L84.953,24.38C84.953,22.594 86.541,22.142 87.66,22.323L87.66,19.255C86.523,19.255 85.314,19.832 84.953,21.041Z" fill="#FFFFFF"/>
<path d="M91.08,25.03L97.487,25.03C97.559,24.687 97.595,24.326 97.595,23.947C97.595,21.222 95.646,19.183 93.011,19.183C90.159,19.183 88.21,21.258 88.21,23.947C88.21,26.636 90.123,28.712 93.209,28.712C94.924,28.712 96.259,28.08 97.144,26.853L94.978,25.608C94.617,26.005 93.985,26.293 93.245,26.293C92.253,26.293 91.423,25.968 91.08,25.03ZM91.026,23.009C91.278,22.088 91.964,21.583 92.993,21.583C93.805,21.583 94.617,21.962 94.906,23.009L91.026,23.009Z" fill="#FFFFFF"/>
</svg>
