<svg width="40" height="38" viewBox="0 0 40 38" fill="none" xmlns="http://www.w3.org/2000/svg" xmlns:xlink="http://www.w3.org/1999/xlink">
<path d="M36.729,2.909C34.66,0.685 31.761,-0.58 28.723,-0.585C25.683,-0.581 22.781,0.683 20.709,2.908L20.003,3.654L19.297,2.908C15.185,-1.518 8.264,-1.772 3.839,2.34C3.643,2.522 3.454,2.712 3.271,2.908C-1.09,7.612 -1.09,14.883 3.271,19.588L18.965,36.138C19.508,36.711 20.413,36.736 20.986,36.193C21.005,36.175 21.023,36.157 21.041,36.138L36.729,19.588C41.09,14.884 41.09,7.613 36.729,2.909ZM34.66,17.619L34.659,17.619L20.003,33.077L5.346,17.619C2.014,14.025 2.014,8.47 5.346,4.875C8.372,1.595 13.483,1.389 16.763,4.415C16.922,4.562 17.076,4.716 17.222,4.875L18.965,6.713C19.539,7.284 20.467,7.284 21.041,6.713L22.783,4.876C25.809,1.597 30.921,1.391 34.201,4.417C34.36,4.564 34.513,4.717 34.66,4.876C38.021,8.477 38.046,14.042 34.66,17.619Z" fill="#4152CA"/>
</svg>
