<svg width="40" height="40" viewBox="0 0 40 40" fill="none" xmlns="http://www.w3.org/2000/svg" xmlns:xlink="http://www.w3.org/1999/xlink">
<path d="M37.873,7.271C38.408,7.271 38.846,6.833 38.855,6.298L38.855,0.177C38.855,-0.368 38.418,-0.806 37.873,-0.806L31.751,-0.806C31.216,-0.806 30.778,-0.368 30.778,0.177L30.778,2.308L7.228,2.308L7.228,0.177C7.228,-0.358 6.79,-0.796 6.255,-0.806L0.133,-0.806C-0.402,-0.806 -0.84,-0.368 -0.85,0.177L-0.85,6.298C-0.85,6.833 -0.412,7.271 0.133,7.271L2.265,7.271L2.265,30.822L0.133,30.822C-0.402,30.822 -0.84,31.26 -0.85,31.795L-0.85,37.916C-0.85,38.451 -0.412,38.889 0.133,38.899L6.255,38.899C6.79,38.899 7.228,38.461 7.228,37.916L7.228,35.785L30.778,35.785L30.778,37.916C30.778,38.451 31.216,38.889 31.751,38.899L37.873,38.899C38.408,38.899 38.846,38.461 38.855,37.916L38.855,31.795C38.855,31.26 38.418,30.822 37.873,30.822L35.741,30.822L35.741,7.271L37.873,7.271ZM1.097,5.325L1.097,1.14L5.281,1.14L5.281,5.325L1.097,5.325ZM5.281,36.953L1.097,36.953L1.097,32.768L5.281,32.768L5.281,36.953ZM30.778,31.795L30.778,33.838L7.228,33.838L7.228,31.795C7.228,31.26 6.79,30.822 6.255,30.822L4.211,30.822L4.211,7.271L6.255,7.271C6.79,7.271 7.228,6.833 7.228,6.298L7.228,4.254L30.778,4.254L30.778,6.298C30.778,6.833 31.216,7.271 31.751,7.271L33.795,7.271L33.795,30.822L31.751,30.822C31.216,30.822 30.778,31.26 30.778,31.795ZM36.909,32.768L36.909,36.953L32.725,36.953L32.725,32.768L36.909,32.768ZM32.725,5.325L32.725,1.14L36.909,1.14L36.909,5.325L32.725,5.325Z" transform="rotate(360 19.003 19.046)" fill="#FFFFFF"/>
</svg>
