<svg width="30" height="28" viewBox="0 0 30 28" fill="none" xmlns="http://www.w3.org/2000/svg" xmlns:xlink="http://www.w3.org/1999/xlink">
<path d="M27.002,0C26.847,0 26.693,0.036 26.554,0.105L18.976,3.895L10.408,0.086C10.394,0.081 10.378,0.079 10.363,0.073C10.324,0.059 10.285,0.047 10.245,0.037C10.205,0.027 10.164,0.018 10.124,0.012C10.042,0.006 9.961,0.006 9.88,0.012C9.839,0.018 9.798,0.027 9.759,0.037C9.719,0.047 9.679,0.059 9.641,0.073C9.626,0.079 9.61,0.08 9.596,0.086L0.596,4.086C0.234,4.247 0.002,4.605 0.002,5L0.002,27C0.002,27.338 0.173,27.654 0.457,27.838C0.74,28.023 1.098,28.051 1.408,27.914L10.002,24.094L18.595,27.914C18.61,27.92 18.626,27.914 18.641,27.923C18.883,28.031 19.161,28.025 19.398,27.906C19.414,27.899 19.432,27.906 19.448,27.895L27.448,23.895C27.787,23.726 28.001,23.379 28.001,23L28.001,1C28.002,0.448 27.554,0 27.002,0ZM9.002,22.35L2.002,25.461L2.002,5.65L9.002,2.539L9.002,22.35ZM18.001,25.461L11.002,22.35L11.002,2.539L18.001,5.65L18.001,25.461ZM26.001,22.382L20.001,25.382L20.001,5.618L26.001,2.618L26.001,22.382Z" fill="#84829A"/>
</svg>
