<svg width="16" height="16" viewBox="0 0 16 16" fill="none" xmlns="http://www.w3.org/2000/svg" xmlns:xlink="http://www.w3.org/1999/xlink">
<path d="M15.559,0.097L8.79,14.864C8.734,14.988 8.638,15.089 8.517,15.153C8.397,15.216 8.259,15.238 8.125,15.214C7.991,15.191 7.868,15.123 7.777,15.023C7.685,14.923 7.629,14.795 7.618,14.659L7.045,7.794L0.181,7.222C0.045,7.211 -0.083,7.155 -0.183,7.063C-0.284,6.971 -0.351,6.849 -0.375,6.715C-0.398,6.581 -0.376,6.443 -0.313,6.322C-0.25,6.202 -0.148,6.106 -0.025,6.049L14.743,-0.719C14.857,-0.772 14.984,-0.788 15.108,-0.765C15.232,-0.743 15.346,-0.684 15.434,-0.595C15.523,-0.506 15.583,-0.392 15.605,-0.269C15.627,-0.145 15.611,-0.018 15.559,0.097L15.559,0.097Z" fill="#080809"/>
</svg>
