<svg width="54" height="16" viewBox="0 0 54 16" fill="none" xmlns="http://www.w3.org/2000/svg" xmlns:xlink="http://www.w3.org/1999/xlink">
<path d="M5.283,2.122L2.518,2.122L2.518,3.224L3.991,3.224C3.794,3.752 3.314,4.075 2.581,4.075C1.51,4.075 0.849,3.39 0.849,2.452C0.849,1.484 1.542,0.799 2.471,0.799C3.093,0.799 3.589,1.082 3.818,1.444L4.889,0.83C4.424,0.09 3.534,-0.43 2.479,-0.43C0.856,-0.43 -0.412,0.846 -0.412,2.445C-0.412,4.028 0.833,5.304 2.565,5.304C4.109,5.304 5.283,4.28 5.283,2.594L5.283,2.122Z" fill="#FFFFFF"/>
<path d="M6.86,3.98L6.86,3.004L8.829,3.004L8.829,1.807L6.86,1.807L6.86,0.893L9.025,0.893L9.025,-0.32L5.599,-0.32L5.599,5.193L9.065,5.193L9.065,3.98L6.86,3.98Z" fill="#FFFFFF"/>
<path d="M13.084,-0.32L8.988,-0.32L8.988,0.893L10.406,0.893L10.406,5.193L11.666,5.193L11.666,0.893L13.084,0.893L13.084,-0.32Z" fill="#FFFFFF"/>
<path d="M14.817,-0.32L14.817,5.193L16.077,5.193L16.077,-0.32L14.817,-0.32Z" fill="#FFFFFF"/>
<path d="M20.332,-0.32L16.237,-0.32L16.237,0.893L17.654,0.893L17.654,5.193L18.914,5.193L18.914,0.893L20.332,0.893L20.332,-0.32Z" fill="#FFFFFF"/>
<path d="M24.696,5.304C26.279,5.304 27.563,4.059 27.563,2.437C27.563,0.814 26.279,-0.43 24.696,-0.43C23.113,-0.43 21.829,0.814 21.829,2.437C21.829,4.059 23.113,5.304 24.696,5.304ZM24.696,4.075C23.798,4.075 23.089,3.421 23.089,2.437C23.089,1.452 23.798,0.799 24.696,0.799C25.594,0.799 26.302,1.452 26.302,2.437C26.302,3.421 25.594,4.075 24.696,4.075Z" fill="#FFFFFF"/>
<path d="M30.95,-0.32L30.95,2.673L28.823,-0.32L27.878,-0.32L27.878,5.193L29.138,5.193L29.138,2.2L31.265,5.193L32.21,5.193L32.21,-0.32L30.95,-0.32Z" fill="#FFFFFF"/>
<path d="M5.283,11.486L5.283,11.699C5.283,12.387 5.039,12.967 4.55,13.439C4.062,13.907 3.419,14.14 2.621,14.14C1.781,14.14 1.087,13.867 0.541,13.321C-0.005,12.77 -0.278,12.095 -0.278,11.297C-0.278,10.499 -0.007,9.827 0.533,9.281C1.074,8.73 1.76,8.454 2.589,8.454C3.093,8.454 3.555,8.575 3.975,8.816C4.401,9.058 4.729,9.381 4.96,9.785L4.59,10.006C4.406,9.659 4.133,9.381 3.771,9.171C3.413,8.961 3.02,8.856 2.589,8.856C1.875,8.856 1.287,9.092 0.825,9.564C0.368,10.032 0.14,10.609 0.14,11.297C0.14,11.985 0.371,12.565 0.833,13.038C1.295,13.505 1.891,13.739 2.621,13.739C3.266,13.739 3.789,13.563 4.188,13.211C4.587,12.859 4.81,12.416 4.857,11.88L2.518,11.88L2.518,11.486L5.283,11.486Z" fill="#FFFFFF"/>
<path d="M10.873,13.313C10.322,13.865 9.65,14.14 8.857,14.14C8.064,14.14 7.392,13.865 6.841,13.313C6.289,12.757 6.014,12.085 6.014,11.297C6.014,10.51 6.289,9.84 6.841,9.289C7.392,8.732 8.064,8.454 8.857,8.454C9.65,8.454 10.322,8.732 10.873,9.289C11.425,9.84 11.7,10.51 11.7,11.297C11.7,12.085 11.425,12.757 10.873,13.313ZM7.132,13.03C7.605,13.502 8.18,13.739 8.857,13.739C9.534,13.739 10.107,13.502 10.574,13.03C11.047,12.552 11.283,11.975 11.283,11.297C11.283,10.62 11.047,10.045 10.574,9.572C10.107,9.095 9.534,8.856 8.857,8.856C8.18,8.856 7.605,9.095 7.132,9.572C6.665,10.045 6.431,10.62 6.431,11.297C6.431,11.975 6.665,12.552 7.132,13.03Z" fill="#FFFFFF"/>
<path d="M17.303,13.313C16.752,13.865 16.08,14.14 15.287,14.14C14.494,14.14 13.822,13.865 13.271,13.313C12.719,12.757 12.444,12.085 12.444,11.297C12.444,10.51 12.719,9.84 13.271,9.289C13.822,8.732 14.494,8.454 15.287,8.454C16.08,8.454 16.752,8.732 17.303,9.289C17.855,9.84 18.13,10.51 18.13,11.297C18.13,12.085 17.855,12.757 17.303,13.313ZM13.562,13.03C14.035,13.502 14.61,13.739 15.287,13.739C15.964,13.739 16.537,13.502 17.004,13.03C17.477,12.552 17.713,11.975 17.713,11.297C17.713,10.62 17.477,10.045 17.004,9.572C16.537,9.095 15.964,8.856 15.287,8.856C14.61,8.856 14.035,9.095 13.562,9.572C13.095,10.045 12.861,10.62 12.861,11.297C12.861,11.975 13.095,12.552 13.562,13.03Z" fill="#FFFFFF"/>
<path d="M24.434,11.486L24.434,11.699C24.434,12.387 24.19,12.967 23.702,13.439C23.214,13.907 22.57,14.14 21.772,14.14C20.932,14.14 20.239,13.867 19.693,13.321C19.147,12.77 18.874,12.095 18.874,11.297C18.874,10.499 19.144,9.827 19.685,9.281C20.226,8.73 20.911,8.454 21.741,8.454C22.245,8.454 22.707,8.575 23.127,8.816C23.552,9.058 23.88,9.381 24.111,9.785L23.741,10.006C23.557,9.659 23.284,9.381 22.922,9.171C22.565,8.961 22.171,8.856 21.741,8.856C21.027,8.856 20.439,9.092 19.977,9.564C19.52,10.032 19.291,10.609 19.291,11.297C19.291,11.985 19.522,12.565 19.984,13.038C20.446,13.505 21.042,13.739 21.772,13.739C22.418,13.739 22.941,13.563 23.34,13.211C23.739,12.859 23.962,12.416 24.009,11.88L21.67,11.88L21.67,11.486L24.434,11.486Z" fill="#FFFFFF"/>
<path d="M25.898,13.66L28.497,13.66L28.497,14.054L25.48,14.054L25.48,8.541L25.898,8.541L25.898,13.66Z" fill="#FFFFFF"/>
<path d="M29.782,13.66L32.539,13.66L32.539,14.054L29.365,14.054L29.365,8.541L32.499,8.541L32.499,8.934L29.782,8.934L29.782,11.077L32.302,11.077L32.302,11.47L29.782,11.47L29.782,13.66Z" fill="#FFFFFF"/>
<path d="M37.538,8.541C38.032,8.541 38.442,8.703 38.767,9.029C39.093,9.354 39.255,9.761 39.255,10.25C39.255,10.738 39.093,11.145 38.767,11.47C38.442,11.791 38.032,11.951 37.538,11.951L36.081,11.951L36.081,14.054L35.664,14.054L35.664,8.541L37.538,8.541ZM37.538,11.557C37.916,11.557 38.226,11.434 38.468,11.187C38.715,10.94 38.838,10.628 38.838,10.25C38.838,9.866 38.715,9.551 38.468,9.305C38.226,9.058 37.916,8.934 37.538,8.934L36.081,8.934L36.081,11.557L37.538,11.557Z" fill="#FFFFFF"/>
<path d="M40.704,13.66L43.303,13.66L43.303,14.054L40.286,14.054L40.286,8.541L40.704,8.541L40.704,13.66Z" fill="#FFFFFF"/>
<path d="M48.034,14.054L47.498,12.652L44.734,12.652L44.198,14.054L43.757,14.054L45.9,8.541L46.341,8.541L48.475,14.054L48.034,14.054ZM44.891,12.258L47.349,12.258L46.12,9.053L44.891,12.258Z" fill="#FFFFFF"/>
<path d="M52.398,8.541L50.389,11.786L50.389,14.054L49.972,14.054L49.972,11.786L47.964,8.541L48.436,8.541L50.185,11.384L51.925,8.541L52.398,8.541Z" fill="#FFFFFF"/>
</svg>
