<svg width="16" height="10" viewBox="0 0 16 10" fill="none" xmlns="http://www.w3.org/2000/svg" xmlns:xlink="http://www.w3.org/1999/xlink">
<path d="M-0.42,6.826C-0.805,7.211 -0.805,7.834 -0.42,8.219C-0.036,8.603 0.588,8.603 0.972,8.219L-0.42,6.826ZM7.167,0.631L7.864,-0.065L7.167,-0.761L6.471,-0.065L7.167,0.631ZM13.363,8.219C13.747,8.603 14.371,8.603 14.755,8.219C15.139,7.834 15.139,7.211 14.755,6.826L13.363,8.219ZM0.972,8.219L7.864,1.327L6.471,-0.065L-0.42,6.826L0.972,8.219ZM6.471,1.327L13.363,8.219L14.755,6.826L7.864,-0.065L6.471,1.327Z" fill="#3E2E4D"/>
</svg>
