<svg width="28" height="12" viewBox="0 0 28 12" fill="none" xmlns="http://www.w3.org/2000/svg" xmlns:xlink="http://www.w3.org/1999/xlink">
<path d="M2.6,1.2C2.158,0.869 1.531,0.958 1.2,1.4C0.869,1.842 0.958,2.469 1.4,2.8L2.6,1.2ZM26.6,2.8C27.042,2.469 27.131,1.842 26.8,1.4C26.469,0.958 25.842,0.869 25.4,1.2L26.6,2.8ZM15.2,10.1L14.6,9.3L15.2,10.1ZM1.4,2.8L12.2,10.9L13.4,9.3L2.6,1.2L1.4,2.8ZM15.8,10.9L26.6,2.8L25.4,1.2L14.6,9.3L15.8,10.9ZM12.2,10.9C13.267,11.7 14.733,11.7 15.8,10.9L14.6,9.3C14.244,9.567 13.756,9.567 13.4,9.3L12.2,10.9Z" fill="#39425D"/>
</svg>
