<svg width="46" height="38" viewBox="0 0 46 38" fill="none" xmlns="http://www.w3.org/2000/svg" xmlns:xlink="http://www.w3.org/1999/xlink">
<path d="M44.5,16.5L44.5,15C44.498,14.404 44.261,13.833 43.839,13.411C43.417,12.989 42.846,12.752 42.25,12.75L39.28,12.75L37.728,7.305L37.262,5.453C37.14,4.966 36.859,4.534 36.464,4.226C36.069,3.917 35.581,3.75 35.08,3.75L28.75,3.75L28.75,0.75C28.749,0.353 28.59,-0.028 28.309,-0.309C28.028,-0.59 27.647,-0.749 27.25,-0.75L16.75,-0.75C16.353,-0.749 15.972,-0.59 15.691,-0.309C15.41,-0.028 15.251,0.353 15.25,0.75L15.25,3.75L8.92,3.75C8.419,3.75 7.931,3.917 7.536,4.226C7.141,4.534 6.86,4.966 6.738,5.453L6.28,7.297L4.72,12.75L1.75,12.75C1.154,12.752 0.583,12.989 0.161,13.411C-0.261,13.833 -0.498,14.404 -0.5,15L-0.5,16.5C-0.499,16.88 -0.401,17.253 -0.216,17.585C-0.031,17.917 0.235,18.197 0.557,18.398C-0.12,19.094 -0.5,20.028 -0.5,21L-0.5,30C-0.499,30.315 -0.432,30.626 -0.302,30.912C-0.173,31.199 0.015,31.456 0.25,31.665L0.25,34.5C0.252,35.096 0.489,35.667 0.911,36.089C1.333,36.511 1.904,36.748 2.5,36.75L8.5,36.75C9.096,36.748 9.667,36.511 10.089,36.089C10.511,35.667 10.748,35.096 10.75,34.5L10.75,32.25L33.25,32.25L33.25,34.5C33.252,35.096 33.489,35.667 33.911,36.089C34.333,36.511 34.904,36.748 35.5,36.75L41.5,36.75C42.096,36.748 42.667,36.511 43.089,36.089C43.511,35.667 43.748,35.096 43.75,34.5L43.75,31.665C43.985,31.456 44.173,31.199 44.302,30.912C44.432,30.626 44.499,30.315 44.5,30L44.5,21C44.5,20.028 44.12,19.094 43.443,18.398C43.765,18.197 44.031,17.917 44.216,17.585C44.401,17.253 44.499,16.88 44.5,16.5ZM16.75,0.75L27.25,0.75L27.25,3.75L16.75,3.75L16.75,0.75ZM8.193,5.82C8.233,5.657 8.326,5.513 8.458,5.41C8.59,5.306 8.753,5.25 8.92,5.25L35.08,5.25C35.247,5.25 35.41,5.306 35.542,5.41C35.674,5.513 35.767,5.657 35.807,5.82L36.04,6.75L7.96,6.75L8.193,5.82ZM7.563,8.25L36.438,8.25L39.002,17.25L17.432,17.25C17.256,16.202 16.714,15.25 15.903,14.564C15.091,13.877 14.063,13.501 13,13.501C11.937,13.501 10.909,13.877 10.097,14.564C9.286,15.25 8.744,16.202 8.568,17.25L4.997,17.25L7.563,8.25ZM15.895,17.25L10.105,17.25C10.269,16.606 10.642,16.036 11.167,15.628C11.691,15.221 12.336,14.999 13,14.999C13.664,14.999 14.309,15.221 14.833,15.628C15.358,16.036 15.731,16.606 15.895,17.25ZM1,15C1,14.801 1.079,14.61 1.22,14.47C1.36,14.329 1.551,14.25 1.75,14.25L4.293,14.25L3.438,17.25L1.75,17.25C1.551,17.25 1.36,17.171 1.22,17.03C1.079,16.89 1,16.699 1,16.5L1,15ZM9.25,34.5C9.25,34.699 9.171,34.89 9.03,35.03C8.89,35.171 8.699,35.25 8.5,35.25L2.5,35.25C2.301,35.25 2.11,35.171 1.97,35.03C1.829,34.89 1.75,34.699 1.75,34.5L1.75,32.25L9.25,32.25L9.25,34.5ZM42.25,34.5C42.25,34.699 42.171,34.89 42.03,35.03C41.89,35.171 41.699,35.25 41.5,35.25L35.5,35.25C35.301,35.25 35.11,35.171 34.97,35.03C34.829,34.89 34.75,34.699 34.75,34.5L34.75,32.25L42.25,32.25L42.25,34.5ZM43,30C43,30.199 42.921,30.39 42.78,30.53C42.64,30.671 42.449,30.75 42.25,30.75L1.75,30.75C1.551,30.75 1.36,30.671 1.22,30.53C1.079,30.39 1,30.199 1,30L1,29.25L43,29.25L43,30ZM43,27.75L1,27.75L1,21C1.002,20.404 1.239,19.833 1.661,19.411C2.083,18.989 2.654,18.752 3.25,18.75L40.75,18.75C41.346,18.752 41.917,18.989 42.339,19.411C42.761,19.833 42.998,20.404 43,21L43,27.75ZM43,16.5C43,16.699 42.921,16.89 42.78,17.03C42.64,17.171 42.449,17.25 42.25,17.25L40.562,17.25L39.708,14.25L42.25,14.25C42.449,14.25 42.64,14.329 42.78,14.47C42.921,14.61 43,14.801 43,15L43,16.5Z" fill="#FFFFFF"/>
</svg>
