<svg width="42" height="36" viewBox="0 0 42 36" fill="none" xmlns="http://www.w3.org/2000/svg" xmlns:xlink="http://www.w3.org/1999/xlink">
<path d="M41.307,15.767L41.307,14.414C41.305,13.876 41.091,13.36 40.71,12.98C40.33,12.599 39.814,12.385 39.276,12.383L36.596,12.383L35.195,7.47L34.776,5.798C34.666,5.359 34.412,4.97 34.055,4.691C33.698,4.413 33.259,4.262 32.806,4.262L27.094,4.262L27.094,1.555C27.093,1.196 26.95,0.852 26.696,0.599C26.443,0.345 26.099,0.202 25.74,0.201L16.265,0.201C15.907,0.202 15.563,0.345 15.309,0.599C15.056,0.852 14.913,1.196 14.912,1.555L14.912,4.262L9.2,4.262C8.747,4.262 8.308,4.413 7.951,4.691C7.594,4.97 7.34,5.359 7.23,5.798L6.817,7.463L5.41,12.383L2.73,12.383C2.192,12.385 1.676,12.599 1.296,12.98C0.915,13.36 0.701,13.876 0.699,14.414L0.699,15.767C0.7,16.11 0.788,16.447 0.955,16.747C1.122,17.046 1.362,17.298 1.653,17.48C1.042,18.108 0.699,18.951 0.699,19.828L0.699,27.95C0.7,28.234 0.761,28.514 0.878,28.773C0.994,29.032 1.164,29.263 1.376,29.452L1.376,32.01C1.378,32.548 1.592,33.064 1.972,33.444C2.353,33.825 2.868,34.039 3.406,34.041L8.821,34.041C9.359,34.039 9.874,33.825 10.255,33.444C10.635,33.064 10.849,32.548 10.851,32.01L10.851,29.98L31.155,29.98L31.155,32.01C31.156,32.548 31.371,33.064 31.751,33.444C32.132,33.825 32.647,34.039 33.185,34.041L38.599,34.041C39.137,34.039 39.653,33.825 40.033,33.444C40.414,33.064 40.628,32.548 40.63,32.01L40.63,29.452C40.842,29.263 41.012,29.032 41.128,28.773C41.245,28.514 41.306,28.234 41.307,27.95L41.307,19.828C41.307,18.951 40.964,18.108 40.352,17.48C40.643,17.298 40.884,17.046 41.051,16.747C41.217,16.447 41.306,16.11 41.307,15.767L41.307,15.767ZM16.265,1.555L25.74,1.555L25.74,4.262L16.265,4.262L16.265,1.555ZM8.543,6.13C8.579,5.983 8.664,5.853 8.783,5.76C8.902,5.666 9.049,5.616 9.2,5.615L32.806,5.615C32.957,5.616 33.104,5.666 33.223,5.76C33.342,5.853 33.426,5.983 33.463,6.13L33.672,6.969L8.333,6.969L8.543,6.13ZM7.975,8.323L34.031,8.323L36.346,16.444L16.881,16.444C16.722,15.498 16.233,14.64 15.501,14.02C14.769,13.401 13.841,13.061 12.881,13.061C11.922,13.061 10.994,13.401 10.262,14.02C9.53,14.64 9.041,15.498 8.882,16.444L5.66,16.444L7.975,8.323ZM15.494,16.444L10.269,16.444C10.417,15.863 10.754,15.348 11.227,14.981C11.7,14.613 12.282,14.413 12.881,14.413C13.481,14.413 14.063,14.613 14.536,14.981C15.009,15.348 15.346,15.863 15.494,16.444L15.494,16.444ZM2.053,14.414C2.053,14.234 2.124,14.062 2.251,13.935C2.378,13.808 2.55,13.737 2.73,13.737L5.024,13.737L4.252,16.444L2.73,16.444C2.55,16.444 2.378,16.373 2.251,16.246C2.124,16.119 2.053,15.947 2.053,15.767L2.053,14.414ZM9.497,32.01C9.497,32.19 9.426,32.362 9.299,32.489C9.172,32.616 9,32.687 8.821,32.687L3.406,32.687C3.227,32.687 3.055,32.616 2.928,32.489C2.801,32.362 2.73,32.19 2.73,32.01L2.73,29.98L9.497,29.98L9.497,32.01ZM39.276,32.01C39.276,32.19 39.205,32.362 39.078,32.489C38.951,32.616 38.779,32.687 38.599,32.687L33.185,32.687C33.006,32.687 32.834,32.616 32.707,32.489C32.58,32.362 32.508,32.19 32.508,32.01L32.508,29.98L39.276,29.98L39.276,32.01ZM39.953,27.95C39.953,28.129 39.882,28.301 39.755,28.428C39.628,28.555 39.456,28.626 39.276,28.626L2.73,28.626C2.55,28.626 2.378,28.555 2.251,28.428C2.124,28.301 2.053,28.129 2.053,27.95L2.053,27.273L39.953,27.273L39.953,27.95ZM39.953,25.919L2.053,25.919L2.053,19.828C2.054,19.29 2.269,18.775 2.649,18.394C3.03,18.014 3.545,17.799 4.083,17.798L37.923,17.798C38.461,17.799 38.976,18.014 39.357,18.394C39.737,18.775 39.951,19.29 39.953,19.828L39.953,25.919ZM39.953,15.767C39.953,15.947 39.882,16.119 39.755,16.246C39.628,16.373 39.456,16.444 39.276,16.444L37.754,16.444L36.982,13.737L39.276,13.737C39.456,13.737 39.628,13.808 39.755,13.935C39.882,14.062 39.953,14.234 39.953,14.414L39.953,15.767Z" fill="#FFFFFF"/>
</svg>
