<svg width="4" height="4" viewBox="0 0 4 4" fill="none" xmlns="http://www.w3.org/2000/svg" xmlns:xlink="http://www.w3.org/1999/xlink">
<path d="M1.361,-0.426C1.069,-0.426 0.783,-0.339 0.541,-0.177C0.298,-0.015 0.108,0.216 -0.003,0.486C-0.115,0.756 -0.144,1.053 -0.087,1.339C-0.03,1.626 0.11,1.889 0.317,2.095C0.523,2.302 0.786,2.442 1.073,2.499C1.359,2.556 1.656,2.527 1.926,2.415C2.196,2.304 2.427,2.114 2.589,1.871C2.751,1.629 2.838,1.343 2.838,1.051C2.838,0.659 2.682,0.284 2.405,0.007C2.128,-0.27 1.753,-0.426 1.361,-0.426ZM1.361,1.789C1.215,1.789 1.072,1.746 0.951,1.665C0.829,1.584 0.735,1.468 0.679,1.334C0.623,1.199 0.608,1.05 0.637,0.907C0.665,0.764 0.736,0.632 0.839,0.529C0.942,0.426 1.074,0.355 1.217,0.327C1.36,0.298 1.509,0.313 1.644,0.369C1.779,0.425 1.894,0.519 1.975,0.641C2.056,0.762 2.099,0.905 2.099,1.051C2.099,1.247 2.022,1.435 1.883,1.573C1.745,1.712 1.557,1.789 1.361,1.789Z" fill="#FFFFFF"/>
</svg>
