<svg width="4" height="4" viewBox="0 0 4 4" fill="none" xmlns="http://www.w3.org/2000/svg" xmlns:xlink="http://www.w3.org/1999/xlink">
<path d="M2.129,-0.426C1.837,-0.426 1.551,-0.339 1.308,-0.177C1.065,-0.015 0.876,0.216 0.764,0.486C0.652,0.756 0.623,1.053 0.68,1.339C0.737,1.626 0.878,1.889 1.084,2.095C1.291,2.302 1.554,2.442 1.841,2.499C2.127,2.556 2.424,2.527 2.694,2.415C2.964,2.304 3.194,2.114 3.356,1.871C3.519,1.629 3.605,1.343 3.605,1.051C3.605,0.659 3.45,0.284 3.173,0.007C2.896,-0.27 2.52,-0.426 2.129,-0.426ZM2.129,1.789C1.983,1.789 1.84,1.746 1.718,1.665C1.597,1.584 1.502,1.468 1.446,1.334C1.391,1.199 1.376,1.05 1.404,0.907C1.433,0.764 1.503,0.632 1.606,0.529C1.71,0.426 1.841,0.355 1.985,0.327C2.128,0.298 2.276,0.313 2.411,0.369C2.546,0.425 2.661,0.519 2.743,0.641C2.824,0.762 2.867,0.905 2.867,1.051C2.867,1.247 2.789,1.435 2.651,1.573C2.512,1.712 2.324,1.789 2.129,1.789Z" fill="#FFFFFF"/>
</svg>
