<svg width="16" height="14" viewBox="0 0 16 14" fill="none" xmlns="http://www.w3.org/2000/svg" xmlns:xlink="http://www.w3.org/1999/xlink">
<path d="M15.43,1.429C14.844,1.686 14.22,1.856 13.57,1.939C14.239,1.539 14.75,0.911 14.99,0.154C14.366,0.526 13.677,0.789 12.942,0.936C12.35,0.305 11.505,-0.086 10.584,-0.086C8.796,-0.086 7.356,1.365 7.356,3.144C7.356,3.4 7.378,3.646 7.431,3.88C4.746,3.749 2.371,2.463 0.775,0.503C0.496,0.986 0.333,1.539 0.333,2.135C0.333,3.253 0.909,4.245 1.767,4.819C1.248,4.809 0.74,4.658 0.308,4.421C0.308,4.431 0.308,4.443 0.308,4.456C0.308,6.026 1.428,7.329 2.896,7.629C2.633,7.701 2.346,7.736 2.049,7.736C1.842,7.736 1.633,7.724 1.438,7.681C1.856,8.959 3.043,9.9 4.455,9.93C3.356,10.79 1.961,11.307 0.451,11.307C0.186,11.307 -0.068,11.296 -0.322,11.263C1.109,12.186 2.804,12.712 4.632,12.712C10.575,12.712 13.824,7.79 13.824,3.523C13.824,3.38 13.819,3.242 13.812,3.106C14.453,2.651 14.991,2.083 15.43,1.429Z" fill="#080809"/>
</svg>
