<svg width="54" height="20" viewBox="0 0 54 20" fill="none" xmlns="http://www.w3.org/2000/svg" xmlns:xlink="http://www.w3.org/1999/xlink">
<path d="M2.661,5.224L3.695,5.224L2.289,1.089L1.084,1.089L-0.322,5.224L0.712,5.224L0.919,4.575L2.455,4.575L2.661,5.224ZM1.202,3.689L1.687,2.17L2.171,3.689L1.202,3.689Z" fill="#FFFFFF"/>
<path d="M5.787,2.271L5.173,4.143L4.558,2.271L3.578,2.271L4.671,5.224L5.675,5.224L6.768,2.271L5.787,2.271Z" fill="#FFFFFF"/>
<path d="M9.122,2.271L9.122,2.548C8.927,2.324 8.637,2.188 8.241,2.188C7.468,2.188 6.83,2.867 6.83,3.748C6.83,4.628 7.468,5.307 8.241,5.307C8.637,5.307 8.927,5.171 9.122,4.947L9.122,5.224L10.008,5.224L10.008,2.271L9.122,2.271ZM8.419,4.468C8.011,4.468 7.716,4.191 7.716,3.748C7.716,3.305 8.011,3.027 8.419,3.027C8.826,3.027 9.122,3.305 9.122,3.748C9.122,4.191 8.826,4.468 8.419,4.468Z" fill="#FFFFFF"/>
<path d="M10.658,5.224L11.544,5.224L11.544,0.912L10.658,0.912L10.658,5.224Z" fill="#FFFFFF"/>
<path d="M12.635,2.011C12.925,2.011 13.167,1.769 13.167,1.479C13.167,1.19 12.925,0.948 12.635,0.948C12.346,0.948 12.103,1.19 12.103,1.479C12.103,1.769 12.346,2.011 12.635,2.011ZM12.192,5.224L13.078,5.224L13.078,2.271L12.192,2.271L12.192,5.224Z" fill="#FFFFFF"/>
<path d="M15.493,2.188C15.097,2.188 14.807,2.324 14.613,2.548L14.613,1.089L13.726,1.089L13.726,5.224L14.613,5.224L14.613,4.947C14.807,5.171 15.097,5.307 15.493,5.307C16.267,5.307 16.904,4.628 16.904,3.748C16.904,2.867 16.267,2.188 15.493,2.188ZM15.315,4.468C14.908,4.468 14.613,4.191 14.613,3.748C14.613,3.305 14.908,3.027 15.315,3.027C15.723,3.027 16.018,3.305 16.018,3.748C16.018,4.191 15.723,4.468 15.315,4.468Z" fill="#FFFFFF"/>
<path d="M17.407,5.224L18.293,5.224L18.293,0.912L17.407,0.912L17.407,5.224Z" fill="#FFFFFF"/>
<path d="M19.733,4.102L21.83,4.102C21.853,3.99 21.865,3.872 21.865,3.748C21.865,2.856 21.227,2.188 20.365,2.188C19.432,2.188 18.794,2.867 18.794,3.748C18.794,4.628 19.42,5.307 20.43,5.307C20.991,5.307 21.428,5.1 21.718,4.699L21.009,4.291C20.891,4.421 20.684,4.515 20.442,4.515C20.117,4.515 19.845,4.409 19.733,4.102ZM19.715,3.44C19.798,3.139 20.022,2.974 20.359,2.974C20.625,2.974 20.891,3.098 20.985,3.44L19.715,3.44Z" fill="#FFFFFF"/>
<path d="M25.262,5.307C26.131,5.307 26.828,4.628 26.828,3.748C26.828,2.867 26.131,2.188 25.262,2.188C24.394,2.188 23.697,2.867 23.697,3.748C23.697,4.628 24.394,5.307 25.262,5.307ZM25.262,4.445C24.878,4.445 24.583,4.167 24.583,3.748C24.583,3.328 24.878,3.051 25.262,3.051C25.646,3.051 25.941,3.328 25.941,3.748C25.941,4.167 25.646,4.445 25.262,4.445Z" fill="#FFFFFF"/>
<path d="M29.059,2.188C28.67,2.188 28.374,2.33 28.215,2.548L28.215,2.271L27.329,2.271L27.329,5.224L28.215,5.224L28.215,3.612C28.215,3.192 28.439,3.003 28.764,3.003C29.048,3.003 29.278,3.175 29.278,3.541L29.278,5.224L30.164,5.224L30.164,3.411C30.164,2.613 29.656,2.188 29.059,2.188Z" fill="#FFFFFF"/>
<path d="M33.98,3.121L33.98,2.271L33.372,2.271L33.372,1.444L32.486,1.71L32.486,2.271L32.013,2.271L32.013,3.121L32.486,3.121L32.486,4.167C32.486,4.994 32.822,5.342 33.98,5.224L33.98,4.421C33.59,4.445 33.372,4.421 33.372,4.167L33.372,3.121L33.98,3.121Z" fill="#FFFFFF"/>
<path d="M36.212,2.188C35.823,2.188 35.527,2.33 35.368,2.548L35.368,1.089L34.482,1.089L34.482,5.224L35.368,5.224L35.368,3.612C35.368,3.192 35.592,3.003 35.917,3.003C36.201,3.003 36.431,3.175 36.431,3.541L36.431,5.224L37.317,5.224L37.317,3.411C37.317,2.613 36.809,2.188 36.212,2.188Z" fill="#FFFFFF"/>
<path d="M38.717,4.102L40.814,4.102C40.838,3.99 40.85,3.872 40.85,3.748C40.85,2.856 40.212,2.188 39.349,2.188C38.416,2.188 37.778,2.867 37.778,3.748C37.778,4.628 38.404,5.307 39.414,5.307C39.975,5.307 40.412,5.1 40.702,4.699L39.993,4.291C39.875,4.421 39.668,4.515 39.426,4.515C39.101,4.515 38.829,4.409 38.717,4.102ZM38.699,3.44C38.782,3.139 39.007,2.974 39.343,2.974C39.609,2.974 39.875,3.098 39.969,3.44L38.699,3.44Z" fill="#FFFFFF"/>
<path d="M4.65,16.054L6.373,16.054L4.03,9.162L2.021,9.162L-0.322,16.054L1.401,16.054L1.746,14.971L4.305,14.971L4.65,16.054ZM2.218,13.494L3.026,10.964L3.833,13.494L2.218,13.494Z" fill="#FFFFFF"/>
<path d="M9.855,10.994C9.195,10.994 8.713,11.22 8.388,11.594L8.388,11.131L6.911,11.131L6.911,18.023L8.388,18.023L8.388,15.591C8.713,15.965 9.195,16.192 9.855,16.192C11.145,16.192 12.208,15.059 12.208,13.593C12.208,12.126 11.145,10.994 9.855,10.994ZM9.56,14.794C8.88,14.794 8.388,14.331 8.388,13.593C8.388,12.854 8.88,12.391 9.56,12.391C10.239,12.391 10.731,12.854 10.731,13.593C10.731,14.331 10.239,14.794 9.56,14.794Z" fill="#FFFFFF"/>
<path d="M15.989,10.994C15.329,10.994 14.847,11.22 14.522,11.594L14.522,11.131L13.045,11.131L13.045,18.023L14.522,18.023L14.522,15.591C14.847,15.965 15.329,16.192 15.989,16.192C17.278,16.192 18.342,15.059 18.342,13.593C18.342,12.126 17.278,10.994 15.989,10.994ZM15.693,14.794C15.014,14.794 14.522,14.331 14.522,13.593C14.522,12.854 15.014,12.391 15.693,12.391C16.373,12.391 16.865,12.854 16.865,13.593C16.865,14.331 16.373,14.794 15.693,14.794Z" fill="#FFFFFF"/>
<path d="M19.179,16.054L20.656,16.054L20.656,8.867L19.179,8.867L19.179,16.054Z" fill="#FFFFFF"/>
<path d="M23.056,14.183L26.551,14.183C26.59,13.996 26.61,13.799 26.61,13.593C26.61,12.106 25.546,10.994 24.109,10.994C22.554,10.994 21.49,12.126 21.49,13.593C21.49,15.059 22.534,16.192 24.217,16.192C25.153,16.192 25.881,15.847 26.364,15.178L25.182,14.498C24.985,14.715 24.641,14.872 24.237,14.872C23.696,14.872 23.243,14.695 23.056,14.183ZM23.026,13.081C23.164,12.579 23.538,12.303 24.099,12.303C24.542,12.303 24.985,12.51 25.143,13.081L23.026,13.081Z" fill="#FFFFFF"/>
<path d="M32.37,16.192C33.866,16.192 34.929,15.404 34.929,14.075C34.929,12.618 33.758,12.254 32.714,11.939C31.641,11.614 31.474,11.397 31.474,11.082C31.474,10.806 31.72,10.56 32.212,10.56C32.842,10.56 33.167,10.866 33.403,11.358L34.733,10.58C34.23,9.566 33.344,9.025 32.212,9.025C31.021,9.025 29.899,9.792 29.899,11.121C29.899,12.441 30.903,12.933 31.927,13.218C32.96,13.504 33.354,13.671 33.354,14.095C33.354,14.36 33.167,14.656 32.419,14.656C31.641,14.656 31.218,14.272 30.972,13.701L29.613,14.488C29.997,15.503 30.923,16.192 32.37,16.192Z" fill="#FFFFFF"/>
<path d="M38.408,12.549L38.408,11.131L37.394,11.131L37.394,9.753L35.917,10.196L35.917,11.131L35.129,11.131L35.129,12.549L35.917,12.549L35.917,14.292C35.917,15.67 36.478,16.251 38.408,16.054L38.408,14.715C37.758,14.754 37.394,14.715 37.394,14.292L37.394,12.549L38.408,12.549Z" fill="#FFFFFF"/>
<path d="M41.511,16.192C42.958,16.192 44.119,15.059 44.119,13.593C44.119,12.126 42.958,10.994 41.511,10.994C40.063,10.994 38.902,12.126 38.902,13.593C38.902,15.059 40.063,16.192 41.511,16.192ZM41.511,14.754C40.871,14.754 40.378,14.292 40.378,13.593C40.378,12.894 40.871,12.431 41.511,12.431C42.151,12.431 42.643,12.894 42.643,13.593C42.643,14.292 42.151,14.754 41.511,14.754Z" fill="#FFFFFF"/>
<path d="M46.432,12.008L46.432,11.131L44.955,11.131L44.955,16.054L46.432,16.054L46.432,13.829C46.432,12.854 47.298,12.608 47.908,12.707L47.908,11.033C47.288,11.033 46.628,11.348 46.432,12.008Z" fill="#FFFFFF"/>
<path d="M49.774,14.183L53.269,14.183C53.308,13.996 53.328,13.799 53.328,13.593C53.328,12.106 52.264,10.994 50.827,10.994C49.272,10.994 48.208,12.126 48.208,13.593C48.208,15.059 49.252,16.192 50.935,16.192C51.871,16.192 52.599,15.847 53.082,15.178L51.9,14.498C51.703,14.715 51.359,14.872 50.955,14.872C50.414,14.872 49.961,14.695 49.774,14.183ZM49.744,13.081C49.882,12.579 50.256,12.303 50.817,12.303C51.26,12.303 51.703,12.51 51.861,13.081L49.744,13.081Z" fill="#FFFFFF"/>
</svg>
