<svg width="30" height="18" viewBox="0 0 30 18" fill="none" xmlns="http://www.w3.org/2000/svg" xmlns:xlink="http://www.w3.org/1999/xlink">
<path d="M-0.291,14.384C-0.996,15.089 -0.996,16.232 -0.291,16.937C0.414,17.642 1.557,17.642 2.262,16.937L-0.291,14.384ZM13.619,3.027L14.895,1.751L13.619,0.475L12.343,1.751L13.619,3.027ZM24.976,16.937C25.681,17.642 26.824,17.642 27.528,16.937C28.233,16.232 28.233,15.089 27.528,14.384L24.976,16.937ZM2.262,16.937L14.895,4.303L12.343,1.751L-0.291,14.384L2.262,16.937ZM12.343,4.303L24.976,16.937L27.528,14.384L14.895,1.751L12.343,4.303Z" fill="#3E2E4D"/>
</svg>
