<svg width="108" height="32" viewBox="0 0 108 32" fill="none" xmlns="http://www.w3.org/2000/svg" xmlns:xlink="http://www.w3.org/1999/xlink">
<path d="M12.048,5.76L6.432,5.76L6.432,8L9.424,8C9.024,9.072 8.048,9.728 6.56,9.728C4.384,9.728 3.04,8.336 3.04,6.432C3.04,4.464 4.448,3.072 6.336,3.072C7.6,3.072 8.608,3.648 9.072,4.384L11.248,3.136C10.304,1.632 8.496,0.576 6.352,0.576C3.056,0.576 0.48,3.168 0.48,6.416C0.48,9.632 3.008,12.224 6.528,12.224C9.664,12.224 12.048,10.144 12.048,6.72L12.048,5.76Z" fill="#FFFFFF"/>
<path d="M15.251,9.536L15.251,7.552L19.251,7.552L19.251,5.12L15.251,5.12L15.251,3.264L19.651,3.264L19.651,0.8L12.691,0.8L12.691,12L19.731,12L19.731,9.536L15.251,9.536Z" fill="#FFFFFF"/>
<path d="M27.896,0.8L19.576,0.8L19.576,3.264L22.456,3.264L22.456,12L25.016,12L25.016,3.264L27.896,3.264L27.896,0.8Z" fill="#FFFFFF"/>
<path d="M31.416,0.8L31.416,12L33.976,12L33.976,0.8L31.416,0.8Z" fill="#FFFFFF"/>
<path d="M42.621,0.8L34.301,0.8L34.301,3.264L37.181,3.264L37.181,12L39.741,12L39.741,3.264L42.621,3.264L42.621,0.8Z" fill="#FFFFFF"/>
<path d="M51.485,12.224C54.701,12.224 57.309,9.696 57.309,6.4C57.309,3.104 54.701,0.576 51.485,0.576C48.269,0.576 45.661,3.104 45.661,6.4C45.661,9.696 48.269,12.224 51.485,12.224ZM51.485,9.728C49.661,9.728 48.221,8.4 48.221,6.4C48.221,4.4 49.661,3.072 51.485,3.072C53.309,3.072 54.749,4.4 54.749,6.4C54.749,8.4 53.309,9.728 51.485,9.728Z" fill="#FFFFFF"/>
<path d="M64.191,0.8L64.191,6.88L59.871,0.8L57.951,0.8L57.951,12L60.511,12L60.511,5.92L64.831,12L66.751,12L66.751,0.8L64.191,0.8Z" fill="#FFFFFF"/>
<path d="M12.048,24.784L12.048,25.216C12.048,26.614 11.552,27.792 10.56,28.752C9.568,29.702 8.261,30.176 6.64,30.176C4.933,30.176 3.525,29.622 2.416,28.512C1.307,27.392 0.752,26.022 0.752,24.4C0.752,22.779 1.301,21.414 2.4,20.304C3.499,19.184 4.891,18.624 6.576,18.624C7.6,18.624 8.539,18.87 9.392,19.36C10.256,19.851 10.923,20.507 11.392,21.328L10.64,21.776C10.267,21.072 9.712,20.507 8.976,20.08C8.251,19.654 7.451,19.44 6.576,19.44C5.125,19.44 3.931,19.92 2.992,20.88C2.064,21.83 1.6,23.003 1.6,24.4C1.6,25.798 2.069,26.976 3.008,27.936C3.947,28.886 5.157,29.36 6.64,29.36C7.952,29.36 9.013,29.003 9.824,28.288C10.635,27.574 11.088,26.672 11.184,25.584L6.432,25.584L6.432,24.784L12.048,24.784Z" fill="#FFFFFF"/>
<path d="M23.405,28.496C22.285,29.616 20.92,30.176 19.309,30.176C17.699,30.176 16.333,29.616 15.213,28.496C14.093,27.366 13.533,26 13.533,24.4C13.533,22.8 14.093,21.44 15.213,20.32C16.333,19.19 17.699,18.624 19.309,18.624C20.92,18.624 22.285,19.19 23.405,20.32C24.525,21.44 25.085,22.8 25.085,24.4C25.085,26 24.525,27.366 23.405,28.496ZM15.805,27.92C16.765,28.88 17.933,29.36 19.309,29.36C20.685,29.36 21.848,28.88 22.797,27.92C23.757,26.95 24.237,25.776 24.237,24.4C24.237,23.024 23.757,21.856 22.797,20.896C21.848,19.926 20.685,19.44 19.309,19.44C17.933,19.44 16.765,19.926 15.805,20.896C14.856,21.856 14.381,23.024 14.381,24.4C14.381,25.776 14.856,26.95 15.805,27.92Z" fill="#FFFFFF"/>
<path d="M36.468,28.496C35.348,29.616 33.982,30.176 32.372,30.176C30.761,30.176 29.396,29.616 28.276,28.496C27.156,27.366 26.596,26 26.596,24.4C26.596,22.8 27.156,21.44 28.276,20.32C29.396,19.19 30.761,18.624 32.372,18.624C33.982,18.624 35.348,19.19 36.468,20.32C37.588,21.44 38.148,22.8 38.148,24.4C38.148,26 37.588,27.366 36.468,28.496ZM28.868,27.92C29.828,28.88 30.996,29.36 32.372,29.36C33.748,29.36 34.91,28.88 35.86,27.92C36.82,26.95 37.3,25.776 37.3,24.4C37.3,23.024 36.82,21.856 35.86,20.896C34.91,19.926 33.748,19.44 32.372,19.44C30.996,19.44 29.828,19.926 28.868,20.896C27.918,21.856 27.444,23.024 27.444,24.4C27.444,25.776 27.918,26.95 28.868,27.92Z" fill="#FFFFFF"/>
<path d="M50.954,24.784L50.954,25.216C50.954,26.614 50.458,27.792 49.466,28.752C48.474,29.702 47.168,30.176 45.546,30.176C43.84,30.176 42.432,29.622 41.322,28.512C40.213,27.392 39.658,26.022 39.658,24.4C39.658,22.779 40.208,21.414 41.306,20.304C42.405,19.184 43.797,18.624 45.482,18.624C46.506,18.624 47.445,18.87 48.298,19.36C49.162,19.851 49.829,20.507 50.298,21.328L49.546,21.776C49.173,21.072 48.618,20.507 47.882,20.08C47.157,19.654 46.357,19.44 45.482,19.44C44.032,19.44 42.837,19.92 41.898,20.88C40.97,21.83 40.506,23.003 40.506,24.4C40.506,25.798 40.976,26.976 41.914,27.936C42.853,28.886 44.064,29.36 45.546,29.36C46.858,29.36 47.92,29.003 48.73,28.288C49.541,27.574 49.994,26.672 50.09,25.584L45.338,25.584L45.338,24.784L50.954,24.784Z" fill="#FFFFFF"/>
<path d="M53.927,29.2L59.208,29.2L59.208,30L53.079,30L53.079,18.8L53.927,18.8L53.927,29.2Z" fill="#FFFFFF"/>
<path d="M61.818,29.2L67.418,29.2L67.418,30L60.97,30L60.97,18.8L67.338,18.8L67.338,19.6L61.818,19.6L61.818,23.952L66.938,23.952L66.938,24.752L61.818,24.752L61.818,29.2Z" fill="#FFFFFF"/>
<path d="M77.575,18.8C78.578,18.8 79.41,19.131 80.071,19.792C80.732,20.454 81.063,21.28 81.063,22.272C81.063,23.264 80.732,24.091 80.071,24.752C79.41,25.403 78.578,25.728 77.575,25.728L74.615,25.728L74.615,30L73.767,30L73.767,18.8L77.575,18.8ZM77.575,24.928C78.343,24.928 78.972,24.678 79.463,24.176C79.964,23.675 80.215,23.04 80.215,22.272C80.215,21.494 79.964,20.854 79.463,20.352C78.972,19.851 78.343,19.6 77.575,19.6L74.615,19.6L74.615,24.928L77.575,24.928Z" fill="#FFFFFF"/>
<path d="M84.006,29.2L89.286,29.2L89.286,30L83.158,30L83.158,18.8L84.006,18.8L84.006,29.2Z" fill="#FFFFFF"/>
<path d="M98.897,30L97.809,27.152L92.193,27.152L91.105,30L90.209,30L94.561,18.8L95.457,18.8L99.793,30L98.897,30ZM92.513,26.352L97.505,26.352L95.009,19.84L92.513,26.352Z" fill="#FFFFFF"/>
<path d="M107.762,18.8L103.682,25.392L103.682,30L102.834,30L102.834,25.392L98.754,18.8L99.714,18.8L103.266,24.576L106.802,18.8L107.762,18.8Z" fill="#FFFFFF"/>
</svg>
