<svg width="16" height="14" viewBox="0 0 16 14" fill="none" xmlns="http://www.w3.org/2000/svg" xmlns:xlink="http://www.w3.org/1999/xlink">
<path d="M14.233,-0.231C14.156,-0.231 14.081,-0.213 14.012,-0.179L10.282,1.686L6.064,-0.189C6.057,-0.192 6.049,-0.192 6.042,-0.195C6.023,-0.202 6.004,-0.208 5.984,-0.213C5.964,-0.218 5.944,-0.222 5.924,-0.225C5.884,-0.228 5.844,-0.228 5.804,-0.225C5.784,-0.222 5.764,-0.218 5.745,-0.213C5.725,-0.208 5.706,-0.202 5.687,-0.195C5.679,-0.192 5.671,-0.192 5.664,-0.189L1.234,1.78C1.056,1.859 0.942,2.036 0.942,2.23L0.942,13.06C0.942,13.226 1.026,13.381 1.166,13.472C1.306,13.563 1.482,13.577 1.634,13.509L5.864,11.629L10.095,13.509C10.102,13.512 10.11,13.509 10.117,13.514C10.236,13.567 10.373,13.564 10.49,13.506C10.498,13.502 10.507,13.506 10.514,13.5L14.452,11.531C14.619,11.448 14.725,11.277 14.725,11.091L14.725,0.261C14.725,-0.011 14.504,-0.231 14.233,-0.231ZM5.372,10.771L1.926,12.302L1.926,2.55L5.372,1.019L5.372,10.771ZM9.802,12.302L6.357,10.771L6.357,1.019L9.802,2.55L9.802,12.302ZM13.74,10.786L10.787,12.263L10.787,2.534L13.74,1.058L13.74,10.786L13.74,10.786Z" fill="#84829A"/>
</svg>
