<svg width="30" height="30" viewBox="0 0 30 30" fill="none" xmlns="http://www.w3.org/2000/svg" xmlns:xlink="http://www.w3.org/1999/xlink">
<path d="M29.394,1.541L16.986,28.612C16.882,28.839 16.706,29.025 16.485,29.141C16.264,29.257 16.011,29.297 15.766,29.254C15.52,29.211 15.295,29.087 15.127,28.903C14.959,28.719 14.857,28.484 14.836,28.236L13.787,15.651L1.202,14.602C0.954,14.582 0.719,14.479 0.535,14.311C0.351,14.143 0.228,13.918 0.185,13.673C0.142,13.427 0.181,13.174 0.297,12.953C0.413,12.733 0.599,12.557 0.826,12.453L27.898,0.045C28.107,-0.051 28.341,-0.081 28.567,-0.04C28.794,0.001 29.003,0.11 29.165,0.273C29.328,0.435 29.437,0.644 29.478,0.871C29.519,1.097 29.489,1.331 29.393,1.54L29.394,1.541Z" fill="#080809"/>
</svg>
