<svg width="14" height="6" viewBox="0 0 14 6" fill="none" xmlns="http://www.w3.org/2000/svg" xmlns:xlink="http://www.w3.org/1999/xlink">
<path d="M1.754,0.449C1.537,0.286 1.228,0.33 1.065,0.548C0.902,0.765 0.946,1.074 1.164,1.237L1.754,0.449ZM13.568,1.237C13.786,1.074 13.83,0.765 13.667,0.548C13.504,0.33 13.195,0.286 12.978,0.449L13.568,1.237ZM6.775,4.83L6.48,5.224L6.775,4.83ZM1.164,1.237L6.48,5.224L7.071,4.436L1.754,0.449L1.164,1.237ZM8.252,5.224L13.568,1.237L12.978,0.449L7.661,4.436L8.252,5.224ZM6.48,5.224C7.005,5.618 7.727,5.618 8.252,5.224L7.661,4.436C7.486,4.568 7.246,4.568 7.071,4.436L6.48,5.224Z" fill="#39425D"/>
</svg>
