<svg width="22" height="20" viewBox="0 0 22 20" fill="none" xmlns="http://www.w3.org/2000/svg" xmlns:xlink="http://www.w3.org/1999/xlink">
<path d="M18.409,2.333C17.39,1.238 15.963,0.615 14.468,0.613C12.972,0.615 11.543,1.237 10.523,2.332L10.176,2.699L9.828,2.332C7.804,0.154 4.397,0.029 2.219,2.053C2.122,2.142 2.029,2.235 1.939,2.332C-0.208,4.648 -0.208,8.227 1.939,10.543L9.665,18.69C9.932,18.972 10.377,18.984 10.659,18.717C10.669,18.708 10.678,18.699 10.686,18.69L18.409,10.543C20.556,8.227 20.556,4.648 18.409,2.333ZM17.391,9.574L17.39,9.574L10.176,17.183L2.96,9.574C1.32,7.804 1.32,5.07 2.96,3.3C4.45,1.686 6.966,1.585 8.581,3.074C8.659,3.147 8.735,3.222 8.807,3.3L9.665,4.205C9.947,4.486 10.404,4.486 10.686,4.205L11.544,3.301C13.034,1.687 15.55,1.585 17.165,3.075C17.243,3.147 17.318,3.223 17.391,3.301C19.045,5.073 19.057,7.813 17.391,9.574Z" fill="#4152CA"/>
</svg>
