<svg width="16" height="16" viewBox="0 0 16 16" fill="none" xmlns="http://www.w3.org/2000/svg" xmlns:xlink="http://www.w3.org/1999/xlink">
<path d="M15.797,0.097L9.028,14.864C8.972,14.988 8.875,15.089 8.755,15.153C8.635,15.216 8.497,15.238 8.363,15.214C8.229,15.191 8.106,15.123 8.014,15.023C7.923,14.923 7.867,14.795 7.855,14.659L7.283,7.794L0.418,7.222C0.283,7.211 0.155,7.155 0.054,7.063C-0.046,6.971 -0.113,6.849 -0.137,6.715C-0.16,6.581 -0.139,6.443 -0.075,6.322C-0.012,6.202 0.089,6.106 0.213,6.049L14.981,-0.719C15.095,-0.772 15.222,-0.788 15.346,-0.765C15.469,-0.743 15.583,-0.684 15.672,-0.595C15.761,-0.506 15.82,-0.392 15.843,-0.269C15.865,-0.145 15.849,-0.018 15.796,0.097L15.797,0.097Z" fill="#080809"/>
</svg>
