<svg width="32" height="18" viewBox="0 0 32 18" fill="none" xmlns="http://www.w3.org/2000/svg" xmlns:xlink="http://www.w3.org/1999/xlink">
<path d="M0.586,14.586C-0.195,15.367 -0.195,16.633 0.586,17.414C1.367,18.195 2.633,18.195 3.414,17.414L0.586,14.586ZM16,2L17.414,0.586L16,-0.828L14.586,0.586L16,2ZM28.586,17.414C29.367,18.195 30.633,18.195 31.414,17.414C32.195,16.633 32.195,15.367 31.414,14.586L28.586,17.414ZM3.414,17.414L17.414,3.414L14.586,0.586L0.586,14.586L3.414,17.414ZM14.586,3.414L28.586,17.414L31.414,14.586L17.414,0.586L14.586,3.414Z" fill="#3E2E4D"/>
</svg>
