<svg width="22" height="18" viewBox="0 0 22 18" fill="none" xmlns="http://www.w3.org/2000/svg" xmlns:xlink="http://www.w3.org/1999/xlink">
<path d="M19.427,17.024C18.983,17.033 18.548,16.906 18.179,16.661C17.905,16.481 17.584,16.386 17.255,16.386C16.927,16.386 16.606,16.481 16.332,16.661C15.959,16.898 15.526,17.024 15.084,17.024C14.643,17.024 14.21,16.898 13.837,16.661C13.562,16.481 13.241,16.386 12.913,16.386C12.585,16.386 12.264,16.481 11.989,16.661C11.617,16.898 11.184,17.024 10.742,17.024C10.3,17.024 9.867,16.898 9.495,16.661C9.22,16.481 8.899,16.386 8.571,16.386C8.243,16.386 7.923,16.481 7.648,16.661C7.31,16.885 6.916,17.01 6.51,17.021L6.488,16.382C6.787,16.375 7.078,16.28 7.325,16.11C7.697,15.872 8.13,15.746 8.572,15.746C9.013,15.746 9.446,15.872 9.819,16.11C10.093,16.289 10.414,16.385 10.742,16.385C11.071,16.385 11.392,16.289 11.666,16.11C12.039,15.872 12.472,15.746 12.914,15.746C13.356,15.746 13.789,15.872 14.161,16.11C14.436,16.289 14.757,16.385 15.085,16.385C15.413,16.385 15.734,16.289 16.009,16.11C16.382,15.872 16.814,15.746 17.256,15.746C17.698,15.746 18.131,15.872 18.504,16.11C18.779,16.29 19.101,16.386 19.43,16.386C19.758,16.386 20.08,16.29 20.356,16.11C20.724,15.865 21.159,15.738 21.601,15.747L21.601,16.386C21.272,16.377 20.948,16.473 20.677,16.661C20.307,16.906 19.871,17.033 19.427,17.024L19.427,17.024Z" fill="#FFFFFF"/>
<path d="M2.06,17.024C1.617,17.033 1.182,16.906 0.813,16.661C0.542,16.473 0.218,16.377 -0.111,16.385L-0.111,15.747C0.332,15.738 0.767,15.864 1.136,16.11C1.407,16.298 1.731,16.395 2.06,16.385C2.389,16.395 2.713,16.298 2.984,16.11C3.352,15.864 3.787,15.738 4.229,15.747C4.661,15.737 5.086,15.858 5.447,16.094L5.125,16.645C4.861,16.467 4.548,16.376 4.229,16.385C3.901,16.377 3.579,16.473 3.309,16.66C2.94,16.906 2.504,17.034 2.06,17.024L2.06,17.024Z" fill="#FFFFFF"/>
<path d="M19.427,14.789C18.984,14.798 18.548,14.671 18.179,14.425C17.904,14.246 17.583,14.15 17.254,14.15C16.926,14.15 16.605,14.246 16.33,14.425C15.957,14.663 15.525,14.789 15.083,14.789C14.641,14.789 14.208,14.663 13.836,14.425C13.561,14.246 13.24,14.15 12.912,14.15C12.584,14.15 12.263,14.246 11.989,14.425C11.616,14.663 11.183,14.789 10.742,14.789C10.3,14.789 9.867,14.663 9.494,14.425C9.22,14.246 8.899,14.15 8.571,14.15C8.243,14.15 7.922,14.246 7.648,14.425C7.279,14.671 6.844,14.798 6.4,14.789C5.957,14.798 5.522,14.671 5.153,14.425C4.883,14.238 4.559,14.141 4.23,14.15C3.901,14.141 3.577,14.238 3.307,14.425C2.939,14.671 2.504,14.798 2.061,14.789C1.618,14.798 1.183,14.671 0.814,14.425C0.543,14.237 0.219,14.141 -0.111,14.15L-0.111,13.511C0.332,13.502 0.767,13.629 1.136,13.875C1.407,14.063 1.73,14.159 2.06,14.15C2.389,14.159 2.712,14.063 2.983,13.875C3.351,13.629 3.786,13.503 4.228,13.511C4.672,13.502 5.107,13.629 5.476,13.875C5.747,14.063 6.071,14.159 6.4,14.15C6.729,14.159 7.053,14.063 7.324,13.875C7.696,13.637 8.129,13.511 8.571,13.511C9.013,13.511 9.446,13.637 9.818,13.875C10.093,14.054 10.414,14.15 10.742,14.15C11.07,14.15 11.391,14.054 11.665,13.875C12.038,13.637 12.471,13.511 12.912,13.511C13.354,13.511 13.787,13.637 14.16,13.875C14.434,14.054 14.755,14.15 15.083,14.15C15.411,14.15 15.732,14.054 16.007,13.875C16.38,13.638 16.813,13.512 17.255,13.512C17.697,13.512 18.13,13.638 18.503,13.875C18.778,14.054 19.099,14.15 19.428,14.15C19.756,14.15 20.078,14.054 20.353,13.875C20.722,13.629 21.157,13.502 21.601,13.511L21.601,14.15C21.271,14.141 20.946,14.237 20.675,14.425C20.306,14.671 19.871,14.798 19.427,14.789L19.427,14.789Z" fill="#FFFFFF"/>
<path d="M19.427,12.554C18.983,12.563 18.548,12.436 18.179,12.191C17.908,12.003 17.584,11.906 17.255,11.915C17.013,11.907 16.773,11.959 16.556,12.065L16.274,11.491C16.579,11.341 16.916,11.268 17.255,11.276C17.699,11.267 18.135,11.394 18.504,11.64C18.779,11.82 19.101,11.916 19.43,11.916C19.759,11.916 20.08,11.82 20.356,11.64C20.724,11.395 21.159,11.268 21.601,11.277L21.601,11.915C21.272,11.906 20.948,12.003 20.677,12.19C20.307,12.436 19.871,12.563 19.427,12.554Z" fill="#FFFFFF"/>
<path d="M15.081,12.554C14.638,12.563 14.204,12.436 13.836,12.191C13.561,12.011 13.24,11.915 12.912,11.915C12.584,11.915 12.262,12.011 11.988,12.191C11.615,12.428 11.182,12.554 10.74,12.554C10.299,12.554 9.866,12.428 9.493,12.191C9.219,12.011 8.898,11.916 8.569,11.916C8.241,11.916 7.92,12.011 7.646,12.191C7.277,12.436 6.842,12.563 6.399,12.554C5.956,12.563 5.521,12.436 5.152,12.19C4.881,12.003 4.557,11.906 4.228,11.915C3.9,11.906 3.577,12.003 3.308,12.19C2.939,12.436 2.503,12.563 2.06,12.554C1.617,12.563 1.182,12.436 0.813,12.19C0.542,12.003 0.218,11.906 -0.111,11.915L-0.111,11.277C0.332,11.267 0.767,11.394 1.136,11.64C1.407,11.828 1.731,11.924 2.06,11.915C2.389,11.924 2.713,11.828 2.984,11.64C3.352,11.394 3.787,11.267 4.229,11.277C4.672,11.267 5.108,11.394 5.476,11.64C5.747,11.828 6.071,11.924 6.4,11.915C6.73,11.924 7.053,11.828 7.324,11.64C7.697,11.403 8.13,11.277 8.571,11.277C9.013,11.277 9.446,11.403 9.819,11.64C10.093,11.819 10.414,11.915 10.743,11.915C11.071,11.915 11.392,11.819 11.666,11.64C12.039,11.402 12.472,11.276 12.914,11.276C13.356,11.276 13.789,11.402 14.162,11.64C14.443,11.829 14.776,11.925 15.115,11.915C15.14,11.915 15.165,11.914 15.189,11.911L15.274,12.544C15.21,12.551 15.145,12.555 15.081,12.554L15.081,12.554Z" fill="#FFFFFF"/>
<path d="M19.427,10.318C18.984,10.328 18.548,10.201 18.179,9.955C17.904,9.775 17.583,9.68 17.254,9.68C16.926,9.68 16.605,9.775 16.33,9.955C15.957,10.192 15.525,10.318 15.083,10.318C14.641,10.318 14.208,10.192 13.836,9.955C13.561,9.776 13.24,9.68 12.912,9.68C12.584,9.68 12.263,9.776 11.989,9.955C11.616,10.192 11.183,10.318 10.742,10.318C10.3,10.318 9.867,10.192 9.494,9.955C9.22,9.776 8.899,9.68 8.571,9.68C8.243,9.68 7.922,9.776 7.648,9.955C7.279,10.201 6.844,10.328 6.4,10.318C5.957,10.328 5.522,10.201 5.153,9.955C4.883,9.767 4.559,9.671 4.23,9.68C3.901,9.671 3.577,9.767 3.307,9.955C2.939,10.201 2.504,10.327 2.061,10.318C1.618,10.328 1.183,10.201 0.814,9.955C0.543,9.767 0.219,9.67 -0.111,9.68L-0.111,9.041C0.332,9.032 0.767,9.159 1.136,9.405C1.407,9.592 1.73,9.689 2.06,9.68C2.389,9.689 2.712,9.592 2.983,9.405C3.351,9.159 3.786,9.032 4.228,9.041C4.672,9.032 5.107,9.159 5.476,9.405C5.747,9.592 6.071,9.689 6.4,9.68C6.729,9.689 7.053,9.592 7.324,9.405C7.696,9.167 8.129,9.041 8.571,9.041C9.013,9.041 9.446,9.167 9.818,9.405C10.093,9.584 10.414,9.68 10.742,9.68C11.07,9.68 11.391,9.584 11.665,9.405C12.038,9.167 12.471,9.041 12.912,9.041C13.354,9.041 13.787,9.167 14.16,9.405C14.434,9.584 14.755,9.68 15.083,9.68C15.411,9.68 15.732,9.584 16.007,9.405C16.38,9.167 16.813,9.041 17.255,9.041C17.697,9.041 18.13,9.167 18.503,9.405C18.778,9.584 19.099,9.68 19.428,9.68C19.756,9.68 20.078,9.584 20.353,9.405C20.722,9.159 21.157,9.032 21.601,9.041L21.601,9.68C21.271,9.671 20.946,9.767 20.675,9.955C20.306,10.201 19.871,10.327 19.427,10.318L19.427,10.318Z" fill="#FFFFFF"/>
<path d="M14.877,10.048L14.275,9.836C14.43,9.39 14.494,8.918 14.461,8.447C14.429,7.976 14.302,7.516 14.088,7.096L11.894,2.801C11.873,2.758 11.861,2.712 11.859,2.664C11.858,2.617 11.868,2.569 11.887,2.526C11.906,2.482 11.935,2.444 11.971,2.413C12.008,2.382 12.05,2.359 12.096,2.347L16.467,1.182C16.61,1.144 16.732,1.052 16.807,0.926C16.882,0.799 16.903,0.648 16.868,0.505C16.832,0.362 16.741,0.24 16.615,0.163C16.489,0.087 16.338,0.064 16.195,0.099L10.904,1.363C10.791,1.39 10.686,1.442 10.596,1.516C10.507,1.59 10.435,1.684 10.388,1.79C10.34,1.896 10.318,2.011 10.322,2.128C10.326,2.244 10.357,2.357 10.412,2.46L11.983,5.378C12.023,5.452 12.032,5.539 12.008,5.62C11.984,5.7 11.929,5.768 11.856,5.809L9.828,6.927L9.52,6.367L11.27,5.402L9.851,2.762C9.749,2.574 9.692,2.365 9.685,2.151C9.677,1.937 9.718,1.724 9.806,1.528C9.894,1.333 10.025,1.161 10.19,1.024C10.355,0.888 10.549,0.791 10.758,0.742L16.045,-0.522C16.353,-0.6 16.679,-0.552 16.952,-0.39C17.224,-0.227 17.421,0.037 17.499,0.345C17.577,0.653 17.529,0.979 17.367,1.252C17.204,1.524 16.94,1.721 16.632,1.799L12.642,2.862L14.657,6.805C14.91,7.303 15.06,7.846 15.098,8.404C15.136,8.961 15.061,9.52 14.877,10.048L14.877,10.048Z" fill="#FFFFFF"/>
<path d="M8.833,8.017L4.403,8.017L4.403,8.655L8.833,8.655L8.833,8.017Z" transform="rotate(-57.712 6.618 8.336)" fill="#FFFFFF"/>
<path d="M17.769,7.924C17.296,7.924 16.833,7.783 16.439,7.52C16.045,7.257 15.738,6.883 15.557,6.445C15.376,6.008 15.328,5.526 15.421,5.062C15.513,4.597 15.741,4.171 16.076,3.836C16.411,3.501 16.838,3.273 17.302,3.18C17.767,3.088 18.248,3.135 18.686,3.317C19.123,3.498 19.497,3.805 19.76,4.199C20.024,4.592 20.164,5.055 20.164,5.529C20.163,6.164 19.911,6.773 19.462,7.222C19.013,7.671 18.404,7.923 17.769,7.924L17.769,7.924ZM17.769,3.773C17.422,3.773 17.082,3.876 16.794,4.069C16.505,4.262 16.28,4.536 16.147,4.857C16.014,5.178 15.979,5.531 16.047,5.872C16.115,6.212 16.282,6.525 16.527,6.771C16.773,7.016 17.086,7.184 17.427,7.251C17.767,7.319 18.12,7.284 18.441,7.151C18.762,7.019 19.036,6.793 19.229,6.505C19.422,6.216 19.525,5.876 19.525,5.529C19.525,5.063 19.34,4.617 19.01,4.288C18.681,3.959 18.235,3.773 17.769,3.773L17.769,3.773Z" fill="#FFFFFF"/>
</svg>
