<svg width="40" height="32" viewBox="0 0 40 32" fill="none" xmlns="http://www.w3.org/2000/svg" xmlns:xlink="http://www.w3.org/1999/xlink">
<path d="M34.918,31.491C34.106,31.507 33.308,31.275 32.631,30.825C32.128,30.496 31.539,30.321 30.938,30.321C30.336,30.321 29.748,30.496 29.245,30.825C28.561,31.26 27.768,31.491 26.958,31.491C26.148,31.491 25.355,31.26 24.671,30.825C24.168,30.495 23.579,30.32 22.978,30.32C22.376,30.32 21.787,30.495 21.284,30.825C20.601,31.26 19.807,31.491 18.997,31.491C18.187,31.491 17.394,31.26 16.711,30.825C16.208,30.496 15.62,30.32 15.018,30.32C14.417,30.32 13.829,30.496 13.326,30.825C12.706,31.236 11.983,31.465 11.24,31.485L11.199,30.314C11.748,30.301 12.281,30.127 12.733,29.814C13.416,29.379 14.209,29.148 15.019,29.148C15.829,29.148 16.622,29.379 17.305,29.814C17.808,30.144 18.397,30.319 18.998,30.319C19.6,30.319 20.188,30.144 20.692,29.814C21.375,29.379 22.169,29.148 22.979,29.148C23.789,29.148 24.583,29.379 25.266,29.814C25.769,30.144 26.358,30.319 26.959,30.319C27.561,30.319 28.149,30.144 28.653,29.814C29.336,29.38 30.129,29.149 30.939,29.149C31.749,29.149 32.543,29.38 33.226,29.814C33.731,30.144 34.321,30.32 34.924,30.32C35.526,30.32 36.116,30.144 36.621,29.814C37.297,29.365 38.093,29.133 38.904,29.149L38.904,30.32C38.3,30.304 37.707,30.48 37.21,30.824C36.532,31.275 35.732,31.508 34.918,31.491L34.918,31.491Z" fill="#FFFFFF"/>
<path d="M3.082,31.491C2.27,31.508 1.472,31.275 0.796,30.825C0.299,30.481 -0.294,30.304 -0.898,30.32L-0.898,29.15C-0.086,29.133 0.712,29.365 1.389,29.816C1.885,30.16 2.478,30.337 3.082,30.32C3.686,30.337 4.28,30.16 4.776,29.815C5.451,29.365 6.248,29.133 7.059,29.15C7.85,29.132 8.629,29.354 9.292,29.786L8.701,30.796C8.217,30.47 7.643,30.304 7.059,30.32C6.457,30.304 5.866,30.48 5.372,30.824C4.695,31.275 3.896,31.508 3.082,31.491L3.082,31.491Z" fill="#FFFFFF"/>
<path d="M34.92,27.393C34.107,27.41 33.309,27.177 32.631,26.727C32.128,26.398 31.539,26.222 30.937,26.222C30.335,26.222 29.746,26.398 29.242,26.727C28.559,27.162 27.765,27.393 26.955,27.393C26.146,27.393 25.352,27.162 24.669,26.727C24.166,26.398 23.578,26.223 22.976,26.223C22.375,26.223 21.787,26.398 21.284,26.727C20.6,27.162 19.807,27.393 18.997,27.393C18.187,27.393 17.394,27.162 16.711,26.727C16.208,26.398 15.619,26.223 15.018,26.223C14.417,26.223 13.829,26.398 13.325,26.727C12.649,27.177 11.851,27.41 11.039,27.393C10.227,27.41 9.429,27.177 8.753,26.727C8.257,26.383 7.664,26.206 7.06,26.222C6.457,26.206 5.864,26.383 5.368,26.727C4.693,27.177 3.896,27.409 3.085,27.393C2.273,27.41 1.474,27.177 0.798,26.727C0.301,26.382 -0.293,26.205 -0.898,26.222L-0.898,25.052C-0.086,25.035 0.712,25.267 1.388,25.718C1.885,26.062 2.478,26.239 3.082,26.222C3.685,26.239 4.278,26.062 4.774,25.718C5.449,25.268 6.246,25.035 7.057,25.052C7.87,25.034 8.669,25.267 9.345,25.718C9.841,26.062 10.435,26.239 11.039,26.222C11.642,26.239 12.236,26.062 12.732,25.718C13.415,25.283 14.208,25.052 15.018,25.052C15.828,25.052 16.621,25.283 17.304,25.718C17.808,26.047 18.396,26.222 18.998,26.222C19.599,26.222 20.187,26.047 20.691,25.718C21.374,25.283 22.167,25.052 22.977,25.052C23.787,25.052 24.58,25.283 25.263,25.718C25.767,26.047 26.355,26.222 26.956,26.222C27.558,26.222 28.146,26.047 28.649,25.718C29.333,25.283 30.127,25.052 30.937,25.052C31.748,25.052 32.542,25.283 33.226,25.718C33.73,26.047 34.319,26.222 34.921,26.222C35.523,26.222 36.112,26.047 36.616,25.718C37.293,25.268 38.092,25.035 38.904,25.052L38.904,26.222C38.299,26.205 37.705,26.382 37.207,26.727C36.53,27.177 35.732,27.409 34.92,27.393L34.92,27.393Z" fill="#FFFFFF"/>
<path d="M34.918,23.296C34.106,23.313 33.308,23.08 32.631,22.63C32.135,22.286 31.541,22.109 30.937,22.125C30.494,22.11 30.054,22.205 29.656,22.401L29.14,21.347C29.699,21.073 30.315,20.938 30.937,20.953C31.751,20.936 32.55,21.17 33.227,21.621C33.731,21.951 34.321,22.127 34.924,22.127C35.527,22.127 36.117,21.951 36.622,21.621C37.297,21.172 38.093,20.939 38.904,20.955L38.904,22.125C38.301,22.109 37.707,22.285 37.21,22.629C36.532,23.08 35.732,23.313 34.918,23.296Z" fill="#FFFFFF"/>
<path d="M26.952,23.296C26.141,23.313 25.344,23.081 24.669,22.631C24.166,22.301 23.577,22.126 22.975,22.126C22.374,22.126 21.785,22.301 21.282,22.631C20.598,23.066 19.805,23.297 18.995,23.297C18.185,23.297 17.392,23.066 16.709,22.631C16.205,22.301 15.617,22.126 15.015,22.126C14.414,22.126 13.825,22.301 13.322,22.631C12.646,23.08 11.849,23.312 11.037,23.296C10.224,23.313 9.427,23.08 8.75,22.63C8.254,22.286 7.66,22.109 7.056,22.125C6.455,22.109 5.864,22.286 5.37,22.629C4.693,23.08 3.895,23.313 3.082,23.296C2.27,23.313 1.472,23.08 0.796,22.63C0.299,22.286 -0.294,22.109 -0.898,22.125L-0.898,20.955C-0.086,20.938 0.712,21.17 1.389,21.621C1.885,21.965 2.478,22.142 3.082,22.125C3.686,22.142 4.28,21.965 4.776,21.62C5.451,21.17 6.248,20.938 7.059,20.955C7.871,20.938 8.669,21.17 9.345,21.621C9.841,21.965 10.435,22.142 11.038,22.125C11.642,22.142 12.236,21.965 12.732,21.621C13.416,21.186 14.209,20.955 15.019,20.955C15.829,20.955 16.622,21.186 17.306,21.621C17.809,21.95 18.398,22.125 18.999,22.125C19.6,22.125 20.189,21.95 20.692,21.621C21.376,21.185 22.169,20.954 22.98,20.954C23.79,20.954 24.583,21.185 25.267,21.621C25.782,21.968 26.394,22.144 27.015,22.125C27.06,22.125 27.105,22.123 27.15,22.118L27.306,23.278C27.189,23.292 27.07,23.298 26.952,23.296L26.952,23.296Z" fill="#FFFFFF"/>
<path d="M34.92,19.198C34.107,19.215 33.309,18.982 32.631,18.532C32.128,18.203 31.539,18.027 30.937,18.027C30.335,18.027 29.746,18.203 29.242,18.532C28.559,18.967 27.765,19.198 26.955,19.198C26.146,19.198 25.352,18.967 24.669,18.532C24.166,18.203 23.578,18.028 22.976,18.028C22.375,18.028 21.787,18.203 21.284,18.532C20.6,18.967 19.807,19.198 18.997,19.198C18.187,19.198 17.394,18.967 16.711,18.532C16.208,18.203 15.619,18.028 15.018,18.028C14.417,18.028 13.829,18.203 13.325,18.532C12.649,18.983 11.851,19.215 11.039,19.198C10.227,19.215 9.429,18.983 8.753,18.532C8.257,18.188 7.664,18.011 7.06,18.028C6.457,18.011 5.864,18.188 5.368,18.532C4.693,18.982 3.896,19.215 3.085,19.198C2.273,19.215 1.474,18.983 0.798,18.532C0.301,18.187 -0.293,18.01 -0.898,18.028L-0.898,16.857C-0.086,16.84 0.712,17.073 1.388,17.523C1.885,17.867 2.478,18.044 3.082,18.028C3.685,18.044 4.278,17.867 4.774,17.523C5.449,17.073 6.246,16.841 7.057,16.857C7.87,16.84 8.669,17.072 9.345,17.523C9.841,17.867 10.435,18.044 11.039,18.028C11.642,18.044 12.236,17.867 12.732,17.523C13.415,17.088 14.208,16.857 15.018,16.857C15.828,16.857 16.621,17.088 17.304,17.523C17.808,17.852 18.396,18.027 18.998,18.027C19.599,18.027 20.187,17.852 20.691,17.523C21.374,17.088 22.167,16.857 22.977,16.857C23.787,16.857 24.58,17.088 25.263,17.523C25.767,17.852 26.355,18.027 26.956,18.027C27.558,18.027 28.146,17.852 28.649,17.523C29.333,17.088 30.127,16.857 30.937,16.857C31.748,16.857 32.542,17.088 33.226,17.523C33.73,17.852 34.319,18.027 34.921,18.027C35.523,18.027 36.112,17.852 36.616,17.523C37.293,17.073 38.092,16.84 38.904,16.857L38.904,18.028C38.299,18.01 37.705,18.187 37.207,18.532C36.53,18.982 35.732,19.214 34.92,19.198L34.92,19.198Z" fill="#FFFFFF"/>
<path d="M26.579,18.702L25.475,18.314C25.759,17.497 25.875,16.631 25.816,15.767C25.757,14.904 25.524,14.061 25.131,13.29L21.11,5.417C21.071,5.339 21.049,5.254 21.047,5.166C21.044,5.079 21.061,4.992 21.097,4.913C21.132,4.833 21.185,4.762 21.252,4.706C21.318,4.649 21.397,4.608 21.481,4.585L29.493,2.449C29.755,2.381 29.978,2.212 30.116,1.98C30.253,1.747 30.293,1.47 30.227,1.208C30.161,0.947 29.995,0.722 29.764,0.582C29.533,0.443 29.256,0.4 28.994,0.463L19.296,2.781C19.088,2.83 18.895,2.926 18.731,3.062C18.567,3.198 18.436,3.369 18.349,3.564C18.262,3.758 18.22,3.97 18.228,4.183C18.236,4.396 18.293,4.604 18.394,4.791L21.274,10.141C21.347,10.277 21.363,10.437 21.319,10.585C21.275,10.733 21.175,10.857 21.04,10.931L17.323,12.98L16.758,11.955L19.967,10.186L17.364,5.346C17.178,5.001 17.074,4.617 17.06,4.225C17.045,3.833 17.122,3.443 17.282,3.084C17.443,2.726 17.684,2.41 17.986,2.16C18.289,1.91 18.645,1.733 19.027,1.642L28.72,-0.675C29.284,-0.818 29.882,-0.73 30.382,-0.432C30.881,-0.134 31.242,0.351 31.385,0.915C31.528,1.479 31.44,2.077 31.142,2.577C30.844,3.077 30.359,3.438 29.795,3.58L22.482,5.529L26.174,12.757C26.639,13.669 26.915,14.666 26.984,15.688C27.054,16.71 26.916,17.735 26.579,18.702L26.579,18.702Z" fill="#FFFFFF"/>
<path d="M15.498,14.979L7.377,14.979L7.377,16.149L15.498,16.149L15.498,14.979Z" transform="rotate(-57.712 11.438 15.564)" fill="#FFFFFF"/>
<path d="M31.88,14.808C31.012,14.808 30.163,14.551 29.441,14.068C28.719,13.586 28.157,12.9 27.824,12.098C27.492,11.296 27.405,10.413 27.575,9.562C27.744,8.71 28.162,7.928 28.776,7.314C29.39,6.7 30.172,6.282 31.024,6.112C31.875,5.943 32.758,6.03 33.56,6.362C34.362,6.695 35.048,7.257 35.53,7.979C36.013,8.701 36.27,9.55 36.27,10.418C36.269,11.582 35.806,12.698 34.983,13.521C34.16,14.344 33.044,14.807 31.88,14.808L31.88,14.808ZM31.88,7.199C31.243,7.199 30.621,7.388 30.092,7.741C29.562,8.095 29.15,8.598 28.906,9.186C28.662,9.774 28.599,10.422 28.723,11.046C28.847,11.671 29.154,12.244 29.604,12.694C30.054,13.145 30.628,13.451 31.252,13.576C31.877,13.7 32.524,13.636 33.112,13.392C33.7,13.149 34.203,12.736 34.557,12.207C34.911,11.677 35.1,11.055 35.1,10.418C35.098,9.565 34.759,8.746 34.155,8.143C33.552,7.539 32.734,7.2 31.88,7.199L31.88,7.199Z" fill="#FFFFFF"/>
</svg>
