<svg width="46" height="36" viewBox="0 0 46 36" fill="none" xmlns="http://www.w3.org/2000/svg" xmlns:xlink="http://www.w3.org/1999/xlink">
<path d="M39.637,35.857C38.736,35.876 37.852,35.618 37.103,35.119C36.545,34.754 35.892,34.56 35.226,34.56C34.559,34.56 33.907,34.754 33.349,35.119C32.592,35.601 31.713,35.857 30.815,35.857C29.918,35.857 29.039,35.601 28.282,35.119C27.724,34.754 27.071,34.56 26.405,34.56C25.738,34.56 25.086,34.754 24.528,35.119C23.771,35.601 22.892,35.857 21.994,35.857C21.096,35.857 20.217,35.601 19.46,35.119C18.902,34.754 18.251,34.56 17.584,34.56C16.918,34.56 16.266,34.754 15.709,35.119C15.022,35.575 14.221,35.829 13.397,35.851L13.352,34.553C13.96,34.539 14.551,34.346 15.052,33.999C15.809,33.517 16.688,33.261 17.585,33.261C18.482,33.261 19.361,33.517 20.118,33.999C20.676,34.364 21.328,34.558 21.995,34.558C22.661,34.558 23.313,34.364 23.871,33.999C24.629,33.517 25.508,33.261 26.406,33.261C27.304,33.261 28.183,33.517 28.941,33.999C29.498,34.364 30.151,34.558 30.817,34.558C31.484,34.558 32.136,34.364 32.694,33.999C33.451,33.518 34.33,33.262 35.228,33.262C36.125,33.262 37.004,33.518 37.762,33.999C38.321,34.365 38.974,34.56 39.643,34.56C40.311,34.56 40.964,34.365 41.524,33.999C42.272,33.502 43.155,33.245 44.054,33.263L44.054,34.56C43.385,34.542 42.727,34.737 42.177,35.118C41.425,35.618 40.539,35.876 39.637,35.857Z" fill="#FFFFFF"/>
<path d="M4.357,35.857C3.457,35.876 2.573,35.618 1.823,35.119C1.273,34.737 0.615,34.541 -0.054,34.56L-0.054,33.262C0.846,33.244 1.731,33.501 2.48,34C3.03,34.382 3.688,34.578 4.357,34.56C5.026,34.578 5.684,34.382 6.234,34C6.982,33.501 7.865,33.243 8.764,33.262C9.641,33.243 10.503,33.488 11.238,33.967L10.584,35.087C10.047,34.726 9.411,34.541 8.764,34.56C8.097,34.542 7.442,34.737 6.894,35.117C6.144,35.618 5.258,35.876 4.357,35.857Z" fill="#FFFFFF"/>
<path d="M39.639,31.316C38.738,31.334 37.853,31.077 37.103,30.578C36.544,30.213 35.891,30.018 35.224,30.018C34.557,30.018 33.905,30.213 33.346,30.578C32.589,31.06 31.71,31.316 30.813,31.316C29.915,31.316 29.036,31.06 28.279,30.578C27.721,30.213 27.069,30.019 26.403,30.019C25.737,30.019 25.085,30.213 24.527,30.578C23.77,31.06 22.891,31.316 21.994,31.316C21.096,31.316 20.217,31.06 19.46,30.578C18.902,30.213 18.25,30.019 17.584,30.019C16.918,30.019 16.266,30.213 15.708,30.578C14.959,31.077 14.075,31.334 13.175,31.316C12.274,31.334 11.39,31.077 10.641,30.578C10.091,30.196 9.434,30 8.765,30.019C8.096,30 7.439,30.196 6.89,30.578C6.142,31.076 5.259,31.334 4.36,31.316C3.46,31.334 2.575,31.077 1.826,30.578C1.275,30.195 0.616,29.999 -0.054,30.019L-0.054,28.721C0.846,28.703 1.73,28.96 2.48,29.459C3.03,29.841 3.688,30.037 4.357,30.019C5.026,30.037 5.683,29.841 6.232,29.459C6.98,28.961 7.863,28.703 8.762,28.721C9.663,28.702 10.548,28.96 11.297,29.459C11.847,29.841 12.505,30.037 13.174,30.019C13.843,30.037 14.501,29.841 15.05,29.459C15.808,28.977 16.687,28.721 17.584,28.721C18.482,28.721 19.361,28.977 20.118,29.459C20.675,29.824 21.327,30.018 21.994,30.018C22.66,30.018 23.312,29.824 23.87,29.459C24.627,28.977 25.506,28.721 26.404,28.721C27.301,28.721 28.18,28.977 28.937,29.459C29.495,29.824 30.147,30.018 30.814,30.018C31.48,30.018 32.132,29.824 32.69,29.459C33.448,28.977 34.327,28.721 35.225,28.721C36.124,28.721 37.003,28.977 37.761,29.459C38.32,29.824 38.973,30.018 39.64,30.018C40.307,30.018 40.96,29.824 41.519,29.459C42.269,28.961 43.153,28.703 44.054,28.721L44.054,30.019C43.384,30 42.724,30.195 42.173,30.578C41.423,31.076 40.539,31.334 39.639,31.316Z" fill="#FFFFFF"/>
<path d="M39.637,26.776C38.737,26.794 37.852,26.537 37.103,26.038C36.552,25.656 35.895,25.461 35.225,25.479C34.734,25.462 34.246,25.567 33.806,25.784L33.233,24.616C33.853,24.313 34.536,24.163 35.225,24.179C36.127,24.161 37.012,24.419 37.762,24.92C38.322,25.285 38.975,25.48 39.643,25.48C40.311,25.48 40.965,25.285 41.524,24.92C42.273,24.422 43.155,24.164 44.054,24.181L44.054,25.479C43.385,25.46 42.727,25.656 42.177,26.037C41.425,26.537 40.539,26.795 39.637,26.776Z" fill="#FFFFFF"/>
<path d="M30.809,26.776C29.91,26.795 29.027,26.537 28.279,26.038C27.721,25.673 27.069,25.479 26.402,25.479C25.735,25.479 25.083,25.673 24.525,26.038C23.768,26.52 22.889,26.776 21.991,26.776C21.094,26.776 20.215,26.52 19.457,26.038C18.9,25.673 18.247,25.479 17.581,25.479C16.914,25.479 16.262,25.673 15.704,26.038C14.955,26.537 14.072,26.794 13.172,26.776C12.272,26.794 11.388,26.537 10.638,26.038C10.088,25.656 9.43,25.46 8.761,25.478C8.095,25.46 7.44,25.656 6.892,26.036C6.142,26.536 5.258,26.794 4.357,26.776C3.457,26.794 2.573,26.537 1.823,26.038C1.273,25.656 0.615,25.46 -0.054,25.478L-0.054,24.181C0.846,24.162 1.731,24.42 2.48,24.919C3.03,25.301 3.688,25.497 4.357,25.478C5.026,25.497 5.684,25.301 6.234,24.919C6.982,24.42 7.865,24.162 8.764,24.181C9.664,24.163 10.548,24.42 11.297,24.919C11.847,25.301 12.505,25.497 13.174,25.478C13.843,25.497 14.501,25.301 15.051,24.919C15.808,24.437 16.687,24.181 17.585,24.181C18.483,24.181 19.362,24.437 20.119,24.919C20.677,25.284 21.329,25.478 21.996,25.478C22.662,25.478 23.314,25.284 23.872,24.919C24.629,24.437 25.509,24.181 26.407,24.181C27.305,24.181 28.184,24.437 28.941,24.919C29.513,25.304 30.19,25.499 30.879,25.478C30.929,25.478 30.979,25.476 31.029,25.47L31.201,26.756C31.071,26.771 30.94,26.778 30.809,26.776Z" fill="#FFFFFF"/>
<path d="M39.639,22.235C38.738,22.253 37.853,21.996 37.103,21.497C36.544,21.132 35.891,20.937 35.224,20.937C34.557,20.937 33.905,21.132 33.346,21.497C32.589,21.979 31.71,22.235 30.813,22.235C29.915,22.235 29.036,21.979 28.279,21.497C27.721,21.132 27.069,20.938 26.403,20.938C25.737,20.938 25.085,21.132 24.527,21.497C23.77,21.979 22.891,22.235 21.994,22.235C21.096,22.235 20.217,21.979 19.46,21.497C18.902,21.132 18.25,20.938 17.584,20.938C16.918,20.938 16.266,21.132 15.708,21.497C14.959,21.996 14.075,22.253 13.175,22.235C12.274,22.253 11.39,21.996 10.641,21.497C10.091,21.115 9.434,20.919 8.765,20.937C8.096,20.919 7.439,21.115 6.89,21.497C6.142,21.995 5.259,22.253 4.36,22.235C3.46,22.253 2.575,21.996 1.826,21.497C1.275,21.114 0.616,20.918 -0.054,20.937L-0.054,19.64C0.846,19.622 1.73,19.879 2.48,20.378C3.03,20.76 3.688,20.956 4.357,20.937C5.026,20.956 5.683,20.76 6.232,20.378C6.98,19.88 7.863,19.622 8.762,19.64C9.663,19.621 10.548,19.879 11.297,20.378C11.847,20.76 12.505,20.956 13.174,20.937C13.843,20.956 14.501,20.76 15.05,20.378C15.808,19.896 16.687,19.64 17.584,19.64C18.482,19.64 19.361,19.896 20.118,20.378C20.675,20.743 21.327,20.937 21.994,20.937C22.66,20.937 23.312,20.743 23.87,20.378C24.627,19.896 25.506,19.64 26.404,19.64C27.301,19.64 28.18,19.896 28.937,20.378C29.495,20.743 30.147,20.937 30.814,20.937C31.48,20.937 32.132,20.743 32.69,20.378C33.448,19.896 34.327,19.64 35.225,19.64C36.124,19.64 37.003,19.896 37.761,20.378C38.32,20.743 38.973,20.937 39.64,20.937C40.307,20.937 40.96,20.743 41.519,20.378C42.269,19.879 43.153,19.622 44.054,19.64L44.054,20.937C43.384,20.918 42.724,21.114 42.173,21.497C41.423,21.995 40.539,22.253 39.639,22.235Z" fill="#FFFFFF"/>
<path d="M30.396,21.685L29.172,21.255C29.487,20.349 29.616,19.389 29.55,18.433C29.485,17.476 29.227,16.542 28.791,15.688L24.335,6.963C24.291,6.877 24.267,6.782 24.265,6.685C24.262,6.588 24.281,6.492 24.321,6.404C24.36,6.316 24.419,6.237 24.492,6.174C24.566,6.112 24.652,6.066 24.746,6.041L33.625,3.674C33.915,3.598 34.162,3.411 34.315,3.154C34.467,2.896 34.511,2.589 34.438,2.299C34.365,2.009 34.181,1.76 33.925,1.605C33.669,1.45 33.362,1.403 33.071,1.473L22.325,4.042C22.095,4.096 21.881,4.203 21.699,4.353C21.517,4.504 21.372,4.694 21.275,4.909C21.178,5.125 21.133,5.359 21.141,5.595C21.15,5.831 21.213,6.062 21.325,6.27L24.516,12.198C24.597,12.349 24.615,12.525 24.567,12.689C24.518,12.853 24.407,12.992 24.257,13.074L20.138,15.344L19.512,14.208L23.068,12.247L20.184,6.884C19.978,6.502 19.862,6.076 19.846,5.642C19.831,5.207 19.915,4.775 20.093,4.378C20.271,3.981 20.538,3.631 20.873,3.354C21.209,3.076 21.603,2.88 22.026,2.78L32.768,0.212C33.393,0.054 34.056,0.151 34.609,0.481C35.163,0.812 35.563,1.349 35.721,1.974C35.879,2.599 35.783,3.262 35.452,3.816C35.122,4.37 34.585,4.769 33.959,4.927L25.855,7.087L29.947,15.097C30.462,16.108 30.767,17.213 30.845,18.345C30.922,19.477 30.769,20.613 30.396,21.685Z" fill="#FFFFFF"/>
<path d="M18.116,17.559L9.116,17.559L9.116,18.855L18.116,18.855L18.116,17.559Z" transform="rotate(-57.712 13.616 18.207)" fill="#FFFFFF"/>
<path d="M36.27,17.37C35.308,17.37 34.368,17.085 33.568,16.55C32.768,16.015 32.144,15.256 31.776,14.367C31.408,13.478 31.311,12.5 31.499,11.556C31.687,10.612 32.15,9.745 32.83,9.065C33.511,8.385 34.378,7.921 35.321,7.734C36.265,7.546 37.243,7.642 38.132,8.01C39.021,8.379 39.781,9.002 40.315,9.802C40.85,10.602 41.135,11.543 41.135,12.505C41.134,13.795 40.621,15.031 39.709,15.943C38.797,16.855 37.56,17.368 36.27,17.37ZM36.27,8.937C35.565,8.937 34.875,9.147 34.288,9.539C33.702,9.931 33.244,10.488 32.974,11.14C32.704,11.792 32.634,12.509 32.771,13.201C32.909,13.893 33.249,14.529 33.748,15.028C34.247,15.527 34.882,15.866 35.574,16.004C36.266,16.142 36.984,16.071 37.636,15.801C38.288,15.531 38.845,15.074 39.237,14.487C39.629,13.9 39.838,13.211 39.838,12.505C39.837,11.559 39.46,10.652 38.792,9.984C38.123,9.315 37.216,8.939 36.27,8.937Z" fill="#FFFFFF"/>
</svg>
